<?xml version="1.0" encoding="utf-8"?>
<!-- Generator: Adobe Illustrator 24.0.1, SVG Export Plug-In . SVG Version: 6.00 Build 0)  -->
<svg version="1.1" id="レイヤー_1" xmlns="http://www.w3.org/2000/svg" xmlns:xlink="http://www.w3.org/1999/xlink" x="0px"
	 y="0px" viewBox="0 0 200 22" style="enable-background:new 0 0 200 22;" xml:space="preserve">
<style type="text/css">
	.st0{fill:#95A0AC;}
</style>
<g>
	<g>
		<path class="st0" d="M0,21.1h4.7l1.9-4.7h8.9l1.9,4.7h4.8L13.3,0H9L0,21.1z M8.3,12.4l2.8-6.8l2.8,6.8H8.3z M28.5,21.1h4.6V13h10
			V8.8h-10V4.4h11.4V0.1h-16V21.1z M56.1,21.1h4.6V4.4h6.4V0.1H49.7v4.3h6.4V21.1z M73.6,21.1h16V17H78.2v-4.4h9.9V8.5h-9.9V4.3
			h11.2V0.1H73.6V21.1z M96.7,21.1h4.6v-6.7h3.6h0.1l4.5,6.7h5.4l-5.1-7.5c2.7-1,4.5-3.1,4.5-6.5V7.1c0-2-0.6-3.6-1.8-4.8
			c-1.4-1.4-3.4-2.1-6.1-2.1h-9.6V21.1z M101.4,10.4v-6h4.6c2.2,0,3.6,1,3.6,3v0.1c0,1.8-1.3,3-3.5,3H101.4z"/>
	</g>
	<path class="st0" d="M122.8,13.1c0,3.4,1.4,6,3.2,7.7l1.5-0.7c-1.6-1.7-2.9-3.9-2.9-7s1.3-5.3,2.9-7l-1.5-0.7
		C124.2,7.2,122.8,9.7,122.8,13.1z M134.8,19.4c2.5,0,4-1.6,4-3.7v0c0-2.1-1.5-2.9-3-3.1l2.8-2.7V8H131v2.1h4.4l-2.7,2.7l0.4,1.6h1
		c1.4,0,2.2,0.5,2.2,1.4v0c0,0.8-0.7,1.4-1.6,1.4c-1.1,0-1.9-0.5-2.7-1.3l-1.7,1.6C131.4,18.6,132.7,19.4,134.8,19.4z M148.7,9.7
		l-2.2-0.5c0,0.3-0.1,0.8-0.2,1.2c-0.2,0.6-0.4,1.4-0.9,2c-0.6,0.9-1.4,1.9-2.4,2.7l1.9,1.1c0.7-0.6,1.6-1.8,2.2-2.8h2.8
		c-0.3,2.6-1.3,4.1-2.6,5.2c-0.4,0.3-1,0.7-1.4,0.8l2,1.3c2.6-1.6,3.8-4,4.1-7.3h2c0.3,0,0.9,0,1.4,0v-2c-0.4,0.1-1.1,0.1-1.4,0.1
		h-5.8c0.2-0.4,0.3-0.7,0.4-1C148.4,10.3,148.5,10,148.7,9.7z M163.8,14c0.1-0.7,0.1-1.3,0.1-2h6.4v2H163.8z M170.3,8.3v2h-6.4v-2
		H170.3z M172.3,6.4h-10.4v5.3c0,2.4-0.2,5.5-2.6,7.6c0.4,0.3,1.2,1,1.5,1.4c1.5-1.2,2.3-3,2.7-4.8h6.8v2.3c0,0.3-0.1,0.5-0.5,0.5
		c-0.4,0-1.7,0-2.8,0c0.3,0.5,0.7,1.4,0.8,2c1.6,0,2.8,0,3.5-0.4c0.7-0.3,1-0.9,1-2V6.4z M180.1,5.7c-0.7,1-2,2.4-3.1,3.2
		c0.3,0.3,0.8,1,1,1.4c1.3-1,2.8-2.5,3.8-3.9L180.1,5.7z M180.4,9.1c-0.8,1.6-2.2,3.1-3.6,4.1c0.3,0.4,0.8,1.4,1,1.8
		c0.4-0.4,0.8-0.7,1.2-1.2v6.8h1.8v-9c0.4-0.6,0.9-1.3,1.2-1.9L180.4,9.1z M185.1,15.4h3.1c-0.4,0.6-0.9,1.1-1.5,1.6
		C186,16.5,185.5,16,185.1,15.4L185.1,15.4z M189.5,13.9l-0.3,0.1h-2.9c0.2-0.3,0.4-0.6,0.6-0.9c1,0,2.1-0.1,3.2-0.1
		c0.2,0.4,0.4,0.8,0.5,1.1l1.6-0.9c-0.4-1-1.5-2.5-2.4-3.5l-1.5,0.8c0.3,0.3,0.5,0.7,0.8,1l-2.9,0c1.3-1.1,2.8-2.5,3.9-3.7l-1.7-0.9
		c-0.7,0.9-1.6,1.9-2.6,2.8c-0.3-0.3-0.6-0.5-0.9-0.8c0.7-0.7,1.5-1.5,2.1-2.4l-1.6-0.8c-0.4,0.7-1.1,1.6-1.7,2.3
		c-0.3-0.2-0.6-0.4-0.9-0.6l-1.1,1.2c1,0.6,2.1,1.5,2.8,2.3c-0.2,0.2-0.5,0.4-0.7,0.6c-0.9,0-1.7,0-2.5,0l0.2,1.7l3.2-0.1
		c-0.9,1.2-2.2,2.3-3.6,3c0.4,0.3,1,1,1.2,1.4c0.5-0.3,1-0.6,1.4-1c0.4,0.5,0.8,1,1.3,1.4c-1.2,0.6-2.5,1-3.9,1.2
		c0.3,0.4,0.7,1.1,0.9,1.6c1.6-0.4,3.2-0.9,4.5-1.7c1.2,0.8,2.7,1.3,4.4,1.7c0.2-0.5,0.7-1.2,1.1-1.6c-1.5-0.2-2.8-0.6-4-1.2
		c1-0.9,1.9-2,2.4-3.5L189.5,13.9z M199.5,13.1c0-3.4-1.4-6-3.2-7.7l-1.5,0.7c1.6,1.7,2.9,3.9,2.9,7s-1.3,5.3-2.9,7l1.5,0.7
		C198.1,19.1,199.5,16.6,199.5,13.1z"/>
</g>
</svg>
