<?xml version="1.0" encoding="utf-8"?>
<!-- Generator: Adobe Illustrator 24.0.1, SVG Export Plug-In . SVG Version: 6.00 Build 0)  -->
<svg version="1.1" id="レイヤー_1" xmlns="http://www.w3.org/2000/svg" xmlns:xlink="http://www.w3.org/1999/xlink" x="0px"
	 y="0px" viewBox="0 0 360 127" style="enable-background:new 0 0 360 127;" xml:space="preserve">
<style type="text/css">
	.st0{opacity:0.5;fill:#FFFFFF;enable-background:new    ;}
</style>
<path class="st0" d="M4.9,50h23.3c11.1,0,18.3-4.5,18.3-13.4v-0.1c0-6.6-3.5-9.9-9.2-12c3.5-2,6.4-5,6.4-10.6v-0.1
	c0-3.4-1.1-6.1-3.4-8.3C37.6,2.5,33.2,1,27.6,1H4.9V50z M15.4,20.8V10.4H26c4.5,0,7.1,1.8,7.1,5v0.1c0,3.6-3,5.2-7.8,5.2H15.4z
	 M15.4,40.5V29.8h12.5c5.5,0,8,2,8,5.3v0.1c0,3.6-2.9,5.3-7.6,5.3H15.4z M62.4,50h37.3v-9.6H73.1V30.1h23.1v-9.6H73.1v-9.9h26.2V1
	h-37V50z M116.3,50h10.8V31h23.4v-9.8h-23.4V10.8h26.5V1h-37.3V50z M193,50.8c15.1,0,26.1-11.4,26.1-25.3v-0.1
	c0-13.9-10.9-25.2-26-25.2s-26.1,11.4-26.1,25.3v0.1C167.1,39.6,177.9,50.8,193,50.8z M193.2,40.9c-8.7,0-14.8-7-14.8-15.4v-0.1
	c0-8.4,6-15.3,14.7-15.3c8.7,0,14.8,7,14.8,15.4v0.1C207.9,34,201.9,40.9,193.2,40.9z M235.7,50h10.8V34.3h8.3h0.1L265.5,50h12.6
	l-12-17.5c6.2-2.3,10.5-7.3,10.5-15.2v-0.1c0-4.6-1.5-8.5-4.2-11.2c-3.2-3.2-8-5-14.3-5h-22.4V50z M246.5,24.8V10.7h10.7
	c5.2,0,8.5,2.4,8.5,7v0.1c0,4.1-3,6.9-8.3,6.9H246.5z M293.3,50h37.3v-9.6H304V30.1h23.1v-9.6H304v-9.9h26.2V1h-37V50z M0.7,127h11
	l4.5-11h20.7l4.5,11h11.3l-21-49.3h-9.9L0.7,127z M20,106.5l6.5-15.9l6.5,15.9H20z M67.2,127H78v-19h23.4v-9.8H78V87.8h26.5V78H67.2
	V127z M131.5,127h10.8V87.9h14.9V78h-40.6v9.9h14.9V127z M172.5,127h37.3v-9.6h-26.6v-10.3h23.1v-9.6h-23.1v-9.9h26.2V78h-37V127z
	 M226.4,127h10.8v-15.7h8.3h0.1l10.5,15.7h12.6l-12-17.5c6.2-2.3,10.5-7.3,10.5-15.2v-0.1c0-4.6-1.5-8.5-4.2-11.2
	c-3.2-3.2-8-5-14.3-5h-22.4V127z M237.2,101.8V87.7h10.7c5.2,0,8.5,2.4,8.5,7v0.1c0,4.1-3,6.9-8.3,6.9H237.2z"/>
<path class="st0" d="M304.7,86l-1.3,0.5c0.4,0.6,0.9,1.6,1.2,2.2l1.3-0.5C305.7,87.6,305.1,86.6,304.7,86z M306.6,85.3l-1.3,0.5
	c0.4,0.6,1,1.5,1.3,2.2l1.3-0.5C307.7,86.9,307.1,85.9,306.6,85.3z M297.9,86.7h-2.4c0.1,0.5,0.1,1.3,0.1,1.7v8.7
	c0,1.4,0.8,2.1,2.2,2.4c0.7,0.1,1.6,0.2,2.7,0.2c1.8,0,4.2-0.1,5.7-0.3V97c-1.3,0.4-3.9,0.6-5.6,0.6c-0.7,0-1.4,0-1.9-0.1
	c-0.7-0.1-1-0.3-1-1v-3c2.1-0.5,4.7-1.3,6.3-2c0.5-0.2,1.2-0.5,1.9-0.8l-0.9-2c-0.6,0.4-1.2,0.6-1.7,0.9c-1.4,0.6-3.6,1.3-5.5,1.8
	v-3C297.7,87.9,297.8,87.2,297.9,86.7z M324.8,88.3l-1.6-1c-0.4,0.1-0.9,0.1-1.3,0.1h-7.4c-0.5,0-1.4-0.1-1.9-0.1v2.3
	c0.4,0,1.2-0.1,1.9-0.1h7.5c-0.2,1.4-0.8,3.2-1.9,4.5c-1.3,1.6-3.1,3-6.3,3.8l1.7,1.9c2.8-0.9,5-2.5,6.4-4.4c1.3-1.8,2-4.3,2.4-5.8
	C324.5,89.1,324.6,88.6,324.8,88.3z M338.9,89h-2.1c0.1,0.4,0.1,0.9,0.1,1.3c0,0.3,0,0.6,0,1h-4.4c-0.4,0-1.1,0-1.5-0.1v2
	c0.5,0,1-0.1,1.5-0.1h3.4c-1.1,1.5-3.3,3.3-5.6,4.3l1.4,1.6c1.9-1,4-2.8,5.2-4.2c0,1.2,0,2.4,0,3.2c0,0.3-0.1,0.5-0.4,0.5
	c-0.4,0-1.2,0-1.8-0.1l0.1,1.8c0.7,0,1.7,0.1,2.5,0.1c0.9,0,1.6-0.6,1.6-1.4c0-1.6-0.1-3.8-0.1-5.7h1.9c0.4,0,0.8,0,1.2,0v-1.9
	c-0.3,0-0.9,0.1-1.3,0.1h-1.9c0-0.4,0-0.7,0-1C338.8,89.9,338.9,89.4,338.9,89z M347.2,91.5V94c0.6,0,1.7-0.1,2.6-0.1h8.6
	c0.7,0,1.5,0.1,1.9,0.1v-2.5c-0.4,0-1.1,0.1-1.9,0.1h-8.6C349,91.6,347.8,91.6,347.2,91.5z M308.2,115.1l-1.3-1.2
	c-0.3,0.1-1.2,0.1-1.6,0.1h-8.6c-0.7,0-1.3-0.1-2-0.2v2.2c0.8-0.1,1.3-0.1,2-0.1h8.3c-0.4,0.8-1.7,2.2-2.9,3l1.7,1.3
	c1.6-1.1,3.1-3.1,3.8-4.4C307.7,115.7,308,115.3,308.2,115.1z M301.7,117.3h-2.3c0.1,0.5,0.1,0.9,0.1,1.4c0,2.6-0.4,4.3-2.4,5.7
	c-0.6,0.4-1.2,0.7-1.7,0.9l1.9,1.5C301.6,124.5,301.7,121.2,301.7,117.3z M324.8,115.3l-1.6-1c-0.4,0.1-0.9,0.1-1.3,0.1h-7.4
	c-0.5,0-1.4-0.1-1.9-0.1v2.3c0.4,0,1.2-0.1,1.9-0.1h7.5c-0.2,1.4-0.8,3.2-1.9,4.5c-1.3,1.6-3.1,3-6.3,3.8l1.7,1.9
	c2.8-0.9,5-2.5,6.4-4.4c1.3-1.8,2-4.3,2.4-5.8C324.5,116.1,324.6,115.6,324.8,115.3z M337.2,113.3l-2.3-0.7
	c-0.1,0.5-0.5,1.3-0.7,1.7c-0.8,1.4-2.3,3.6-5.1,5.3l1.7,1.3c1.6-1.1,3.1-2.7,4.2-4.1h4.6c-0.2,1-0.9,2.4-1.8,3.5
	c-1-0.7-2-1.3-2.9-1.8l-1.4,1.5c0.8,0.5,1.9,1.2,2.9,2c-1.3,1.3-3.1,2.6-5.9,3.5l1.9,1.6c2.5-0.9,4.3-2.3,5.7-3.8
	c0.7,0.5,1.2,1,1.7,1.4l1.5-1.8c-0.5-0.4-1.1-0.8-1.8-1.3c1.1-1.6,1.9-3.3,2.4-4.6c0.1-0.4,0.4-0.8,0.5-1.1l-1.6-1
	c-0.4,0.1-0.9,0.2-1.4,0.2h-3.2C336.4,114.6,336.8,113.8,337.2,113.3z M347.2,118.5v2.5c0.6,0,1.7-0.1,2.6-0.1h8.6
	c0.7,0,1.5,0.1,1.9,0.1v-2.5c-0.4,0-1.1,0.1-1.9,0.1h-8.6C349,118.6,347.8,118.6,347.2,118.5z"/>
</svg>
