<?xml version="1.0" encoding="utf-8"?>
<!-- Generator: Adobe Illustrator 24.0.1, SVG Export Plug-In . SVG Version: 6.00 Build 0)  -->
<svg version="1.1" id="レイヤー_1" xmlns="http://www.w3.org/2000/svg" xmlns:xlink="http://www.w3.org/1999/xlink" x="0px"
	 y="0px" viewBox="0 0 440 145" style="enable-background:new 0 0 440 145;" xml:space="preserve">
<style type="text/css">
	.st0{opacity:0.5;fill:#FFFFFF;enable-background:new    ;}
</style>
<g>
	<path class="st0" d="M64.3,57H91c12.6,0,21-5.1,21-15.4v-0.2c0-7.5-4-11.3-10.5-13.8c4-2.2,7.4-5.8,7.4-12.1v-0.2
		c0-3.8-1.3-7-3.8-9.5c-3.2-3.2-8.2-5-14.6-5h-26V57z M76.3,23.6V11.8h12.2c5.2,0,8.1,2.1,8.1,5.8v0.2c0,4.2-3.4,5.9-8.9,5.9H76.3z
		 M76.3,46.2V33.9h14.2c6.3,0,9.1,2.3,9.1,6.1v0.2c0,4.2-3.3,6.1-8.7,6.1H76.3z M130.1,57h42.6V46h-30.4V34.3h26.4v-11h-26.4V12h30
		V1h-42.2V57z M191.7,57H204V35.3h26.7V24.1H204V12.2h30.3V1h-42.6V57z M279.4,58c17.3,0,29.8-13,29.8-29v-0.2
		c0-15.9-12.4-28.8-29.7-28.8s-29.8,13-29.8,29v0.2C249.7,45.1,262.1,58,279.4,58z M279.5,46.6c-9.9,0-17-8-17-17.6v-0.2
		c0-9.6,6.9-17.4,16.8-17.4c9.9,0,17,8,17,17.6v0.2C296.3,38.8,289.4,46.6,279.5,46.6z M328.1,57h12.3V39.1h9.5h0.2l12,17.9h14.4
		l-13.7-20c7.1-2.6,12-8.3,12-17.4v-0.2c0-5.3-1.7-9.7-4.8-12.8C366.4,3,360.8,1,353.7,1h-25.6V57z M340.4,28.2V12.1h12.2
		c6,0,9.7,2.7,9.7,8v0.2c0,4.7-3.4,7.9-9.4,7.9H340.4z M393.9,57h42.6V46h-30.4V34.3h26.4v-11h-26.4V12h30V1h-42.2V57z M131.7,145
		h12.6l5.1-12.6h23.7l5.1,12.6h12.9l-24-56.4h-11.4L131.7,145z M153.8,121.6l7.4-18.2l7.4,18.2H153.8z M207.7,145h12.3v-21.7h26.7
		v-11.2h-26.7v-11.9h30.3V89h-42.6V145z M281.3,145h12.3v-44.6h17V89h-46.4v11.4h17V145z M328.1,145h42.6v-11h-30.4v-11.8h26.4v-11
		h-26.4V100h30V89h-42.2V145z M389.7,145H402v-17.9h9.5h0.2l12,17.9h14.4l-13.7-20c7.1-2.6,12-8.3,12-17.4v-0.2
		c0-5.3-1.7-9.7-4.8-12.8C428,91,422.4,89,415.3,89h-25.6V145z M402,116.2v-16.1h12.2c6,0,9.7,2.7,9.7,8v0.2c0,4.7-3.4,7.9-9.4,7.9
		H402z"/>
	<path class="st0" d="M15,90l-1.9,0.8c0.6,0.9,1.4,2.4,1.9,3.3l1.9-0.8C16.5,92.4,15.6,90.9,15,90z M17.8,88.9l-1.9,0.8
		c0.7,0.9,1.4,2.3,1.9,3.3l1.9-0.8C19.4,91.3,18.5,89.8,17.8,88.9z M4.7,91H1.1c0.1,0.7,0.2,2,0.2,2.5v13.1c0,2.1,1.2,3.2,3.3,3.6
		c1,0.2,2.5,0.3,4,0.3c2.6,0,6.3-0.2,8.5-0.5v-3.5c-2,0.5-5.9,0.8-8.4,0.8c-1.1,0-2.1,0-2.8-0.1c-1.1-0.2-1.6-0.5-1.6-1.5v-4.4
		c3.1-0.8,7-2,9.4-2.9c0.8-0.3,1.9-0.7,2.8-1.1l-1.3-3c-0.9,0.6-1.8,1-2.6,1.3c-2.1,0.9-5.5,2-8.3,2.7v-4.5
		C4.5,92.8,4.5,91.7,4.7,91z M45,93.4l-2.4-1.5c-0.6,0.2-1.4,0.2-1.9,0.2H29.7c-0.8,0-2.2-0.1-2.9-0.2v3.4c0.6,0,1.8-0.1,2.9-0.1
		h11.2c-0.3,2-1.2,4.8-2.8,6.8c-1.9,2.4-4.7,4.5-9.4,5.6l2.6,2.9c4.3-1.4,7.5-3.7,9.6-6.6c2-2.7,3-6.4,3.6-8.7
		C44.6,94.6,44.8,93.9,45,93.4z M66.2,94.5h-3.1c0.1,0.6,0.2,1.4,0.2,2c0,0.5,0,0.9,0,1.5h-6.5c-0.6,0-1.6-0.1-2.2-0.1v3
		c0.7,0,1.6-0.1,2.3-0.1h5.1c-1.7,2.2-5,4.9-8.4,6.5l2.1,2.4c2.8-1.5,6.1-4.2,7.8-6.3c0,1.8,0,3.6,0,4.8c0,0.5-0.2,0.7-0.6,0.7
		c-0.6,0-1.8-0.1-2.8-0.2l0.2,2.7c1.1,0.1,2.6,0.1,3.7,0.1c1.4,0,2.4-0.9,2.3-2.1c0-2.4-0.1-5.7-0.2-8.6h2.9c0.5,0,1.3,0,1.8,0v-2.9
		c-0.4,0-1.3,0.1-2,0.1h-2.8c0-0.5,0-1,0-1.5C66.1,95.8,66.2,95.1,66.2,94.5z M78.7,98.3v3.8c0.9-0.1,2.5-0.1,3.9-0.1h12.9
		c1,0,2.2,0.1,2.8,0.1v-3.8c-0.6,0-1.7,0.1-2.8,0.1H82.6C81.3,98.4,79.6,98.4,78.7,98.3z M20.2,127.2l-1.9-1.8
		c-0.5,0.1-1.8,0.2-2.4,0.2H2.9c-1,0-2-0.1-2.9-0.2v3.3c1.1-0.1,1.9-0.2,2.9-0.2h12.5c-0.6,1.2-2.5,3.3-4.4,4.5l2.5,2
		c2.4-1.7,4.6-4.7,5.8-6.6C19.5,128.1,19.9,127.5,20.2,127.2z M10.4,130.4H6.9c0.1,0.8,0.2,1.4,0.2,2.2c0,3.9-0.6,6.5-3.6,8.6
		c-0.9,0.6-1.8,1.1-2.5,1.3l2.8,2.3C10.3,141.3,10.4,136.4,10.4,130.4z M45,127.4l-2.4-1.5c-0.6,0.2-1.4,0.2-1.9,0.2H29.7
		c-0.8,0-2.2-0.1-2.9-0.2v3.4c0.6,0,1.8-0.1,2.9-0.1h11.2c-0.3,2-1.2,4.8-2.8,6.8c-1.9,2.4-4.7,4.5-9.4,5.6l2.6,2.9
		c4.3-1.4,7.5-3.7,9.6-6.6c2-2.7,3-6.4,3.6-8.7C44.6,128.6,44.8,127.9,45,127.4z M63.7,124.4l-3.5-1.1c-0.2,0.8-0.7,1.9-1.1,2.5
		c-1.2,2.1-3.4,5.4-7.6,8l2.6,2c2.4-1.7,4.7-4,6.3-6.2h6.9c-0.4,1.5-1.4,3.6-2.6,5.3c-1.5-1-3-2-4.3-2.7l-2.1,2.2
		c1.2,0.8,2.8,1.8,4.4,3c-2,2-4.7,3.9-8.8,5.2l2.8,2.4c3.7-1.4,6.5-3.5,8.6-5.7c1,0.8,1.9,1.5,2.5,2.1l2.3-2.7
		c-0.7-0.6-1.6-1.3-2.7-2c1.7-2.4,2.9-5,3.6-6.9c0.2-0.6,0.5-1.2,0.8-1.7l-2.4-1.5c-0.5,0.2-1.3,0.3-2.1,0.3h-4.9
		C62.5,126.3,63.1,125.2,63.7,124.4z M78.7,132.3v3.8c0.9-0.1,2.5-0.1,3.9-0.1h12.9c1,0,2.2,0.1,2.8,0.1v-3.8
		c-0.6,0-1.7,0.1-2.8,0.1H82.6C81.3,132.4,79.6,132.4,78.7,132.3z"/>
</g>
</svg>
