<?xml version="1.0" encoding="utf-8"?>
<!-- Generator: Adobe Illustrator 24.0.1, SVG Export Plug-In . SVG Version: 6.00 Build 0)  -->
<svg version="1.1" id="レイヤー_1" xmlns="http://www.w3.org/2000/svg" xmlns:xlink="http://www.w3.org/1999/xlink" x="0px"
	 y="0px" viewBox="0 0 140 22" style="enable-background:new 0 0 140 22;" xml:space="preserve">
<style type="text/css">
	.st0{fill:#95A0AC;}
</style>
<g>
	<path class="st0" d="M0,21.5h10c4.7,0,7.9-1.9,7.9-5.8v-0.1c0-2.8-1.5-4.2-3.9-5.2c1.5-0.8,2.8-2.2,2.8-4.5V5.9
		c0-1.4-0.5-2.6-1.4-3.6C14,1.2,12.2,0.5,9.8,0.5H0V21.5z M4.5,9V4.5h4.6c1.9,0,3,0.8,3,2.2v0.1c0,1.6-1.3,2.2-3.3,2.2H4.5z
		 M4.5,17.5v-4.6h5.3c2.4,0,3.4,0.9,3.4,2.3v0.1c0,1.6-1.2,2.3-3.3,2.3H4.5z M24.7,21.5h16v-4.1H29.2V13h9.9V8.9h-9.9V4.6h11.2V0.5
		H24.7V21.5z M47.7,21.5h4.6v-8.1h10V9.2h-10V4.7h11.4V0.5h-16V21.5z M80.6,21.9c6.5,0,11.2-4.9,11.2-10.9v-0.1
		c0-6-4.7-10.8-11.1-10.8S69.5,5,69.5,11v0.1C69.5,17,74.2,21.9,80.6,21.9z M80.7,17.6c-3.7,0-6.4-3-6.4-6.6v-0.1
		c0-3.6,2.6-6.5,6.3-6.5S87,7.4,87,11v0.1C87,14.7,84.4,17.6,80.7,17.6z M98.9,21.5h4.6v-6.7h3.6h0.1l4.5,6.7h5.4l-5.1-7.5
		c2.7-1,4.5-3.1,4.5-6.5V7.4c0-2-0.6-3.6-1.8-4.8c-1.4-1.4-3.4-2.1-6.1-2.1h-9.6V21.5z M103.5,10.7v-6h4.6c2.2,0,3.6,1,3.6,3v0.1
		c0,1.8-1.3,3-3.5,3H103.5z M123.6,21.5h16v-4.1h-11.4V13h9.9V8.9h-9.9V4.6h11.2V0.5h-15.8V21.5z"/>
</g>
</svg>
