<?xml version="1.0" encoding="utf-8"?>
<!-- Generator: Adobe Illustrator 24.0.1, SVG Export Plug-In . SVG Version: 6.00 Build 0)  -->
<svg version="1.1" id="レイヤー_1" xmlns="http://www.w3.org/2000/svg" xmlns:xlink="http://www.w3.org/1999/xlink" x="0px"
	 y="0px" viewBox="0 0 492 380" style="enable-background:new 0 0 492 380;" xml:space="preserve">
<style type="text/css">
	.st0{fill:#7C848D;fill-opacity:0.4;}
	.st1{fill:none;stroke:#FFFFFF;stroke-width:2;stroke-linecap:round;}
	.st2{fill:#65C3CA;}
	.st3{fill:#FFFFFF;}
	.st4{fill:#FFFFFF;fill-opacity:0.8;}
	.st5{fill:#FE5FA9;}
	.st6{fill:none;stroke:#D468A7;stroke-width:2;stroke-linecap:round;stroke-linejoin:round;}
	.st7{fill:none;stroke:#FFFFFF;stroke-dasharray:3.3,3.3;}
	.st8{opacity:0.5;fill:#FFFFFF;enable-background:new    ;}
</style>
<path class="st0" d="M1,43c0-11,9-20,20-20h450c11,0,20,9,20,20v250c0,11-9,20-20,20H21c-11,0-20-9-20-20V43z"/>
<path class="st1" d="M40,23H21C10,23,1,32,1,43v250c0,11,9,20,20,20h133.8 M455,23h16c11,0,20,9,20,20v250c0,11-9,20-20,20H336.7"/>
<rect x="169" y="336" class="st2" width="154" height="37"/>
<g>
	<path class="st3" d="M180.2,308.2c-0.1-0.5-0.3-1-0.6-1.6h2.6c-0.2,0.5-0.4,1-0.6,1.6H180.2z M171.9,311.5c0.3-0.3,0.5-0.7,0.8-1
		c0.2,0.3,0.3,0.6,0.5,1C172.7,311.5,172.2,311.5,171.9,311.5z M173.2,315v-1.3l0.5-0.1c0.1,0.2,0.1,0.4,0.1,0.6l2.1-0.8v4.9
		c-0.1-1.1-0.3-2.5-0.6-3.8L173.2,315z M168.4,314.7c0,1.8-0.3,3.6-0.8,5l2.2,0.8c0.3-1.1,0.6-2.3,0.7-3.6v5h2.7v-6.3
		c0.3,1.2,0.4,2.6,0.5,3.6c0.7-0.2,1.5-0.4,2.2-0.5v1.3h2.7v-5.2h0.8v7.2h2.9v-7.2h0.8v2.6c0,0.1,0,0.2-0.2,0.2h-0.6l0.4,2.4
		c0.6,0,1.5,0,1.9-0.1c0.8-0.2,1.1-0.8,1.1-1.9v-5.7h-1.6H183h-0.8v-1.4h-2.9v1.4h-3.5v0.9c-0.1-0.4-0.2-0.8-0.4-1.3h2.5v-1.4h5.7
		v1.4h2.7v-3.6h-2.1c0.3-0.5,0.6-1,0.8-1.4l-0.4-0.1h1.6v-2.3h-3.9V303h-3v1.4h-3.7v2.3h1.9l-0.6,0.2c0.2,0.4,0.4,0.9,0.5,1.3h-2
		v3.3c-0.2-0.7-0.6-1.3-0.9-2l-1.9,0.8c1.1-1.6,2.1-3.2,2.9-4.5l-2.5-1.1c-0.4,0.9-1,1.9-1.6,3c-0.1-0.1-0.3-0.3-0.4-0.4
		c0.8-1.2,1.5-2.4,2.1-3.3l-2.4-1c-0.3,0.8-0.8,1.8-1.4,2.8c-0.1-0.1-0.2-0.1-0.3-0.2l-1.4,1.9c0.9,0.7,1.8,1.6,2.5,2.4
		c-0.4,0.6-0.9,1.3-1.3,1.9c-0.5,0-0.9,0-1.3,0l0.4,2.6c0.7-0.1,1.6-0.2,2.5-0.3v1L168.4,314.7z M193.9,316.3
		c-0.7,0.5-1.3,0.6-1.7,0.6c-0.5,0-0.8-0.5-0.8-1.2c0-1.4,0.4-2.6,1.1-3.5C192.9,313.7,193.4,315.1,193.9,316.3z M194.9,310.4
		c0.6-0.3,1.3-0.5,2-0.6c-0.3,1.6-0.6,2.9-1,3.8C195.6,312.6,195.2,311.5,194.9,310.4z M191.4,304.7c0,1.5,0.2,2.9,0.4,4.3
		c-2.1,1.7-3.3,4.1-3.3,7.2c0,2.5,1.3,4,3.3,4c1,0,2.3-0.3,3.6-1.2c0.2,0.2,0.3,0.5,0.5,0.7l2.3-2.2c-0.2-0.2-0.4-0.5-0.7-0.7
		c1-1.6,1.9-3.8,2.4-6.8c1.7,0.5,2.7,2,2.7,3.9c0,2-0.8,3.9-4.9,4.6l1.4,2.8c5.2-1,6.7-4.1,6.7-7.4c0-3.2-1.9-6.1-5.5-6.7
		c0.1-0.9,0.1-1.9,0.1-3l-3.1-0.1c0,1.1,0,2.1-0.1,3.1c-1,0.1-1.9,0.3-2.7,0.6c-0.1-1-0.1-2-0.1-3L191.4,304.7z M221.2,306.7h1.8
		c-0.1,7.4-0.3,11.4-0.7,11.8c-0.1,0.1-0.3,0.2-0.5,0.2c-0.4,0-1.3,0-1.9-0.1l0.5,3.1c0.7,0,1.8,0,2.4,0c1,0,1.6-0.2,2.1-0.7
		c1-1,1.2-7.4,1.4-17.2h-1.5h-1.6h-7.4v2.9h2.4c-0.1,6.2-0.6,10.6-4.8,13.1l2.6,2C220.4,318.9,221.1,313.6,221.2,306.7z
		 M207.7,308.4l0.5,2.8l1.5-0.3v2.7c0,3.7,0.5,4.5,3.1,4.6c0.3,0,0.7,0,1.1,0c2-0.1,2.5-0.6,2.7-4.5l-2.6-0.4c0,1.8,0,2-0.3,2H213
		c-0.3,0-0.3-0.1-0.3-1.7v-3.3l3.7-0.7l-0.5-2.7l-3.2,0.6V303h-3v5.1L207.7,308.4z M239.6,304.4c0.6,2.3,0.8,4.4,0.8,6.7
		c0,3.8-0.6,5.9-6.4,7.3l1.8,3c6.7-2,7.8-5.6,7.8-10.4c0-2.7-0.2-4.6-0.7-7.2L239.6,304.4z M230.4,310.1c0,2.1,0.3,4.1,1.1,5.6
		l2.7-0.4c0.4-1.2,1.6-3.3,2.4-4.4l-2-1.7c-0.3,0.5-0.8,1.3-1.1,1.7c-0.1-0.3-0.1-0.6-0.1-1c0-1.4,0.4-3.3,1-5.1l-3.2-0.6
		C230.6,305.9,230.4,308,230.4,310.1L230.4,310.1z M255.9,316.7c0,1.4-0.3,1.8-1.7,1.8c-1.3,0-1.9-0.4-1.9-0.9c0-0.6,0.6-1,2-1
		C254.9,316.6,255.4,316.6,255.9,316.7z M250.4,309.9v2.8h5.6v1.4c-0.5,0-0.9-0.1-1.4-0.1c-3.3,0-5,1.6-5,3.7c0,1.9,1.7,3.6,5,3.6
		c3.1,0,4.3-1.1,4.6-3.3c1.3,0.7,2.6,1.6,3.6,2.6l2.1-2.4c-1.6-1.3-3.6-2.5-5.7-3.2l-0.1-2.2h5.2V310h-5.2c0-0.5,0-1,0-1.5h5.6v-2.8
		h-5.6c0-0.7,0-1.4,0-2h-3.3c0,0.6,0,1.3,0,2H250v2.8h5.9v1.5h-5.5V309.9z M268.8,306.1l0.2,3.1c2.3-0.1,5.5-0.4,7.4-0.6
		c-1.8,1.6-2.8,3.7-2.8,6c0,4.1,3.4,6.2,9.5,6.4l0.4-3.1c-5-0.2-6.6-1.5-6.6-3.4c0-2,1-3.8,3.3-5.3c0.3-0.2,1.2-0.6,1.5-0.7
		c0.7-0.2,2.4-0.4,3.4-0.5l-0.4-3.1c-1.6,0.2-3.9,0.4-5.8,0.6C276.6,305.7,271.6,306,268.8,306.1z M283.5,309.9
		c0.6,0.8,1.1,1.6,1.4,2.4l1.6-0.9c-0.4-0.8-1-1.8-1.5-2.4L283.5,309.9z M281,311.1c0.6,0.7,1.1,1.6,1.5,2.4l1.6-0.9
		c-0.4-0.8-1-1.8-1.5-2.4L281,311.1z M293.8,313.4c0,1.4,0.2,2.8,0.3,4c-0.6,0.3-1.2,0.4-1.8,0.4c-0.5,0-0.9-0.2-0.9-0.9
		C291.5,315.6,292.4,314.3,293.8,313.4z M298.6,312.2c-0.5,1.2-1.1,2.3-1.8,3.1c-0.1-0.9-0.1-1.9-0.1-3c0.5-0.1,1.1-0.1,1.7-0.1
		C298.4,312.2,298.5,312.2,298.6,312.2z M299.4,308.8c0,0.3-0.1,0.5-0.1,0.7c-0.2,0-0.5,0-0.7,0c-0.6,0-1.2,0-1.8,0.1
		c0-0.4,0.1-0.8,0.1-1.3h8.1v-2.7h-7.7c0.1-0.6,0.2-1.3,0.4-1.9l-3.1-0.3c-0.1,0.7-0.2,1.4-0.3,2.2h-4.8v2.7h4.5
		c0,0.7-0.1,1.4-0.1,2.1c-3.2,1.3-5.1,3.9-5.1,6.7c0,2.1,1,3.6,2.9,3.6c1,0,2.1-0.2,3.1-0.6c0.1,0.3,0.1,0.5,0.2,0.7l2.9-1.1
		c-0.1-0.4-0.3-0.8-0.4-1.2c1.6-1.3,3.1-3.2,4-5.7c0.8,0.5,1.3,1.4,1.3,2.4c0,2.1-0.8,3.1-4.4,3.4l1.2,2.7c4.8-0.7,6.4-3,6.4-6.2
		c0-2.5-1.3-4.3-3.6-5.1c0.1-0.3,0.1-0.6,0.2-1L299.4,308.8z M322.5,307.8c-1.9,0.6-3.8,1.2-5.4,1.9c-0.6-1.4-0.6-3.4-0.6-6.1h-3.3
		c0,3.2,0.1,5.5,1.1,7.4c-2.6,1.4-4.2,3.1-4.2,5.3c0,3.3,2.8,4.8,8.5,4.8c2.1,0,3.9-0.1,6-0.3l-0.3-3.2c-1.8,0.3-3.8,0.5-5.6,0.5
		c-4,0-5.2-0.7-5.2-1.9c0-2.1,4.8-3.9,10.2-5.3L322.5,307.8z"/>
</g>
<g>
	<path class="st3" d="M65.5,13.9L65.5,13.9l6.7-0.1c-0.9,1.2-2,2.3-3.2,3.3C67.6,16.1,66.5,15,65.5,13.9z M64.6,26.1
		c2.8,1,5.2,2.1,7,3.3l2.9-3.3c-2-1.1-4.4-2.1-7.3-3c0.6-0.3,1.2-0.7,1.8-1.1c3.4,2.1,7.2,3.7,11.1,4.9l2.8-3.7
		c-3.7-0.8-7.2-2.1-10.4-3.8c2.7-2.3,4.9-4.9,6.4-8l-3.3-1.5H75h-0.6h-6.2c0.2-0.4,0.4-0.8,0.6-1.2L64,8.3c-1.7,3.5-4.9,7.1-8.8,9.7
		l3.5,2.6c1.5-1.1,2.9-2.3,4.1-3.5c0.8,0.9,1.7,1.7,2.7,2.5c-3,1.7-6.6,3-10.6,4l2.7,3.5c3.3-1,6.4-2.2,9.3-3.7L64.6,26.1z
		 M60.2,30.9c5.2,1.5,9.7,3.1,13.2,4.8l2.9-3.6c-3.8-1.7-8.2-3.2-13.5-4.6L60.2,30.9z M95.5,15.7c-0.3,8.4-2.6,12.5-4.1,12.5
		c-1,0-1.9-1.6-1.9-4.1C89.6,20.2,91.7,16.8,95.5,15.7z M85.2,24.1c0,4.6,2.3,9.1,6.2,9.1c5,0,8.3-7.2,8.7-18
		c4.1,0.5,5.7,3.1,5.7,6.7c0,3.8-1.6,7.1-8.6,8.2l2.2,4.4c8.7-2,11.1-7.2,11.1-12.7c0-5.7-3-11.1-12-11.1
		C90.7,10.8,85.2,17.3,85.2,24.1L85.2,24.1z M136.5,9c1.1,1.1,1.8,1.9,2.6,3.4l2.2-1.5c-0.9-1.5-1.4-2.2-2.6-3.4L136.5,9z
		 M121.3,22.6c1.6,0.9,3.5,2.2,5,3.5c-2.1,2.2-4.9,4-8.1,5l3.2,3.9c8.2-3.1,13.5-10.9,15.7-20.6l-2.3-1.2l2.1-1.6
		c-0.9-1.4-1.5-2.1-2.7-3.2l-2.1,1.6c1.2,1.1,1.8,1.9,2.6,3.2l-1-0.6h-6.9c0.3-0.6,0.6-1.3,0.8-1.9l-4.5-1.4
		c-1.6,4.3-5.4,9.8-9.4,12.7l3.6,3c2.5-2,5-5,7.1-8.1h6.8c-0.3,1.9-1.1,3.9-2.3,5.8c-1.5-1.1-3.4-2.3-4.9-3.2L121.3,22.6z
		 M157.8,18.8c3-2.2,5.6-4.5,7.5-6.6l-3.7-3c-3.6,4.5-13.1,11-19.6,13l2.5,4.2c2.6-1,5.5-2.6,8.3-4.3v12.6h5V18.8z M170.1,28.5V33
		h23.7v-4.5h-9.5V17.3h7.4v-4.4h-19.4v4.4h7.1v11.2H170.1z M204.9,18.6c0.8,1.4,2,4.4,2.3,5.8l3.7-1.5c-0.5-1.7-1.6-4.3-2.5-5.7
		L204.9,18.6z M213.8,17.7c-0.8,6.7-4.3,11.4-10.8,13.4l2.7,3.7c6.6-2.5,11.3-8.7,12.4-16.3L213.8,17.7z M199.2,19.9
		c0.9,1.3,2.2,4.3,2.5,5.7l3.7-1.6c-0.6-1.7-1.7-4.2-2.6-5.7L199.2,19.9z M232.2,17V9.2h-4.9v25.5h4.9V22.2c3.3,1.6,6.6,3.6,9.3,5.7
		l3.1-4C241,21.4,236.4,18.9,232.2,17z M261.7,17.2c1.9,1.9,3.4,3.7,4.4,5.6l3.6-2.4c-1-1.6-2.5-3.2-4.4-5h10.6v-3.9h-10.4V8.3H261
		v3.2h-5.9H253h-2.3v7.1c0,5-0.4,9.9-2.4,14.4l3.8,2.4c2.3-5.5,2.9-11.3,2.9-16.9v-3.2h9.2L261.7,17.2z M269.2,23.3
		c1.5,3.2,2.3,6.2,2.6,9l4.4-1.4c-0.4-2.7-1.5-5.5-3.1-8.8L269.2,23.3z M255.9,22.6c-0.2,2.9-0.9,6.5-1.7,8.7l4,1.1
		c0.7-2.1,1.3-5.7,1.6-8.7v5.4c0,5,0.8,6,4.6,6.1c0.7,0,1.7,0,2.4,0c3.3-0.1,4-0.8,4.4-5.9l-4-0.6c0,2.1-0.1,2.3-0.6,2.3
		s-1.2,0-1.7,0c-0.6,0-0.8-0.2-0.8-1.9v-9.3h-4.3v3.3L255.9,22.6z M298.6,15.9l1.9-0.6c-0.2-0.8-0.5-1.7-0.9-2.6
		c1.1-0.1,2.2-0.2,3.2-0.3c-0.5,1-1.1,2.3-1.8,3.6L298.6,15.9L298.6,15.9z M294.3,15.9l0.9-0.3c-0.2-0.8-0.6-1.7-1-2.6
		c0.8,0,1.7-0.1,2.5-0.1l-0.8,0.3c0.4,0.9,0.8,1.9,1,2.7H294.3z M296.5,31c-1.1,0.5-2.2,0.9-3.5,1.2c0.6-1.1,1.1-2.3,1.5-3.5
		C295.1,29.5,295.8,30.3,296.5,31z M303.2,30.7c1.4-1.7,2.6-3.7,3.2-6.1l-3.1-0.8h-0.7h-0.5h-6.5c0.1-0.2,0.1-0.4,0.1-0.6h12v-3.3
		h-11.6l0.1-0.7h11v-3.3h-1.9c0.6-0.9,1.2-1.8,1.6-2.6l-3-1.1c1.1-0.2,2.2-0.3,3.1-0.6l-1.6-3.3c-4,1-11.5,1.6-16.9,1.3l1.1,3.4
		c0.7,0,1.4,0,2.2,0l-1.6,0.6c0.4,0.7,0.8,1.5,1,2.2h-1.7v3.3h2.5c0,0.2,0,0.4-0.1,0.7h-2.8v3.3h2.3c-0.6,3.5-1.8,7.1-4.3,9.3
		c0-0.2,0-0.5,0-0.8v-7.3c0.6-0.2,1.1-0.4,1.7-0.6l-0.3-3.7c-0.4,0.1-0.8,0.2-1.3,0.3V17h1.4v-4h-1.4V8.3h-4.1V13h-2.7v4h2.7v4.5
		c-1.2,0.3-2.3,0.5-3.1,0.7l0.9,4.3c0.6-0.2,1.4-0.4,2.2-0.7V31c0,0.4-0.1,0.6-0.6,0.7c-0.4,0-1.3,0-2.1-0.1l0.8,4
		c1.1,0.1,2.6,0,3.3-0.1c1.7-0.3,2.3-1.2,2.5-2.8l3.5,2.5c0.7-0.7,1.3-1.5,1.8-2.4l2.4,2.8c1.8-0.6,3.4-1.2,4.8-2.1
		c1.7,1,3.7,1.7,5.7,2.2c0.9-1.2,1.7-2.5,2.6-3.7C306.4,31.7,304.7,31.3,303.2,30.7z M298,27.1h2.9c-0.4,0.6-0.8,1.1-1.2,1.6
		C299.1,28.3,298.5,27.7,298,27.1z M313.2,26.6l0.5,3l6.8-0.9l0.8,5.7l3.3-0.5l-0.8-5.7l6.2-0.8l-0.4-2.9l-6.2,0.8l-0.4-2.8l5.2-0.7
		l-0.5-2.9l-5.1,0.6l-0.4-3.1l-3.3,0.4l0.4,3.1l-5.6,0.7l0.5,3l5.6-0.7l0.4,2.8L313.2,26.6z M333.6,25l0.6,2.8l3.4-0.7l1.6,7.3
		l2.9-0.7l-1.6-7.2l3.5-0.7c-0.3,0.6-1,1.9-1.6,2.7l2.4,1.3c1.1-1.6,2.4-4.2,3-5.8l-2.3-1.4l-5.6,1.1l-0.7-3.3l-2.9,0.7l0.7,3.2
		L333.6,25z M354,18l-2,2.7c1.7,0.9,3.9,2.4,5,3.5l2.1-2.7C357.8,20.4,355.7,19,354,18z M352.5,31l1.7,3.2
		c5.3-1.8,10.9-5.8,13.7-10.2l-2.1-2.5C363,25.9,357.7,29.7,352.5,31z M387.5,21.3c0-1.2-1-2.2-2.2-2.2s-2.2,1-2.2,2.2
		s1,2.2,2.2,2.2S387.5,22.5,387.5,21.3L387.5,21.3z M384,21.3c0-0.7,0.6-1.3,1.3-1.3c0.7,0,1.3,0.6,1.3,1.3c0,0.7-0.6,1.3-1.3,1.3
		C384.6,22.6,384,22,384,21.3L384,21.3z M370,27.4l2.7,2.3c1.5-1.9,3.5-4.2,4.3-5c0.4-0.4,0.7-0.6,1-0.6s0.6,0.2,0.9,0.6
		c1.7,1.9,4.9,5.3,8,8.1l2.4-2.6c-3.2-2.3-6.6-5.8-9.2-9c-0.6-0.7-1.3-1.1-2-1.1s-1.4,0.3-2,1C374.9,22.1,372,25.4,370,27.4z
		 M391.4,23.8v3.4h16.5v-3.4H391.4z M414,18l-2,2.7c1.7,0.9,3.9,2.4,5,3.5l2.1-2.7C417.8,20.4,415.7,19,414,18z M412.5,31l1.7,3.2
		c5.3-1.8,10.9-5.8,13.7-10.2l-2.1-2.5C423,25.9,417.7,29.7,412.5,31z M431.8,17.6v5l0.3,5.2h2.9l0.3-5.2v-5
		C435.3,17.6,431.8,17.6,431.8,17.6z M431.8,29.4V33h3.6v-3.6H431.8z"/>
</g>
<rect x="157" y="162" class="st4" width="276" height="22"/>
<rect x="157" y="190" class="st4" width="276" height="69"/>
<path class="st5" d="M175.9,253h7.4v-4.6h9.2V243h-9.2v-3.1h9.2v-5.4h-7.2l10.8-16.5h-8.6l-7.8,12.9L172,218h-8.8l10.7,16.5h-7.1
	v5.4h9.2v3.1h-9.2v5.4h9.2L175.9,253L175.9,253z M231.6,253h11.8v-12.1h7.5v-10h-7.5v-34.3H233l-30.7,35.6l2,8.7h27.4V253H231.6z
	 M216.7,230.9l14.9-17.4v17.4H216.7z M284.9,253.8c12.4,0,21.6-6.1,21.6-16.5v-0.2c0-6.6-3.4-10.2-9-13.2c4.3-2.6,7.1-6.2,7.1-12.2
	v-0.2c0-8.6-7.8-15.4-19.7-15.4c-11.8,0-19.7,6.8-19.7,15.4v0.2c0,6,2.8,9.6,7.1,12.2c-5.9,2.7-9,6.7-9,13.5v0.2
	C263.3,247.4,272.5,253.8,284.9,253.8z M284.9,219.9c-4.9,0-8-3-8-6.9v-0.2c0-3.4,3-6.5,8-6.5s8,3.1,8,6.6v0.2
	C292.9,217,289.8,219.9,284.9,219.9z M284.9,243.6c-6.1,0-9.7-3.1-9.7-7v-0.2c0-4.3,4.1-6.9,9.7-6.9s9.7,2.6,9.7,6.9v0.2
	C294.6,240.6,291,243.6,284.9,243.6z M343.2,254c15,0,25-12.7,25-29v-0.2c0-16.2-10-28.8-24.8-28.8c-14.9,0-25,12.7-25,29v0.2
	C318.4,241.4,328.3,254,343.2,254z M343.4,242.8c-7.4,0-12.3-7.6-12.3-17.8v-0.2c0-10.2,4.8-17.7,12.2-17.7
	c7.4,0,12.3,7.7,12.3,17.8v0.2C355.5,235.3,350.8,242.8,343.4,242.8z"/>
<path class="st3" d="M157.9,78.6c1,1,1.7,2,2.2,2.9l1.5-1c-0.5-0.9-1.4-1.8-2.4-2.8L157.9,78.6z M167.9,83.7v-1.1h2.1v1.1H167.9z
	 M164.2,83.7v-1.1h2v1.1H164.2z M170,87.3v1c0,0.2-0.1,0.3-0.3,0.3s-0.7,0-1,0l0.3,1.3c0.6,0,1.5,0,1.8,0c0.7-0.1,0.9-0.6,0.9-1.3
	v-7.2h-1H170h-1.9c1.3-0.9,2.6-1.9,3.6-2.8l-1.1-0.7h-0.4h-0.4h-7.1v1.3h5.9c-0.5,0.4-1.1,0.9-1.6,1.3c-0.5-0.4-1.1-0.8-1.8-1.2
	l-1,0.8c0.6,0.4,1.1,0.7,1.6,1.1h-3.2v8.6h1.7v-2.6h2v2.6h1.7v-2.6L170,87.3L170,87.3z M167.9,86.1V85h2.1v1.1H167.9z M164.2,86.1
	V85h2v1.1H164.2z M161.2,89v-5h-3.5v1.5h1.9v3.7c-0.8,0.6-1.5,1.1-2.1,1.4l0.7,1.7c0.7-0.5,1.5-1.1,2.3-1.9c1.1,1.2,2.1,1.6,3.8,1.6
	c2,0.1,6,0,8,0l0.3-1.6c-2.1,0.1-6.2,0.1-8,0.1C163.2,90.6,162.3,90.2,161.2,89z M175.7,79.7V83h1.7v-2h10.4v2h1.8v-3.4h-3
	c0.4-0.5,0.9-0.9,1.2-1.3l-1.6-0.7c-0.3,0.5-0.9,1.3-1.5,2l0.2,0.1h-1.4v-2.2h-1.8v2.2h-1.5l0.3-0.1c-0.3-0.6-0.8-1.3-1.4-1.9
	l-1.4,0.8c0.4,0.4,0.7,0.9,1,1.3h-3V79.7z M180.1,83h5v1.2h-5V83z M186.6,86.2h-3v-0.8h3.4v-3.5h-8.5v3.5h3.3v0.8h-4.7v5.3h1.7v-3.9
	h2.9v4.8h1.8v-4.8h3v2.2c0,0.2-0.1,0.2-0.3,0.3c-0.2,0-0.9,0-1.3,0l0.3,1.4c0.7,0,1.7,0,2.1,0c0.7-0.1,0.9-0.6,0.9-1.3v-3.8h-1.1
	h-0.5V86.2z M196.3,81.1c0.4-1.1,0.8-2.2,1-3.3l-1.6-0.4c-0.5,2.6-1.7,5.4-3.2,7.7l1,1.4c0.4-0.6,0.8-1.2,1.1-1.8v7.6h1.7V81.1z
	 M201.6,82.4v-2.5h1.2v2.5H201.6z M205.7,91.6v0.7h1.6v-9.9h-2.9v-2.5h3.3v-1.6h-10.4v1.6h2.8v2.5h-2.8v9.9h1.6v-0.7H205.7z
	 M204.4,90v-6h1.2v6H204.4z M201.6,90v-6h1.2v6H201.6z M198.9,90v-6h1.2v6H198.9z M218.8,80.6L218.8,80.6h3
	c-0.4,0.8-0.9,1.5-1.5,2.1C219.7,82,219.2,81.3,218.8,80.6z M214.3,82.4v-0.2h1.2l-0.1,0.1l1.4,1c0.4-0.4,0.7-0.8,1.1-1.3
	c0.4,0.6,0.8,1.2,1.3,1.7c-1.1,0.9-2.4,1.6-4,2.2l0.6-1C215.5,84.3,214.8,83.3,214.3,82.4z M218.1,86.3c0.8-0.5,1.6-1,2.3-1.6
	c0.7,0.6,1.5,1.1,2.3,1.6H218.1z M222.3,91.8v0.5h1.7V87c0.1,0.1,0.3,0.1,0.4,0.2l1.1-1.5c-1.5-0.5-2.9-1.2-4.1-2.1
	c1.1-1.2,2-2.6,2.6-4.2l-1.2-0.4h-0.1h-0.4h-2.8c0.1-0.4,0.3-0.8,0.4-1.2l-1.6-0.4c-0.5,1.7-1.4,3.2-2.4,4.4v-1.1h-1.6v-3.2h-1.7
	v3.2h-2.1v1.6h2c-0.5,1.9-1.4,4.2-2.3,5.5l0.9,1.8c0.5-0.9,1-2.1,1.4-3.4v6.2h1.7v-7.7c0.3,0.7,0.5,1.3,0.7,1.8l0.2-0.3l1,1.2
	c0.2-0.1,0.4-0.2,0.6-0.3v5.3h1.6v-0.5L222.3,91.8L222.3,91.8z M218.4,90.3v-2.5h4v2.5H218.4z"/>
<path class="st3" d="M325.2,113.6h-1.7l-7.8,17.7h1.7L325.2,113.6z M334.2,117.5v-2.6h7.8v2.6H334.2z M342.1,124.5v3.3
	c0,0.5-0.1,0.7-0.6,0.8c-0.4,0-1.6,0-2.4,0c0.2,0.7,0.3,1.4,0.5,2.2c1,0,2.4,0,3,0c1.4-0.2,1.8-1,1.8-2.5V113h-1.1h-1.2h-7.8H333h-1
	v7.6c0,3.4-0.7,6.4-3.3,9l2,1.2c1.8-1.8,2.7-4,3.2-6.2h8.2V124.5z M334.2,122.4c0.1-0.6,0.1-1.3,0.1-2v-0.8h7.8v2.8H334.2z"/>
<path class="st5" d="M391.5,219.1h-3.6L374,250h3.6L391.5,219.1z M407.6,225.7v-3.8h12.8v3.8H407.6z M420.4,238.4v4.8
	c0,0.8-0.3,1.2-1,1.2c-0.7,0.1-2.7,0.1-4.2-0.1c0.4,1.5,0.7,3,1.1,4.7c1.8,0.1,4.2,0.1,5.4-0.1c2.7-0.4,3.6-2,3.6-4.9v-26.6h-2.2
	h-2.5h-12.8h-2.7h-2v13.5c0,5.8-1.1,11-5.6,15.5l4.2,2.6c2.9-3.2,4.6-6.8,5.4-10.7h13.3V238.4z M407.5,234c0.1-1,0.1-2.1,0.1-3.1
	V230h12.8v4H407.5z"/>
<path class="st5" d="M162.2,179h2.7v-12.7H163l-3.6,1.1l0.6,2.3l2.2-0.5V179z M169.3,179h9.3v-2.4h-5.5l2.1-1.6
	c2.2-1.7,3.3-2.8,3.3-4.9l0,0c0-2.4-1.7-3.9-4.3-3.9c-2.2,0-3.5,0.9-4.7,2.6l1.9,1.6c0.9-1.2,1.6-1.7,2.6-1.7s1.7,0.6,1.7,1.6
	s-0.6,1.7-2.2,3l-4.2,3.4L169.3,179L169.3,179z M182.5,179h2.9v-2.9h-2.9V179z M190.7,179h2.7v-12.7h-1.9l-3.6,1.1l0.6,2.3l2.2-0.5
	V179z M204,179h2.6v-2.7h1.7V174h-1.7v-7.7h-2.3l-6.9,8l0.4,2h6.2V179z M200.7,174l3.3-3.9v3.9H200.7z M212,174.7h5.5v-2.6H212
	V174.7z M222.9,179h2.7v-12.7h-1.9l-3.6,1.1l0.6,2.3l2.2-0.5V179z M229.9,179h9.3v-2.4h-5.5l2.1-1.6c2.2-1.7,3.3-2.8,3.3-4.9l0,0
	c0-2.4-1.7-3.9-4.3-3.9c-2.2,0-3.5,0.9-4.7,2.6l1.9,1.6c0.9-1.2,1.6-1.7,2.6-1.7s1.7,0.6,1.7,1.6s-0.6,1.7-2.2,3l-4.2,3.4L229.9,179
	L229.9,179z M243.2,179h2.9v-2.9h-2.9V179z M251.3,179h2.7v-12.7h-1.9l-3.6,1.1l0.6,2.3l2.2-0.5V179z M263,179.2
	c2.9,0,4.8-1.7,4.8-4.4l0,0c0-2.8-2-4-4.4-4c-0.7,0-1.2,0.1-1.7,0.2l0.1-2.2h5.4v-2.4h-7.7l-0.4,6.2l1.6,1.1
	c0.6-0.3,1.3-0.5,2.1-0.5c1.3,0,2.2,0.6,2.2,1.7l0,0c0,1.1-0.8,1.7-2.1,1.7c-1.1,0-2.1-0.5-3-1.4l-1.7,2
	C259.5,178.5,261,179.2,263,179.2z M272.2,174.9c0,1.8,0.2,3.4,0.6,4.8l1.7-0.5c-0.5-1.2-0.7-2.6-0.7-4.3c0-1.9,0.3-3.8,0.7-5.4
	l-1.7-0.3C272.5,170.9,272.2,173,272.2,174.9L272.2,174.9z M279.6,170.8c-1.4,0-2.9,0-4.1,0.1l0.1,1.5c1.1-0.1,2.4-0.2,3.6-0.2
	c0.7,0,1.5,0,2.1,0.1v-1.5C280.8,170.8,280.2,170.8,279.6,170.8L279.6,170.8z M281.5,177.3c-0.8,0.1-1.7,0.2-2.4,0.2
	c-1.5,0-2.2-0.2-2.2-0.7c0-0.3,0.1-0.6,0.3-1.1l-1.5-0.3c-0.3,0.8-0.5,1.4-0.5,1.9c0,1.3,1.7,1.7,3.8,1.7c0.7,0,1.6,0,2.4-0.1v-1.6
	H281.5z M296.6,166.5c0.4,0.6,0.9,1.3,1.1,1.9l1.1-0.6c-0.3-0.7-0.7-1.3-1.1-1.9L296.6,166.5z M291.6,168.4c-1.7,0-3.3-0.1-4.5-0.4
	l-0.3,1.9c1.3,0.2,2.8,0.4,4.3,0.4c0.5,0,1.3,0,1.8,0c-0.5,0.4-1.4,0.9-2,1.4l1.4,1.2c1-0.8,3.1-2.3,4-2.8l-0.8-1.5l1.1-0.6
	c-0.3-0.7-0.7-1.3-1.1-1.9l-1.1,0.6c0.4,0.5,0.7,1.1,1,1.6C294.3,168.3,293,168.4,291.6,168.4L291.6,168.4z M286,176.8
	c0,2,2,2.7,6,2.7c1.6,0,3.4-0.2,4.8-0.4l-0.3-2.1c-1.3,0.3-3,0.5-4.3,0.5c-2.8,0-4-0.2-4-1c0-0.5,0.4-1.2,1.1-1.9l-1.6-1.1
	C286.6,174.7,286,175.9,286,176.8L286,176.8z M303.8,172.8c0.5-0.4,0.9-0.8,1.3-1.2v0.5h5.2v-0.7c0.5,0.5,1,1,1.5,1.4H303.8z
	 M305.2,174.3h5.3v1h-5.3V174.3z M306.6,178.4c-0.1-0.5-0.3-1.1-0.6-1.7h3.6c-0.2,0.5-0.4,1.1-0.7,1.7H306.6z M301.4,178.4v1.6h13
	v-1.6H311c0.3-0.5,0.5-0.9,0.7-1.3l-1.1-0.4h1.9V173c0.4,0.3,0.9,0.6,1.4,0.8l1.3-1.5c-0.9-0.3-1.7-0.8-2.4-1.4c0.8-0.5,1.5-1,2-1.5
	l-1.3-1.2c-0.4,0.4-1.2,1-1.9,1.6c-0.2-0.2-0.4-0.4-0.6-0.7c0.9-0.6,1.7-1.2,2.2-1.7l-1.2-1.1c-0.4,0.4-1,1-1.8,1.6
	c-0.3-0.5-0.5-1.1-0.7-1.7l-1.7,0.6c0.5,1.4,1.1,2.7,2,3.7h-3.7c0.8-1,1.3-2.2,1.7-3.5l-1.3-0.4h-0.2H306h-3.9v1.6h3.4
	c-0.2,0.5-0.5,0.9-0.8,1.4c-0.4-0.4-1-0.8-1.6-1.3l-1.1,1c0.6,0.5,1.2,1,1.6,1.5c-0.8,0.7-1.8,1.3-2.9,1.8l1.2,1.4
	c0.5-0.2,1-0.5,1.4-0.8v3.6h1.9l-0.9,0.4c0.2,0.4,0.4,0.9,0.5,1.3h-3.4V178.4z M319.4,169.9c0.5-0.6,0.9-1.2,1.2-1.7
	c0.5,0.6,0.9,1.2,1.3,1.7H319.4z M317.5,178.1l0.5,1.8c1.2-0.2,3.3-0.6,4.7-1v-0.5l0.8,1.2c0.7-0.5,1.9-1.5,2.7-2.1l-0.6-1.4
	c-0.9,0.6-2.2,1.4-3,1.9v-0.7c-0.4,0.1-0.9,0.1-1.4,0.2v-0.7l1.1,0.4c0.4-0.8,0.7-1.6,0.9-2.3l-1.5-0.4c-0.1,0.6-0.3,1.4-0.6,2.1
	v-2.5h1.6v-1.7h-1.6v-0.9h1.2v-1.6H322l1.4-1c-0.5-0.7-1.2-1.5-2-2.3l0.1-0.2l-2-0.1c-0.5,1.1-1.4,2.5-2.5,3.4l1,0.9v0.8h1.3v0.9
	h-1.8v1.7h1.8v3.8C318.6,177.9,318,178,317.5,178.1z M323.2,173.6c0.5,0.8,0.9,1.5,1.1,2.2l1.6-0.7c-0.3-0.7-0.7-1.4-1.3-2.2
	L323.2,173.6z M328.1,174.5v-1.7h3.3v-1.7h-1v-4.5h-6.7v1.6h4.8v0.7H324v1.5h4.5v0.7h-5.6v1.7h3.3v5.6c0,0.2-0.1,0.3-0.2,0.3
	c-0.2,0-0.7,0-1,0l0.3,1.8c0.6,0,1.4,0,1.8-0.1c0.8-0.1,1-0.6,1-1.5v-1.1c0.7,0.8,1.5,1.5,2.3,1.9l1.2-1.6c-1.3-0.5-2.5-1.5-3.2-2.8
	c0.4,0.2,0.8,0.5,1.2,0.7c0.6-0.8,1.3-1.6,1.7-2.2l-1.6-0.8c-0.3,0.6-0.8,1.5-1.4,2.2C328.3,174.8,328.2,174.6,328.1,174.5z
	 M317.5,175c0.3,0.8,0.5,1.8,0.5,2.5c0.4-0.1,0.9-0.3,1.3-0.4c0-0.7-0.2-1.6-0.6-2.5L317.5,175z M339.8,169.8
	c-0.2,4.6-1.4,6.9-2.3,6.9c-0.6,0-1.1-1-1.1-2.3C336.4,172.3,337.6,170.4,339.8,169.8z M334.4,174.5c0,2.3,1.2,4.6,3,4.6
	c2.5,0,4.2-3.8,4.4-9.4c2.3,0.2,3.3,1.6,3.3,3.7c0,2.1-0.9,3.8-4.5,4.4l1,2c4.4-1,5.7-3.6,5.7-6.4c0-3-1.6-5.7-6.1-5.7
	C337.2,167.6,334.4,171,334.4,174.5L334.4,174.5z M360.2,171.9h-3.4c0.1-0.5,0.1-1,0.2-1.5h7.3v-1.8h-6v-2.2h-2.1v2.2h-5.8v1.8h4.5
	c-0.2,3.2-0.9,6.7-4.5,8.6l1.7,1.4c2.6-1.5,3.8-4,4.4-6.5h3.7c-0.2,2.8-0.4,4.3-0.7,4.5c-0.1,0.1-0.2,0.1-0.4,0.1
	c-0.4,0-1.3,0-1.8,0l0.3,2c0.6,0,1.6,0,2.1,0c0.6,0,1-0.1,1.3-0.3c0.8-0.5,1-3.2,1.3-8.1H361h-0.8V171.9z M370.6,166.7h-3.4v13.6
	h1.9v-11.8h1.1c-0.3,1.2-0.6,2.4-1,3.7c1,1.2,1.4,1.8,1.4,2.6c0,0.7-0.1,1.1-0.5,1.1c-0.2,0-0.6,0-0.9,0l0.3,1.8
	c0.5,0,1.4,0,1.7-0.1c1-0.3,1.3-1.5,1.3-2.7c0-0.9-0.4-1.8-1.4-3.2c0.6-1.6,1.1-3.2,1.6-4.8l-1-0.3h-0.4L370.6,166.7L370.6,166.7z
	 M378.2,170.9v1h-3.4v-1H378.2z M374.8,169.3v-0.9h3.4v0.9H374.8z M374.8,177.9v-4.3h0.9c0.3,1.5,0.8,2.8,1.3,3.9
	C376.4,177.6,375.6,177.7,374.8,177.9z M371.6,178.4l0.6,1.9c1.3-0.3,3.6-0.7,5-1.1l-0.2-1.7c0.7,1.3,1.6,2.2,2.8,2.9l1.3-1.6
	c-1-0.4-1.8-1.1-2.4-2.1c0.9-0.5,1.7-1.1,2.2-1.6l-1.3-1.4c-0.4,0.4-1,1-1.7,1.5c-0.2-0.5-0.3-1-0.5-1.6h2.6v-6.8h-5.3H374h-1.2
	v11.4C372.4,178.2,371.9,178.3,371.6,178.4z M383.9,167.8v3.5h2v-1.7h9v1.7h2v-3.5h-5.5v-1.5h-2.1v1.5H383.9z M387.6,175.7
	c0.2-0.8,0.3-1.5,0.4-2.2l-2-0.1c-0.2,2-0.7,4.5-2.7,5.8l1.7,1.1c0.9-0.7,1.5-1.5,2-2.5c1.1,1.6,2.5,2.2,4.6,2.2c0.8,0,4.5,0,5.3,0
	l0.4-1.9c-0.9,0-4.7,0-5.4,0c-0.2,0-0.3,0-0.5,0v-2.5h3.8v-1.8h-3.8v-1.7h3v-1.8h-8v1.8h3v5.4C388.6,177.2,388.1,176.6,387.6,175.7z
	 M408.3,170.9v-2.1h0.8v2.1H408.3z M411.7,179.7v0.6h1.8v-9.4h-2.6v-2.1h3V167h-9.8c0-0.1,0.1-0.2,0.1-0.3l-1.8-0.4
	c-0.5,2.5-1.5,5-2.8,7.1l1.1,1.6c0.3-0.4,0.6-0.9,0.8-1.3v6.6h1.9v-10.7c0.3-0.8,0.5-1.7,0.8-2.5v1.7h2.5v2.1h-2.5v9.4h1.8v-0.6
	L411.7,179.7L411.7,179.7z M410.9,177.9v-5.2h0.8v5.2H410.9z M408.3,177.9v-5.2h0.8v5.2H408.3z M405.8,177.9v-5.2h0.8v5.2H405.8z
	 M424.5,169.4L424.5,169.4h2.3c-0.3,0.6-0.7,1.1-1.1,1.6C425.2,170.5,424.8,169.9,424.5,169.4z M420.1,171L420.1,171l1-0.1l1.4,1
	c0.3-0.3,0.6-0.6,0.8-1c0.3,0.4,0.6,0.8,1,1.2c-0.9,0.7-2,1.3-3.2,1.8l0.4-0.8C421.2,172.6,420.6,171.8,420.1,171z M423.9,174.6
	c0.6-0.4,1.2-0.8,1.8-1.2c0.6,0.4,1.2,0.9,1.8,1.2H423.9z M427.3,179.8v0.5h1.9v-4.9l0.1,0.1l1.3-1.6c-1.3-0.4-2.6-1-3.6-1.7
	c1-1.1,1.8-2.5,2.4-4l-1.4-0.5h-0.1h-0.5h-2.2c0.1-0.3,0.2-0.6,0.3-0.9l-1.8-0.5c-0.4,1.5-1.2,2.9-2.2,4v-1h-1.4v-2.9h-1.9v2.9h-1.9
	v1.8h1.8c-0.5,1.7-1.3,3.7-2.1,4.8l1,2c0.4-0.7,0.8-1.7,1.1-2.6v5.1h1.9v-6.8c0.2,0.5,0.3,0.9,0.5,1.3l0.3-0.5l1,1.2
	c0.1,0,0.2-0.1,0.3-0.1v4.9h1.9v-0.5h3.3V179.8z M424.1,178.1v-1.9h3.2v1.9H424.1z"/>
<path class="st3" d="M168.2,132h4.4v-2.8h5.5V126h-5.5v-1.9h5.5v-3.2h-4.4l6.5-9.9H175l-4.7,7.8l-4.6-7.8h-5.3l6.4,9.9h-4.3v3.2h5.5
	v1.9h-5.5v3.2h5.5v2.8H168.2z M190.8,132h6.1v-28.2h-4.2l-8,2.4l1.3,5l4.9-1.2v22H190.8z M206.1,138.5c4.8-0.1,7.4-2.2,7.4-7.5v-5.4
	H207v6.4h2.5c0.2,2.3-1.2,3.7-3.9,4L206.1,138.5z M232.1,132.5c8,0,12.2-6.2,12.2-15.3v-0.1c0-5.5-1.3-8.6-3.3-10.6
	c-2.1-2.1-4.3-3-8.1-3c-6.3,0-10.7,4.2-10.7,9.8v0.1c0,5.7,3.9,9,10,9c2.4,0,4.3-0.8,5.7-1.9c-0.4,3.8-2.2,6.4-5.7,6.4
	c-2.4,0-4.1-0.8-6.1-2.4l-3.2,4.7C225.2,131.1,228,132.5,232.1,132.5z M233.2,117.3c-3,0-4.9-1.7-4.9-4.2V113c0-2.5,1.7-4.2,4.8-4.2
	s4.9,1.8,4.9,4.3v0.1C238,115.6,236.3,117.3,233.2,117.3z M263.1,132.4c6.2,0,10.8-3,10.8-8.2v-0.1c0-3.3-1.7-5.1-4.5-6.6
	c2.2-1.3,3.6-3.1,3.6-6.1v-0.1c0-4.3-3.9-7.7-9.8-7.7s-9.8,3.4-9.8,7.7v0.1c0,3,1.4,4.8,3.6,6.1c-3,1.4-4.5,3.4-4.5,6.8v0.1
	C252.3,129.2,256.9,132.4,263.1,132.4z M263.1,115.4c-2.4,0-4-1.5-4-3.4v-0.1c0-1.7,1.5-3.2,4-3.2s4,1.6,4,3.3v0.1
	C267.1,114,265.5,115.4,263.1,115.4z M263.1,127.3c-3,0-4.8-1.6-4.8-3.5v-0.1c0-2.2,2-3.4,4.8-3.4s4.8,1.3,4.8,3.4v0.1
	C267.9,125.8,266.1,127.3,263.1,127.3z M294.2,132.5c7.5,0,12.5-6.4,12.5-14.5v-0.1c0-8.1-5-14.4-12.4-14.4s-12.5,6.4-12.5,14.5v0.1
	C281.8,126.2,286.8,132.5,294.2,132.5z M294.3,126.9c-3.7,0-6.2-3.8-6.2-8.9v-0.1c0-5.1,2.4-8.8,6.1-8.8s6.2,3.8,6.2,8.9v0.1
	C300.4,123.2,298,126.9,294.3,126.9z"/>
<path class="st6" d="M308,102.5l-148,36.9"/>
<path class="st3" d="M375.9,109h5.1l9.8-12.7l0.9-3.4h-12.4l-1,3.7h7.3L375.9,109z M396.7,109.3c4.5,0,7.4-2.8,7.4-6.3
	c0-2.7-2-4.5-5-4.5c-0.7,0-1.4,0.1-2,0.3l0.7-2.2h7l1-3.7h-10.6l-2.6,7.8l2.3,1.6c0.6-0.4,1.5-0.7,2.3-0.7c1.6,0,2.4,0.8,2.4,1.7
	c0,1.2-1.1,2.2-2.8,2.2c-1.5,0-2.7-0.6-3.8-1.7l-2.8,2.6C391.4,108,394,109.3,396.7,109.3z M409.6,104.1c1.8,0,3-1.6,3-3.3
	c0-1.4-0.9-2.4-2.5-2.4c-1.8,0-3,1.6-3,3.3C407.1,103,408,104.1,409.6,104.1z M406.9,109h2.1l10.4-10.5h-2.1L406.9,109z
	 M416.2,109.2c1.8,0,3-1.6,3-3.3c0-1.4-0.9-2.4-2.5-2.4c-1.8,0-3,1.6-3,3.3C413.7,108.1,414.6,109.2,416.2,109.2z M409.7,102.5
	c-0.5,0-0.8-0.4-0.8-0.9c0-0.8,0.5-1.6,1.2-1.6c0.5,0,0.8,0.4,0.8,0.9C410.9,101.7,410.4,102.5,409.7,102.5z M416.2,107.6
	c-0.5,0-0.8-0.4-0.8-0.9c0-0.8,0.5-1.6,1.2-1.6c0.5,0,0.8,0.4,0.8,0.9C417.5,106.7,417,107.6,416.2,107.6z M383.3,128.2
	c4.6,0,7.9-3.8,7.9-7.8c0-3.4-2.6-6-6.3-6c-4.6,0-7.9,3.8-7.9,7.8C377,125.7,379.6,128.2,383.3,128.2z M383.7,124.9
	c-1.9,0-2.9-1.3-2.9-2.9c0-2,1.5-4.2,3.8-4.2c1.9,0,2.9,1.3,2.9,2.9C387.5,122.7,386,124.9,383.7,124.9z M393.1,128h3.7l1.3-4.8h6.3
	l0.8-3.1h-6.3l0.6-2.3h6.9l0.9-3.2h-10.6L393.1,128z M407.4,128h3.7l1.3-4.8h6.3l0.8-3.1h-6.3l0.6-2.3h6.9l0.9-3.2H411L407.4,128z"
	/>
<circle class="st7" cx="398" cy="110" r="34.5"/>
<path class="st8" d="M84.1,256.8v-3.1l-10.5-3.6l10.5-3.6v-3.1l-16.2-5.5v3.7l10.9,3.3l-10.9,3.6v3l10.9,3.6l-10.9,3.3v3.8
	L84.1,256.8z M84,232.3v-3.5H67.9v3.5H84z M84,222v-3.5H73.8l10.2-7.8v-3H67.9v3.5h9.9l-9.9,7.5v3.3H84z M84,197.3v-3.5H71.2v-4.9
	h-3.3v13.3h3.3v-4.9L84,197.3L84,197.3z M84,183.4v-12.3h-3.2v8.7h-3.4v-7.6h-3.2v7.6h-3.3v-8.6h-3.2v12.1H84V183.4z M84,165.2v-3.5
	h-5.2V159l0,0l5.2-3.5v-4.1l-5.8,3.9c-0.8-2-2.4-3.4-5-3.4l0,0c-1.5,0-2.8,0.5-3.7,1.4c-1.1,1.1-1.6,2.6-1.6,4.7v7.4H84V165.2z
	 M75.7,161.7h-4.6v-3.5c0-1.7,0.8-2.8,2.3-2.8l0,0c1.4,0,2.3,1,2.3,2.7C75.7,158.1,75.7,161.7,75.7,161.7z M84,136.2v-6.3
	c0-5.1-3.5-8.6-8.1-8.6l0,0c-4.5,0-8,3.5-8,8.6v6.3H84z M80.8,132.7h-9.7V130c0-2.9,2-4.9,4.9-4.9l0,0c2.9,0,4.8,2,4.8,4.9
	C80.8,130,80.8,132.7,80.8,132.7z M84,115.3v-3.5H67.9v3.5H84z M84,105V92.7h-3.2v8.7h-3.4v-7.6h-3.2v7.6h-3.3v-8.6h-3.2V105H84z
	 M84,83v-3.5H71.2v-4.9h-3.3v13.3h3.3V83H84z M120.4,250.6c0-4.1-1.4-6.4-3.8-8.6l-3,2.9c1.5,1.6,2.5,3.1,2.5,5.5
	c0,3.6-3,6.1-6.6,6.1h-0.1c-3.6,0-6.5-2.6-6.5-6.1c0-2.1,0.9-3.8,2.4-5.4l-3.4-2.9c-1.9,2-3.2,4.3-3.2,8.3c0,6.4,4.9,10.9,10.9,10.9
	h0.1C115.6,261.4,120.4,256.8,120.4,250.6z M120,237.1v-4.7l-4.7-1.9v-8.9l4.7-1.9v-4.8l-21.2,9v4.3L120,237.1z M111.2,228.9
	l-6.8-2.8l6.8-2.8V228.9z M120,208.6v-4.5h-13.6l8.9-5.9v-0.1l-9-5.9H120v-4.6H99v5l8.9,5.5l-8.9,5.5v5H120z M120,179.6V175h-6.3
	v-3.5c0-4.7-2.5-8.5-7.4-8.5h-0.1c-4.3,0-7.3,3-7.3,8v8.6H120z M109.6,175h-6.4v-3.6c0-2.3,1.1-3.8,3.2-3.8h0.1
	c1.8,0,3.2,1.3,3.2,3.7L109.6,175L109.6,175z M120,160.5v-4.7l-4.7-1.9V145l4.7-1.9v-4.8l-21.2,9v4.3L120,160.5z M111.2,152.2
	l-6.8-2.8l6.8-2.8V152.2z M120,131.7v-4.6H99v4.6H120z M120.4,108.8c0-3.8-1.5-6.8-3.3-9H108v9.1h4v-4.7h3c0.8,1.2,1.3,2.7,1.3,4.3
	c0,3.7-2.8,6.4-6.7,6.4h-0.1c-3.6,0-6.5-2.7-6.5-6c0-2.4,0.8-3.9,2.1-5.5l-3.5-2.9c-1.9,2.2-2.9,4.5-2.9,8.2c0,6.4,4.9,11,10.9,11
	h0.1C115.8,119.8,120.4,115.3,120.4,108.8z M120,92.4v-4.6h-13.3L120,77.6v-3.9H99v4.6h12.9L99,88.1v4.3H120z"/>
</svg>
