<?xml version="1.0" encoding="utf-8"?>
<!-- Generator: Adobe Illustrator 24.0.1, SVG Export Plug-In . SVG Version: 6.00 Build 0)  -->
<svg version="1.1" id="レイヤー_1" xmlns="http://www.w3.org/2000/svg" xmlns:xlink="http://www.w3.org/1999/xlink" x="0px"
	 y="0px" viewBox="0 0 682 405" style="enable-background:new 0 0 682 405;" xml:space="preserve">
<style type="text/css">
	.st0{fill:#333333;fill-opacity:0.5;}
	.st1{fill:none;stroke:#FFFFFF;stroke-width:2;stroke-linecap:round;}
	.st2{fill:#65C3CA;}
	.st3{fill:#FFFFFF;}
	.st4{fill:#FE5FA9;}
	.st5{fill:none;stroke:#D468A7;stroke-width:2;stroke-linecap:round;stroke-linejoin:round;}
	.st6{fill:#65C3CA;stroke:#65C3CA;stroke-dasharray:3.3,3.3;}
</style>
<path class="st0" d="M1,42c0-11,9-20,20-20h640c11,0,20,9,20,20v250c0,11-9,20-20,20H21c-11,0-20-9-20-20V42z"/>
<path class="st1" d="M55.1,22H21C10,22,1,31,1,42v250c0,11,9,20,20,20h175.3 M631,22h30c11,0,20,9,20,20v250c0,11-9,20-20,20H482.8"
	/>
<rect x="214.1" y="336" class="st2" width="253.7" height="67"/>
<g>
	<path class="st3" d="M242.2,303.3c-0.2-0.7-0.5-1.5-0.8-2.3h4c-0.2,0.7-0.5,1.6-0.9,2.3H242.2z M229.8,308.3c0.4-0.5,0.8-1,1.1-1.6
		c0.3,0.5,0.5,1,0.7,1.5C230.9,308.2,230.3,308.3,229.8,308.3z M231.9,313.5v-2l0.7-0.1c0.1,0.3,0.2,0.6,0.2,0.9l3.2-1.3v7.3
		c-0.1-1.7-0.4-3.7-1-5.6L231.9,313.5z M224.6,313c0,2.7-0.4,5.3-1.2,7.5l3.3,1.2c0.5-1.6,0.9-3.5,1.1-5.5v7.5h4.1v-9.5
		c0.4,1.8,0.7,3.8,0.7,5.4c1.1-0.3,2.2-0.5,3.3-0.8v1.9h4V313h1.2v10.8h4.4V313h1.2v4c0,0.1-0.1,0.2-0.2,0.2h-0.9l0.7,3.5
		c1,0,2.2,0,2.8-0.1c1.3-0.3,1.7-1.2,1.7-2.8v-8.6h-2.4h-1.7h-1.2v-2.1h-4.4v2.1h-5.2v1.4c-0.1-0.6-0.3-1.2-0.5-1.9h3.7v-2h8.5v2h4
		v-5.4h-3.1c0.5-0.8,0.8-1.5,1.2-2.1l-0.6-0.2h2.4v-3.4h-5.8v-2h-4.5v2h-5.6v3.4h2.8l-0.9,0.3c0.3,0.6,0.6,1.4,0.8,2h-3v5
		c-0.4-1-0.8-2-1.4-3l-2.8,1.2c1.7-2.4,3.2-4.8,4.3-6.8l-3.7-1.6c-0.6,1.3-1.5,2.8-2.5,4.5c-0.2-0.2-0.4-0.4-0.6-0.6
		c1.2-1.7,2.3-3.6,3.1-5l-3.6-1.5c-0.5,1.1-1.2,2.6-2.1,4.1c-0.1-0.1-0.3-0.2-0.4-0.3l-2.1,2.8c1.4,1.1,2.7,2.4,3.7,3.6
		c-0.6,1-1.3,1.9-1.9,2.9c-0.7,0-1.3,0.1-1.9,0.1l0.7,3.8c1-0.1,2.3-0.3,3.8-0.4v1.5L224.6,313z M262.8,315.5c-1,0.8-2,0.9-2.6,0.9
		c-0.7,0-1.2-0.7-1.2-1.8c0-2.1,0.6-3.8,1.7-5.2C261.2,311.6,262,313.7,262.8,315.5z M264.5,306.5c0.9-0.4,1.9-0.7,2.9-0.9
		c-0.4,2.4-0.9,4.3-1.6,5.8C265.2,309.9,264.8,308.2,264.5,306.5z M259.2,298c0.1,2.2,0.3,4.4,0.6,6.5c-3.1,2.5-4.9,6.2-4.9,10.8
		c0,3.8,1.9,6,4.9,6c1.5,0,3.4-0.5,5.3-1.9c0.2,0.4,0.5,0.7,0.8,1l3.4-3.3c-0.3-0.3-0.7-0.7-1-1.1c1.6-2.3,2.9-5.7,3.7-10.3
		c2.5,0.8,4,3,4,5.8c0,3.1-1.2,5.8-7.3,6.9l2,4.1c7.8-1.6,10-6.1,10-11.2c0-4.9-2.8-9.2-8.2-10c0.1-1.4,0.2-2.9,0.2-4.4l-4.7-0.1
		c0,1.6-0.1,3.2-0.1,4.6c-1.5,0.1-2.8,0.5-4.1,0.9c-0.1-1.5-0.2-3-0.2-4.4L259.2,298z M304,301.1h2.7c-0.1,11-0.5,17.1-1.1,17.8
		c-0.2,0.2-0.4,0.3-0.8,0.3c-0.6,0-2,0-2.9-0.1l0.8,4.6c1.1,0.1,2.7,0.1,3.5,0c1.5,0,2.4-0.3,3.1-1c1.5-1.5,1.8-11,2.1-25.9H309
		h-2.4h-11v4.3h3.7c-0.1,9.3-0.9,15.9-7.2,19.6l3.9,3.1C302.5,319.4,303.6,311.5,304,301.1z M283.5,303.7l0.8,4.2l2.3-0.4v4
		c0,5.6,0.8,6.8,4.6,6.9c0.4,0,1.1,0,1.6,0c3-0.1,3.8-0.8,4.1-6.7l-4-0.7c0,2.8-0.1,3-0.4,3h-0.9c-0.4,0-0.5-0.2-0.5-2.5v-4.9
		l5.6-1.1l-0.8-4.1l-4.8,0.9v-6.8h-4.5v7.6L283.5,303.7z M331.5,297.6c0.9,3.4,1.3,6.6,1.3,10c0,5.8-0.9,8.8-9.5,11l2.7,4.5
		c10-3,11.8-8.5,11.8-15.5c0-4-0.3-6.9-1.1-10.7L331.5,297.6z M317.5,306.1c0,3.1,0.5,6.2,1.6,8.5l4.1-0.6c0.7-1.8,2.4-5,3.5-6.6
		l-2.9-2.6c-0.5,0.7-1.2,1.9-1.7,2.6c-0.1-0.4-0.1-1-0.1-1.6c0-2.1,0.5-4.9,1.6-7.6l-4.8-1C318,299.9,317.5,303,317.5,306.1
		L317.5,306.1z M356,316.1c0,2.1-0.5,2.7-2.6,2.7c-2,0-2.8-0.6-2.8-1.4c0-0.9,0.9-1.5,3-1.5C354.3,315.8,355.1,315.9,356,316.1z
		 M347.5,305.8v4.2h8.4l0.1,2c-0.7-0.1-1.4-0.1-2-0.1c-5,0-7.5,2.5-7.5,5.5c0,2.8,2.6,5.4,7.4,5.4c4.6,0,6.5-1.6,6.9-4.9
		c2,1,3.9,2.4,5.4,3.9l3.1-3.7c-2.5-1.9-5.4-3.7-8.5-4.8l-0.1-3.3h7.7v-4.2h-7.9c0-0.8,0-1.5,0-2.2h8.4v-4.2h-8.4c0-1.1,0-2.1,0-3
		h-4.9c0,0.9,0,1.9,0,3h-8.7v4.2h8.8l0.1,2.2H347.5z M375.1,300.1l0.4,4.6c3.5-0.2,8.2-0.6,11.1-0.9c-2.7,2.5-4.2,5.6-4.2,9
		c0,6.2,5.1,9.4,14.2,9.6l0.6-4.7c-7.4-0.3-9.9-2.3-9.9-5.2c0-3.1,1.6-5.7,4.9-8c0.5-0.3,1.7-0.9,2.2-1c1.1-0.3,3.6-0.6,5-0.7
		l-0.6-4.7c-2.4,0.3-5.9,0.7-8.7,0.9C386.8,299.5,379.3,300,375.1,300.1z M397.2,305.9c0.9,1.1,1.6,2.4,2.2,3.6l2.4-1.3
		c-0.6-1.2-1.5-2.6-2.2-3.6L397.2,305.9z M393.5,307.6c0.9,1.1,1.7,2.4,2.2,3.6l2.4-1.3c-0.6-1.3-1.5-2.7-2.3-3.6L393.5,307.6z
		 M412.6,311.1c0.1,2.1,0.2,4.1,0.5,6c-1,0.4-1.9,0.6-2.7,0.6c-0.8,0-1.3-0.3-1.3-1.3C409.1,314.3,410.5,312.4,412.6,311.1z
		 M419.8,309.3c-0.7,1.9-1.6,3.4-2.7,4.7c-0.1-1.4-0.2-2.9-0.2-4.5c0.8-0.1,1.6-0.2,2.5-0.2C419.5,309.3,419.8,309.3,419.8,309.3z
		 M421,304.3c0,0.4-0.1,0.8-0.2,1.1c-0.3,0-0.7,0-1,0c-0.9,0-1.9,0.1-2.7,0.2c0.1-0.6,0.1-1.2,0.2-1.9h12.1v-4.1h-11.6
		c0.1-1,0.3-1.9,0.5-2.8l-4.6-0.4c-0.2,1-0.3,2.2-0.5,3.3H406v4.1h6.7c-0.1,1-0.1,2.1-0.2,3.1c-4.7,2-7.7,5.9-7.7,10.1
		c0,3.1,1.6,5.3,4.4,5.3c1.6,0,3.1-0.3,4.6-0.9c0.1,0.4,0.2,0.8,0.3,1.1l4.3-1.6c-0.2-0.6-0.4-1.2-0.6-1.8c2.5-2,4.6-4.8,6-8.5
		c1.3,0.8,2,2,2,3.5c0,3.1-1.2,4.6-6.7,5.2l1.8,4.1c7.3-1,9.5-4.4,9.5-9.3c0-3.7-1.9-6.4-5.4-7.7c0.1-0.5,0.2-1,0.3-1.5L421,304.3z
		 M455.6,302.7c-2.9,0.9-5.7,1.9-8.1,2.8c-0.9-2.1-1-5-1-9.1h-5c0,4.8,0.2,8.2,1.7,11.1c-3.9,2.2-6.3,4.7-6.3,7.9
		c0,4.9,4.3,7.2,12.7,7.2c3.1,0,5.9-0.1,8.9-0.5l-0.5-4.8c-2.7,0.5-5.7,0.7-8.5,0.7c-6,0-7.8-1-7.8-2.9c0-3.2,7.2-5.9,15.3-8
		L455.6,302.7z"/>
</g>
<g>
	<path class="st3" d="M63.5,16.3l0.1-0.1h8.9c-1.2,1.6-2.7,3.1-4.4,4.4C66.4,19.3,64.8,17.9,63.5,16.3z M62.2,32.7
		c3.8,1.4,7,2.9,9.5,4.4l3.9-4.4c-2.7-1.5-5.9-2.8-9.8-4.1c0.8-0.5,1.7-1,2.5-1.5c4.5,2.8,9.7,5,14.9,6.6l3.8-5
		c-5-1.1-9.8-2.8-14-5.1c3.6-3,6.6-6.6,8.6-10.7l-4.4-2h-0.9h-0.8h-8.3c0.3-0.5,0.6-1.1,0.9-1.7l-6.5-0.5c-2.2,4.7-6.6,9.6-11.9,13
		l4.7,3.5c2-1.4,3.9-3,5.6-4.8c1.1,1.2,2.3,2.3,3.6,3.3c-4,2.3-8.8,4.1-14.2,5.4l3.6,4.7c4.5-1.3,8.7-3,12.4-5L62.2,32.7z
		 M56.3,39.2c7,2,13.1,4.2,17.8,6.5l3.9-4.9c-5.1-2.3-11-4.3-18.2-6.1L56.3,39.2z M103.8,18.7c-0.4,11.3-3.4,16.8-5.5,16.8
		c-1.4,0-2.5-2.1-2.5-5.5C95.8,24.8,98.7,20.3,103.8,18.7z M89.9,30.1c0,6.2,3.1,12.2,8.3,12.2c6.8,0,11.1-9.8,11.7-24.1
		c5.5,0.6,7.7,4.2,7.7,9c0,5.1-2.2,9.5-11.5,11l3,5.9c11.7-2.7,14.9-9.6,14.9-17c0-7.6-4.1-15-16.1-15
		C97.3,12.1,89.9,20.9,89.9,30.1L89.9,30.1z M159,9.8c1.5,1.5,2.4,2.6,3.4,4.5l3-2c-1.2-1.9-1.9-3-3.5-4.6L159,9.8z M138.5,28.1
		c2.1,1.2,4.6,3,6.8,4.6c-2.9,3-6.6,5.4-10.9,6.7l4.4,5.2c11.1-4.1,18.1-14.7,21.1-27.8l-3-1.7l2.8-2.2c-1.2-1.9-2.1-2.8-3.7-4.4
		l-2.8,2.1c1.6,1.4,2.4,2.6,3.5,4.4l-1.3-0.7h-9.3c0.4-0.9,0.8-1.8,1.1-2.6l-6-1.9c-2.1,5.7-7.3,13.2-12.6,17.1l4.8,4
		c3.3-2.7,6.7-6.7,9.5-10.9h9.2c-0.5,2.6-1.5,5.2-3,7.8c-2-1.4-4.5-3.1-6.6-4.3L138.5,28.1z M187.6,22.9c4-2.9,7.5-6,10.1-8.9l-5-4
		c-4.8,6-17.6,14.8-26.3,17.5l3.4,5.7c3.5-1.4,7.4-3.4,11.2-5.7v16.9h6.7L187.6,22.9L187.6,22.9z M204.2,36v6h31.9v-6h-12.8V20.9
		h9.9V15h-26.1v5.9h9.6V36H204.2z M251,22.6c1.1,1.9,2.7,5.9,3.2,7.8l5-2.1c-0.7-2.3-2.1-5.8-3.3-7.7L251,22.6z M263,21.4
		c-1.1,9-5.8,15.3-14.5,18.1l3.6,5c8.9-3.4,15.2-11.7,16.6-21.9L263,21.4z M243.3,24.3c1.2,1.8,2.9,5.7,3.4,7.6l4.9-2.1
		c-0.7-2.2-2.2-5.7-3.5-7.6L243.3,24.3z M287.7,20.5V10h-6.6v34.3h6.6V27.5c4.4,2.2,8.9,4.9,12.6,7.7l4.2-5.4
		C299.5,26.4,293.3,23,287.7,20.5z M327.3,20.8c2.6,2.5,4.6,5,5.9,7.5l4.9-3.2c-1.4-2.2-3.4-4.3-5.9-6.7h14.2v-5.2h-14V8.8h-6.1v4.3
		h-7.9h-2.8h-3v9.6c0,6.8-0.5,13.3-3.2,19.4l5.1,3.3c3.1-7.3,3.9-15.2,3.9-22.7v-4.3h12.4L327.3,20.8z M337.4,28.9
		c2,4.3,3.1,8.3,3.5,12.1l5.9-1.9c-0.6-3.6-2-7.4-4.2-11.9L337.4,28.9z M319.5,28c-0.3,3.9-1.2,8.7-2.3,11.7l5.4,1.5
		c1-2.9,1.8-7.6,2.2-11.7v7.3c0,6.7,1.1,8.1,6.2,8.2c0.9,0,2.3,0,3.3,0c4.4-0.1,5.3-1.1,5.9-7.9l-5.4-0.9c0,2.9-0.2,3.1-0.9,3.1
		c-0.7,0-1.6,0-2.3,0c-0.9,0-1-0.3-1-2.6V24.3h-5.7v4.4L319.5,28z M377,19l2.5-0.8c-0.2-1.1-0.6-2.3-1.2-3.5
		c1.5-0.2,2.9-0.3,4.3-0.5c-0.6,1.4-1.5,3.2-2.5,4.8H377z M371.1,19l1.2-0.4c-0.2-1-0.7-2.2-1.4-3.4c1.1,0,2.2-0.1,3.4-0.2l-1.1,0.4
		c0.6,1.2,1.1,2.5,1.3,3.7h-3.4V19z M374.2,39.3c-1.4,0.7-3,1.2-4.7,1.7c0.8-1.5,1.5-3.1,2-4.8C372.3,37.3,373.2,38.3,374.2,39.3z
		 M383.2,38.9c2-2.2,3.5-4.9,4.3-8.2l-4.2-1h-0.9h-0.7H373c0.1-0.3,0.1-0.6,0.2-0.9h16.2v-4.4h-15.6l0.1-0.9h14.8V19h-2.5
		c0.8-1.2,1.6-2.5,2.2-3.5l-4.1-1.5c1.5-0.2,2.9-0.5,4.1-0.7l-2.1-4.4c-5.4,1.3-15.5,2.1-22.7,1.8l1.5,4.6c0.9,0,1.9,0,2.9,0
		l-2.1,0.8c0.5,0.9,1.1,2,1.4,3H365v4.4h3.3c0,0.3,0,0.6-0.1,0.9h-3.7v4.4h3.1c-0.8,4.7-2.4,9.6-5.7,12.5c0-0.3,0-0.7,0-1.1v-9.9
		c0.8-0.3,1.5-0.5,2.2-0.8l-0.5-4.9c-0.5,0.2-1.1,0.3-1.8,0.5v-4.6h1.9v-5.3H362V8.8h-5.5v6.4h-3.6v5.3h3.6v6
		c-1.6,0.4-3.1,0.7-4.2,0.9l1.2,5.8c0.9-0.3,1.9-0.6,3-1v7c0,0.5-0.2,0.9-0.7,0.9s-1.8,0-2.8-0.1l1.1,5.4c1.4,0.1,3.4,0,4.4-0.1
		c2.3-0.4,3.2-1.6,3.4-3.8l4.7,3.4c0.9-0.9,1.8-2.1,2.5-3.2l3.2,3.8c2.4-0.7,4.6-1.7,6.5-2.9c2.3,1.3,4.9,2.2,7.6,2.9
		c1.2-1.7,2.3-3.4,3.4-5C387.5,40.2,385.2,39.7,383.2,38.9z M376.2,34.1h3.9c-0.5,0.8-1.1,1.5-1.7,2.1
		C377.6,35.6,376.8,34.9,376.2,34.1z M397.7,29.3l1,5.9l13.7-1.8l1.6,11.4l6.6-1L419,32.5l12.5-1.6l-0.9-5.8l-12.4,1.6l-0.8-5.7
		l10.3-1.3l-0.9-5.9L416.5,15l-0.9-6.2L409,9.6l0.9,6.2l-11.3,1.4l0.9,5.9l11.2-1.4l0.8,5.7L397.7,29.3z M438.3,25.9l1.2,5.6
		l6.8-1.4l3.2,14.6l5.8-1.4L452.2,29l6.9-1.4c-0.5,1.2-2,3.7-3.3,5.4l4.9,2.5c2.2-3.2,4.8-8.4,6.1-11.6l-4.6-2.7l-11.3,2.2l-1.4-6.6
		l-5.8,1.3l1.4,6.5L438.3,25.9z M479.1,12l-4,5.3c3.4,1.8,7.8,4.8,10.1,6.9l4.3-5.4C486.9,16.8,482.7,14,479.1,12z M476.2,38
		l3.4,6.3c10.5-3.5,21.7-11.5,27.4-20.4l-4.2-5C497.3,27.8,486.7,35.4,476.2,38z M546.1,18.6c0-2.4-2-4.4-4.4-4.4s-4.4,2-4.4,4.4
		s2,4.4,4.4,4.4S546.1,21,546.1,18.6L546.1,18.6z M539.2,18.6c0-1.4,1.2-2.6,2.6-2.6s2.6,1.2,2.6,2.6s-1.2,2.6-2.6,2.6
		S539.2,20,539.2,18.6L539.2,18.6z M511.2,30.8l5.4,4.6c3-3.8,7-8.3,8.6-10c0.8-0.8,1.4-1.2,2-1.2s1.1,0.4,1.8,1.1
		c3.3,3.8,9.8,10.6,15.9,16.1l4.8-5.3c-6.4-4.6-13.3-11.6-18.4-18.1c-1.2-1.4-2.6-2.2-4-2.2s-2.8,0.6-4.1,2
		C521,20.2,515.2,26.7,511.2,30.8z M554,23.5v6.7h33v-6.7H554z M599.1,12l-4,5.3c3.4,1.8,7.8,4.8,10.1,6.9l4.3-5.4
		C606.9,16.8,602.7,14,599.1,12z M596.2,38l3.4,6.3c10.5-3.5,21.7-11.5,27.4-20.4l-4.2-5C617.3,27.8,606.7,35.4,596.2,38z
		 M634.9,11.3v10l0.7,10.3h5.8l0.7-10.3v-10C642.1,11.3,634.9,11.3,634.9,11.3z M634.9,34.7V42h7.1v-7.3H634.9z"/>
</g>
<rect x="42" y="126" class="st0" width="599" height="22"/>
<rect x="42" y="162" class="st0" width="599" height="126"/>
<path class="st4" d="M93.5,272h22.2v-13.8h27.6V242h-27.6v-9.3h27.6v-16.2h-21.8l32.4-49.5h-25.8l-23.3,38.9l-23-38.9H55.2
	l32.1,49.5H65.9v16.2h27.6v9.3H65.9v16.2h27.6V272z M228.6,272h23.5v-24.2h15v-20h-15v-68.6h-20.8l-61.4,71.2l4,17.4h54.7L228.6,272
	L228.6,272z M198.9,227.8l29.8-34.9v34.9L198.9,227.8L198.9,227.8z M335.3,273.6c24.8,0,43.2-12.2,43.2-33v-0.3
	c0-13.3-6.7-20.5-18.1-26.4c8.6-5.3,14.2-12.5,14.2-24.5v-0.3c0-17.3-15.7-30.7-39.4-30.7c-23.7,0-39.4,13.6-39.4,30.7v0.3
	c0,12,5.6,19.2,14.2,24.5c-11.8,5.4-18.1,13.4-18.1,27v0.3C292.1,260.8,310.5,273.6,335.3,273.6z M335.3,205.8
	c-9.8,0-16-5.9-16-13.8v-0.3c0-6.9,5.9-13,16-13s16,6.2,16,13.1v0.3C351.3,200,345,205.8,335.3,205.8z M335.3,253.3
	c-12.2,0-19.4-6.2-19.4-13.9V239c0-8.6,8.2-13.8,19.4-13.8c11.2,0,19.4,5.1,19.4,13.8v0.3C354.6,247.2,347.4,253.3,335.3,253.3z
	 M451.9,273.9c29.9,0,49.9-25.4,49.9-57.9v-0.3c0-32.5-20-57.6-49.6-57.6c-29.8,0-49.9,25.4-49.9,57.9v0.3
	C402.3,248.8,422,273.9,451.9,273.9z M452.2,251.7c-14.9,0-24.6-15.2-24.6-35.7v-0.3c0-20.5,9.6-35.4,24.3-35.4s24.6,15.4,24.6,35.7
	v0.3C476.5,236.6,467.1,251.7,452.2,251.7z"/>
<path class="st3" d="M41.3,50.6c1,1,1.7,2,2.2,2.9l1.5-1c-0.5-0.9-1.4-1.8-2.4-2.8L41.3,50.6z M51.3,55.7v-1.1h2.1v1.1H51.3z
	 M47.6,55.7v-1.1h2v1.1H47.6z M53.4,59.3v1c0,0.2-0.1,0.3-0.3,0.3s-0.7,0-1,0l0.3,1.3c0.6,0,1.5,0,1.8,0c0.7-0.1,0.9-0.6,0.9-1.3
	v-7.2h-1h-0.7h-1.9c1.3-0.9,2.6-1.9,3.6-2.8L54,49.8h-0.4h-0.4h-7.1v1.3H52c-0.5,0.4-1.1,0.9-1.6,1.3c-0.5-0.4-1.1-0.8-1.8-1.2
	l-1,0.8c0.6,0.4,1.1,0.7,1.6,1.1H46v8.6h1.7v-2.6h2v2.6h1.7v-2.6h2V59.3z M51.3,58.1V57h2.1v1.1H51.3z M47.6,58.1V57h2v1.1H47.6z
	 M44.6,61v-5h-3.5v1.5H43v3.7c-0.8,0.6-1.5,1.1-2.1,1.4l0.7,1.7c0.7-0.5,1.5-1.1,2.3-1.9C45,63.6,46,64,47.7,64c2,0.1,6,0,8,0
	l0.3-1.6c-2.1,0.1-6.2,0.1-8,0.1C46.6,62.6,45.6,62.2,44.6,61z M59.1,51.7V55h1.7v-2h10.4v2H73v-3.4h-3c0.4-0.5,0.9-0.9,1.2-1.3
	l-1.6-0.7c-0.3,0.5-0.9,1.3-1.5,2l0.2,0.1h-1.4v-2.2h-1.8v2.2h-1.5l0.3-0.1c-0.3-0.6-0.8-1.3-1.4-1.9l-1.4,0.8
	c0.4,0.4,0.7,0.9,1,1.3L59.1,51.7L59.1,51.7z M63.5,55h5v1.2h-5V55z M69.9,58.2h-3v-0.8h3.4v-3.5h-8.5v3.5h3.3v0.8h-4.7v5.3h1.7
	v-3.9H65v4.8h1.8v-4.8h3v2.2c0,0.2-0.1,0.2-0.3,0.3c-0.2,0-0.9,0-1.3,0l0.3,1.4c0.7,0,1.7,0,2.1,0c0.7-0.1,0.9-0.6,0.9-1.3v-3.8
	h-1.1h-0.5V58.2z M79.7,53.1c0.4-1.1,0.8-2.2,1-3.3l-1.6-0.4c-0.5,2.6-1.7,5.4-3.2,7.7l1,1.4c0.4-0.6,0.8-1.2,1.1-1.8v7.6h1.7V53.1z
	 M85,54.4v-2.5h1.2v2.5H85z M89.1,63.6v0.7h1.6v-9.9h-2.9v-2.5h3.3v-1.6H80.7v1.6h2.8v2.5h-2.8v9.9h1.6v-0.7
	C82.3,63.6,89.1,63.6,89.1,63.6z M87.8,62v-6H89v6H87.8z M85,62v-6h1.2v6H85z M82.3,62v-6h1.2v6H82.3z M102.2,52.6L102.2,52.6h3
	c-0.4,0.8-0.9,1.5-1.5,2.1C103.1,54,102.6,53.3,102.2,52.6z M97.6,54.4v-0.2h1.2l-0.1,0.1l1.4,1c0.4-0.4,0.7-0.8,1.1-1.3
	c0.4,0.6,0.8,1.2,1.3,1.7c-1.1,0.9-2.4,1.6-4,2.2l0.6-1C98.8,56.3,98.2,55.3,97.6,54.4z M101.4,58.3c0.8-0.5,1.6-1,2.3-1.6
	c0.7,0.6,1.5,1.1,2.3,1.6H101.4z M105.7,63.8v0.5h1.7V59c0.1,0.1,0.3,0.1,0.4,0.2l1.1-1.5c-1.5-0.5-2.9-1.2-4.1-2.1
	c1.1-1.2,2-2.6,2.6-4.2l-1.2-0.4h-0.1h-0.4h-2.8c0.1-0.4,0.3-0.8,0.4-1.2l-1.6-0.4c-0.5,1.7-1.4,3.2-2.4,4.4v-1.1h-1.6v-3.2H96v3.2
	h-2.1v1.6h2c-0.5,1.9-1.4,4.2-2.3,5.5l0.9,1.8c0.5-0.9,1-2.1,1.4-3.4v6.2h1.7v-7.7c0.3,0.7,0.5,1.3,0.7,1.8l0.2-0.3l1,1.2
	c0.2-0.1,0.4-0.2,0.6-0.3v5.3h1.6v-0.5L105.7,63.8L105.7,63.8z M101.8,62.3v-2.5h4v2.5H101.8z"/>
<path class="st3" d="M414.5,87.6h-1.7l-7.8,17.7h1.7L414.5,87.6z M423.4,91.5v-2.6h7.8v2.6H423.4z M431.3,98.5v3.3
	c0,0.5-0.1,0.7-0.6,0.8c-0.4,0-1.6,0-2.4,0c0.2,0.7,0.3,1.4,0.5,2.2c1,0,2.4,0,3,0c1.4-0.2,1.8-1,1.8-2.5V86.8h-1.1h-1.2h-7.8h-1.3
	h-1v7.6c0,3.4-0.7,6.4-3.3,9l2,1.2c1.8-1.8,2.7-4,3.2-6.2L431.3,98.5L431.3,98.5z M423.4,96.4c0.1-0.6,0.1-1.3,0.1-2v-0.8h7.8v2.8
	H423.4z"/>
<path class="st4" d="M557.2,221.8h-5.7l-21.8,48.6h5.7L557.2,221.8z M582.5,232v-6h20.1v6H582.5z M602.6,252v7.6
	c0,1.2-0.4,1.8-1.7,1.9c-1.2,0.1-4.3,0.1-6.6-0.1c0.5,2.4,1.1,4.7,1.6,7.3c2.8,0.1,6.7,0.1,8.4-0.2c4.2-0.7,5.6-3.1,5.6-7.7V219
	h-3.5h-3.9h-20.1h-4.2h-3.1v21.2c0,9.2-1.7,17.3-8.9,24.4l6.7,4.1c4.6-5,7.2-10.7,8.5-16.8h21.2V252z M582.3,245.1
	c0.1-1.6,0.2-3.2,0.2-4.8v-1.4h20.1v6.3h-20.3V245.1z"/>
<path class="st4" d="M49.5,143h2.7v-12.7h-1.9l-3.6,1.1l0.6,2.3l2.2-0.5V143z M56.6,143h9.3v-2.4h-5.5l2.1-1.6
	c2.2-1.7,3.3-2.8,3.3-4.9l0,0c0-2.4-1.7-3.9-4.3-3.9c-2.2,0-3.5,0.9-4.7,2.6l1.9,1.6c0.9-1.2,1.6-1.7,2.6-1.7s1.7,0.6,1.7,1.6
	s-0.6,1.7-2.2,3l-4.2,3.4C56.6,140.7,56.6,143,56.6,143z M69.9,143h2.9v-2.9h-2.9V143z M78,143h2.7v-12.7h-1.9l-3.6,1.1l0.6,2.3
	l2.2-0.5C78,133.2,78,143,78,143z M91.4,143H94v-2.7h1.7V138H94v-7.7h-2.3l-6.9,8l0.5,2h6.2L91.4,143L91.4,143z M88,138l3.3-3.9v3.9
	H88z M99.3,138.7h5.5v-2.6h-5.5V138.7z M110.2,143h2.7v-12.7H111l-3.6,1.1l0.6,2.3l2.2-0.5C110.2,133.2,110.2,143,110.2,143z
	 M117.3,143h9.3v-2.4h-5.5l2.1-1.6c2.2-1.7,3.3-2.8,3.3-4.9l0,0c0-2.4-1.7-3.9-4.3-3.9c-2.2,0-3.5,0.9-4.7,2.6l1.9,1.6
	c0.9-1.2,1.6-1.7,2.6-1.7s1.7,0.6,1.7,1.6s-0.6,1.7-2.2,3l-4.2,3.4C117.3,140.7,117.3,143,117.3,143z M130.5,143h2.9v-2.9h-2.9V143z
	 M138.7,143h2.7v-12.7h-1.9l-3.6,1.1l0.6,2.3l2.2-0.5V143z M150.4,143.2c2.9,0,4.8-1.7,4.8-4.4l0,0c0-2.8-2-4-4.4-4
	c-0.7,0-1.2,0.1-1.7,0.2l0.1-2.2h5.4v-2.4h-7.7l-0.4,6.2l1.6,1.1c0.6-0.3,1.3-0.5,2.1-0.5c1.3,0,2.2,0.6,2.2,1.7l0,0
	c0,1.1-0.8,1.7-2.1,1.7c-1.1,0-2.1-0.5-3-1.4l-1.7,2C146.9,142.5,148.3,143.2,150.4,143.2z M159.6,138.9c0,1.8,0.2,3.4,0.6,4.8
	l1.7-0.5c-0.5-1.2-0.7-2.6-0.7-4.3c0-1.9,0.3-3.8,0.7-5.4l-1.7-0.3C159.9,134.9,159.6,137,159.6,138.9L159.6,138.9z M166.9,134.8
	c-1.4,0-2.9,0-4.1,0.1l0.1,1.5c1.1-0.1,2.4-0.2,3.6-0.2c0.7,0,1.5,0,2.1,0.1v-1.5C168.1,134.8,167.5,134.8,166.9,134.8L166.9,134.8z
	 M168.9,141.3c-0.8,0.1-1.7,0.2-2.4,0.2c-1.5,0-2.2-0.2-2.2-0.7c0-0.3,0.1-0.6,0.3-1.1l-1.5-0.3c-0.3,0.8-0.5,1.4-0.5,1.9
	c0,1.3,1.7,1.7,3.8,1.7c0.7,0,1.6,0,2.4-0.1L168.9,141.3L168.9,141.3z M183.9,130.5c0.4,0.6,0.9,1.3,1.1,1.9l1.1-0.6
	c-0.3-0.7-0.7-1.3-1.1-1.9L183.9,130.5z M179,132.4c-1.7,0-3.3-0.1-4.5-0.4l-0.3,1.9c1.3,0.2,2.8,0.4,4.3,0.4c0.5,0,1.3,0,1.8,0
	c-0.5,0.4-1.4,0.9-2,1.4l1.4,1.2c1-0.8,3.1-2.3,4-2.8l-0.8-1.5l1.1-0.6c-0.3-0.7-0.7-1.3-1.1-1.9l-1.1,0.6c0.4,0.5,0.7,1.1,1,1.6
	C181.6,132.3,180.3,132.4,179,132.4L179,132.4z M173.4,140.8c0,2,2,2.7,6,2.7c1.6,0,3.4-0.2,4.8-0.4l-0.3-2.1
	c-1.3,0.3-3,0.5-4.3,0.5c-2.8,0-4-0.2-4-1c0-0.5,0.4-1.2,1.1-1.9l-1.6-1.1C173.9,138.7,173.4,139.9,173.4,140.8L173.4,140.8z
	 M191.2,136.8c0.5-0.4,0.9-0.8,1.3-1.2v0.5h5.2v-0.7c0.5,0.5,1,1,1.5,1.4H191.2z M192.5,138.3h5.3v1h-5.3V138.3z M194,142.4
	c-0.1-0.5-0.3-1.1-0.6-1.7h3.6c-0.2,0.5-0.4,1.1-0.7,1.7H194z M188.7,142.4v1.6h13v-1.6h-3.4c0.3-0.5,0.5-0.9,0.7-1.3l-1.1-0.4h1.9
	V137c0.4,0.3,0.9,0.6,1.4,0.8l1.3-1.5c-0.9-0.3-1.7-0.8-2.4-1.4c0.8-0.5,1.5-1,2-1.5l-1.3-1.2c-0.4,0.4-1.2,1-1.9,1.6
	c-0.2-0.2-0.4-0.4-0.6-0.7c0.9-0.6,1.7-1.2,2.2-1.7l-1.2-1.1c-0.4,0.4-1.1,1-1.8,1.6c-0.3-0.5-0.5-1.1-0.7-1.7l-1.7,0.6
	c0.5,1.4,1.1,2.7,1.9,3.7h-3.7c0.8-1,1.3-2.2,1.7-3.5l-1.3-0.4h-0.2h-0.3h-3.9v1.6h3.4c-0.2,0.5-0.5,0.9-0.8,1.4
	c-0.4-0.4-1-0.8-1.6-1.3l-1.1,1c0.6,0.5,1.2,1,1.6,1.5c-0.8,0.7-1.8,1.3-2.9,1.8l1.2,1.4c0.5-0.2,1-0.5,1.4-0.8v3.6h1.9l-0.9,0.4
	c0.2,0.4,0.4,0.9,0.5,1.3h-3.3V142.4z M206.8,133.9c0.4-0.6,0.9-1.2,1.2-1.7c0.5,0.6,0.9,1.2,1.3,1.7H206.8z M204.8,142.1l0.4,1.8
	c1.2-0.2,3.3-0.6,4.7-1v-0.5l0.8,1.2c0.7-0.5,1.9-1.5,2.7-2.1l-0.6-1.4c-0.9,0.6-2.2,1.4-3,1.9v-0.7c-0.4,0.1-0.9,0.1-1.4,0.2v-0.7
	l1.1,0.4c0.4-0.8,0.7-1.6,0.9-2.3l-1.5-0.4c-0.1,0.6-0.3,1.4-0.6,2.1v-2.5h1.6v-1.7h-1.6v-0.9h1.2v-1.6h-0.3l1.4-1
	c-0.5-0.7-1.2-1.5-2-2.3l0.1-0.2l-2-0.1c-0.5,1.1-1.4,2.5-2.5,3.4l1,0.9v0.8h1.3v0.9h-1.8v1.7h1.8v3.8
	C206,141.9,205.3,142,204.8,142.1z M210.5,137.6c0.5,0.8,0.9,1.5,1.1,2.2l1.6-0.7c-0.3-0.7-0.7-1.4-1.3-2.2L210.5,137.6z
	 M215.4,138.5v-1.7h3.3v-1.7h-1v-4.5H211v1.6h4.8v0.7h-4.5v1.5h4.5v0.7h-5.5v1.7h3.3v5.6c0,0.2-0.1,0.3-0.2,0.3c-0.2,0-0.7,0-1,0
	l0.3,1.8c0.6,0,1.4,0,1.8-0.1c0.8-0.1,1-0.6,1-1.5v-1.1c0.7,0.8,1.5,1.5,2.3,1.9l1.2-1.6c-1.3-0.5-2.5-1.5-3.2-2.8
	c0.4,0.2,0.8,0.5,1.2,0.7c0.6-0.8,1.3-1.6,1.7-2.2l-1.6-0.8c-0.3,0.6-0.8,1.5-1.4,2.2C215.6,138.8,215.5,138.6,215.4,138.5z
	 M204.8,139c0.3,0.8,0.5,1.8,0.5,2.5c0.4-0.1,0.9-0.3,1.3-0.4c0-0.7-0.2-1.6-0.6-2.5L204.8,139z M227.1,133.8
	c-0.1,4.6-1.4,6.9-2.3,6.9c-0.6,0-1.1-1-1.1-2.3C223.7,136.3,224.9,134.4,227.1,133.8z M221.7,138.5c0,2.3,1.2,4.6,3,4.6
	c2.5,0,4.2-3.8,4.4-9.4c2.3,0.2,3.3,1.6,3.3,3.7c0,2.1-0.9,3.8-4.5,4.4l1,2c4.4-1,5.7-3.6,5.7-6.4c0-3-1.6-5.7-6.1-5.7
	C224.5,131.6,221.7,135,221.7,138.5L221.7,138.5z M247.6,135.9h-3.4c0.1-0.5,0.1-1,0.2-1.5h7.3v-1.8h-6v-2.2h-2.1v2.2h-5.8v1.8h4.5
	c-0.2,3.2-0.9,6.7-4.5,8.6l1.7,1.4c2.6-1.5,3.8-4,4.4-6.5h3.7c-0.2,2.8-0.4,4.3-0.7,4.5c-0.1,0.1-0.2,0.1-0.4,0.1
	c-0.4,0-1.3,0-1.8,0l0.3,2c0.6,0,1.6,0,2.1,0c0.6,0,1-0.1,1.4-0.3c0.8-0.5,1.1-3.2,1.3-8.1h-1.3h-0.9V135.9z M257.9,130.7h-3.4v13.6
	h1.9v-11.8h1.1c-0.3,1.2-0.6,2.4-1,3.7c1,1.2,1.4,1.8,1.4,2.6c0,0.7-0.1,1.1-0.5,1.1c-0.2,0-0.6,0-0.9,0l0.3,1.8
	c0.5,0,1.4,0,1.7-0.1c1-0.3,1.3-1.5,1.3-2.7c0-0.9-0.4-1.8-1.4-3.2c0.6-1.6,1.1-3.2,1.6-4.8l-1-0.3h-0.4L257.9,130.7L257.9,130.7z
	 M265.5,134.9v1h-3.4v-1H265.5z M262.1,133.3v-0.9h3.4v0.9H262.1z M262.1,141.9v-4.3h0.9c0.3,1.5,0.8,2.8,1.3,3.9
	C263.7,141.6,262.9,141.7,262.1,141.9z M258.9,142.4l0.6,1.9c1.3-0.3,3.6-0.7,5-1.1l-0.2-1.7c0.7,1.3,1.6,2.2,2.8,2.9l1.3-1.6
	c-1-0.4-1.8-1.1-2.4-2.1c0.9-0.5,1.7-1.1,2.2-1.6l-1.3-1.4c-0.4,0.4-1,1-1.7,1.5c-0.2-0.5-0.3-1-0.5-1.6h2.6v-6.8H262h-0.7h-1.2
	v11.4C259.7,142.2,259.3,142.3,258.9,142.4z M271.2,131.8v3.5h2v-1.7h9v1.7h2v-3.5h-5.5v-1.5h-2.1v1.5H271.2z M274.9,139.7
	c0.2-0.8,0.3-1.5,0.4-2.2l-2-0.1c-0.2,2-0.7,4.5-2.7,5.8l1.7,1.1c0.9-0.7,1.5-1.5,2-2.5c1.1,1.6,2.5,2.2,4.6,2.2c0.8,0,4.5,0,5.3,0
	l0.4-1.9c-0.9,0-4.7,0-5.4,0c-0.2,0-0.3,0-0.5,0v-2.5h3.8v-1.8h-3.8v-1.7h3v-1.8h-8v1.8h3v5.4C276,141.2,275.4,140.6,274.9,139.7z
	 M295.7,134.9v-2.1h0.8v2.1H295.7z M299,143.7v0.6h1.8v-9.4h-2.6v-2.1h3V131h-9.8c0-0.1,0.1-0.2,0.1-0.3l-1.8-0.4
	c-0.5,2.5-1.5,5-2.8,7.1l1.1,1.6c0.3-0.4,0.6-0.9,0.8-1.3v6.6h1.9v-10.7c0.3-0.8,0.5-1.7,0.8-2.5v1.7h2.5v2.1h-2.5v9.4h1.8v-0.6
	L299,143.7L299,143.7z M298.2,141.9v-5.2h0.8v5.2H298.2z M295.7,141.9v-5.2h0.8v5.2H295.7z M293.2,141.9v-5.2h0.8v5.2H293.2z
	 M311.8,133.4L311.8,133.4h2.3c-0.3,0.6-0.7,1.1-1.1,1.6C312.5,134.5,312.1,133.9,311.8,133.4z M307.5,135L307.5,135l1-0.1l1.4,1
	c0.3-0.3,0.6-0.6,0.8-1c0.3,0.4,0.6,0.8,1,1.2c-0.9,0.7-2,1.3-3.2,1.8l0.4-0.8C308.6,136.6,308,135.8,307.5,135z M311.2,138.6
	c0.6-0.4,1.2-0.8,1.8-1.2c0.6,0.4,1.2,0.9,1.8,1.2H311.2z M314.7,143.8v0.5h1.9v-4.9l0.1,0.1l1.3-1.6c-1.3-0.4-2.6-1-3.6-1.7
	c1-1.1,1.8-2.5,2.4-4l-1.4-0.5h-0.1h-0.5h-2.2c0.1-0.3,0.2-0.6,0.3-0.9l-1.8-0.5c-0.4,1.5-1.2,2.9-2.2,4v-1h-1.4v-2.9h-1.9v2.9h-1.9
	v1.8h1.8c-0.5,1.7-1.3,3.7-2.1,4.8l1,2c0.4-0.7,0.8-1.7,1.1-2.6v5.1h1.9v-6.8c0.2,0.5,0.3,0.9,0.5,1.3l0.3-0.5l1,1.2
	c0.1,0,0.2-0.1,0.3-0.1v4.9h1.9v-0.5h3.3V143.8z M311.4,142.1v-1.9h3.2v1.9H311.4z"/>
<path class="st3" d="M143.9,104h4.4v-2.8h5.5V98h-5.5v-1.9h5.5v-3.2h-4.4L156,83h-5.2l-4.6,7.8l-4.6-7.8h-5.3l6.4,9.9h-4.3v3.2h5.5
	V98h-5.5v3.2h5.5L143.9,104L143.9,104z M166.5,104h6.1V75.8h-4.2l-8,2.4l1.3,5l4.9-1.2v22H166.5z M181.8,110.5
	c4.8-0.1,7.4-2.2,7.4-7.5v-5.4h-6.5v6.4h2.5c0.2,2.3-1.2,3.7-3.9,4L181.8,110.5z M207.8,104.5c8,0,12.2-6.2,12.2-15.3v-0.1
	c0-5.5-1.3-8.6-3.3-10.6c-2.1-2.1-4.3-3-8.1-3c-6.3,0-10.7,4.2-10.7,9.8v0.1c0,5.7,3.9,9,10,9c2.4,0,4.3-0.8,5.7-1.9
	c-0.4,3.8-2.2,6.4-5.7,6.4c-2.4,0-4.1-0.8-6.1-2.4l-3.2,4.7C200.9,103.1,203.7,104.5,207.8,104.5z M208.9,89.3c-3,0-4.9-1.7-4.9-4.2
	V85c0-2.5,1.7-4.2,4.8-4.2s4.9,1.8,4.9,4.3v0.1C213.7,87.6,212,89.3,208.9,89.3z M238.8,104.4c6.2,0,10.8-3,10.8-8.2v-0.1
	c0-3.3-1.7-5.1-4.5-6.6c2.2-1.3,3.6-3.1,3.6-6.1v-0.1c0-4.3-3.9-7.7-9.8-7.7s-9.8,3.4-9.8,7.7v0.1c0,3,1.4,4.8,3.6,6.1
	c-3,1.4-4.5,3.4-4.5,6.8v0.1C228,101.2,232.6,104.4,238.8,104.4z M238.8,87.4c-2.4,0-4-1.5-4-3.4v-0.1c0-1.7,1.5-3.2,4-3.2
	s4,1.6,4,3.3v0C242.8,86,241.2,87.4,238.8,87.4z M238.8,99.3c-3,0-4.8-1.6-4.8-3.5v-0.1c0-2.2,2-3.4,4.8-3.4s4.8,1.3,4.8,3.4v0.1
	C243.6,97.8,241.8,99.3,238.8,99.3z M269.9,104.5c7.5,0,12.5-6.4,12.5-14.5v-0.1c0-8.1-5-14.4-12.4-14.4s-12.5,6.4-12.5,14.5v0.1
	C257.5,98.2,262.5,104.5,269.9,104.5z M270,98.9c-3.7,0-6.2-3.8-6.2-8.9v-0.1c0-5.1,2.4-8.8,6.1-8.8s6.2,3.8,6.2,8.9v0.1
	C276.1,95.2,273.7,98.9,270,98.9z"/>
<path class="st5" d="M369.7,73.7L48.5,110.6"/>
<circle class="st6" cx="602" cy="104" r="66.5"/>
<path class="st3" d="M553.8,107h11.1l21.4-27.7l2-7.3h-27l-2.2,8.2h15.8L553.8,107z M603.7,107.7c11.8,0,19.4-11,19.4-22.2
	c0-8.1-5.3-14.2-14-14.2c-11.7,0-19.3,11.1-19.3,22.2C589.7,101.6,595,107.7,603.7,107.7z M604.6,99.2c-3,0-5-2.1-5-6.2
	c0-5.7,3.3-13.1,8.7-13.1c3,0,5,2,5,6.2C613.3,91.8,609.9,99.2,604.6,99.2z M635.1,95.4c4.2,0,7.1-3.8,7.1-7.6
	c0-3.3-2.1-5.7-5.8-5.7c-4.3,0-7.1,3.8-7.1,7.6C629.3,93,631.4,95.4,635.1,95.4z M628.9,107h4.9L658,82.5h-5L628.9,107z
	 M650.4,107.3c4.3,0,7.1-3.8,7.1-7.6c0-3.3-2.1-5.7-5.8-5.7c-4.3,0-7.1,3.8-7.1,7.6C644.6,104.9,646.7,107.3,650.4,107.3z
	 M635.3,91.8c-1.2,0-2-0.9-2-2.2c0-1.8,1.1-3.7,2.8-3.7c1.2,0,2,0.9,2,2.2C638.1,89.8,637,91.8,635.3,91.8z M650.6,103.7
	c-1.2,0-2-0.9-2-2.2c0-1.8,1.1-3.7,2.9-3.7c1.2,0,2,0.9,2,2.2C653.4,101.7,652.3,103.7,650.6,103.7z M567.5,143.5
	c8.5,0,14.6-7,14.6-14.4c0-6.2-4.7-11-11.7-11c-8.5,0-14.6,7-14.6,14.4C555.8,138.7,560.5,143.5,567.5,143.5z M568.1,137.4
	c-3.5,0-5.4-2.3-5.4-5.4c0-3.6,2.8-7.8,7.1-7.8c3.5,0,5.4,2.3,5.4,5.4C575.2,133.2,572.4,137.4,568.1,137.4z M585.6,143h6.8l2.3-8.8
	h11.5l1.5-5.6h-11.5l1.1-4.2h12.8l1.6-5.9h-19.6L585.6,143z M611.9,143h6.8l2.3-8.8h11.5l1.5-5.6h-11.5l1.1-4.2h12.8l1.6-5.9h-19.6
	L611.9,143z"/>
</svg>
