<?xml version="1.0" encoding="utf-8"?>
<!-- Generator: Adobe Illustrator 24.0.1, SVG Export Plug-In . SVG Version: 6.00 Build 0)  -->
<svg version="1.1" id="レイヤー_1" xmlns="http://www.w3.org/2000/svg" xmlns:xlink="http://www.w3.org/1999/xlink" x="0px"
	 y="0px" viewBox="0 0 592 356" style="enable-background:new 0 0 592 356;" xml:space="preserve">
<style type="text/css">
	.st0{fill:#7C848D;fill-opacity:0.4;}
	.st1{fill:none;stroke:#FFFFFF;stroke-width:2;stroke-linecap:round;}
	.st2{fill:#65C3CA;}
	.st3{fill:#FFFFFF;}
	.st4{fill:#FFFFFF;fill-opacity:0.8;}
	.st5{fill:#FE5FA9;}
	.st6{fill:none;stroke:#D468A7;stroke-width:2;stroke-linecap:round;stroke-linejoin:round;}
	.st7{fill:#FE5FA9;stroke:#FFFFFF;stroke-dasharray:3.3,3.3;}
</style>
<path class="st0" d="M1,43c0-11,9-20,20-20h550c11,0,20,9,20,20v270c0,11-9,20-20,20H21c-11,0-20-9-20-20V43z"/>
<path class="st1" d="M50,23H21C10,23,1,32,1,43v270c0,11,9,20,20,20h44.5 M545,23h26c11,0,20,9,20,20v125v145c0,11-9,20-20,20h-45"
	/>
<rect x="265" y="308" class="st2" width="230" height="44"/>
<g>
	
		<image style="overflow:visible;opacity:0.3;" width="204" height="51" xlink:href="FD0E45187B9175CA.png"  transform="matrix(1 0 0 1 63 309)">
	</image>
	<g>
		<path class="st3" d="M92.2,327c-0.2-0.5-0.4-1.1-0.6-1.7h2.9c-0.2,0.5-0.4,1.1-0.6,1.7H92.2z M83,330.7c0.3-0.4,0.6-0.7,0.8-1.1
			c0.2,0.4,0.4,0.7,0.5,1.1C83.9,330.6,83.5,330.7,83,330.7z M84.6,334.5V333l0.5-0.1c0.1,0.2,0.1,0.5,0.1,0.7l2.3-0.9v5.3
			c-0.1-1.2-0.3-2.7-0.7-4.1L84.6,334.5z M79.3,334.1c0,2-0.3,3.9-0.9,5.5l2.4,0.9c0.4-1.2,0.6-2.6,0.8-4v5.5h3v-7
			c0.3,1.3,0.5,2.8,0.5,4c0.8-0.2,1.6-0.4,2.4-0.6v1.4h2.9v-5.7h0.9v7.9h3.2v-7.9h0.9v2.9c0,0.1,0,0.2-0.2,0.2h-0.6l0.5,2.6
			c0.7,0,1.6,0,2.1-0.1c0.9-0.2,1.3-0.9,1.3-2v-6.3h-1.7h-1.3h-0.9v-1.5h-3.2v1.5h-3.8v1c-0.1-0.4-0.2-0.9-0.4-1.4h2.7v-1.5h6.2v1.5
			H99v-4h-2.3c0.3-0.5,0.6-1.1,0.9-1.6l-0.5-0.2h1.7v-2.5h-4.2v-1.5h-3.3v1.5h-4.1v2.5h2l-0.7,0.2c0.2,0.5,0.4,1,0.6,1.5h-2.2v3.7
			c-0.3-0.7-0.6-1.5-1-2.2l-2,0.9c1.2-1.8,2.3-3.5,3.2-4.9l-2.7-1.2c-0.4,0.9-1.1,2.1-1.8,3.3c-0.1-0.2-0.3-0.3-0.4-0.5
			c0.9-1.3,1.7-2.6,2.3-3.7l-2.6-1.1c-0.3,0.8-0.9,1.9-1.5,3c-0.1-0.1-0.2-0.2-0.3-0.2l-1.5,2.1c1,0.8,2,1.8,2.7,2.6
			c-0.5,0.7-0.9,1.4-1.4,2.1c-0.5,0-1,0-1.4,0l0.5,2.8c0.7-0.1,1.7-0.2,2.8-0.3v1.1L79.3,334.1z M107.3,336
			c-0.8,0.5-1.5,0.7-1.9,0.7c-0.5,0-0.9-0.5-0.9-1.3c0-1.5,0.4-2.8,1.2-3.9C106.2,333.1,106.7,334.6,107.3,336z M108.5,329.4
			c0.7-0.3,1.4-0.5,2.2-0.6c-0.3,1.8-0.7,3.1-1.1,4.2C109.1,331.9,108.8,330.6,108.5,329.4z M104.6,323.1c0,1.6,0.2,3.2,0.4,4.8
			c-2.3,1.8-3.6,4.6-3.6,7.9c0,2.8,1.4,4.4,3.6,4.4c1.1,0,2.5-0.4,3.9-1.4c0.2,0.3,0.4,0.5,0.6,0.7l2.5-2.4
			c-0.2-0.2-0.5-0.5-0.7-0.8c1.1-1.7,2.1-4.2,2.7-7.5c1.8,0.6,2.9,2.2,2.9,4.3c0,2.2-0.9,4.3-5.4,5l1.5,3c5.7-1.1,7.3-4.5,7.3-8.2
			c0-3.6-2-6.7-6-7.3c0.1-1,0.1-2.1,0.1-3.3l-3.4-0.1c0,1.2,0,2.3-0.1,3.4c-1.1,0.1-2.1,0.4-3,0.7c-0.1-1.1-0.2-2.2-0.2-3.3
			L104.6,323.1z M137.4,325.4h2c-0.1,8.1-0.4,12.5-0.8,13c-0.1,0.2-0.3,0.2-0.6,0.2c-0.4,0-1.5,0-2.1-0.1l0.6,3.4c0.8,0,2,0,2.6,0
			c1.1,0,1.8-0.2,2.3-0.7c1.1-1.1,1.3-8.1,1.6-19h-1.7h-1.8h-8.1v3.1h2.7c-0.1,6.8-0.6,11.7-5.3,14.4l2.9,2.2
			C136.4,338.8,137.2,333,137.4,325.4z M122.4,327.3l0.6,3.1l1.7-0.3v2.9c0,4.1,0.6,5,3.4,5.1c0.3,0,0.8,0,1.2,0
			c2.2-0.1,2.8-0.6,3-4.9l-2.9-0.5c0,2,0,2.2-0.3,2.2h-0.7c-0.3,0-0.4-0.2-0.4-1.8v-3.6l4.1-0.8l-0.6-3l-3.5,0.7v-5h-3.3v5.6
			L122.4,327.3z M157.7,322.8c0.7,2.5,0.9,4.8,0.9,7.3c0,4.2-0.7,6.5-7,8.1l2,3.3c7.4-2.2,8.6-6.2,8.6-11.4c0-2.9-0.2-5.1-0.8-7.9
			L157.7,322.8z M147.4,329.1c0,2.3,0.4,4.5,1.2,6.2l3-0.5c0.5-1.3,1.8-3.7,2.6-4.8l-2.2-1.9c-0.4,0.5-0.9,1.4-1.2,1.9
			c-0.1-0.3-0.1-0.7-0.1-1.1c0-1.5,0.4-3.6,1.1-5.6l-3.5-0.7C147.7,324.5,147.4,326.8,147.4,329.1L147.4,329.1z M175.6,336.4
			c0,1.6-0.4,2-1.9,2s-2-0.4-2-1c0-0.7,0.7-1.1,2.2-1.1C174.4,336.2,175,336.3,175.6,336.4z M169.4,328.9v3.1h6.1v1.5
			c-0.5,0-1-0.1-1.5-0.1c-3.7,0-5.5,1.8-5.5,4c0,2,1.9,4,5.5,4c3.4,0,4.8-1.2,5.1-3.6c1.5,0.8,2.8,1.8,4,2.9l2.3-2.7
			c-1.8-1.4-4-2.7-6.2-3.5l-0.1-2.4h5.7V329H179c0-0.6,0-1.1,0-1.6h6.2v-3.1H179c0-0.8,0-1.6,0-2.2h-3.6c0,0.6,0,1.4,0,2.2H169v3.1
			h6.4v1.6L169.4,328.9L169.4,328.9z M189.7,324.7l0.3,3.4c2.6-0.2,6-0.4,8.1-0.6c-2,1.8-3.1,4.1-3.1,6.6c0,4.6,3.7,6.9,10.4,7.1
			l0.4-3.5c-5.5-0.2-7.3-1.7-7.3-3.8c0-2.2,1.1-4.2,3.6-5.8c0.4-0.2,1.3-0.7,1.6-0.7c0.8-0.2,2.6-0.4,3.7-0.5l-0.4-3.4
			c-1.8,0.2-4.3,0.5-6.4,0.7C198.3,324.2,192.7,324.6,189.7,324.7z M205.8,328.9c0.6,0.8,1.2,1.8,1.6,2.6l1.7-0.9
			c-0.4-0.9-1.1-1.9-1.6-2.6L205.8,328.9z M203.1,330.2c0.6,0.8,1.2,1.8,1.6,2.7l1.7-1c-0.4-0.9-1.1-2-1.7-2.7L203.1,330.2z
			 M217.1,332.7c0,1.6,0.2,3,0.4,4.4c-0.7,0.3-1.4,0.5-2,0.5s-1-0.2-1-0.9C214.6,335.1,215.6,333.7,217.1,332.7z M222.4,331.4
			c-0.5,1.4-1.2,2.5-2,3.4c-0.1-1-0.1-2.1-0.2-3.3c0.6-0.1,1.2-0.2,1.8-0.2C222.3,331.4,222.3,331.4,222.4,331.4z M223.3,327.7
			c0,0.3-0.1,0.5-0.1,0.8c-0.2,0-0.5,0-0.8,0c-0.7,0-1.4,0-2,0.1c0-0.4,0.1-0.9,0.1-1.4h8.9v-3h-8.5c0.1-0.7,0.2-1.4,0.4-2.1
			l-3.4-0.3c-0.1,0.8-0.2,1.6-0.4,2.4h-5.2v3h4.9c0,0.8-0.1,1.5-0.1,2.3c-3.5,1.5-5.6,4.3-5.6,7.4c0,2.3,1.1,3.9,3.2,3.9
			c1.1,0,2.3-0.2,3.4-0.6c0.1,0.3,0.1,0.5,0.2,0.8l3.2-1.2c-0.2-0.4-0.3-0.9-0.4-1.3c1.8-1.5,3.4-3.5,4.4-6.3
			c0.9,0.6,1.5,1.5,1.5,2.6c0,2.3-0.9,3.4-4.9,3.8l1.3,3c5.3-0.7,7-3.3,7-6.8c0-2.7-1.4-4.7-4-5.7c0.1-0.4,0.1-0.7,0.2-1.1
			L223.3,327.7z M248.7,326.6c-2.1,0.7-4.2,1.4-5.9,2.1c-0.6-1.6-0.7-3.7-0.7-6.7h-3.6c0,3.5,0.2,6,1.3,8.2
			c-2.8,1.6-4.6,3.4-4.6,5.8c0,3.6,3.1,5.3,9.3,5.3c2.3,0,4.3-0.1,6.6-0.4l-0.3-3.5c-2,0.4-4.2,0.5-6.2,0.5c-4.4,0-5.7-0.8-5.7-2.1
			c0-2.4,5.3-4.3,11.2-5.9L248.7,326.6z"/>
	</g>
</g>
<g>
	
		<image style="overflow:visible;opacity:0.3;" width="492" height="64" xlink:href="FD0E45187B9175CF.png"  transform="matrix(1 0 0 1 48 -5)">
	</image>
	<g>
		<path class="st3" d="M75.4,14.6l0.1-0.1h7.8c-1.1,1.4-2.3,2.7-3.8,3.8C77.9,17.2,76.6,16,75.4,14.6z M74.3,28.9
			c3.3,1.2,6.1,2.5,8.3,3.9L86,29c-2.4-1.3-5.2-2.4-8.6-3.6c0.7-0.4,1.5-0.8,2.1-1.3c3.9,2.4,8.4,4.4,13,5.7l3.3-4.3
			c-4.3-1-8.5-2.5-12.2-4.5c3.2-2.7,5.7-5.8,7.5-9.4l-3.8-1.7h-0.8h-0.7h-7.3c0.2-0.5,0.5-1,0.7-1.5L73.7,8
			c-1.9,4.1-5.7,8.3-10.4,11.3l4.1,3.1c1.7-1.3,3.4-2.7,4.9-4.1c1,1,2,2,3.2,2.9c-3.5,2-7.7,3.6-12.4,4.7l3.1,4.1
			c3.9-1.1,7.5-2.6,10.8-4.4L74.3,28.9z M69.2,34.5c6.1,1.7,11.4,3.6,15.5,5.7l3.4-4.2c-4.4-2-9.6-3.7-15.9-5.3L69.2,34.5z
			 M110.6,16.7c-0.4,9.8-3,14.6-4.8,14.6c-1.2,0-2.2-1.8-2.2-4.8C103.7,22,106.1,18.1,110.6,16.7z M98.5,26.6
			c0,5.4,2.7,10.7,7.2,10.7c5.9,0,9.7-8.5,10.2-21c4.8,0.5,6.7,3.7,6.7,7.9c0,4.5-1.9,8.3-10,9.6l2.6,5.2c10.2-2.3,13-8.4,13-14.9
			c0-6.7-3.5-13.1-14-13.1C104.9,11,98.5,18.6,98.5,26.6L98.5,26.6z M158.7,8.9c1.3,1.3,2.1,2.2,3,3.9l2.6-1.8c-1-1.7-1.7-2.6-3.1-4
			L158.7,8.9z M140.8,24.9c1.8,1.1,4,2.6,5.9,4c-2.5,2.6-5.7,4.7-9.5,5.9l3.8,4.5c9.7-3.6,15.8-12.8,18.4-24.2l-2.7-1.5l2.5-1.9
			c-1.1-1.6-1.8-2.5-3.2-3.8l-2.4,1.9c1.4,1.3,2.1,2.2,3.1,3.8l-1.2-0.6h-8.1c0.4-0.7,0.7-1.5,1-2.2L143.2,9
			c-1.8,5-6.3,11.5-11,14.9l4.2,3.5c2.9-2.3,5.9-5.8,8.3-9.5h8c-0.4,2.2-1.3,4.6-2.7,6.8c-1.8-1.3-3.9-2.7-5.7-3.8L140.8,24.9z
			 M183.6,20.4c3.5-2.6,6.6-5.3,8.8-7.8L188,9.1c-4.2,5.3-15.3,12.9-22.9,15.3l3,5c3.1-1.2,6.4-3,9.7-5V39h5.8V20.4z M198.1,31.7V37
			h27.8v-5.3h-11.2V18.6h8.6v-5.2h-22.8v5.2h8.4v13.2L198.1,31.7L198.1,31.7z M238.9,20.1c1,1.6,2.4,5.1,2.8,6.8l4.4-1.8
			c-0.6-2-1.9-5-2.9-6.7L238.9,20.1z M249.3,19c-1,7.9-5,13.4-12.6,15.7l3.2,4.4c7.8-3,13.3-10.2,14.5-19.1L249.3,19z M232.2,21.6
			c1.1,1.6,2.6,5,3,6.7l4.3-1.8c-0.6-1.9-1.9-4.9-3-6.6L232.2,21.6z M270.9,18.3V9.1h-5.7V39h5.7V24.3c3.8,1.9,7.8,4.2,10.9,6.7
			l3.7-4.7C281.2,23.4,275.8,20.5,270.9,18.3z M305.5,18.5c2.2,2.2,4,4.4,5.1,6.5l4.2-2.8c-1.2-1.9-2.9-3.8-5.2-5.8H322v-4.6h-12.2
			V8.1h-5.3v3.8h-6.9h-2.4h-2.7v8.3c0,5.9-0.5,11.6-2.8,16.9l4.5,2.9c2.7-6.4,3.4-13.3,3.4-19.8v-3.7h10.8L305.5,18.5z M314.2,25.6
			c1.7,3.8,2.7,7.3,3.1,10.5l5.1-1.6c-0.5-3.1-1.7-6.5-3.7-10.3L314.2,25.6z M298.7,24.8c-0.3,3.4-1,7.6-2,10.2l4.7,1.3
			c0.9-2.5,1.5-6.7,1.9-10.2v6.4c0,5.8,0.9,7,5.4,7.1c0.8,0,2,0,2.9,0c3.8-0.1,4.7-0.9,5.1-6.9L312,32c0,2.5-0.1,2.7-0.7,2.7
			s-1.4,0-2,0c-0.7,0-0.9-0.2-0.9-2.2V21.6h-5v3.8L298.7,24.8z M348.7,17l2.2-0.7c-0.2-0.9-0.5-2-1-3.1c1.3-0.1,2.5-0.3,3.8-0.4
			c-0.5,1.2-1.3,2.8-2.1,4.2H348.7z M343.7,17l1.1-0.4c-0.2-0.9-0.6-1.9-1.2-3c1,0,1.9-0.1,2.9-0.2l-1,0.3c0.5,1,0.9,2.2,1.1,3.2
			L343.7,17L343.7,17z M346.3,34.6c-1.3,0.6-2.6,1.1-4.1,1.5c0.7-1.3,1.3-2.7,1.8-4.1C344.6,32.9,345.4,33.8,346.3,34.6z
			 M354.2,34.3c1.7-1.9,3-4.3,3.8-7.2l-3.6-0.9h-0.8H353h-7.6c0.1-0.2,0.1-0.5,0.1-0.7h14.1v-3.9H346l0.1-0.8H359V17h-2.2
			c0.7-1.1,1.4-2.1,1.9-3.1l-3.5-1.3c1.3-0.2,2.6-0.4,3.6-0.6l-1.9-3.9c-4.7,1.2-13.5,1.8-19.8,1.6l1.3,4c0.8,0,1.7,0,2.5,0
			l-1.9,0.7c0.5,0.8,0.9,1.7,1.2,2.6h-1.9v3.9h2.9c0,0.3,0,0.5-0.1,0.8h-3.2v3.9h2.7c-0.7,4.1-2.1,8.3-5,10.9c0-0.3,0-0.6,0-0.9V27
			c0.7-0.2,1.3-0.5,1.9-0.7l-0.4-4.3c-0.5,0.1-1,0.3-1.5,0.4v-4h1.7v-4.7h-1.7V8.1h-4.8v5.5h-3.1v4.7h3.1v5.3
			c-1.4,0.3-2.7,0.6-3.6,0.8l1,5c0.7-0.2,1.6-0.5,2.6-0.9v6.1c0,0.5-0.1,0.7-0.6,0.8c-0.4,0-1.5,0-2.4-0.1l1,4.7
			c1.3,0.1,3,0,3.8-0.1c2-0.3,2.8-1.4,3-3.3l4.1,2.9c0.8-0.8,1.5-1.8,2.1-2.8l2.8,3.3c2.1-0.6,4-1.5,5.7-2.5c2,1.1,4.3,1.9,6.7,2.6
			c1-1.5,2-2.9,3-4.4C357.9,35.5,355.9,35,354.2,34.3z M348,30.1h3.4c-0.4,0.7-0.9,1.3-1.5,1.9C349.3,31.5,348.6,30.8,348,30.1z
			 M366.1,28.7l0.6,3.8l8.9-1.2l1,7.4l4.3-0.7l-1-7.4l8.1-1.1l-0.6-3.8l-8.1,1l-0.5-3.7l6.7-0.9l-0.6-3.8l-6.7,0.8l-0.6-4l-4.3,0.5
			l0.6,4.1l-7.3,0.9l0.6,3.8l7.3-0.9l0.5,3.7L366.1,28.7z M392.5,26.5l0.8,3.6l4.4-0.9l2.1,9.5l3.8-0.9l-2-9.4l4.5-0.9
			c-0.3,0.8-1.3,2.4-2.1,3.5l3.2,1.6c1.4-2.1,3.1-5.5,4-7.5l-3-1.8l-7.3,1.4l-0.9-4.3l-3.8,0.9l0.9,4.2L392.5,26.5z M419,17.5
			l-2.6,3.5c2.2,1.1,5.1,3.1,6.6,4.5l2.8-3.5C424.1,20.6,421.3,18.8,419,17.5z M417.1,34.4l2.2,4.1c6.8-2.3,14.1-7.5,17.8-13.2
			l-2.7-3.2C430.8,27.8,423.9,32.7,417.1,34.4z M462.6,21.8c0-1.6-1.3-2.9-2.9-2.9s-2.9,1.3-2.9,2.9s1.3,2.9,2.9,2.9
			C461.3,24.6,462.6,23.3,462.6,21.8L462.6,21.8z M458.1,21.8c0-0.9,0.8-1.7,1.7-1.7c0.9,0,1.7,0.8,1.7,1.7s-0.8,1.7-1.7,1.7
			C458.8,23.4,458.1,22.7,458.1,21.8L458.1,21.8z M439.9,29.7l3.5,3c2-2.5,4.5-5.4,5.6-6.5c0.5-0.5,0.9-0.8,1.3-0.8s0.7,0.2,1.1,0.7
			c2.2,2.5,6.4,6.9,10.3,10.5l3.1-3.4c-4.1-3-8.6-7.6-12-11.8c-0.8-0.9-1.7-1.4-2.6-1.4s-1.8,0.4-2.7,1.3
			C446.2,22.8,442.5,27.1,439.9,29.7z M467.7,25v4.4h21.4V25H467.7z M497,17.5l-2.6,3.5c2.2,1.1,5.1,3.1,6.6,4.5l2.8-3.5
			C502.1,20.6,499.3,18.8,497,17.5z M495.1,34.4l2.2,4.1c6.8-2.3,14.1-7.5,17.8-13.2l-2.7-3.2C508.8,27.8,501.9,32.7,495.1,34.4z
			 M520.3,17v6.5l0.4,6.7h3.7l0.4-6.7V17H520.3z M520.3,32.3V37h4.6v-4.7H520.3z"/>
	</g>
</g>
<rect x="55" y="151" class="st4" width="482" height="110"/>
<rect x="203" y="151" class="st4" width="334" height="110"/>
<path class="st5" d="M236.9,243h11.8v-7.4h14.7V227h-14.7v-5h14.7v-8.6h-11.6l17.3-26.4h-13.8L243,207.7L230.7,187h-14.2l17.1,26.4
	h-11.4v8.6h14.7v5h-14.7v8.6h14.7L236.9,243L236.9,243z M308.4,243h14.7v-15.1h9.4v-12.5h-9.4v-42.9h-13L271.7,217l2.5,10.9h34.2
	L308.4,243L308.4,243z M289.8,215.4l18.6-21.8v21.8H289.8z M369.1,244c15.5,0,27-7.6,27-20.6v-0.2c0-8.3-4.2-12.8-11.3-16.5
	c5.4-3.3,8.9-7.8,8.9-15.3v-0.2c0-10.8-9.8-19.2-24.6-19.2c-14.8,0-24.6,8.5-24.6,19.2v0.2c0,7.5,3.5,12,8.9,15.3
	c-7.4,3.4-11.3,8.4-11.3,16.9v0.2C342.1,236,353.6,244,369.1,244z M369.1,201.6c-6.1,0-10-3.7-10-8.6v-0.2c0-4.3,3.7-8.1,10-8.1
	s10,3.9,10,8.2v0.2C379.1,198,375.2,201.6,369.1,201.6z M369.1,231.3c-7.6,0-12.1-3.9-12.1-8.7v-0.2c0-5.4,5.1-8.6,12.1-8.6
	s12.1,3.2,12.1,8.6v0.2C381.2,227.5,376.7,231.3,369.1,231.3z M434,244.2c18.7,0,31.2-15.9,31.2-36.2v-0.2c0-20.3-12.5-36-31-36
	c-18.6,0-31.2,15.9-31.2,36.2v0.2C403,228.5,415.3,244.2,434,244.2z M434.2,230.3c-9.3,0-15.4-9.5-15.4-22.3v-0.2
	c0-12.8,6-22.1,15.2-22.1s15.4,9.6,15.4,22.3v0.2C449.4,220.9,443.5,230.3,434.2,230.3z"/>
<path class="st3" d="M76.2,98.5c1.5,1.5,2.6,2.9,3.4,4.3l2.2-1.4c-0.8-1.3-2-2.7-3.7-4.2L76.2,98.5z M91.2,106v-1.6h3.1v1.6H91.2z
	 M85.7,106v-1.6h3v1.6H85.7z M94.3,111.5v1.5c0,0.3-0.1,0.4-0.4,0.4c-0.2,0-1,0-1.5,0l0.4,2c0.9,0,2.2,0,2.7,0c1-0.2,1.3-0.9,1.3-2
	v-10.9h-1.5h-1.1h-2.9c2-1.4,4-2.9,5.4-4.2l-1.6-1h-0.5H94H83.4v2h8.8c-0.7,0.7-1.6,1.3-2.4,1.9c-0.8-0.6-1.7-1.2-2.7-1.7l-1.6,1.2
	c0.9,0.6,1.7,1.1,2.4,1.7h-4.8v13h2.5v-3.9h3v3.9h2.5v-3.9H94.3z M91.2,109.6v-1.7h3.1v1.7H91.2z M85.7,109.6v-1.7h3v1.7H85.7z
	 M81.2,114v-7.6H76v2.3h2.8v5.6c-1.1,0.9-2.2,1.6-3.1,2.2l1.1,2.5c1.1-0.8,2.2-1.7,3.5-2.9c1.7,1.8,3.2,2.4,5.7,2.4
	c2.9,0.1,9,0.1,12,0l0.5-2.4c-3.1,0.1-9.4,0.2-12,0.1C84.2,116.3,82.8,115.8,81.2,114z M104.2,100v5h2.6v-3h15.6v3h2.7v-5h-4.5
	c0.7-0.7,1.3-1.4,1.8-2l-2.4-1.1c-0.5,0.8-1.3,1.9-2.2,3l0.3,0.1H116v-3.3h-2.7v3.3H111l0.4-0.2c-0.4-0.9-1.1-1.9-2-2.9l-2.1,1.1
	c0.6,0.6,1.1,1.3,1.5,2H104.2z M110.7,105h7.6v1.8h-7.6V105z M120.4,109.8h-4.6v-1.2h5.1v-5.3h-12.7v5.3h4.9v1.2h-7v7.9h2.6v-5.9
	h4.4v7.2h2.7v-7.2h4.6v3.2c0,0.2-0.1,0.4-0.4,0.4s-1.3,0-2,0l0.4,2.2c1.1,0,2.6,0.1,3.2,0c1-0.2,1.4-0.9,1.4-2v-5.7h-1.6
	L120.4,109.8L120.4,109.8z M136.2,102.2c0.6-1.7,1.1-3.3,1.5-4.9l-2.4-0.5c-0.8,4-2.5,8.1-4.7,11.5l1.4,2.1c0.6-0.9,1.2-1.8,1.7-2.7
	V119h2.5V102.2z M144.2,104.1v-3.8h1.8v3.8H144.2z M150.3,118v1h2.4v-14.9h-4.3v-3.8h4.9V98h-15.6v2.4h4.2v3.8h-4.1V119h2.3v-1
	H150.3z M148.4,115.6v-9h1.9v9H148.4z M144.2,115.6v-9h1.8v9H144.2z M140.1,115.6v-9h1.8v9H140.1z M171.2,101.4L171.2,101.4l4.5-0.1
	c-0.6,1.2-1.3,2.2-2.2,3.2C172.6,103.5,171.8,102.5,171.2,101.4z M164.4,104.1v-0.3h1.8L166,104l2.1,1.5c0.6-0.6,1.1-1.2,1.6-1.9
	c0.6,0.9,1.2,1.7,2,2.5c-1.7,1.4-3.7,2.5-5.9,3.3l0.9-1.5C166.2,106.9,165.2,105.4,164.4,104.1z M170,110c1.2-0.7,2.4-1.5,3.4-2.3
	c1.1,0.9,2.2,1.7,3.4,2.3H170z M176.5,118.2v0.8h2.6v-8c0.2,0.1,0.4,0.2,0.6,0.3l1.7-2.2c-2.2-0.7-4.4-1.8-6.2-3.1
	c1.7-1.8,3-3.9,3.8-6.3l-1.8-0.6h-0.1h-0.6h-4.3c0.2-0.6,0.4-1.2,0.6-1.8l-2.4-0.6c-0.7,2.5-2,4.7-3.7,6.5v-1.7h-2.4v-4.8h-2.6v4.8
	h-3.1v2.3h3.1c-0.7,2.9-2.2,6.3-3.5,8.2l1.4,2.7c0.7-1.4,1.5-3.2,2.2-5.1v9.4h2.6v-11.6c0.4,1,0.8,1.9,1,2.7l0.2-0.4l1.5,1.8
	c0.3-0.1,0.6-0.3,0.9-0.4v8h2.5v-0.8h6V118.2z M170.5,115.9v-3.7h6v3.7H170.5z"/>
<path class="st3" d="M419.2,99H417l-10.1,23h2.3L419.2,99z M428.3,104.1v-3.4h10.2v3.4H428.3z M438.4,113.1v4.2c0,0.6-0.2,0.9-0.8,1
	c-0.5,0.1-2,0-3.1-0.1c0.2,0.9,0.4,1.8,0.6,2.9c1.3,0.1,3.1,0.1,3.9-0.1c1.8-0.3,2.4-1.3,2.4-3.2V97.9H440h-1.5h-10.2h-1.6h-1.2v9.9
	c0,4.4-0.9,8.3-4.3,11.7l2.6,1.6c2.3-2.4,3.5-5.1,4.1-8.1L438.4,113.1L438.4,113.1z M428.1,110.4c0.1-0.8,0.1-1.7,0.1-2.5v-1h10.2
	v3.6L428.1,110.4L428.1,110.4z"/>
<path class="st5" d="M487.5,205.3h-4.1l-15.9,35.3h4.1L487.5,205.3z M501.9,212.8v-4.4h14.6v4.4H501.9z M516.5,227.3v5.5
	c0,0.9-0.3,1.3-1.2,1.4c-0.8,0.1-3.1,0.1-4.8-0.1c0.4,1.7,0.8,3.4,1.2,5.3c2,0.1,4.8,0.1,6.1-0.1c3.1-0.5,4.1-2.3,4.1-5.6v-30.4
	h-2.6h-2.8h-14.6h-3.1h-2.3v15.4c0,6.7-1.2,12.6-6.4,17.8l4.8,3c3.3-3.6,5.2-7.8,6.2-12.2L516.5,227.3L516.5,227.3z M501.7,222.3
	c0.1-1.2,0.1-2.4,0.1-3.5v-1h14.6v4.6h-14.7V222.3z"/>
<path class="st5" d="M69.6,186h4v-18.3h-2.7l-5.2,1.6l0.8,3.3l3.2-0.8V186H69.6z M79.8,186h13.5v-3.5h-7.9l3-2.3
	c3.2-2.5,4.8-4,4.8-7v-0.1c0-3.4-2.5-5.6-6.3-5.6c-3.2,0-5,1.3-6.8,3.8l2.8,2.3c1.4-1.7,2.3-2.4,3.7-2.4c1.4,0,2.4,0.8,2.4,2.4
	c0,1.5-0.9,2.5-3.1,4.4l-6.1,5V186z M99,186h4.2v-4.2H99V186z M110.7,186h4v-18.3H112l-5.2,1.6l0.8,3.3l3.2-0.8V186H110.7z M130,186
	h3.8v-3.9h2.4v-3.2h-2.4v-11.2h-3.4l-10,11.6l0.7,2.8h8.9V186z M125.2,178.8l4.8-5.7v5.7H125.2z M153.4,186.2c2.7,0,4.6-1.4,4.6-3.9
	l0,0c0-2.2-1.4-3.1-4-3.8c-2.2-0.6-2.7-0.8-2.7-1.7l0,0c0-0.6,0.6-1.1,1.6-1.1c1.1,0,2.2,0.5,3.3,1.2l1.4-2.1
	c-1.3-1-2.8-1.6-4.7-1.6c-2.6,0-4.4,1.5-4.4,3.8l0,0c0,2.5,1.6,3.2,4.2,3.9c2.1,0.5,2.5,0.9,2.5,1.6l0,0c0,0.7-0.7,1.2-1.8,1.2
	c-1.4,0-2.6-0.6-3.8-1.5l-1.6,2C149.6,185.5,151.5,186.2,153.4,186.2z M160.9,186h2.8l1.2-2.8h5.3l1.2,2.8h2.9l-5.4-12.7h-2.6
	L160.9,186z M165.9,180.7l1.7-4.1l1.7,4.1H165.9z M179.3,186h2.8v-10h3.8v-2.6h-10.4v2.6h3.8L179.3,186L179.3,186z M69.6,212h4
	v-18.3h-2.7l-5.2,1.6l0.8,3.3l3.2-0.8V212H69.6z M79.8,212h13.5v-3.5h-7.9l3-2.3c3.2-2.5,4.8-4,4.8-7v-0.1c0-3.4-2.5-5.6-6.3-5.6
	c-3.2,0-5,1.3-6.8,3.8l2.8,2.3c1.4-1.7,2.3-2.4,3.7-2.4c1.4,0,2.4,0.8,2.4,2.4c0,1.5-0.9,2.5-3.1,4.4l-6.1,5V212z M99,212h4.2v-4.2
	H99V212z M110.7,212h4v-18.3H112l-5.2,1.6l0.8,3.3l3.2-0.8V212H110.7z M127.6,212.3c4.2,0,6.9-2.4,6.9-6.3l0,0
	c0-4.1-2.8-5.8-6.4-5.8c-1,0-1.7,0.1-2.4,0.3l0.2-3.1h7.7v-3.5h-11.2l-0.5,9l2.3,1.5c0.9-0.4,1.9-0.7,3-0.7c1.9,0,3.2,0.9,3.2,2.5
	v0.1c0,1.6-1.2,2.5-3,2.5c-1.6,0-3-0.7-4.3-2l-2.4,2.9C122.6,211.3,124.7,212.3,127.6,212.3z M151.8,212.2c2.7,0,4.6-1.4,4.6-3.9
	l0,0c0-2.2-1.4-3.1-4-3.8c-2.2-0.6-2.7-0.8-2.7-1.7l0,0c0-0.6,0.6-1.1,1.6-1.1s2.2,0.5,3.3,1.2l1.4-2.1c-1.3-1-2.8-1.6-4.7-1.6
	c-2.6,0-4.4,1.5-4.4,3.8l0,0c0,2.5,1.6,3.2,4.2,3.9c2.1,0.5,2.5,0.9,2.5,1.6l0,0c0,0.7-0.7,1.2-1.8,1.2c-1.4,0-2.6-0.6-3.8-1.5
	l-1.6,2C148,211.5,149.9,212.2,151.8,212.2z M165.9,212.2c3.4,0,5.5-1.9,5.5-5.7v-7.1h-2.8v7.2c0,2-1,3-2.7,3s-2.7-1.1-2.7-3.1v-7.1
	h-2.8v7.2C160.5,210.3,162.6,212.2,165.9,212.2z M176.1,212h2.7v-8l6.1,8h2.4v-12.6h-2.7v7.8l-5.9-7.8h-2.6V212z"/>
<path class="st5" d="M73.9,221.1h-6.4v25.3h3.6v-22h2.1c-0.5,2.2-1.1,4.5-1.8,6.9c1.9,2.2,2.5,3.4,2.5,4.8c0,1.2-0.2,2-1,2.1
	c-0.3,0.1-1.2,0.1-1.7,0l0.6,3.4c1,0.1,2.5,0.1,3.2-0.1c1.9-0.5,2.5-2.7,2.5-5c0-1.8-0.8-3.4-2.7-5.9c1.1-3.1,2.1-6,3-8.9l-1.9-0.6
	h-0.8H73.9z M88.1,228.9v1.8h-6.4v-1.8H88.1z M81.7,226v-1.8h6.4v1.8H81.7z M81.7,241.9v-8h1.7c0.6,2.9,1.4,5.3,2.5,7.3
	C84.7,241.3,83.2,241.6,81.7,241.9z M75.7,242.8l1.1,3.5c2.5-0.5,6.6-1.4,9.4-2l-0.3-3.2c1.3,2.4,3.1,4.1,5.2,5.3l2.4-3
	c-1.8-0.8-3.3-2.1-4.5-3.8c1.6-1,3.1-2.1,4.2-3l-2.5-2.5c-0.7,0.8-1.8,1.8-3.1,2.8c-0.3-0.9-0.6-1.9-0.9-3h4.9v-12.7h-9.9h-1.3h-2.3
	v21.4C77.2,242.6,76.4,242.7,75.7,242.8z M99.8,223.1v6.5h3.7v-3.2h16.8v3.2h3.8v-6.5h-10.3v-2.8H110v2.8H99.8z M106.7,237.9
	c0.3-1.4,0.6-2.8,0.8-4.1l-3.7-0.2c-0.4,3.7-1.3,8.4-5.1,10.8l3.1,2c1.7-1.2,2.8-2.9,3.6-4.7c2.1,3.1,4.7,4.1,8.7,4.2
	c1.6,0,8.4,0,9.9,0l0.7-3.5c-1.6,0.1-8.7,0.1-10.1,0.1c-0.3,0-0.6,0-1-0.1v-4.6h7.1v-3.3h-7.1v-3.2h5.6V228h-15v3.3h5.6v10.1
	C108.7,240.7,107.6,239.6,106.7,237.9z M146.6,228.9V225h1.5v3.9H146.6z M152.9,245.3v1.2h3.4v-17.6h-4.9V225h5.6v-3.3h-18.2
	c0.1-0.2,0.1-0.4,0.2-0.6l-3.4-0.7c-0.9,4.6-2.7,9.4-5.2,13.3l2,3c0.5-0.8,1-1.6,1.5-2.5v12.4h3.5v-20c0.5-1.5,1-3.1,1.4-4.6v3.2
	h4.7v3.9h-4.7v17.6h3.3v-1.2h10.8V245.3z M151.4,241.9v-9.7h1.5v9.7H151.4z M146.6,241.9v-9.7h1.5v9.7H146.6z M141.9,241.9v-9.7h1.5
	v9.7H141.9z M177.8,226L177.8,226h4.4c-0.6,1.1-1.3,2.1-2.1,3C179.2,228.1,178.4,227.1,177.8,226z M169.7,229.1V229h1.9l2.7,1.8
	c0.5-0.6,1.1-1.2,1.5-1.8c0.6,0.8,1.1,1.5,1.8,2.2c-1.7,1.4-3.8,2.5-6,3.4l0.8-1.4C171.8,232.1,170.7,230.5,169.7,229.1z
	 M176.7,235.8c1.2-0.7,2.3-1.5,3.3-2.3c1.1,0.8,2.2,1.6,3.4,2.3H176.7z M183.2,245.5v0.9h3.6v-9.1l0.3,0.1l2.4-3.1
	c-2.5-0.7-4.8-1.8-6.8-3.2c1.9-2.1,3.4-4.6,4.4-7.4l-2.5-0.9h-0.1h-0.9h-4.1c0.2-0.6,0.4-1.2,0.6-1.8l-3.3-0.9
	c-0.8,2.9-2.3,5.4-4.1,7.4v-2H170v-5.4h-3.6v5.4h-3.5v3.3h3.4c-0.8,3.2-2.4,6.9-3.9,9l1.9,3.8c0.7-1.4,1.4-3.1,2.1-4.9v9.6h3.6
	v-12.6c0.4,0.9,0.6,1.8,0.9,2.5l0.6-1l1.9,2.2c0.2-0.1,0.4-0.2,0.6-0.3v9.2h3.5v-0.9L183.2,245.5L183.2,245.5z M177.1,242.4v-3.5h6
	v3.5H177.1z"/>
<path class="st3" d="M221.2,123h6.5v-4h8.1v-4.8h-8.1v-2.7h8.1v-4.8h-6.4l9.5-14.5h-7.6l-6.8,11.4l-6.8-11.4H210l9.4,14.5h-6.3v4.8
	h8.1v2.7h-8.1v4.8h8.1V123z M252.4,123h9.1V80.7h-6.3l-12.1,3.6l1.9,7.6l7.3-1.8V123H252.4z M269.4,132.7
	c7.1-0.1,11.1-3.3,11.1-11.2v-8.1h-9.7v9.6h3.7c0.3,3.4-1.7,5.5-5.9,5.9L269.4,132.7z M302.4,123.7c11.9,0,18.4-9.3,18.4-22.9v-0.1
	c0-8.3-2-12.8-5-15.8c-3.2-3.2-6.5-4.6-12.1-4.6c-9.5,0-16,6.2-16,14.7v0.1c0,8.5,5.9,13.6,15,13.6c3.7,0,6.5-1.1,8.5-2.9
	c-0.6,5.6-3.4,9.5-8.5,9.5c-3.5,0-6.1-1.1-9.2-3.6l-4.9,7C292.1,121.7,296.2,123.7,302.4,123.7z M304.1,101c-4.6,0-7.3-2.6-7.3-6.3
	v-0.1c0-3.7,2.6-6.4,7.1-6.4c4.6,0,7.4,2.7,7.4,6.4v0.1C311.3,98.3,308.7,101,304.1,101z M342.9,123.6c9.3,0,16.2-4.6,16.2-12.4
	v-0.1c0-5-2.5-7.7-6.8-9.9c3.2-2,5.3-4.7,5.3-9.2v-0.1c0-6.5-5.9-11.5-14.8-11.5S328,85.5,328,91.9V92c0,4.5,2.1,7.2,5.3,9.2
	c-4.4,2-6.8,5-6.8,10.1v0.1C326.7,118.8,333.6,123.6,342.9,123.6z M342.9,98.2c-3.7,0-6-2.2-6-5.2v-0.1c0-2.6,2.2-4.9,6-4.9
	s6,2.3,6,4.9V93C348.9,96,346.5,98.2,342.9,98.2z M342.9,116c-4.6,0-7.3-2.3-7.3-5.2v-0.1c0-3.2,3.1-5.2,7.3-5.2s7.3,1.9,7.3,5.2
	v0.1C350.1,113.7,347.4,116,342.9,116z M383.6,123.7c11.2,0,18.7-9.5,18.7-21.7v-0.1c0-12.2-7.5-21.6-18.6-21.6
	c-11.2,0-18.7,9.5-18.7,21.7v0.1C365,114.3,372.4,123.7,383.6,123.7z M383.7,115.4c-5.6,0-9.2-5.7-9.2-13.4v-0.1
	c0-7.7,3.6-13.3,9.1-13.3s9.2,5.8,9.2,13.4v0.1C392.8,109.7,389.3,115.4,383.7,115.4z"/>
<path class="st6" d="M410,82.5l-205,44.1"/>
<circle class="st7" cx="512" cy="116" r="46.5"/>
<path class="st3" d="M480,112.3l7.9,1.1L506,95.9l2.2-5L489,88.1l-2.4,5.6l11.3,1.6L480,112.3z M512.2,117.4c7,1,12.1-2.7,12.9-8.2
	c0.6-4.2-2.1-7.4-6.7-8c-1.1-0.2-2.2-0.2-3.2,0l1.6-3.3l10.9,1.6L530,94l-16.5-2.3l-5.7,11.5l3.2,3c1.1-0.5,2.5-0.7,3.7-0.5
	c2.5,0.4,3.5,1.7,3.3,3.2c-0.3,1.9-2.2,3.1-4.8,2.8c-2.4-0.3-4.1-1.5-5.6-3.5l-4.9,3.4C504.3,114.1,508.1,116.8,512.2,117.4z
	 M532.4,113.1c2.4,0.3,4.3-1.6,4.6-3.7c0.3-1.8-0.7-3.4-2.8-3.7c-2.4-0.3-4.3,1.6-4.6,3.7C529.3,111.3,530.3,112.8,532.4,113.1z
	 M527.9,119.1l2.8,0.4l15.6-11.9l-2.8-0.4L527.9,119.1z M540.1,121.1c2.4,0.3,4.3-1.6,4.6-3.7c0.3-1.9-0.7-3.4-2.8-3.7
	c-2.4-0.3-4.3,1.6-4.6,3.7C536.9,119.2,538,120.8,540.1,121.1z M532.8,111c-0.7-0.1-1-0.7-0.9-1.4c0.1-1,0.9-2,1.9-1.9
	c0.7,0.1,1,0.7,0.9,1.4C534.5,110.2,533.8,111.2,532.8,111z M540.5,119c-0.7-0.1-1-0.7-0.9-1.4c0.1-1,0.9-2,1.9-1.9
	c0.7,0.1,1,0.7,0.9,1.4C542.2,118.1,541.4,119.1,540.5,119z M486.3,137.8c6,0.9,11-3.5,11.8-8.7c0.6-4.4-2.2-8.2-7.2-9
	c-6-0.9-11,3.5-11.8,8.7C478.5,133.2,481.4,137.1,486.3,137.8z M487.3,133.5c-2.5-0.4-3.6-2.2-3.2-4.4c0.4-2.6,2.8-5.2,5.8-4.8
	c2.5,0.3,3.6,2.2,3.2,4.4C492.8,131.3,490.4,134,487.3,133.5z M499.1,139.3l4.8,0.7l2.5-6l8.2,1.2l1.6-3.8l-8.2-1.2l1.2-2.8l9,1.3
	l1.7-4l-13.9-2L499.1,139.3z M517.7,141.9l4.8,0.7l2.5-6l8.2,1.2l1.6-3.8l-8.2-1.2l1.2-2.8l9,1.3l1.7-4l-13.9-2L517.7,141.9z"/>
</svg>
