<?xml version="1.0" encoding="utf-8"?>
<!-- Generator: Adobe Illustrator 24.0.1, SVG Export Plug-In . SVG Version: 6.00 Build 0)  -->
<svg version="1.1" id="レイヤー_1" xmlns="http://www.w3.org/2000/svg" xmlns:xlink="http://www.w3.org/1999/xlink" x="0px"
	 y="0px" viewBox="0 0 618 227" style="enable-background:new 0 0 618 227;" xml:space="preserve">
<style type="text/css">
	.st0{opacity:0.5;fill:#95A0AC;enable-background:new    ;}
	.st1{opacity:0.6;fill:#95A0AC;enable-background:new    ;}
</style>
<path class="st0" d="M26.4,50.8c9,0,15.9-3.5,20.9-7.8V21.8H26.1v9.3h10.9v7c-2.7,2-6.2,2.9-10.1,2.9C18.1,41,12,34.5,12,25.5v-0.1
	C12,17,18.2,10.1,26,10.1c5.7,0,9,1.8,12.8,5l6.8-8.2c-5.1-4.3-10.4-6.7-19.2-6.7C11.5,0.2,0.7,11.6,0.7,25.5v0.1
	C0.7,40.1,11.2,50.8,26.4,50.8z M64.7,50h37.3v-9.6H75.5V30.1h23.1v-9.6H75.5v-9.9h26.2V1h-37V50z M130,50h10.8V10.9h14.9V1h-40.6
	v9.9H130V50z M199,50h23.3c11.1,0,18.3-4.5,18.3-13.4v-0.1c0-6.6-3.5-9.9-9.2-12c3.5-2,6.4-5,6.4-10.6v-0.1c0-3.4-1.1-6.1-3.4-8.3
	c-2.8-2.8-7.2-4.3-12.8-4.3H199V50z M209.5,20.8V10.4h10.6c4.6,0,7.1,1.8,7.1,5v0.1c0,3.6-3,5.2-7.8,5.2H209.5z M209.5,40.5V29.8
	H222c5.5,0,8,2,8,5.3v0.1c0,3.6-2.9,5.3-7.6,5.3H209.5z M252.3,50h11l4.5-11h20.7l4.5,11h11.3l-21-49.4h-9.9L252.3,50z M271.7,29.5
	l6.5-15.9l6.5,15.9H271.7z M318.8,50h19.1c15.4,0,26-10.7,26-24.5v-0.1c0-13.8-10.6-24.4-26-24.4h-19.1V50z M329.6,40.3V10.7h8.3
	c8.8,0,14.8,6.1,14.8,14.8v0.1c0,8.7-5.9,14.6-14.8,14.6H329.6z M404.2,50.8c9,0,15.9-3.5,20.9-7.8V21.8h-21.3v9.3h10.9v7
	c-2.7,2-6.2,2.9-10.1,2.9c-8.7,0-14.8-6.6-14.8-15.5v-0.1c0-8.3,6.2-15.3,14.1-15.3c5.7,0,9,1.8,12.8,5l6.8-8.2
	c-5.1-4.3-10.4-6.7-19.2-6.7c-14.8,0-25.7,11.4-25.7,25.3v0.1C378.4,40.1,388.9,50.8,404.2,50.8z M442.5,50h37.3v-9.6h-26.6V30.1
	h23.1v-9.6h-23.1v-9.9h26.2V1h-37V50z M513.8,50.7c10.6,0,18-5.5,18-15.2v-0.1c0-8.5-5.6-12.1-15.5-14.7c-8.5-2.2-10.6-3.2-10.6-6.4
	v-0.1c0-2.4,2.2-4.3,6.3-4.3c4.1,0,8.4,1.8,12.7,4.8l5.6-8.1c-5-4-11.1-6.2-18.2-6.2c-10,0-17.1,5.9-17.1,14.8v0.1
	c0,9.7,6.4,12.5,16.2,15c8.2,2.1,9.9,3.5,9.9,6.2v0.1c0,2.9-2.7,4.6-7.1,4.6c-5.6,0-10.2-2.3-14.6-6l-6.4,7.6
	C498.9,48.1,506.4,50.7,513.8,50.7z M609.1,51l7.9-5.5l-7.2-7.2c2.5-3.3,4.5-6.9,6.4-10.4l-7.9-4.3c-1.5,3-3.2,5.9-4.8,8.4l-6.5-6.5
	c6.1-2.4,10.3-6.2,10.3-12.8v-0.1c0-6.9-5.5-12.3-13.8-12.3c-9.5,0-14.8,6.2-14.8,12.9v0.1c0,3.4,1.1,6.4,3.4,9.8
	c-6.2,2.8-9.5,7.2-9.5,13.4v0.1c0,8.7,7.1,14.1,16.5,14.1c5.7,0,10.4-2.2,14.3-5.5L609.1,51z M591.5,19.8c-2-2.3-2.9-3.9-2.9-6.1
	v-0.1c0-2.9,1.9-5,4.8-5c2.7,0,4.6,1.8,4.6,4.5v0.1C598,16.3,595.7,18.1,591.5,19.8z M590.3,41.9c-4,0-6.9-2.3-6.9-5.7V36
	c0-2.4,1.3-4.8,4.5-6.4l9.4,9.5C595.2,40.8,592.8,41.9,590.3,41.9z M45.6,127.8c9.5,0,15-3.4,20.1-8.8l-6.9-6.9
	c-3.8,3.5-7.3,5.7-12.9,5.7c-8.4,0-14.2-7-14.2-15.4v-0.1c0-8.4,6-15.3,14.2-15.3c4.9,0,8.8,2.1,12.5,5.5l6.9-7.9
	c-4.6-4.5-10.1-7.6-19.3-7.6c-15,0-25.5,11.4-25.5,25.3v0.1C20.4,116.7,31.1,127.8,45.6,127.8z M81.3,127h37.3v-9.6H92v-10.3h23.1
	v-9.6H92v-9.9h26.2V78h-37V127z M135.2,127H146v-15.7h8.3h0.1l10.5,15.7h12.6l-12-17.5c6.2-2.3,10.5-7.3,10.5-15.2v-0.1
	c0-4.6-1.5-8.5-4.2-11.2c-3.2-3.2-8-5-14.3-5h-22.4V127z M146,101.8V87.7h10.7c5.2,0,8.5,2.4,8.5,7v0.1c0,4.1-3,6.9-8.3,6.9H146z
	 M204.2,127H215V87.9h14.9V78h-40.6v9.9h14.9V127z M245.6,127h10.8V78h-10.8V127z M275.7,127h10.8v-19h23.4v-9.8h-23.4V87.8H313V78
	h-37.3V127z M329.1,127h10.8V78h-10.8V127z M382.1,127.8c9.5,0,15-3.4,20.1-8.8l-6.9-6.9c-3.9,3.5-7.3,5.7-12.9,5.7
	c-8.4,0-14.2-7-14.2-15.4v-0.1c0-8.4,5.9-15.3,14.2-15.3c4.9,0,8.8,2.1,12.5,5.5l6.9-7.9c-4.5-4.5-10.1-7.6-19.3-7.6
	c-15.1,0-25.6,11.4-25.6,25.3v0.1C357,116.7,367.7,127.8,382.1,127.8z M413.6,127h11l4.5-11h20.7l4.5,11h11.3l-21-49.3h-9.9
	L413.6,127z M432.9,106.5l6.5-15.9l6.5,15.9H432.9z M485.2,127H496V87.9h14.9V78h-40.6v9.9h14.9V127z M526.2,127h37.3v-9.6h-26.6
	v-10.3H560v-9.6h-23.1v-9.9h26.2V78h-37V127z M597.5,127.7c10.6,0,18-5.5,18-15.2v-0.1c0-8.5-5.6-12.1-15.5-14.7
	c-8.5-2.2-10.6-3.2-10.6-6.4v-0.1c0-2.4,2.2-4.3,6.3-4.3c4.1,0,8.4,1.8,12.7,4.8l5.6-8.1c-5-4-11.1-6.2-18.2-6.2
	c-10,0-17.1,5.9-17.1,14.8v0.1c0,9.7,6.4,12.5,16.2,15c8.2,2.1,9.9,3.5,9.9,6.2v0.1c0,2.9-2.7,4.6-7.1,4.6c-5.6,0-10.2-2.3-14.6-5.9
	l-6.4,7.6C582.6,125.1,590.1,127.7,597.5,127.7z"/>
<path class="st1" d="M259.6,180.9c0.6,0.7,0.9,1.1,1.4,2c2.5-2,3.2-2.8,4.6-5.2c-0.1,0.8-0.1,1.1-0.1,1.8v2.1c0,1,0,1.5-0.1,2.2h2.6
	c-0.1-0.6-0.1-1.2-0.1-2.3v-2c0-0.6,0-1,0-1.8c1.4,2.4,2.3,3.4,5,5.3c0.4-1,0.7-1.6,1.3-2.4c-1.8-1.1-2.5-1.5-3.6-2.6
	c-0.7-0.7-1-1.1-1.5-1.8h2.4c1.1,0,1.6,0,2.3,0.1v-2.6c-0.7,0.1-1.3,0.1-2.4,0.1h-3.4v-1.5h2.7c1.1,0,1.7,0,2.3,0.1
	c0-0.6-0.1-1.4-0.1-2.3v-5.4c0-1.9,0-1.9,0.1-2.3c-0.4,0.1-1,0.1-2,0.1h-8c-1,0-1.6,0-2.2-0.1c0.1,0.6,0.1,1.1,0.1,2.3v5.6
	c0,1.7,0,1.7-0.1,2.2c0.6-0.1,1.2-0.1,2.2-0.1h2.6v1.5h-3.1c-1.1,0-1.7,0-2.4-0.1v2.6c0.6-0.1,1.2-0.1,2.3-0.1h1.8
	c-1.2,1.9-2.6,3.3-4.6,4.5v-2.8c0-0.9,0-1.2,0-1.7c-0.4,0-0.8,0.1-1.6,0.1h-3.7c-1,0-1.3,0-1.9-0.1c0.1,0.6,0.1,1.1,0.1,1.9v3.5
	c0,0.7,0,1.6-0.1,2.3h2.5v-1.1h2.4v0.8h2.4c-0.1-0.5-0.1-1-0.1-1.7V180.9z M265.6,164.5v1.7h-2.4v-1.7H265.6z M267.9,164.5h2.6v1.7
	h-2.6V164.5z M265.6,168.2v1.9h-2.4v-1.9H265.6z M267.9,168.2h2.6v1.9h-2.6V168.2z M254.9,178.2h2.5v2.4h-2.5V178.2z M252.5,164.7
	c0.6-0.1,1.1-0.1,1.9-0.1h3.2c0.9,0,1.3,0,1.9,0.1v-2.4c-0.6,0.1-1,0.1-1.9,0.1h-3.2c-1,0-1.4,0-1.9-0.1V164.7z M251.7,168.2
	c0.6-0.1,1.1-0.1,1.9-0.1h4.5c0.9,0,1.3,0,1.8,0.1v-2.4c-0.6,0.1-0.9,0.1-1.9,0.1h-4.4c-0.9,0-1.4,0-1.9-0.1V168.2z M252.6,171.6
	c0.5,0,0.8-0.1,1.5-0.1h4c0.7,0,1.1,0,1.5,0.1v-2.2c-0.4,0-0.7,0.1-1.5,0.1h-4c-0.8,0-1.1,0-1.5-0.1V171.6z M252.6,175
	c0.4,0,0.8-0.1,1.5-0.1h4c0.7,0,1.1,0,1.5,0.1v-2.2c-0.4,0-0.7,0.1-1.5,0.1h-4c-0.7,0-1.1,0-1.5-0.1V175z M283.1,179
	c-0.6-0.6-1-1-1.4-1.5c0.1-0.9,0.2-1.4,0.2-1.9c0-0.4,0-0.5,0.1-0.8l-2.4-0.4c0,0.3,0,0.5,0,0.7c0,1-0.2,2.5-0.4,3.4
	c-0.3,1.4-0.9,2.6-1.6,3.6c1.2,0.7,1.3,0.9,2,1.7c0.7-1.1,1.1-2.1,1.5-3.6c1,1.2,2.3,2.2,3.9,2.6c1.6,0.5,4.3,0.7,8.4,0.7
	c2.1,0,4.8,0,6.5-0.1c0.2-1.2,0.4-1.8,0.7-2.7c-0.6,0.1-0.9,0.1-1.3,0.1c0.4-0.6,0.6-0.9,1.1-1.4c-1.4-0.6-2.4-1.2-3.7-2.2h0.4
	c0.9,0,1.4,0,2,0.1c-0.1-0.7-0.1-1.4-0.1-2.3v-6.7c0-0.9,0-1.5,0.1-2c-0.6,0-1,0.1-2,0.1h-2.1c0.3-0.6,0.4-0.9,0.6-1.6h2.1
	c0.8,0,1.7,0,2.3,0.1v-2.3c-0.6,0.1-1.3,0.1-2.5,0.1h-6c-1.1,0-1.9,0-2.6-0.1v2.3c0.6-0.1,1.4-0.1,2.4-0.1h2c-0.2,0.5-0.4,1-0.6,1.6
	h-1c-1,0-1.4,0-2-0.1c0,0.6,0.1,1.2,0.1,2v7c0,0.8,0,1.4-0.1,2c0.5,0,1-0.1,1.9-0.1c-1,1.1-2,1.8-3.7,2.4c0.5,0.4,0.9,0.8,1.3,1.4
	c-1.9-0.1-2.9-0.2-3.9-0.5v-2.7h1.2c0.9,0,1.4,0,1.9,0.1v-2.3c-0.6,0.1-1.2,0.1-1.9,0.1h-1.2v-1.9h1.5c1.1,0,1.5,0,2.2,0.1v-2.4
	c-0.6,0.1-1.1,0.1-2,0.1h-6.7c-1.2,0-1.7,0-2.3-0.1v2.4c0.6-0.1,1.1-0.1,2.3-0.1h2.6V179z M292.2,177.1h4.2l-1.5,1.1
	c1.3,1.3,2.3,2,3.5,2.7c-1.6,0.1-3.8,0.1-5.5,0.1c-0.7,0-1.6,0-2.4,0c1-0.6,2.3-1.7,3.3-2.8L292.2,177.1z M292.2,168.2h4.7v1.1h-4.7
	V168.2z M292.2,171.1h4.7v1.1h-4.7V171.1z M292.2,173.9h4.7v1.1h-4.7V173.9z M279.5,168.5c0,1,0,1.5-0.1,2.1
	c0.7-0.1,1.2-0.1,2.1-0.1h4.7c0.8,0,1.4,0,2.1,0.1c-0.1-0.6-0.1-1-0.1-2.1v-4.1c0-1.1,0-1.5,0.1-2.1c-0.6,0.1-1,0.1-2.2,0.1h-4.7
	c-1.1,0-1.6,0-2.1-0.1c0.1,0.6,0.1,1.2,0.1,2.1V168.5z M281.8,164.4h4v1.2h-4V164.4z M281.8,167.4h4v1.2h-4V167.4z M309.9,182.4
	c0-0.3,0-0.5,0-0.6c0-1.7,0.8-4.5,2.1-7.3l-1.9-0.9c-0.9,2.2-1,2.3-1.2,3.2c0-0.6,0-0.8,0-1.3c0-2.1,0.1-3.5,0.4-5.3
	c0.4-3.1,0.9-5.8,1.5-7.2l-3.2-0.3c0,0.6-0.1,0.9-0.4,2.2c-0.7,3.6-1,6.3-1,9.4c0,2.4,0.2,4.3,0.6,7.2c0.1,0.6,0.1,0.7,0.1,1.1
	L309.9,182.4z M313.2,168c2.5,0.3,2.6,0.3,4.3,0.3c1.8,0,3.6-0.1,5.1-0.3c1.2-0.1,1.5-0.2,1.7-0.2l-0.1-2.9
	c-1.6,0.4-3.9,0.6-6.5,0.6c-2.1,0-3.4-0.1-4.4-0.4L313.2,168z M314.9,172c-1.5,1.8-2.2,3.4-2.2,4.9c0,0.9,0.3,1.8,0.7,2.4
	c1.1,1.4,3,2.1,6,2.1c1.6,0,3-0.1,5-0.5c0.6-0.1,0.6-0.1,1-0.1l-0.2-3c-1.5,0.6-3.6,0.9-5.7,0.9c-2.5,0-3.8-0.7-3.8-2.1
	c0-1,0.5-2.1,1.7-3.5L314.9,172z M336.9,162.8c0.1,0.4,0.1,0.4,0.4,1.6c0.6,3,1.1,4.8,1.6,6.5c-1.6,0.8-2.3,1.3-3.3,2
	c-1.4,1.2-2.1,2.7-2.1,4.3c0,1.8,0.8,3.2,2.1,4c1.5,0.9,3.6,1.3,7,1.3c1.7,0,3-0.1,5.6-0.4c1.3-0.1,1.4-0.1,1.9-0.2l-0.3-3.3
	c-1.8,0.6-4.8,1-7.8,1c-3.9,0-5.5-0.7-5.5-2.5c0-1.7,1.8-3.2,5.3-4.5c2.7-1,5.8-1.9,7.9-2.3l-1-3c-0.4,0.2-0.4,0.2-1.7,0.6
	c-3,1-3.9,1.3-5.4,1.8c-0.6-1.9-1.6-6.4-1.6-7.5L336.9,162.8z M346.3,163.2c1.1,1.2,1.7,2.1,2.5,3.6l1.7-0.9
	c-0.8-1.5-1.5-2.4-2.5-3.5L346.3,163.2z M353.4,164.3c-0.7-1.4-1.4-2.3-2.5-3.4l-1.6,0.8c0.9,1,1.7,2.2,2.4,3.5L353.4,164.3z
	 M363.8,172.9c0.5-1.1,1.6-3.7,3-7.2c0.7-1.8,0.8-2.1,1.2-2.8l-3.2-0.8c-0.2,1-0.2,1-5.7,16.3c-0.8,2.1-1,2.7-1.3,3.4l3.1,1
	c0.3-1.5,1.3-4.1,2-5.5c1.2-2.2,2.5-3.4,3.8-3.4c0.5,0,0.9,0.2,1.1,0.6c0.1,0.3,0.2,0.7,0.2,1.4c0,0.2,0,0.8,0,1.7
	c0,0.1,0,0.2,0,0.2c0,1.2,0.1,2,0.4,2.7c0.6,1.4,1.9,2.1,3.8,2.1c3.6,0,6-2.5,7-7.5c-1.5-0.7-1.8-1-2.6-1.8
	c-0.1,1.2-0.5,2.7-0.9,3.8c-0.7,1.7-1.7,2.6-3,2.6c-0.6,0-1-0.1-1.3-0.3c-0.4-0.4-0.5-0.8-0.5-2.6c0-2.8-0.1-3.6-0.6-4.4
	c-0.5-0.8-1.6-1.4-2.7-1.4c-1.1,0-2.3,0.6-3.1,1.4C364,172.8,364,172.8,363.8,172.9L363.8,172.9z M389.7,162.8
	c0.1,0.4,0.1,0.4,0.4,1.6c0.6,3,1.1,4.8,1.6,6.5c-1.6,0.8-2.3,1.3-3.3,2c-1.4,1.2-2.1,2.7-2.1,4.3c0,1.8,0.8,3.2,2.1,4
	c1.5,0.9,3.6,1.3,7,1.3c1.7,0,3-0.1,5.6-0.4c1.3-0.1,1.4-0.1,1.9-0.2l-0.3-3.3c-1.8,0.6-4.8,1-7.8,1c-3.9,0-5.5-0.7-5.5-2.5
	c0-1.7,1.8-3.2,5.3-4.5c2.7-1,5.8-1.9,7.9-2.3l-1-3c-0.4,0.2-0.4,0.2-1.7,0.6c-3,1-3.9,1.3-5.4,1.8c-0.6-1.9-1.6-6.4-1.6-7.5
	L389.7,162.8z M399.1,163.2c1.1,1.2,1.7,2.1,2.5,3.6l1.7-0.9c-0.8-1.5-1.5-2.4-2.5-3.5L399.1,163.2z M406.2,164.3
	c-0.7-1.4-1.4-2.3-2.5-3.4l-1.6,0.8c0.9,1,1.7,2.2,2.4,3.5L406.2,164.3z M416.6,172.9c0.5-1.1,1.6-3.7,3-7.2
	c0.7-1.8,0.8-2.1,1.2-2.8l-3.2-0.8c-0.2,1-0.2,1-5.7,16.3c-0.8,2.1-1,2.7-1.3,3.4l3.1,1c0.3-1.5,1.3-4.1,2-5.5
	c1.2-2.2,2.5-3.4,3.8-3.4c0.5,0,0.9,0.2,1.1,0.6c0.1,0.3,0.2,0.7,0.2,1.4c0,0.2,0,0.8,0,1.7c0,0.1,0,0.2,0,0.2c0,1.2,0.1,2,0.4,2.7
	c0.6,1.4,1.9,2.1,3.8,2.1c3.6,0,6-2.5,7-7.5c-1.5-0.7-1.8-1-2.6-1.8c-0.1,1.2-0.5,2.7-0.9,3.8c-0.7,1.7-1.7,2.6-3,2.6
	c-0.6,0-1-0.1-1.3-0.3c-0.4-0.4-0.5-0.8-0.5-2.6c0-2.8-0.1-3.6-0.6-4.4c-0.5-0.8-1.6-1.4-2.7-1.4c-1.1,0-2.3,0.6-3.1,1.4
	C416.8,172.8,416.8,172.8,416.6,172.9L416.6,172.9z M453.8,162.3c-0.8,0.5-1.5,0.7-2.9,1.1c-3,0.8-7.1,1.4-10.3,1.4
	c-0.4,0-0.7,0-1.5,0c0.5,1.2,0.6,1.5,0.9,2.6c4-0.2,4.7-0.3,6.6-0.6c0,1.7,0,2.6,0,3.6h-6.1c-1.6,0-2,0-2.9-0.2v2.9
	c0.9-0.1,1.3-0.1,2.9-0.1h5.9c-0.1,0.8-0.2,1.2-0.3,1.6c-0.4,1.6-1.3,2.9-2.8,4.1c-1.1,0.9-2,1.4-3.7,2c1,0.9,1.4,1.3,2.1,2.5
	c1.1-0.5,1.6-0.8,2.2-1.2c1.7-1.1,3.1-2.4,3.9-3.8s1.3-3,1.6-5.2h5.3c1.5,0,2,0,2.9,0.1v-2.9c-0.9,0.1-1.3,0.2-2.9,0.2h-5.1
	c0-0.8,0-0.8,0.1-4.1c1.9-0.4,2.6-0.6,4-1c1.7-0.6,1.7-0.6,2-0.6L453.8,162.3z M469.4,170.2l-2,0.3c-0.9,0.1-1.5,0.2-2.3,0.2
	l0.5,2.7c0.7-0.2,1.3-0.4,2.1-0.5l2.1-0.3l1.6,9c0.1,0.8,0.2,1.3,0.2,1.9l3-0.5c-0.2-0.6-0.2-0.6-0.5-1.9l-1.7-8.9l5.6-0.9
	c0.6-0.1,0.6-0.1,0.9-0.2c-1,1.8-2.3,3.2-4.1,4.3c1,0.5,1.4,0.8,2.2,1.7c2.3-1.8,3.7-3.6,4.7-6.2c0.2-0.6,0.4-0.8,0.6-1.2l-1.7-1.5
	c-0.5,0.2-0.9,0.3-1.6,0.4l-7.2,1.2l-0.4-1.8c-0.2-0.8-0.2-1.4-0.2-1.8l-2.9,0.4c0.2,0.5,0.3,0.8,0.5,1.8L469.4,170.2z M493.2,162.9
	c0.1,0.8,0.1,0.8,0.1,2.5l-0.1,13c0,1.4,0,1.8-0.2,2.5l1.5,1.8c0.5-0.2,0.8-0.3,1.4-0.4c3.9-0.7,6.3-1.7,8.7-3.3
	c2.2-1.4,3.7-3,5.4-5.6c-1-0.9-1.3-1.2-2.3-2.4c-1.2,2.3-2.7,4-4.9,5.5c-1.8,1.2-4.1,2.2-6.6,2.6l0.1-13.7c0-1.2,0-1.8,0.1-2.4
	L493.2,162.9z M516.7,166.4c2.2,1.2,4.2,2.8,6.1,4.9l2.1-2.6c-1.8-1.8-3.3-2.9-6.2-4.6L516.7,166.4z M517.6,182.2
	c0.6-0.2,0.6-0.2,1.6-0.4c3.7-0.8,6.7-2,9.1-3.6c3.3-2.2,5.6-5,7.6-9.4c-1.2-0.9-1.6-1.2-2.5-2.4c-0.7,1.9-1.4,3.3-2.4,4.8
	c-1.9,2.7-4.1,4.6-7.1,5.9c-2.2,1-5,1.7-7.1,1.8L517.6,182.2z M544.3,165.4c1.8,0.6,4.5,2,6.4,3.3l1.5-2.6c-1.7-1.1-4.1-2.2-6.4-3.1
	L544.3,165.4z M542.4,171.2c2.2,0.8,4.9,2.3,6.5,3.5l1.5-2.7c-1.8-1.2-4.2-2.4-6.4-3.3L542.4,171.2z M556.7,163.3
	c1.1,1.2,1.7,2.1,2.5,3.6l1.7-0.9c-0.8-1.5-1.5-2.4-2.5-3.5L556.7,163.3z M543.8,182.8c0.5-0.1,0.6-0.2,1.7-0.4
	c8.6-1.7,13.7-5.6,16.6-12.9c-1.1-0.7-1.6-1.1-2.5-2.1c-1.7,5.1-5.3,9-9.7,10.6c-2.5,1-5.1,1.5-6.9,1.6L543.8,182.8z M563.8,164.4
	c-0.7-1.4-1.4-2.3-2.5-3.4l-1.6,0.8c0.9,1,1.7,2.2,2.4,3.5L563.8,164.4z M571.5,162.6c0.1,0.6,0.1,1,0.1,1.6c0,0.3,0,0.8,0,1.6
	c-0.1,6-0.2,8.4-0.2,9.7c0,3.2,0.7,5.1,2.4,6.2c1,0.7,2.5,1.1,4.2,1.1c3,0,5.4-1,7.2-3c1.2-1.3,1.9-2.9,2.9-6.1
	c-1.2-0.5-1.6-0.8-2.9-1.8c-0.3,1.7-0.6,2.8-1.1,4c-1.1,2.6-3.2,4.1-5.8,4.1c-1.5,0-2.7-0.5-3.2-1.2c-0.5-0.7-0.6-1.6-0.6-3.9
	c0-1.7,0.1-6.6,0.2-8.8c0.1-1.8,0.1-2.5,0.3-3.2L571.5,162.6z M593.9,168.2c0.9-0.2,2.4-0.4,4-0.5c5.2-0.4,6.1-0.5,8.1-0.7
	c-1.6,0.8-2.4,1.4-3.3,2.4c-1.5,1.6-2.3,3.6-2.3,5.7c0,2.5,1.2,4.5,3.4,5.8c1.5,0.8,3,1.2,5.6,1.6c0.4,0,0.5,0.1,0.8,0.1l0.4-3.3
	c-0.2,0-0.5,0-0.5,0c-0.9,0-2.4-0.3-3.6-0.6c-2-0.6-3.2-2-3.2-3.9c0-2.4,1.8-4.8,4.8-6.4c1.5-0.8,3.3-1.3,4.8-1.3c0.2,0,0.2,0,0.5,0
	l-0.2-3.1c-0.4,0.1-0.8,0.1-2.8,0.2c-6.6,0.3-10.6,0.5-12,0.6c-3.5,0.2-3.5,0.2-4,0.2c-0.1,0-0.4,0-0.9,0L593.9,168.2z M308,206.8
	c0,0.1,0,0.3,0,0.3c0,0.5-0.1,1.3-0.2,2.3c-0.4,3-1.2,6-2.3,8.2c-1,2.2-2,3.7-3.4,5.1c1.2,0.6,1.6,1,2.7,2.1
	c3.2-3.7,5.1-8.4,6.1-15.3l0.1-0.6l0.1-0.7l0-0.4c0-0.2,0-0.2,0.1-0.5L308,206.8z M315.2,207.4c0.1,0.4,0.2,0.7,0.3,1.7
	c0.9,6.5,3.2,12,6.4,15.8c0.9-1,1.4-1.4,2.6-2.2c-2.5-2.7-4.2-5.9-5.4-10.4c-0.6-2.1-1-4.4-1-5.5L315.2,207.4z M318.4,205.9
	c0.9,1.3,1.4,2.4,2,3.9l1.8-0.6c-0.6-1.6-1.1-2.6-2-3.9L318.4,205.9z M325.3,208.3c-0.5-1.4-1.1-2.4-2-3.7l-1.8,0.5
	c0.8,1.1,1.4,2.3,1.9,3.8L325.3,208.3z M331.6,211.8c1.1,2.1,1.6,3.4,2.2,5.8l2.7-0.9c-0.9-2.7-1.3-3.8-2.4-5.7L331.6,211.8z
	 M336.8,210.7c1,2,1.7,3.8,2.2,5.6l2.7-0.8c-0.6-2.1-1.1-3.1-2.3-5.5L336.8,210.7z M345,210.5c0,0.7-0.1,1.6-0.4,2.8
	c-1,3.8-2.6,6.3-5.4,8.3c-1.4,1-2.4,1.6-4.1,2.2c1,1,1.3,1.3,1.9,2.4c3.6-1.8,5.5-3.4,7.3-5.8c1.5-2.1,2.6-4.7,3.3-8
	c0.1-0.7,0.2-0.9,0.3-1.2L345,210.5z M358.4,208.4c1.8,0.6,4.5,2,6.4,3.3l1.5-2.6c-1.7-1.1-4.1-2.2-6.4-3.1L358.4,208.4z
	 M356.5,214.2c2.2,0.8,4.9,2.3,6.5,3.5l1.5-2.7c-1.8-1.2-4.2-2.4-6.4-3.3L356.5,214.2z M370.7,206.3c1.1,1.2,1.7,2.1,2.5,3.6
	l1.7-0.9c-0.8-1.5-1.5-2.4-2.5-3.5L370.7,206.3z M357.8,225.8c0.5-0.1,0.6-0.2,1.7-0.4c8.6-1.7,13.7-5.6,16.6-12.9
	c-1.1-0.7-1.6-1.1-2.5-2.1c-1.7,5.1-5.3,9-9.7,10.6c-2.5,1-5.1,1.5-6.9,1.6L357.8,225.8z M377.8,207.4c-0.7-1.4-1.4-2.3-2.5-3.4
	l-1.6,0.8c0.9,1,1.7,2.2,2.4,3.5L377.8,207.4z M389,210.4c-0.2-0.8-0.3-1.1-0.5-1.7c-0.7-2.1-0.7-2.1-0.8-2.8l-3,0.8
	c0.5,0.8,0.9,2.1,1.6,4.5c-1.2,0.4-1.3,0.4-2.3,0.7c-1.2,0.4-1.5,0.5-2.2,0.6l0.9,2.8c0.6-0.3,2.2-1,3.1-1.2
	c0.8-0.3,0.9-0.3,1.2-0.4c1.5,5.2,2.8,10.8,2.9,12.8l3.2-0.7c-0.2-0.5-0.2-0.6-0.4-1.2c-1.4-6-1.6-6.5-3-11.7
	c4.1-1.2,5.5-1.5,7.2-1.5c2,0,3.2,0.9,3.2,2.4c0,0.8-0.4,1.6-1,2c-0.7,0.5-1.7,0.8-2.7,0.8c-1.2,0-2.4-0.3-3.8-0.9
	c0.3,1.3,0.4,1.8,0.4,3c1.3,0.4,2.5,0.7,3.7,0.7c1.8,0,3.3-0.5,4.4-1.4c1.2-1,1.9-2.6,1.9-4.2c0-3-2.2-4.9-5.6-4.9
	c-0.5,0-0.8,0-1.4,0.1c0-3.1,0-3.1,0.1-3.8h-3c0.1,0.6,0.1,0.8,0.1,2.9c0,0.8,0,0.8,0,1.3c-1,0.2-1.4,0.3-2,0.5L389,210.4z
	 M430,206.4c-0.7,0.1-1.4,0.1-2.7,0.1h-5.6c0.3-0.5,0.4-0.8,0.8-1.6l-2.6-0.5c-0.6,2.1-1.8,3.9-3.7,5.6c0-0.6,0-0.9,0.1-1.3h-2.5
	c0.1,0.7,0.1,1,0.1,2.2v9.8c0,1.2,0,1.8-0.1,2.5h2.6c-0.1-0.6-0.1-1.1-0.1-2.4v-9.7c0.6,0.5,0.8,0.6,1.2,1.1
	c0.9-0.8,1.3-1.2,1.9-1.9c0.7,1.1,1.1,1.5,1.9,2.3c-1.5,0.8-2.6,1.2-4.6,1.6c0.5,0.6,0.7,1.2,1.1,2.1c2.4-0.7,3.8-1.3,5.3-2.2
	c1.7,1.2,3.5,1.9,6.6,2.7c0.3-1,0.5-1.6,1-2.5c-2.7-0.4-4.1-0.8-5.7-1.6c1.2-1,2-2.2,3-3.8c0.9,0,1.4,0,2.1,0.1V206.4z M425.3,208.8
	c-0.6,1-1.2,1.7-2.2,2.6c-1-0.8-1.5-1.4-2.3-2.6H425.3z M410.2,223.9c0,1.2,0,1.9-0.1,2.9h2.6c-0.1-0.9-0.1-1.7-0.1-2.9v-13.2
	c0.8-1.6,1.3-2.9,1.8-4.4c0.2-0.7,0.2-0.7,0.4-1.1l-2.7-0.7c-0.5,3.1-2.4,7.1-4.6,9.5c0.5,0.8,0.8,1.6,1.2,2.8
	c0.7-0.9,1.1-1.4,1.7-2.6c0,1.1-0.1,1.7-0.1,2.9V223.9z M423,215c-1.2,1.1-3.3,2-6.3,2.6c0.7,0.9,0.9,1.1,1.2,1.9
	c2.8-0.8,4.6-1.5,6-2.6c0.6-0.5,0.6-0.5,0.9-0.6L423,215z M425.4,216.9c-1.2,1.6-4.9,3.3-8.5,4c0.6,0.7,0.9,1.2,1.2,2
	c4.1-1.1,6.1-2.1,9.4-4.7L425.4,216.9z M428.2,219c-0.7,0.9-1.6,1.7-3,2.6c-2.5,1.5-5.3,2.5-9.1,3.1c0.6,0.8,0.9,1.3,1.2,2.2
	c5.5-1.2,8.5-2.6,12-5.6c0.4-0.3,0.6-0.6,0.9-0.8L428.2,219z M451,208.3c-1.7,1.6-3,2.5-4.8,3.5H444c0.1,0.7,0.1,1.4,0.1,2.4v9
	c0,0.5-0.2,0.6-1.1,0.6c-1.1,0-2.2-0.1-3.8-0.4c0.4,1.1,0.6,1.7,0.7,2.8c2.2,0.1,2.5,0.1,3.4,0.1c2.7,0,3.6-0.6,3.6-2.4v-9.7
	c3.1-1.9,5-3.3,7.6-5.9c0.4-0.4,0.5-0.5,1-0.9l-1.6-1.8c-0.6,0.1-1.3,0.1-2.6,0.1H439c-1.4,0-2.4,0-3.3-0.1v2.9
	c1.1-0.1,2-0.2,3.3-0.2H451z M475.5,223.4h-2.1v-9.2c0-1.3,0-1.9,0.1-2.6h-2.7c0.1,0.8,0.1,1.5,0.1,2.6v9.2c-0.6,0-1,0-1.5-0.1v2.7
	c0.7-0.1,1.5-0.1,2.7-0.1h8.1c1.1,0,1.9,0,2.7,0.1v-2.8c-0.8,0.1-1.7,0.1-2.7,0.1H478v-7.1h2c1.1,0,1.7,0,2.4,0.1v-2.7
	c-0.7,0.1-1.2,0.1-2.4,0.1h-2v-5.9h1.9c1.1,0,2,0,2.7,0.1v-2.7c-0.7,0.1-1.6,0.1-2.8,0.1h-7.1c-1.2,0-2,0-2.8-0.1v2.7
	c0.8-0.1,1.6-0.1,2.8-0.1h2.7V223.4z M461.5,207.5c0.6-0.1,1.1-0.1,2-0.1h3.5c0.9,0,1.4,0,2,0.1v-2.3c-0.6,0.1-1,0.1-2,0.1h-3.5
	c-1,0-1.4,0-2-0.1V207.5z M460.7,211.1c0.6-0.1,1.1-0.1,1.9-0.1h5.1c1,0,1.3,0,1.8,0.1v-2.5c-0.6,0.1-0.9,0.1-1.9,0.1h-5
	c-0.9,0-1.3,0-1.9-0.1V211.1z M461.6,214.5c0.5,0,0.8-0.1,1.6-0.1h4.2c0.7,0,1,0,1.5,0.1v-2.2c-0.4,0-0.7,0.1-1.5,0.1h-4.2
	c-0.8,0-1.1,0-1.6-0.1V214.5z M461.6,217.8c0.5,0,0.8-0.1,1.6-0.1h4.2c0.8,0,1,0,1.6,0.1v-2.2c-0.4,0-0.7,0.1-1.5,0.1h-4.2
	c-0.8,0-1.1,0-1.6-0.1V217.8z M463.8,226.8v-1.2h2.7v0.8h2.3c0-0.4-0.1-0.9-0.1-1.9v-3.8c0-0.9,0-1.2,0.1-1.7
	c-0.4,0.1-0.7,0.1-1.6,0.1h-4c-0.7,0-1.2,0-1.8-0.1c0.1,0.6,0.1,1.1,0.1,1.9v3.6c0,0.8,0,1.6-0.1,2.4H463.8z M463.8,221.2h2.7v2.4
	h-2.7V221.2z M488.8,210.3c0.2,0,0.3,0,0.4,0c0.2,0,0.2,0,0.7,0c0.5,0,2.6,0,3,0c0,0,0.3,0,0.4,0c-0.1,0.1-0.1,0.1-0.2,0.3
	c-0.5,0.9-1.9,3-2.9,4.1c-0.8,1-1.5,1.7-2.2,2.1l2.2,2.2c0.5-0.7,1.1-1.3,2.1-2.2c1.8-1.6,3.5-2.5,4.9-2.5c0.9,0,1.3,0.4,1.5,1.3
	c-2.7,1.1-4.1,2-5.2,3.4c-0.8,0.9-1.1,1.7-1.1,2.7c0,1.3,0.6,2.5,1.8,3.1c1.2,0.7,2.8,1,5.4,1c2.1,0,4.4-0.2,6.1-0.4
	c0.6-0.1,0.7-0.1,1.1-0.1l-0.2-3.1c-1.7,0.6-4.2,1-7.1,1c-2.9,0-4.1-0.5-4.1-1.8c0-0.7,0.4-1.3,1.2-2c0.5-0.4,1.1-0.7,2.3-1.2
	c0,0.2,0,0.2,0,0.6c0,1.1,0,2.4-0.1,2.8l2.8-0.1c0-0.4-0.1-0.7-0.1-1.3c0-0.2,0-0.4,0-0.8c0-0.3,0-0.7,0-1c0-0.3,0-0.3,0-1v-0.3
	c2.1-0.7,3.3-1.1,3.6-1.2c1.3-0.4,2-0.6,2.7-0.6l-1.1-2.8c-0.4,0.2-0.5,0.3-1.8,0.7c-0.6,0.2-1.8,0.6-3.7,1.3
	c-0.4-1.7-1.6-2.5-3.4-2.5c-1.2,0-2.5,0.4-3.4,1.1c-0.3,0.2-0.3,0.2-0.5,0.4l0,0c0.8-0.9,1.5-1.8,2.2-3.2c2.4-0.1,5.5-0.3,7.2-0.5
	c1.2-0.1,1.2-0.1,1.9-0.2l-0.2-2.7c-1.3,0.4-3.5,0.6-6.3,0.8c-1.3,0.1-1.3,0.1-1.5,0.1c0-0.1,0.1-0.2,0.2-0.4c0.8-1.9,0.8-1.9,1-2.2
	l-3.1-0.3c-0.1,0.8-0.3,1.5-1,3c-3,0-4.6-0.1-5.6-0.3L488.8,210.3z M526.5,214.5h4.6c1.3,0,1.6,0,2.3,0.1v-2
	c-0.7,0.1-1.1,0.1-2.3,0.1h-4.6v-1.2h4.6c1.3,0,1.6,0,2.3,0.1v-2c-0.7,0.1-1.1,0.1-2.3,0.1h-4.6v-1.2h5.8c0.9,0,1.4,0,2,0.1v-2.2
	c-0.6,0.1-1.3,0.1-2.4,0.1h-5.2c0.4-0.6,0.6-1,1.2-2.1l-2.7-0.3c-0.3,0.9-0.6,1.5-1.2,2.4h-4.3c0.4-0.6,0.4-0.6,1.3-2l-2.8-0.5
	c-0.2,0.5-0.4,1-0.8,1.6c-1.2,1.9-2.5,3.3-4.4,4.6c0.6,0.8,0.8,1.3,1.2,2.4c1-0.8,1.5-1.3,2.2-2.1c0,0.7-0.1,1.3-0.1,2.1v3
	c0,0.8,0,1.4-0.1,1.9c0.6,0,1.1-0.1,2-0.1h4.8v1.3h-6.7c-1.5,0-2.1,0-2.7-0.1v2.4c0.8-0.1,1.5-0.1,2.7-0.1h4.6
	c-0.7,0.6-1.4,1-2.6,1.5c-1.7,0.8-3.1,1.2-5.2,1.5c0.6,0.7,1,1.5,1.3,2.4c1.7-0.4,3-0.9,4.3-1.5c1.9-0.9,3.1-1.7,4.3-2.9
	c0,0.6-0.1,1-0.1,1.6v1.4c0,0.8,0,1.2-0.1,1.7h2.9c-0.1-0.5-0.1-0.8-0.1-1.7v-1.4c0-0.3,0-0.9-0.1-1.6c1.2,1.1,2.2,1.8,3.9,2.7
	c1.5,0.7,2.9,1.2,4.8,1.8c0.1-0.2,0.2-0.4,0.2-0.5c0.1-0.3,0.2-0.6,0.3-0.6c0.2-0.5,0.4-0.8,0.9-1.4c-3-0.5-6.1-1.7-7.9-3h4.8
	c1.2,0,1.9,0,2.7,0.1v-2.4c-0.6,0.1-1.3,0.1-2.7,0.1h-6.8v-1.3h6.3c1.1,0,1.7,0,2.3,0.1v-2.1c-0.6,0.1-1.2,0.1-2.3,0.1h-5.6V214.5z
	 M524,214.5v1.2h-4.9v-1.2H524z M524,212.8h-4.9v-1.2h4.9V212.8z M524,209.9h-4.9v-1.2h4.9V209.9z M543.6,206.5
	c0.1,0.4,0.2,0.5,0.2,0.8c0.3,1.3,0.7,3.4,0.8,3.8c-2.5,1.9-3.8,4.4-3.8,7.4c0,3.2,1.7,5.4,4.1,5.4c0.8,0,1.5-0.2,2.2-0.6
	c1-0.6,2-1.5,2.9-2.6c1.8-2.3,3.4-5.7,4.4-9c1,0.3,1.5,0.5,2.2,1c1.2,0.9,1.8,2.1,1.8,3.7c0,1.1-0.3,2.1-0.8,3
	c-0.6,1-1.7,1.9-3.4,2.6c-1.3,0.6-2.3,0.8-3.9,0.9c0.9,1.2,1.1,1.6,1.5,2.8c1.8-0.4,2.8-0.6,3.9-1.2c3.6-1.5,5.6-4.4,5.6-7.9
	c0-2.5-1-4.5-2.9-6c-0.9-0.7-1.8-1.1-3.2-1.4c0.1-0.3,0.4-1.5,0.7-2.8c0-0.2,0.1-0.4,0.2-0.7l-3-0.6c0,0.8-0.2,1.7-0.7,3.7
	c-0.3,0-0.5,0-0.6,0c-1.6,0-3,0.3-4.6,1c-0.3-1.2-0.6-3-0.6-3.9L543.6,206.5z M545.4,214c0.5,2,0.9,3.1,2,5.5
	c-0.8,1-1.6,1.6-2.3,1.6c-1,0-1.6-1.1-1.6-2.6C543.4,216.7,544,215.4,545.4,214z M549.1,217.1c0-0.1,0-0.2-0.1-0.4
	c-0.7-1.9-1.1-2.9-1.4-4.5c1.3-0.7,2.5-1,4.1-1c-0.8,2.4-1.4,3.9-2.4,5.5C549.2,216.9,549.2,217,549.1,217.1L549.1,217.1z
	 M575.6,205.1c0.1,0.7,0.1,0.9,0.1,2.1c0,3,0.2,9.6,0.3,10.4c0,0.2,0,0.2,0,0.2c-0.5-0.1-1.3-0.2-2.2-0.2c-3.5,0-5.9,1.8-5.9,4.3
	c0,0.7,0.2,1.5,0.6,2.1c0.9,1.4,2.6,2.1,5,2.1c3.6,0,5.5-1.4,5.5-4.1c0-0.4,0-0.6,0-0.8c0.3,0.2,0.5,0.3,0.8,0.4
	c1.3,0.6,2,1.1,3.2,2c0.9,0.7,1.3,1.1,1.7,1.6l1.9-2.7c-0.3-0.2-0.4-0.3-0.7-0.5c-1.8-1.3-2.2-1.6-3.1-2c-1.3-0.7-2.4-1.2-3.7-1.6
	c-0.2-2.4-0.2-3.4-0.3-5.3c1.9,0,3.6-0.2,5.6-0.4c1.1-0.1,1.1-0.1,1.6-0.1l-0.2-2.9c-1.5,0.5-4.2,0.8-7,0.8c0-1.2,0-1.2,0-1.6
	c0-1.8,0-2.9,0.2-3.7L575.6,205.1z M576.2,220.4c0,0,0,0.7,0,1.1c0,0.6-0.2,1.1-0.5,1.3c-0.5,0.4-1.3,0.6-2.2,0.6
	c-0.6,0-1.3-0.1-1.8-0.4c-0.6-0.3-0.8-0.7-0.8-1.2c0-1.1,1.2-1.8,3-1.8C574.9,220.2,575.3,220.2,576.2,220.4z M597.8,208
	c3.5,0.9,6.8,1.3,11.2,1.5l0.4-3c-0.3,0-0.6,0-0.7,0c-3.8,0-7.3-0.5-10-1.4L597.8,208z M595.7,216c2-0.8,6.8-1.7,9.5-1.7
	c2.5,0,3.8,0.9,3.8,2.7c0,1.7-1,3.2-2.9,4.2c-1.8,1-4.4,1.7-7.2,1.8c0.7,1.1,1,1.7,1.2,3c3.9-0.6,5.6-1.1,7.6-2.3
	c2.9-1.7,4.6-4.2,4.6-6.9c0-1.9-0.8-3.5-2.3-4.4c-1.1-0.7-2.6-1-4.5-1c-2,0-4.1,0.2-7.5,0.8c-2.2,0.4-2.2,0.4-2.8,0.4L595.7,216z"/>
</svg>
