<?xml version="1.0" encoding="utf-8"?>
<!-- Generator: Adobe Illustrator 24.0.1, SVG Export Plug-In . SVG Version: 6.00 Build 0)  -->
<svg version="1.1" id="レイヤー_1" xmlns="http://www.w3.org/2000/svg" xmlns:xlink="http://www.w3.org/1999/xlink" x="0px"
	 y="0px" viewBox="0 0 617 234" style="enable-background:new 0 0 617 234;" xml:space="preserve">
<style type="text/css">
	.st0{opacity:0.5;fill:#95A0AC;enable-background:new    ;}
	.st1{opacity:0.6;fill:#95A0AC;enable-background:new    ;}
</style>
<path class="st0" d="M26,50.8c9,0,15.9-3.5,20.9-7.8V21.8H25.6v9.3h10.8v7c-2.7,2-6.2,2.9-10.1,2.9c-8.7,0-14.8-6.6-14.8-15.5v-0.1
	c0-8.3,6.2-15.3,14.1-15.3c5.7,0,9,1.8,12.8,5l6.8-8.2C40,2.5,34.7,0.2,25.9,0.2C11,0.2,0.2,11.6,0.2,25.5v0.1
	C0.2,40.1,10.7,50.8,26,50.8z M64.3,50h37.3v-9.6H75V30.1h23.1v-9.6H75v-9.9h26.3V1h-37V50z M129.6,50h10.8V10.9h14.9V1h-40.6v9.9
	h14.9V50z M198.5,50h23.3c11.1,0,18.3-4.5,18.3-13.4v-0.1c0-6.6-3.5-9.9-9.2-12c3.5-2,6.4-5,6.4-10.6v-0.1c0-3.4-1.1-6.1-3.4-8.3
	c-2.8-2.8-7.2-4.3-12.8-4.3h-22.8V50z M209,20.8V10.4h10.6c4.5,0,7.1,1.8,7.1,5v0.1c0,3.6-3,5.2-7.8,5.2H209z M209,40.5V29.8h12.5
	c5.5,0,8,2,8,5.3v0.1c0,3.6-2.9,5.3-7.6,5.3H209z M251.8,50h11l4.5-11H288l4.5,11h11.3l-21-49.4h-9.9L251.8,50z M271.2,29.5
	l6.5-15.9l6.5,15.9H271.2z M318.4,50h19.1c15.4,0,26-10.7,26-24.5v-0.1c0-13.8-10.6-24.4-26-24.4h-19.1V50z M329.1,40.3V10.7h8.3
	c8.8,0,14.8,6.1,14.8,14.8v0.1c0,8.7-6,14.6-14.8,14.6H329.1z M403.7,50.8c9,0,15.9-3.5,20.9-7.8V21.8h-21.3v9.3h10.9v7
	c-2.7,2-6.2,2.9-10.2,2.9c-8.7,0-14.8-6.6-14.8-15.5v-0.1c0-8.3,6.2-15.3,14.1-15.3c5.7,0,9,1.8,12.8,5l6.8-8.2
	c-5.1-4.3-10.4-6.7-19.2-6.7c-14.8,0-25.7,11.4-25.7,25.3v0.1C377.9,40.1,388.4,50.8,403.7,50.8z M442,50h37.3v-9.6h-26.6V30.1h23.1
	v-9.6h-23.1v-9.9H479V1h-37V50z M513.3,50.7c10.6,0,18-5.5,18-15.2v-0.1c0-8.5-5.6-12.1-15.5-14.7c-8.5-2.2-10.6-3.2-10.6-6.4v-0.1
	c0-2.4,2.2-4.3,6.3-4.3s8.4,1.8,12.7,4.8l5.6-8.1c-5-4-11.1-6.2-18.2-6.2c-10,0-17.1,5.9-17.1,14.8v0.1c0,9.7,6.4,12.5,16.2,15
	c8.2,2.1,9.9,3.5,9.9,6.2v0.1c0,2.9-2.7,4.6-7.1,4.6c-5.6,0-10.2-2.3-14.6-6l-6.4,7.6C498.4,48.1,505.9,50.7,513.3,50.7z M608.6,51
	l7.9-5.5l-7.2-7.2c2.5-3.3,4.6-6.9,6.4-10.4l-7.9-4.3c-1.5,3-3.2,5.9-4.8,8.4l-6.5-6.5c6.1-2.4,10.3-6.2,10.3-12.8v-0.1
	c0-6.9-5.5-12.3-13.8-12.3c-9.5,0-14.8,6.2-14.8,12.9v0.1c0,3.4,1,6.4,3.4,9.8c-6.2,2.8-9.5,7.2-9.5,13.4v0.1
	c0,8.7,7.1,14.1,16.5,14.1c5.7,0,10.4-2.2,14.3-5.5L608.6,51z M591,19.8c-2-2.3-2.9-3.9-2.9-6.1v-0.1c0-2.9,1.9-5,4.8-5
	c2.7,0,4.6,1.8,4.6,4.5v0.1C597.5,16.3,595.3,18.1,591,19.8z M589.9,41.9c-4,0-6.9-2.3-6.9-5.7V36c0-2.4,1.3-4.8,4.5-6.4l9.4,9.5
	C594.7,40.8,592.3,41.9,589.9,41.9z M35.2,127.8c9.5,0,15-3.4,20.1-8.8l-6.9-6.9c-3.8,3.5-7.3,5.7-12.9,5.7c-8.4,0-14.2-7-14.2-15.4
	v-0.1c0-8.4,6-15.3,14.2-15.3c4.9,0,8.8,2.1,12.5,5.5l6.9-7.9c-4.5-4.5-10.1-7.6-19.3-7.6c-15,0-25.5,11.4-25.5,25.3v0.1
	C10.1,116.7,20.8,127.8,35.2,127.8z M70.9,127h37.3v-9.6H81.6v-10.3h23.1v-9.6H81.6v-9.9h26.2V78h-37V127z M124.8,127h10.8v-15.7
	h8.3h0.1l10.5,15.7h12.6l-12-17.5c6.2-2.3,10.5-7.3,10.5-15.2v-0.1c0-4.6-1.5-8.5-4.2-11.2c-3.2-3.2-8.1-5-14.3-5h-22.4V127z
	 M135.6,101.8V87.7h10.7c5.2,0,8.5,2.4,8.5,7v0.1c0,4.1-3,6.9-8.3,6.9H135.6z M193.8,127h10.8V87.9h14.9V78h-40.6v9.9h14.9V127z
	 M235.3,127h10.8V78h-10.8V127z M265.3,127h10.8v-19h23.4v-9.8h-23.4V87.8h26.5V78h-37.3V127z M318.7,127h10.8V78h-10.8V127z
	 M371.7,127.8c9.5,0,15.1-3.4,20.1-8.8l-6.9-6.9c-3.9,3.5-7.3,5.7-12.9,5.7c-8.4,0-14.2-7-14.2-15.4v-0.1c0-8.4,5.9-15.3,14.2-15.3
	c4.9,0,8.8,2.1,12.5,5.5l6.9-7.9c-4.6-4.5-10.1-7.6-19.3-7.6c-15.1,0-25.6,11.4-25.6,25.3v0.1C346.6,116.7,357.3,127.8,371.7,127.8z
	 M403.2,127h11l4.5-11h20.7l4.5,11h11.3l-21-49.3h-9.9L403.2,127z M422.6,106.5l6.5-15.9l6.5,15.9H422.6z M474.9,127h10.8V87.9h14.9
	V78H460v9.9h14.9V127z M515.8,127h37.3v-9.6h-26.6v-10.3h23.1v-9.6h-23.1v-9.9h26.2V78h-37V127z M587.2,127.7c10.6,0,18-5.5,18-15.2
	v-0.1c0-8.5-5.6-12.1-15.5-14.7c-8.5-2.2-10.6-3.2-10.6-6.4v-0.1c0-2.4,2.2-4.3,6.3-4.3s8.4,1.8,12.7,4.8l5.6-8.1
	c-5-4-11.1-6.2-18.2-6.2c-10,0-17.2,5.9-17.2,14.8v0.1c0,9.7,6.4,12.5,16.2,15c8.2,2.1,9.9,3.5,9.9,6.2v0.1c0,2.9-2.7,4.6-7.1,4.6
	c-5.6,0-10.2-2.3-14.6-5.9l-6.4,7.6C572.3,125.1,579.8,127.7,587.2,127.7z"/>
<path class="st1" d="M135.5,195c0.6,0.7,0.9,1.1,1.4,2c2.5-2,3.2-2.8,4.6-5.2c-0.1,0.8-0.1,1.1-0.1,1.8v2.1c0,1,0,1.5-0.1,2.2h2.6
	c-0.1-0.6-0.1-1.2-0.1-2.3v-2c0-0.6,0-1,0-1.8c1.4,2.4,2.3,3.4,5,5.3c0.4-1,0.7-1.6,1.3-2.4c-1.8-1.1-2.5-1.5-3.6-2.6
	c-0.7-0.7-1-1.1-1.5-1.8h2.4c1.1,0,1.6,0,2.3,0.1v-2.6c-0.7,0.1-1.3,0.1-2.4,0.1h-3.4v-1.5h2.7c1.1,0,1.7,0,2.3,0.1
	c0-0.6-0.1-1.4-0.1-2.3v-5.4c0-1.9,0-1.9,0.1-2.3c-0.4,0.1-1,0.1-2,0.1h-8c-1,0-1.6,0-2.2-0.1c0.1,0.6,0.1,1.1,0.1,2.3v5.6
	c0,1.7,0,1.7-0.1,2.2c0.6-0.1,1.2-0.1,2.2-0.1h2.6v1.5h-3.1c-1.1,0-1.7,0-2.4-0.1v2.6c0.6-0.1,1.2-0.1,2.3-0.1h1.8
	c-1.2,1.9-2.6,3.3-4.6,4.5V192c0-0.9,0-1.2,0-1.7c-0.4,0-0.8,0.1-1.6,0.1h-3.7c-1,0-1.3,0-1.9-0.1c0.1,0.6,0.1,1.1,0.1,1.9v3.5
	c0,0.7,0,1.6-0.1,2.3h2.5v-1.1h2.4v0.8h2.4c-0.1-0.5-0.1-1-0.1-1.7V195z M141.5,178.7v1.7h-2.4v-1.7H141.5z M143.8,178.7h2.6v1.7
	h-2.6V178.7z M141.5,182.4v1.9h-2.4v-1.9H141.5z M143.8,182.4h2.6v1.9h-2.6V182.4z M130.8,192.4h2.5v2.4h-2.5V192.4z M128.4,178.9
	c0.6-0.1,1.1-0.1,1.9-0.1h3.2c0.9,0,1.3,0,1.9,0.1v-2.4c-0.6,0.1-1,0.1-1.9,0.1h-3.2c-1,0-1.4,0-1.9-0.1V178.9z M127.6,182.4
	c0.6-0.1,1.1-0.1,1.9-0.1h4.5c0.9,0,1.3,0,1.8,0.1v-2.4c-0.6,0.1-0.9,0.1-1.9,0.1h-4.4c-0.9,0-1.4,0-1.9-0.1V182.4z M128.5,185.7
	c0.5,0,0.8-0.1,1.5-0.1h4c0.7,0,1.1,0,1.5,0.1v-2.2c-0.4,0-0.7,0.1-1.5,0.1h-4c-0.8,0-1.1,0-1.5-0.1V185.7z M128.5,189.1
	c0.4,0,0.8-0.1,1.5-0.1h4c0.7,0,1.1,0,1.5,0.1v-2.2c-0.4,0-0.7,0.1-1.5,0.1h-4c-0.7,0-1.1,0-1.5-0.1V189.1z M159,193.2
	c-0.6-0.6-1-1-1.4-1.5c0.1-0.9,0.2-1.4,0.2-1.9c0-0.4,0-0.5,0.1-0.8l-2.4-0.4c0,0.3,0,0.5,0,0.7c0,1-0.2,2.5-0.4,3.4
	c-0.3,1.4-0.9,2.6-1.6,3.6c1.2,0.7,1.3,0.9,2,1.7c0.7-1.1,1.1-2.1,1.5-3.6c1,1.2,2.3,2.2,3.9,2.6c1.6,0.5,4.3,0.7,8.4,0.7
	c2.1,0,4.8,0,6.5-0.1c0.2-1.2,0.4-1.8,0.7-2.7c-0.6,0.1-0.9,0.1-1.3,0.1c0.4-0.6,0.6-0.9,1.1-1.4c-1.4-0.6-2.4-1.2-3.7-2.2h0.4
	c0.9,0,1.4,0,2,0.1c-0.1-0.7-0.1-1.4-0.1-2.3v-6.7c0-0.9,0-1.5,0.1-2c-0.6,0-1,0.1-2,0.1h-2.1c0.3-0.6,0.4-0.9,0.6-1.6h2.1
	c0.8,0,1.7,0,2.3,0.1v-2.3c-0.6,0.1-1.3,0.1-2.5,0.1h-6c-1.1,0-1.9,0-2.6-0.1v2.3c0.6-0.1,1.4-0.1,2.4-0.1h2c-0.2,0.5-0.4,1-0.6,1.6
	h-1c-1,0-1.4,0-2-0.1c0,0.6,0.1,1.2,0.1,2v7c0,0.8,0,1.4-0.1,2c0.5,0,1-0.1,1.9-0.1c-1,1.1-2,1.8-3.7,2.4c0.5,0.4,0.9,0.8,1.3,1.4
	c-1.9-0.1-2.9-0.2-3.9-0.5v-2.7h1.2c0.9,0,1.4,0,1.9,0.1v-2.3c-0.6,0.1-1.2,0.1-1.9,0.1h-1.2v-1.9h1.5c1.1,0,1.5,0,2.2,0.1v-2.4
	c-0.6,0.1-1.1,0.1-2,0.1h-6.7c-1.2,0-1.7,0-2.3-0.1v2.4c0.6-0.1,1.1-0.1,2.3-0.1h2.6V193.2z M168.1,191.2h4.2l-1.5,1.1
	c1.3,1.3,2.3,2,3.5,2.7c-1.6,0.1-3.8,0.1-5.5,0.1c-0.7,0-1.6,0-2.4,0c1-0.6,2.3-1.7,3.3-2.8L168.1,191.2z M168.1,182.4h4.7v1.1h-4.7
	V182.4z M168.1,185.3h4.7v1.1h-4.7V185.3z M168.1,188.1h4.7v1.1h-4.7V188.1z M155.4,182.7c0,1,0,1.5-0.1,2.1
	c0.7-0.1,1.2-0.1,2.1-0.1h4.7c0.8,0,1.4,0,2.1,0.1c-0.1-0.6-0.1-1-0.1-2.1v-4.1c0-1.1,0-1.5,0.1-2.1c-0.6,0.1-1,0.1-2.2,0.1h-4.7
	c-1.1,0-1.6,0-2.1-0.1c0.1,0.6,0.1,1.2,0.1,2.1V182.7z M157.7,178.6h4v1.2h-4V178.6z M157.7,181.5h4v1.2h-4V181.5z M185.8,196.6
	c0-0.3,0-0.5,0-0.6c0-1.7,0.8-4.5,2.1-7.3l-1.9-0.9c-0.9,2.2-1,2.3-1.2,3.2c0-0.6,0-0.8,0-1.3c0-2.1,0.1-3.5,0.4-5.3
	c0.4-3.1,0.9-5.8,1.5-7.2l-3.2-0.3c0,0.6-0.1,0.9-0.4,2.2c-0.7,3.6-1,6.3-1,9.4c0,2.4,0.2,4.3,0.6,7.2c0.1,0.6,0.1,0.7,0.1,1.1
	L185.8,196.6z M189.1,182.2c2.5,0.3,2.6,0.3,4.3,0.3c1.8,0,3.6-0.1,5.1-0.3c1.2-0.1,1.5-0.2,1.7-0.2l-0.1-2.9
	c-1.6,0.4-3.9,0.6-6.5,0.6c-2.1,0-3.4-0.1-4.4-0.4L189.1,182.2z M190.8,186.1c-1.5,1.8-2.2,3.4-2.2,4.9c0,0.9,0.3,1.8,0.7,2.4
	c1.1,1.4,3,2.1,6,2.1c1.6,0,3-0.1,5-0.5c0.6-0.1,0.6-0.1,1-0.1l-0.2-3c-1.5,0.6-3.6,0.9-5.7,0.9c-2.5,0-3.8-0.7-3.8-2.1
	c0-1,0.5-2.1,1.7-3.5L190.8,186.1z M212.8,177c0.1,0.4,0.1,0.4,0.4,1.6c0.6,3,1.1,4.8,1.6,6.5c-1.6,0.8-2.3,1.3-3.3,2
	c-1.4,1.2-2.1,2.7-2.1,4.3c0,1.8,0.8,3.2,2.1,4c1.5,0.9,3.6,1.3,7,1.3c1.7,0,3-0.1,5.6-0.4c1.3-0.1,1.4-0.1,1.9-0.2l-0.3-3.3
	c-1.8,0.6-4.8,1-7.8,1c-3.9,0-5.5-0.7-5.5-2.5c0-1.7,1.8-3.2,5.3-4.5c2.7-1,5.8-1.9,7.9-2.3l-1-3c-0.4,0.2-0.4,0.2-1.7,0.6
	c-3,1-3.9,1.3-5.4,1.8c-0.6-1.9-1.6-6.4-1.6-7.5L212.8,177z M222.2,177.4c1.1,1.2,1.7,2.1,2.5,3.6l1.7-0.9c-0.8-1.5-1.5-2.4-2.5-3.5
	L222.2,177.4z M229.3,178.5c-0.7-1.4-1.4-2.3-2.5-3.4l-1.6,0.8c0.9,1,1.7,2.2,2.4,3.5L229.3,178.5z M239.7,187.1
	c0.5-1.1,1.6-3.7,3-7.2c0.7-1.8,0.8-2.1,1.2-2.8l-3.2-0.8c-0.2,1-0.2,1-5.7,16.3c-0.8,2.1-1,2.7-1.3,3.4l3.1,1
	c0.3-1.5,1.3-4.1,2-5.5c1.2-2.2,2.5-3.4,3.8-3.4c0.5,0,0.9,0.2,1.1,0.6c0.1,0.3,0.2,0.7,0.2,1.4c0,0.2,0,0.8,0,1.7
	c0,0.1,0,0.2,0,0.2c0,1.2,0.1,2,0.4,2.7c0.6,1.4,1.9,2.1,3.8,2.1c3.6,0,6-2.5,7-7.5c-1.5-0.7-1.8-1-2.6-1.8
	c-0.1,1.2-0.5,2.7-0.9,3.8c-0.7,1.7-1.7,2.6-3,2.6c-0.6,0-1-0.1-1.3-0.3c-0.4-0.4-0.5-0.8-0.5-2.6c0-2.8-0.1-3.6-0.6-4.4
	c-0.5-0.8-1.6-1.4-2.7-1.4c-1.1,0-2.3,0.6-3.1,1.4C239.9,187,239.9,187,239.7,187.1L239.7,187.1z M265.6,177
	c0.1,0.4,0.1,0.4,0.4,1.6c0.6,3,1.1,4.8,1.6,6.5c-1.6,0.8-2.3,1.3-3.3,2c-1.4,1.2-2.1,2.7-2.1,4.3c0,1.8,0.8,3.2,2.1,4
	c1.5,0.9,3.6,1.3,7,1.3c1.7,0,3-0.1,5.6-0.4c1.3-0.1,1.4-0.1,1.9-0.2l-0.3-3.3c-1.8,0.6-4.8,1-7.8,1c-3.9,0-5.5-0.7-5.5-2.5
	c0-1.7,1.8-3.2,5.3-4.5c2.7-1,5.8-1.9,7.9-2.3l-1-3c-0.4,0.2-0.4,0.2-1.7,0.6c-3,1-3.9,1.3-5.4,1.8c-0.6-1.9-1.6-6.4-1.6-7.5
	L265.6,177z M275,177.4c1.1,1.2,1.7,2.1,2.5,3.6l1.7-0.9c-0.8-1.5-1.5-2.4-2.5-3.5L275,177.4z M282.1,178.5
	c-0.7-1.4-1.4-2.3-2.5-3.4l-1.6,0.8c0.9,1,1.7,2.2,2.4,3.5L282.1,178.5z M292.5,187.1c0.5-1.1,1.6-3.7,3-7.2
	c0.7-1.8,0.8-2.1,1.2-2.8l-3.2-0.8c-0.2,1-0.2,1-5.7,16.3c-0.8,2.1-1,2.7-1.3,3.4l3.1,1c0.3-1.5,1.3-4.1,2-5.5
	c1.2-2.2,2.5-3.4,3.8-3.4c0.5,0,0.9,0.2,1.1,0.6c0.1,0.3,0.2,0.7,0.2,1.4c0,0.2,0,0.8,0,1.7c0,0.1,0,0.2,0,0.2c0,1.2,0.1,2,0.4,2.7
	c0.6,1.4,1.9,2.1,3.8,2.1c3.6,0,6-2.5,7-7.5c-1.5-0.7-1.8-1-2.6-1.8c-0.1,1.2-0.5,2.7-0.9,3.8c-0.7,1.7-1.7,2.6-3,2.6
	c-0.6,0-1-0.1-1.3-0.3c-0.4-0.4-0.5-0.8-0.5-2.6c0-2.8-0.1-3.6-0.6-4.4c-0.5-0.8-1.6-1.4-2.7-1.4c-1.1,0-2.3,0.6-3.1,1.4
	C292.7,187,292.7,187,292.5,187.1L292.5,187.1z M329.7,176.5c-0.8,0.5-1.5,0.7-2.9,1.1c-3,0.8-7.1,1.4-10.3,1.4c-0.4,0-0.7,0-1.5,0
	c0.5,1.2,0.6,1.5,0.9,2.6c4-0.2,4.7-0.3,6.6-0.6c0,1.7,0,2.6,0,3.6h-6.1c-1.6,0-2,0-2.9-0.2v2.9c0.9-0.1,1.3-0.1,2.9-0.1h5.9
	c-0.1,0.8-0.2,1.2-0.3,1.6c-0.4,1.6-1.3,2.9-2.8,4.1c-1.1,0.9-2,1.4-3.7,2c1,0.9,1.4,1.3,2.1,2.5c1.1-0.5,1.6-0.8,2.2-1.2
	c1.7-1.1,3.1-2.4,3.9-3.8c0.8-1.4,1.3-3,1.6-5.2h5.3c1.5,0,2,0,2.9,0.1v-2.9c-0.9,0.1-1.3,0.2-2.9,0.2h-5.1c0-0.8,0-0.8,0.1-4.1
	c1.9-0.4,2.6-0.6,4-1c1.7-0.6,1.7-0.6,2-0.6L329.7,176.5z M345.3,184.4l-2,0.3c-0.9,0.1-1.5,0.2-2.3,0.2l0.5,2.7
	c0.7-0.2,1.3-0.4,2.1-0.5l2.1-0.3l1.6,9c0.1,0.8,0.2,1.3,0.2,1.9l3-0.5c-0.2-0.6-0.2-0.6-0.5-1.9l-1.7-8.9l5.6-0.9
	c0.6-0.1,0.6-0.1,0.9-0.2c-1,1.8-2.3,3.2-4.1,4.3c1,0.5,1.4,0.8,2.2,1.7c2.3-1.8,3.7-3.6,4.7-6.2c0.2-0.6,0.4-0.8,0.6-1.2l-1.7-1.5
	c-0.5,0.2-0.9,0.3-1.6,0.4l-7.2,1.2l-0.4-1.8c-0.2-0.8-0.2-1.4-0.2-1.8l-2.9,0.4c0.2,0.5,0.3,0.8,0.5,1.8L345.3,184.4z M369.1,177.1
	c0.1,0.8,0.1,0.8,0.1,2.5l-0.1,13c0,1.4,0,1.8-0.2,2.5l1.5,1.8c0.5-0.2,0.8-0.3,1.4-0.4c3.9-0.7,6.3-1.7,8.7-3.3
	c2.2-1.4,3.7-3,5.4-5.6c-1-0.9-1.3-1.2-2.3-2.4c-1.2,2.3-2.7,4-4.9,5.5c-1.8,1.2-4.1,2.2-6.6,2.6l0.1-13.7c0-1.2,0-1.8,0.1-2.4
	L369.1,177.1z M392.6,180.6c2.2,1.2,4.2,2.8,6.1,4.9l2.1-2.6c-1.8-1.8-3.3-2.9-6.2-4.6L392.6,180.6z M393.5,196.4
	c0.6-0.2,0.6-0.2,1.6-0.4c3.7-0.8,6.7-2,9.1-3.6c3.3-2.2,5.6-5,7.6-9.4c-1.2-0.9-1.6-1.2-2.5-2.4c-0.7,1.9-1.4,3.3-2.4,4.8
	c-1.9,2.7-4.1,4.6-7.1,5.9c-2.2,1-5,1.7-7.1,1.8L393.5,196.4z M420.3,179.6c1.8,0.6,4.5,2,6.4,3.3l1.5-2.6c-1.7-1.1-4.1-2.2-6.4-3.1
	L420.3,179.6z M418.4,185.4c2.2,0.8,4.9,2.3,6.5,3.5l1.5-2.7c-1.8-1.2-4.2-2.4-6.4-3.3L418.4,185.4z M432.6,177.5
	c1.1,1.2,1.7,2.1,2.5,3.6l1.7-0.9c-0.8-1.5-1.5-2.4-2.5-3.5L432.6,177.5z M419.7,197c0.5-0.1,0.6-0.2,1.7-0.4
	c8.6-1.7,13.7-5.6,16.6-12.9c-1.1-0.7-1.6-1.1-2.5-2.1c-1.7,5.1-5.3,9-9.7,10.6c-2.5,1-5.1,1.5-6.9,1.6L419.7,197z M439.7,178.6
	c-0.7-1.4-1.4-2.3-2.5-3.4l-1.6,0.8c0.9,1,1.7,2.2,2.4,3.5L439.7,178.6z M447.4,176.8c0.1,0.6,0.1,1,0.1,1.6c0,0.3,0,0.8,0,1.6
	c-0.1,6-0.2,8.4-0.2,9.7c0,3.2,0.7,5.1,2.4,6.2c1,0.7,2.5,1.1,4.2,1.1c3,0,5.4-1,7.2-3c1.2-1.3,1.9-2.9,2.9-6.1
	c-1.2-0.5-1.6-0.8-2.9-1.8c-0.3,1.7-0.6,2.8-1.1,4c-1.1,2.6-3.2,4.1-5.8,4.1c-1.5,0-2.7-0.5-3.2-1.2c-0.5-0.7-0.6-1.6-0.6-3.9
	c0-1.7,0.1-6.6,0.2-8.8c0.1-1.8,0.1-2.5,0.3-3.2L447.4,176.8z M469.8,182.4c0.9-0.2,2.4-0.4,4-0.5c5.2-0.4,6.1-0.5,8.1-0.7
	c-1.6,0.8-2.4,1.4-3.3,2.4c-1.5,1.6-2.3,3.6-2.3,5.7c0,2.5,1.2,4.5,3.4,5.8c1.5,0.8,3,1.2,5.6,1.6c0.4,0,0.5,0.1,0.8,0.1l0.4-3.3
	c-0.2,0-0.5,0-0.5,0c-0.9,0-2.4-0.3-3.6-0.6c-2-0.6-3.2-2-3.2-3.9c0-2.4,1.8-4.8,4.8-6.4c1.5-0.8,3.3-1.3,4.8-1.3c0.2,0,0.2,0,0.5,0
	l-0.2-3.1c-0.4,0.1-0.8,0.1-2.8,0.2c-6.6,0.3-10.6,0.5-12,0.6c-3.5,0.2-3.5,0.2-4,0.2c-0.1,0-0.4,0-0.9,0L469.8,182.4z M158.6,214
	c0,0.1,0,0.3,0,0.3c0,0.5-0.1,1.3-0.2,2.3c-0.4,3-1.2,6-2.3,8.2c-1,2.2-2,3.7-3.4,5.1c1.2,0.6,1.6,1,2.7,2.1
	c3.2-3.7,5.1-8.4,6.1-15.3l0.1-0.6l0.1-0.7l0-0.4c0-0.2,0-0.2,0.1-0.5L158.6,214z M165.8,214.6c0.1,0.4,0.2,0.7,0.3,1.7
	c0.9,6.5,3.2,12,6.4,15.8c0.9-1,1.4-1.4,2.6-2.2c-2.5-2.7-4.2-5.9-5.4-10.4c-0.6-2.1-1-4.4-1-5.5L165.8,214.6z M169,213.1
	c0.9,1.3,1.4,2.4,2,3.9l1.8-0.6c-0.6-1.6-1.1-2.6-2-3.9L169,213.1z M175.9,215.5c-0.5-1.4-1.1-2.4-2-3.7l-1.8,0.5
	c0.8,1.1,1.4,2.3,1.9,3.8L175.9,215.5z M182.2,218.9c1.1,2.1,1.6,3.4,2.2,5.8l2.7-0.9c-0.9-2.7-1.3-3.8-2.4-5.7L182.2,218.9z
	 M187.4,217.9c1,2,1.7,3.8,2.2,5.6l2.7-0.8c-0.6-2.1-1.1-3.1-2.3-5.5L187.4,217.9z M195.6,217.7c0,0.7-0.1,1.6-0.4,2.8
	c-1,3.8-2.6,6.3-5.4,8.3c-1.4,1-2.4,1.6-4.1,2.2c1,1,1.3,1.3,1.9,2.4c3.6-1.8,5.5-3.4,7.3-5.8c1.5-2.1,2.6-4.7,3.3-8
	c0.1-0.7,0.2-0.9,0.3-1.2L195.6,217.7z M208.9,215.6c1.8,0.6,4.5,2,6.4,3.3l1.5-2.6c-1.7-1.1-4.1-2.2-6.4-3.1L208.9,215.6z
	 M207,221.4c2.2,0.8,4.9,2.3,6.5,3.5l1.5-2.7c-1.8-1.2-4.2-2.4-6.4-3.3L207,221.4z M221.3,213.5c1.1,1.2,1.7,2.1,2.5,3.6l1.7-0.9
	c-0.8-1.5-1.5-2.4-2.5-3.5L221.3,213.5z M208.4,233c0.5-0.1,0.6-0.2,1.7-0.4c8.6-1.7,13.7-5.6,16.6-12.9c-1.1-0.7-1.6-1.1-2.5-2.1
	c-1.7,5.1-5.3,9-9.7,10.6c-2.5,1-5.1,1.5-6.9,1.6L208.4,233z M228.4,214.6c-0.7-1.4-1.4-2.3-2.5-3.4l-1.6,0.8c0.9,1,1.7,2.2,2.4,3.5
	L228.4,214.6z M239.5,217.6c-0.2-0.8-0.3-1.1-0.5-1.7c-0.7-2.1-0.7-2.1-0.8-2.8l-3,0.8c0.5,0.8,0.9,2.1,1.6,4.5
	c-1.2,0.4-1.3,0.4-2.3,0.7c-1.2,0.4-1.5,0.5-2.2,0.6l0.9,2.8c0.6-0.3,2.2-1,3.1-1.2c0.8-0.3,0.9-0.3,1.2-0.4
	c1.5,5.2,2.8,10.8,2.9,12.8l3.2-0.7c-0.2-0.5-0.2-0.6-0.4-1.2c-1.4-6-1.6-6.5-3-11.7c4.1-1.2,5.5-1.5,7.2-1.5c2,0,3.2,0.9,3.2,2.4
	c0,0.8-0.4,1.6-1,2c-0.7,0.5-1.7,0.8-2.7,0.8c-1.2,0-2.4-0.3-3.8-0.9c0.3,1.3,0.4,1.8,0.4,3c1.3,0.4,2.5,0.7,3.7,0.7
	c1.8,0,3.3-0.5,4.4-1.4c1.2-1,1.9-2.6,1.9-4.2c0-3-2.2-4.9-5.6-4.9c-0.5,0-0.8,0-1.4,0.1c0-3.1,0-3.1,0.1-3.8h-3
	c0.1,0.6,0.1,0.8,0.1,2.9c0,0.8,0,0.8,0,1.3c-1,0.2-1.4,0.3-2,0.5L239.5,217.6z M280.6,213.6c-0.7,0.1-1.4,0.1-2.7,0.1h-5.6
	c0.3-0.5,0.4-0.8,0.8-1.6l-2.6-0.5c-0.6,2.1-1.8,3.9-3.7,5.6c0-0.6,0-0.9,0.1-1.3h-2.5c0.1,0.7,0.1,1,0.1,2.2v9.8
	c0,1.2,0,1.8-0.1,2.5h2.6c-0.1-0.6-0.1-1.1-0.1-2.4v-9.7c0.6,0.5,0.8,0.6,1.2,1.1c0.9-0.8,1.3-1.2,1.9-1.9c0.7,1.1,1.1,1.5,1.9,2.3
	c-1.5,0.8-2.6,1.2-4.6,1.6c0.5,0.6,0.7,1.2,1.1,2.1c2.4-0.7,3.8-1.3,5.3-2.2c1.7,1.2,3.5,1.9,6.6,2.7c0.3-1,0.5-1.6,1-2.5
	c-2.7-0.4-4.1-0.8-5.7-1.6c1.2-1,2-2.2,3-3.8c0.9,0,1.4,0,2.1,0.1V213.6z M275.9,215.9c-0.6,1-1.2,1.7-2.2,2.6
	c-1-0.8-1.5-1.4-2.3-2.6H275.9z M260.8,231.1c0,1.2,0,1.9-0.1,2.9h2.6c-0.1-0.9-0.1-1.7-0.1-2.9v-13.2c0.8-1.6,1.3-2.9,1.8-4.4
	c0.2-0.7,0.2-0.7,0.4-1.1l-2.7-0.7c-0.5,3.1-2.4,7.1-4.6,9.5c0.5,0.8,0.8,1.6,1.2,2.8c0.7-0.9,1.1-1.4,1.7-2.6
	c0,1.1-0.1,1.7-0.1,2.9V231.1z M273.6,222.2c-1.2,1.1-3.3,2-6.3,2.6c0.7,0.9,0.9,1.1,1.2,1.9c2.8-0.8,4.6-1.5,6-2.6
	c0.6-0.5,0.6-0.5,0.9-0.6L273.6,222.2z M276,224c-1.2,1.6-4.9,3.3-8.5,4c0.6,0.7,0.9,1.2,1.2,2c4.1-1.1,6.1-2.1,9.4-4.7L276,224z
	 M278.8,226.2c-0.7,0.9-1.6,1.7-3,2.6c-2.5,1.5-5.3,2.5-9.1,3.1c0.6,0.8,0.9,1.3,1.2,2.2c5.5-1.2,8.5-2.6,12-5.6
	c0.4-0.3,0.6-0.6,0.9-0.8L278.8,226.2z M301.6,215.4c-1.7,1.6-3,2.5-4.8,3.5h-2.1c0.1,0.7,0.1,1.4,0.1,2.4v9c0,0.5-0.2,0.6-1.1,0.6
	c-1.1,0-2.2-0.1-3.8-0.4c0.4,1.1,0.6,1.7,0.7,2.8c2.2,0.1,2.5,0.1,3.4,0.1c2.7,0,3.6-0.6,3.6-2.4v-9.7c3.1-1.9,5-3.3,7.6-5.9
	c0.4-0.4,0.5-0.5,1-0.9l-1.6-1.8c-0.6,0.1-1.3,0.1-2.6,0.1h-12.3c-1.4,0-2.4,0-3.3-0.1v2.9c1.1-0.1,2-0.2,3.3-0.2H301.6z
	 M326.1,230.6H324v-9.2c0-1.3,0-1.9,0.1-2.6h-2.7c0.1,0.8,0.1,1.5,0.1,2.6v9.2c-0.6,0-1,0-1.5-0.1v2.7c0.7-0.1,1.5-0.1,2.7-0.1h8.1
	c1.1,0,1.9,0,2.7,0.1v-2.8c-0.8,0.1-1.7,0.1-2.7,0.1h-2.3v-7.1h2c1.1,0,1.7,0,2.4,0.1v-2.7c-0.7,0.1-1.2,0.1-2.4,0.1h-2v-5.9h1.9
	c1.1,0,2,0,2.7,0.1v-2.7c-0.7,0.1-1.6,0.1-2.8,0.1h-7.1c-1.2,0-2,0-2.8-0.1v2.7c0.8-0.1,1.6-0.1,2.8-0.1h2.7V230.6z M312.1,214.7
	c0.6-0.1,1.1-0.1,2-0.1h3.5c0.9,0,1.4,0,2,0.1v-2.3c-0.6,0.1-1,0.1-2,0.1h-3.5c-1,0-1.4,0-2-0.1V214.7z M311.3,218.3
	c0.6-0.1,1.1-0.1,1.9-0.1h5.1c1,0,1.3,0,1.8,0.1v-2.5c-0.6,0.1-0.9,0.1-1.9,0.1h-5c-0.9,0-1.3,0-1.9-0.1V218.3z M312.2,221.6
	c0.5,0,0.8-0.1,1.6-0.1h4.2c0.7,0,1,0,1.5,0.1v-2.2c-0.4,0-0.7,0.1-1.5,0.1h-4.2c-0.8,0-1.1,0-1.6-0.1V221.6z M312.2,225
	c0.5,0,0.8-0.1,1.6-0.1h4.2c0.8,0,1,0,1.6,0.1v-2.2c-0.4,0-0.7,0.1-1.5,0.1h-4.2c-0.8,0-1.1,0-1.6-0.1V225z M314.4,234v-1.2h2.7v0.8
	h2.3c0-0.4-0.1-0.9-0.1-1.9v-3.8c0-0.9,0-1.2,0.1-1.7c-0.4,0.1-0.7,0.1-1.6,0.1h-4c-0.7,0-1.2,0-1.8-0.1c0.1,0.6,0.1,1.1,0.1,1.9
	v3.6c0,0.8,0,1.6-0.1,2.4H314.4z M314.4,228.3h2.7v2.4h-2.7V228.3z M339.4,217.5c0.2,0,0.3,0,0.4,0c0.2,0,0.2,0,0.7,0
	c0.5,0,2.6,0,3,0c0,0,0.3,0,0.4,0c-0.1,0.1-0.1,0.1-0.2,0.3c-0.5,0.9-1.9,3-2.9,4.1c-0.8,1-1.5,1.7-2.2,2.1l2.2,2.2
	c0.5-0.7,1.1-1.3,2.1-2.2c1.8-1.6,3.5-2.5,4.9-2.5c0.9,0,1.3,0.4,1.5,1.3c-2.7,1.1-4.1,2-5.2,3.4c-0.8,0.9-1.1,1.7-1.1,2.7
	c0,1.3,0.6,2.5,1.8,3.1c1.2,0.7,2.8,1,5.4,1c2.1,0,4.4-0.2,6.1-0.4c0.6-0.1,0.7-0.1,1.1-0.1l-0.2-3.1c-1.7,0.6-4.2,1-7.1,1
	c-2.9,0-4.1-0.5-4.1-1.8c0-0.7,0.4-1.3,1.2-2c0.5-0.4,1.1-0.7,2.3-1.2c0,0.2,0,0.2,0,0.6c0,1.1,0,2.4-0.1,2.8l2.8-0.1
	c0-0.4-0.1-0.7-0.1-1.3c0-0.2,0-0.4,0-0.8c0-0.3,0-0.7,0-1c0-0.3,0-0.3,0-1v-0.3c2.1-0.7,3.3-1.1,3.6-1.2c1.3-0.4,2-0.6,2.7-0.6
	l-1.1-2.8c-0.4,0.2-0.5,0.3-1.8,0.7c-0.6,0.2-1.8,0.6-3.7,1.3c-0.4-1.7-1.6-2.5-3.4-2.5c-1.2,0-2.5,0.4-3.4,1.1
	c-0.3,0.2-0.3,0.2-0.5,0.4l0,0c0.8-0.9,1.5-1.8,2.2-3.2c2.4-0.1,5.5-0.3,7.2-0.5c1.2-0.1,1.2-0.1,1.9-0.2l-0.2-2.7
	c-1.3,0.4-3.5,0.6-6.3,0.8c-1.3,0.1-1.3,0.1-1.5,0.1c0-0.1,0.1-0.2,0.2-0.4c0.8-1.9,0.8-1.9,1-2.2l-3.1-0.3c-0.1,0.8-0.3,1.5-1,3
	c-3,0-4.6-0.1-5.6-0.3L339.4,217.5z M377.1,221.7h4.6c1.3,0,1.6,0,2.3,0.1v-2c-0.7,0.1-1.1,0.1-2.3,0.1h-4.6v-1.2h4.6
	c1.3,0,1.6,0,2.3,0.1v-2c-0.7,0.1-1.1,0.1-2.3,0.1h-4.6v-1.2h5.8c0.9,0,1.4,0,2,0.1v-2.2c-0.6,0.1-1.3,0.1-2.4,0.1h-5.2
	c0.4-0.6,0.6-1,1.2-2.1l-2.7-0.3c-0.3,0.9-0.6,1.5-1.2,2.4h-4.3c0.4-0.6,0.4-0.6,1.3-2l-2.8-0.5c-0.2,0.5-0.4,1-0.8,1.6
	c-1.2,1.9-2.5,3.3-4.4,4.6c0.6,0.8,0.8,1.3,1.2,2.4c1-0.8,1.5-1.3,2.2-2.1c0,0.7-0.1,1.3-0.1,2.1v3c0,0.8,0,1.4-0.1,1.9
	c0.6,0,1.1-0.1,2-0.1h4.8v1.3h-6.7c-1.5,0-2.1,0-2.7-0.1v2.4c0.8-0.1,1.5-0.1,2.7-0.1h4.6c-0.7,0.6-1.4,1-2.6,1.5
	c-1.7,0.8-3.1,1.2-5.2,1.5c0.6,0.7,1,1.5,1.3,2.4c1.7-0.4,3-0.9,4.3-1.5c1.9-0.9,3.1-1.7,4.3-2.9c0,0.6-0.1,1-0.1,1.6v1.4
	c0,0.8,0,1.2-0.1,1.7h2.9c-0.1-0.5-0.1-0.8-0.1-1.7v-1.4c0-0.3,0-0.9-0.1-1.6c1.2,1.1,2.2,1.8,3.9,2.7c1.5,0.7,2.9,1.2,4.8,1.8
	c0.1-0.2,0.2-0.4,0.2-0.5c0.1-0.3,0.2-0.6,0.3-0.6c0.2-0.5,0.4-0.8,0.9-1.4c-3-0.5-6.1-1.7-7.9-3h4.8c1.2,0,1.9,0,2.7,0.1v-2.4
	c-0.6,0.1-1.3,0.1-2.7,0.1h-6.8v-1.3h6.3c1.1,0,1.7,0,2.3,0.1v-2.1c-0.6,0.1-1.2,0.1-2.3,0.1h-5.6V221.7z M374.6,221.7v1.2h-4.9
	v-1.2H374.6z M374.6,220h-4.9v-1.2h4.9V220z M374.6,217.1h-4.9v-1.2h4.9V217.1z M394.2,213.7c0.1,0.4,0.2,0.5,0.2,0.8
	c0.3,1.3,0.7,3.4,0.8,3.8c-2.5,1.9-3.8,4.4-3.8,7.4c0,3.2,1.7,5.4,4.1,5.4c0.8,0,1.5-0.2,2.2-0.6c1-0.6,2-1.5,2.9-2.6
	c1.8-2.3,3.4-5.7,4.4-9c1,0.3,1.5,0.5,2.2,1c1.2,0.9,1.8,2.1,1.8,3.7c0,1.1-0.3,2.1-0.8,3c-0.6,1-1.7,1.9-3.4,2.6
	c-1.3,0.6-2.3,0.8-3.9,0.9c0.9,1.2,1.1,1.6,1.5,2.8c1.8-0.4,2.8-0.6,3.9-1.2c3.6-1.5,5.6-4.4,5.6-7.9c0-2.5-1-4.5-2.9-6
	c-0.9-0.7-1.8-1.1-3.2-1.4c0.1-0.3,0.4-1.5,0.7-2.8c0-0.2,0.1-0.4,0.2-0.7l-3-0.6c0,0.8-0.2,1.7-0.7,3.7c-0.3,0-0.5,0-0.6,0
	c-1.6,0-3,0.3-4.6,1c-0.3-1.2-0.6-3-0.6-3.9L394.2,213.7z M395.9,221.1c0.5,2,0.9,3.1,2,5.5c-0.8,1-1.6,1.6-2.3,1.6
	c-1,0-1.6-1.1-1.6-2.6C394,223.9,394.6,222.6,395.9,221.1z M399.7,224.3c0-0.1,0-0.2-0.1-0.4c-0.7-1.9-1.1-2.9-1.4-4.5
	c1.3-0.7,2.5-1,4.1-1c-0.8,2.4-1.4,3.9-2.4,5.5C399.8,224.1,399.8,224.1,399.7,224.3L399.7,224.3z M426.2,212.2
	c0.1,0.7,0.1,0.9,0.1,2.1c0,3,0.2,9.6,0.3,10.4c0,0.2,0,0.2,0,0.2c-0.5-0.1-1.3-0.2-2.2-0.2c-3.5,0-5.9,1.8-5.9,4.3
	c0,0.7,0.2,1.5,0.6,2.1c0.9,1.4,2.6,2.1,5,2.1c3.6,0,5.5-1.4,5.5-4.1c0-0.4,0-0.6,0-0.8c0.3,0.2,0.5,0.3,0.8,0.4
	c1.3,0.6,2,1.1,3.2,2c0.9,0.7,1.3,1.1,1.7,1.6l1.9-2.7c-0.3-0.2-0.4-0.3-0.7-0.5c-1.8-1.3-2.2-1.6-3.1-2c-1.3-0.7-2.4-1.2-3.7-1.6
	c-0.2-2.4-0.2-3.4-0.3-5.3c1.9,0,3.6-0.2,5.6-0.4c1.1-0.1,1.1-0.1,1.6-0.1l-0.2-2.9c-1.5,0.5-4.2,0.8-7,0.8c0-1.2,0-1.2,0-1.6
	c0-1.8,0-2.9,0.2-3.7L426.2,212.2z M426.8,227.6c0,0,0,0.7,0,1.1c0,0.6-0.2,1.1-0.5,1.3c-0.5,0.4-1.3,0.6-2.2,0.6
	c-0.6,0-1.3-0.1-1.8-0.4c-0.6-0.3-0.8-0.7-0.8-1.2c0-1.1,1.2-1.8,3-1.8C425.4,227.3,425.9,227.4,426.8,227.6z M448.4,215.2
	c3.5,0.9,6.8,1.3,11.2,1.5l0.4-3c-0.3,0-0.6,0-0.7,0c-3.8,0-7.3-0.5-10-1.4L448.4,215.2z M446.3,223.2c2-0.8,6.8-1.7,9.5-1.7
	c2.5,0,3.8,0.9,3.8,2.7c0,1.7-1,3.2-2.9,4.2c-1.8,1-4.4,1.7-7.2,1.8c0.7,1.1,1,1.7,1.2,3c3.9-0.6,5.6-1.1,7.6-2.3
	c2.9-1.7,4.6-4.2,4.6-6.9c0-1.9-0.8-3.5-2.3-4.4c-1.1-0.7-2.6-1-4.5-1c-2,0-4.1,0.2-7.5,0.8c-2.2,0.4-2.2,0.4-2.8,0.4L446.3,223.2z"
	/>
</svg>
