<?xml version="1.0" encoding="utf-8"?>
<!-- Generator: Adobe Illustrator 24.0.1, SVG Export Plug-In . SVG Version: 6.00 Build 0)  -->
<svg version="1.1" id="レイヤー_1" xmlns="http://www.w3.org/2000/svg" xmlns:xlink="http://www.w3.org/1999/xlink" x="0px"
	 y="0px" viewBox="0 0 385 59" style="enable-background:new 0 0 385 59;" xml:space="preserve">
<style type="text/css">
	.st0{opacity:0.5;fill:#95A0AC;enable-background:new    ;}
	.st1{opacity:0.6;fill:#95A0AC;enable-background:new    ;}
</style>
<path class="st0" d="M0.7,57H13V35.3h26.7V24.1H13V12.2h30.3V1H0.7V57z M50,57h12.6l5.1-12.6h23.7L96.5,57h12.9l-24-56.4H74L50,57z
	 M72.1,33.6l7.4-18.2L87,33.6H72.1z M172.4,58.7l7.8-8.7l-5.8-4.9c3.2-4.6,5-10.2,5-16.1v-0.2c0-15.9-12.4-28.8-29.7-28.8
	s-29.8,13-29.8,29v0.2c0,15.9,12.4,28.8,29.7,28.8c6.2,0,11.9-1.8,16.6-4.8L172.4,58.7z M149.8,46.6c-9.9,0-17-8-17-17.6v-0.2
	c0-9.6,6.9-17.4,16.8-17.4s17,8,17,17.6v0.2c0,2.8-0.5,5.4-1.5,7.7l-9.2-8.3l-7.8,8.8l9.1,7.8C155,46,152.5,46.6,149.8,46.6z"/>
<path class="st1" d="M240.9,20c0.1,0.7,0.1,0.9,0.1,2.1c0,3,0.2,9.6,0.3,10.4c0,0.2,0,0.2,0,0.2c-0.5-0.1-1.3-0.2-2.2-0.2
	c-3.5,0-5.9,1.8-5.9,4.3c0,0.7,0.2,1.5,0.6,2.1c0.9,1.4,2.6,2.1,5,2.1c3.6,0,5.5-1.4,5.5-4.1c0-0.4,0-0.6,0-0.8
	c0.3,0.2,0.5,0.3,0.8,0.4c1.3,0.6,2,1.1,3.2,2c0.9,0.7,1.3,1.1,1.7,1.6l1.9-2.7c-0.3-0.2-0.4-0.3-0.7-0.5c-1.8-1.3-2.2-1.6-3.1-2
	c-1.3-0.7-2.4-1.2-3.7-1.6c-0.2-2.4-0.2-3.4-0.3-5.3c1.9,0,3.6-0.2,5.6-0.4c1.1-0.1,1.1-0.1,1.6-0.1l-0.2-2.9
	c-1.5,0.5-4.2,0.8-7,0.8c0-1.2,0-1.2,0-1.6c0-1.8,0-2.9,0.2-3.7L240.9,20z M241.4,35.4c0,0,0,0.7,0,1.1c0,0.6-0.2,1.1-0.5,1.3
	c-0.5,0.4-1.3,0.6-2.2,0.6c-0.6,0-1.3-0.1-1.8-0.4c-0.6-0.3-0.8-0.7-0.8-1.2c0-1.1,1.2-1.8,3-1.8C240.1,35.1,240.5,35.2,241.4,35.4z
	 M271.8,19.8c-0.4,0.6-0.7,0.9-1.8,2c-1.6,1.6-3,2.7-5.5,4.7c-1.8,1.4-1.8,1.4-2.1,1.7c-0.5,0.6-0.8,1.2-0.8,1.9c0,1.1,0.4,1.8,2,3
	c3.7,2.9,4.5,3.5,6.2,5.1c1.6,1.5,2.5,2.4,3.1,3.3l2.5-2.5c-0.3-0.2-0.5-0.4-0.7-0.6c-3.1-2.8-3.8-3.4-7.6-6.3
	c-2.1-1.6-2.2-1.6-2.2-2c0-0.3,0.2-0.5,0.9-1c2.8-2.1,4.5-3.5,5.7-4.6c2.1-1.9,2.5-2.4,3-2.6L271.8,19.8z M298.4,25.7
	c-0.1,0.6-0.2,1.1-0.5,1.8c-0.4,0-0.6,0-0.9,0c-1.5,0-2,0-3.3,0.3c0-0.5,0-1.3,0.1-2.3c1.9,0,5.8-0.4,8.4-0.8
	c0.5-0.1,0.6-0.1,0.9-0.1l-0.1-2.8c-1.8,0.6-5.3,1.1-9.1,1.3c0.1-1.7,0.2-2.3,0.4-3l-3-0.1c0,0.2,0,0.3,0,0.4c0,0.5,0,1.1,0,1.4
	c-0.1,1-0.1,1-0.1,1.4c-0.5,0-0.5,0-0.5,0c-2,0-3.4-0.1-4.5-0.4v2.7c0.3,0,0.5,0,0.6,0c0,0,0.2,0,0.5,0c2.3,0.1,3.6,0.1,3.9,0.1
	c0,1.2-0.1,2.1-0.1,2.9c-1.4,0.6-2.3,1.2-3.3,2.2c-1.5,1.5-2.4,3.4-2.4,5.4c0,2.5,1.5,4.2,3.7,4.2c2,0,4.1-1.2,6.3-3.5
	c1.7-1.8,2.9-3.5,4.2-6.4c1.7,0.6,2.7,1.8,2.7,3.3c0,1.7-0.9,2.8-2.8,3.7c-1.4,0.7-2.6,0.9-4.6,1c0.8,1.2,1,1.7,1.3,2.7
	c2.1-0.2,3.5-0.6,4.9-1.3c2.7-1.3,4.1-3.4,4.1-6c0-1.9-0.7-3.4-2.3-4.5c-0.8-0.6-1.5-0.9-2.5-1.2c0.1-0.2,0.1-0.2,0.3-0.9
	c0.2-0.5,0.2-0.5,0.3-0.7L298.4,25.7z M291.2,31.2c0,2.3,0.1,3.9,0.4,5.4c-0.8,0.6-1.4,0.9-2.1,0.9c-0.8,0-1.4-0.7-1.4-1.8
	c0-1,0.4-2,1.1-2.9C289.7,32.2,290.1,31.8,291.2,31.2z M293.9,34.8c0-0.1,0-0.1,0-0.3c0-0.2,0-0.2,0-0.3c-0.1-1.7-0.1-1.9-0.2-4.1
	c1-0.3,1.8-0.4,2.9-0.4c0.2,0,0.4,0,0.6,0c-0.9,2-1.8,3.5-3,4.8C294,34.7,294,34.7,293.9,34.8L293.9,34.8z M319.3,29.8
	c0.4-0.2,0.4-0.2,1-0.6c0.5-0.3,2.2-1.6,2.6-2c0.8-0.7,2.6-2.3,3.8-3.4c0.7-0.6,0.8-0.8,1.2-1l-1.5-2.1c-0.4,0.2-0.6,0.2-1.5,0.3
	c-2.3,0.2-5.3,0.3-7.3,0.3c-1.3,0-2,0-2.8-0.1l0.1,2.9c0.5-0.1,0.6-0.1,1.2-0.1c4.3-0.2,5.9-0.3,6.8-0.4l0,0
	c-0.1,0.1-0.4,0.4-0.4,0.4c-1.8,1.8-4.9,4.5-7.2,6.2c-1.6,1.2-2.5,1.8-3.4,2.3l1.6,2.6c2.9-2.6,6.4-4,9.9-4c2.9,0,4.8,1.2,4.8,3.1
	c0,1.7-0.9,2.7-2.9,3.5c-0.4-1-0.6-1.6-1.1-2.2c-1-1.3-2.5-2-4.2-2c-2.4,0-4.1,1.4-4.1,3.4c0,1.1,0.5,2.1,1.4,2.8
	c1,0.7,2.6,1.1,4.7,1.1c2.2,0,4.2-0.5,5.8-1.4c2.1-1.2,3.3-3,3.3-5.3c0-3.3-2.6-5.4-6.7-5.4C322.6,28.8,321.5,29,319.3,29.8
	L319.3,29.8z M322.7,38.4c-0.7,0.1-0.8,0.1-1.2,0.1c-1.8,0-2.9-0.6-2.9-1.5c0-0.7,0.6-1.1,1.4-1.1C321.4,35.8,322.3,36.7,322.7,38.4
	z M351.1,22.9c0-0.2,0-0.4,0-0.7c2.8-0.1,3.1-0.2,7-0.9l-1.5-2c-1.2,0.4-2,0.6-3.4,0.8c-0.9,0.1-3.1,0.3-3.9,0.3c-0.2,0-0.4,0-0.7,0
	c0,0.3,0.1,0.5,0.1,0.9c0,2.3-0.4,3.8-1.4,5c0.5,0.4,0.7,0.5,1.2,1h-3c0-0.1,0-0.2,0-0.3v-1.8h0.6c0.7,0,1.2,0,1.7,0.1v-2.3
	c-0.5,0.1-1,0.1-1.8,0.1h-4.8c0-0.3,0-0.4,0-0.7c3.4-0.2,4.4-0.4,6.6-1l-1.5-2c-0.8,0.3-1.4,0.5-2.4,0.7c-1.2,0.2-3.2,0.4-4.4,0.4
	c0,0-0.2,0-0.5,0h-0.4c0,0.3,0.1,0.9,0.1,1.1c0,3.1-0.5,4.8-1.9,6.2c0.8,0.7,1.2,1.1,2,2c0.7-0.8,0.9-1.1,1.2-1.7c0,0.8,0,1.2,0,2.3
	v4.8c0,1.3,0,2.2-0.1,2.8c0.7-0.1,1.5-0.1,2.6-0.1h1.4c-1.8,1-3.1,1.3-6.7,1.7c0.7,1.1,0.9,1.4,1.3,2.4c3.4-0.6,4.9-1,7.8-2.6
	l-1.9-1.5h7.5l-1.9,1.4c2.7,1.6,4.3,2.1,8,2.7c0.6-1.4,0.6-1.6,1.2-2.4c-3.2-0.3-4.5-0.6-6.9-1.7h1.7c1.2,0,1.9,0,2.6,0.1
	c-0.1-0.6-0.1-1.3-0.1-2.7v-4.9c0-1.8,0-2.5,0.1-3.2c-0.4,0-0.5,0-1,0.1v-2.1h1.6c0.7,0,1.2,0,1.8,0.1v-2.4
	c-0.6,0.1-1.1,0.1-1.8,0.1H351.1z M353.1,25.1v2.1H350c0.4-0.7,0.6-1.2,0.8-2.1H353.1z M342.5,27.2c-0.9,0-1.3,0-2.1,0
	c0.3-0.8,0.5-1.3,0.6-2h2v1.8c0,0.1,0,0.1,0,0.2H342.5z M342.6,29.2h11.3v1h-11.3V29.2z M342.6,32h11.3v1h-11.3V32z M342.6,34.8
	h11.3v1h-11.3V34.8z M367.2,28.5h4.3c0.8,0,1.6,0,2.2,0.1c0-0.5-0.1-1.1-0.1-2.2v-4c0-0.9,0-1.5,0.1-2.3c-0.6,0.1-1.2,0.1-2.4,0.1
	H367c-1.2,0-1.7,0-2.4-0.1c0.1,0.8,0.1,1.4,0.1,2.7v15.7c0,1.5,0,2.3-0.1,3h2.8c-0.1-0.6-0.1-1.5-0.1-3V28.5z M367.2,22.3h4.1v1.2
	h-4.1V22.3z M367.2,25.4h4.1v1.3h-4.1V25.4z M384.7,22.9c0-1.2,0-1.9,0.1-2.7c-0.7,0.1-1.3,0.1-2.5,0.1h-4.6c-1.2,0-1.7,0-2.4-0.1
	c0,0.7,0.1,1.3,0.1,2.3v4c0,1,0,1.5,0,2.2c0.5,0,1.4-0.1,2.2-0.1h4.6v9.8c0,0.5-0.1,0.6-0.8,0.6c-0.8,0-1.9-0.1-3-0.2
	c0.4,0.9,0.5,1.4,0.7,2.5c1.6,0.1,1.8,0.1,2.2,0.1c1.4,0,2-0.1,2.5-0.4c0.6-0.4,0.8-1,0.8-2.3V22.9z M377.8,22.3h4.4v1.2h-4.4V22.3z
	 M377.8,25.4h4.4v1.3h-4.4V25.4z M379.3,31.8c0-0.7,0-1.2,0.1-1.7c-0.5,0-1.1,0.1-1.8,0.1h-5.9c-0.7,0-1.2,0-1.8-0.1
	c0,0.5,0.1,1,0.1,1.7V37c0,0.9,0,1.7-0.1,2.3h2.5v-1.6h5.4c0.7,0,1.2,0,1.7,0.1c0-0.5-0.1-0.9-0.1-1.6V31.8z M372.3,32.4h4.6v3.1
	h-4.6V32.4z"/>
</svg>
