<?xml version="1.0" encoding="utf-8"?>
<!-- Generator: Adobe Illustrator 24.0.1, SVG Export Plug-In . SVG Version: 6.00 Build 0)  -->
<svg version="1.1" id="レイヤー_1" xmlns="http://www.w3.org/2000/svg" xmlns:xlink="http://www.w3.org/1999/xlink" x="0px"
	 y="0px" viewBox="0 0 158 94" style="enable-background:new 0 0 158 94;" xml:space="preserve">
<style type="text/css">
	.st0{opacity:0.5;fill:#95A0AC;enable-background:new    ;}
	.st1{opacity:0.6;fill:#95A0AC;enable-background:new    ;}
</style>
<path class="st0" d="M0.9,50h10.8V31H35v-9.8H11.7V10.8h26.5V1H0.9V50z M44,50h11l4.5-11h20.7l4.5,11H96L75,0.6H65L44,50z
	 M63.3,29.5l6.5-15.9l6.5,15.9H63.3z M151.1,51.5l6.9-7.6l-5-4.3c2.8-4.1,4.3-9,4.3-14.1v-0.1c0-13.9-10.9-25.2-26-25.2
	s-26.1,11.4-26.1,25.3v0.1c0,13.9,10.9,25.2,26,25.2c5.5,0,10.4-1.5,14.6-4.2L151.1,51.5z M131.3,40.9c-8.7,0-14.8-7-14.8-15.4v-0.1
	c0-8.4,6-15.3,14.7-15.3s14.8,7,14.8,15.4v0.1c0,2.5-0.4,4.7-1.3,6.7l-8-7.3l-6.9,7.7l8,6.8C135.9,40.4,133.7,40.9,131.3,40.9z"/>
<path class="st1" d="M14,71.2c0.1,0.7,0.1,0.9,0.1,2.1c0,3,0.2,9.6,0.3,10.4c0,0.2,0,0.2,0,0.2c-0.5-0.1-1.3-0.2-2.2-0.2
	c-3.5,0-5.9,1.8-5.9,4.3c0,0.7,0.2,1.5,0.6,2.1c0.9,1.4,2.6,2.1,5,2.1c3.6,0,5.5-1.4,5.5-4.1c0-0.4,0-0.6,0-0.8
	c0.3,0.2,0.5,0.3,0.8,0.4c1.3,0.6,2,1.1,3.2,2c0.9,0.7,1.3,1.1,1.7,1.6l1.9-2.7c-0.3-0.2-0.4-0.3-0.7-0.5c-1.8-1.3-2.2-1.6-3.1-2
	c-1.3-0.7-2.4-1.2-3.7-1.6c-0.2-2.4-0.2-3.4-0.3-5.3c1.9,0,3.6-0.2,5.6-0.4c1.1-0.1,1.1-0.1,1.6-0.1l-0.2-2.9
	c-1.5,0.5-4.2,0.8-7,0.8c0-1.2,0-1.2,0-1.6c0-1.8,0-2.9,0.2-3.7L14,71.2z M14.6,86.6c0,0,0,0.7,0,1.1c0,0.6-0.2,1.1-0.5,1.3
	c-0.5,0.4-1.3,0.6-2.2,0.6c-0.6,0-1.3-0.1-1.8-0.4c-0.6-0.3-0.8-0.7-0.8-1.2c0-1.1,1.2-1.8,3-1.8C13.3,86.3,13.7,86.4,14.6,86.6z
	 M45,71.1c-0.4,0.6-0.7,0.9-1.8,2c-1.6,1.6-3,2.7-5.5,4.7c-1.8,1.4-1.8,1.4-2.1,1.7c-0.5,0.6-0.8,1.2-0.8,1.9c0,1.1,0.4,1.8,2,3
	c3.7,2.9,4.5,3.5,6.2,5.1c1.6,1.5,2.5,2.4,3.1,3.3l2.5-2.5c-0.3-0.2-0.5-0.4-0.7-0.6c-3.1-2.8-3.8-3.4-7.6-6.3
	c-2.1-1.6-2.2-1.6-2.2-2c0-0.3,0.2-0.5,0.9-1c2.8-2.1,4.5-3.5,5.7-4.6c2.1-1.9,2.5-2.4,3-2.6L45,71.1z M71.6,76.9
	c-0.1,0.6-0.2,1.1-0.5,1.8c-0.4,0-0.6,0-0.9,0c-1.5,0-2,0-3.3,0.3c0-0.5,0-1.3,0.1-2.3c1.9,0,5.8-0.4,8.4-0.8
	c0.5-0.1,0.6-0.1,0.9-0.1L76.3,73c-1.8,0.6-5.3,1.1-9.1,1.3c0.1-1.7,0.2-2.3,0.4-3l-3-0.1c0,0.2,0,0.3,0,0.4c0,0.5,0,1.1,0,1.4
	c-0.1,1-0.1,1-0.1,1.4c-0.5,0-0.5,0-0.5,0c-2,0-3.4-0.1-4.5-0.4v2.7c0.3,0,0.5,0,0.6,0c0,0,0.2,0,0.5,0c2.3,0.1,3.6,0.1,3.9,0.1
	c0,1.2-0.1,2.1-0.1,2.9c-1.4,0.6-2.3,1.2-3.3,2.2c-1.5,1.5-2.4,3.4-2.4,5.4c0,2.5,1.5,4.2,3.7,4.2c2,0,4.1-1.2,6.3-3.5
	c1.7-1.8,2.9-3.5,4.2-6.4c1.7,0.6,2.7,1.8,2.7,3.3c0,1.7-0.9,2.8-2.8,3.7c-1.4,0.7-2.6,0.9-4.6,1c0.8,1.2,1,1.7,1.3,2.7
	c2.1-0.2,3.5-0.6,4.9-1.3c2.7-1.3,4.1-3.4,4.1-6c0-1.9-0.7-3.4-2.3-4.5c-0.8-0.6-1.5-0.9-2.5-1.2c0.1-0.2,0.1-0.2,0.3-0.9
	c0.2-0.5,0.2-0.5,0.3-0.7L71.6,76.9z M64.4,82.4c0,2.3,0.1,3.9,0.4,5.4c-0.8,0.6-1.4,0.9-2.1,0.9c-0.8,0-1.4-0.7-1.4-1.8
	c0-1,0.4-2,1.1-2.9C62.9,83.4,63.3,83.1,64.4,82.4z M67.1,86c0-0.1,0-0.1,0-0.3c0-0.2,0-0.2,0-0.3c-0.1-1.7-0.1-1.9-0.2-4.1
	c1-0.3,1.8-0.4,2.9-0.4c0.2,0,0.4,0,0.6,0c-0.9,2-1.8,3.5-3,4.8C67.2,85.9,67.2,85.9,67.1,86L67.1,86z M92.5,81
	c0.4-0.2,0.4-0.2,1-0.6c0.5-0.3,2.2-1.6,2.6-2c0.8-0.7,2.6-2.3,3.8-3.4c0.7-0.6,0.8-0.8,1.2-1L99.6,72c-0.4,0.2-0.6,0.2-1.5,0.3
	c-2.3,0.2-5.3,0.3-7.3,0.3c-1.3,0-2,0-2.8-0.1l0.1,2.9c0.5-0.1,0.6-0.1,1.2-0.1c4.3-0.2,5.9-0.3,6.8-0.4l0,0
	c-0.1,0.1-0.4,0.4-0.4,0.4c-1.8,1.8-4.9,4.5-7.2,6.2c-1.6,1.2-2.5,1.8-3.4,2.3l1.6,2.6c2.9-2.6,6.4-4,9.9-4c2.9,0,4.8,1.2,4.8,3.1
	c0,1.7-0.9,2.7-2.9,3.5c-0.4-1-0.6-1.6-1.1-2.2c-1-1.3-2.5-2-4.2-2c-2.4,0-4.1,1.4-4.1,3.4c0,1.1,0.5,2.1,1.4,2.8
	c1,0.7,2.6,1.1,4.7,1.1c2.2,0,4.2-0.5,5.8-1.4c2.1-1.2,3.3-3,3.3-5.3c0-3.3-2.6-5.4-6.7-5.4C95.7,80,94.7,80.2,92.5,81L92.5,81z
	 M95.9,89.6c-0.7,0.1-0.8,0.1-1.2,0.1c-1.8,0-2.9-0.6-2.9-1.5c0-0.7,0.6-1.1,1.4-1.1C94.6,87.1,95.5,87.9,95.9,89.6z M124.3,74.2
	c0-0.2,0-0.4,0-0.7c2.8-0.1,3.1-0.2,7-0.9l-1.5-2c-1.2,0.4-2,0.6-3.4,0.8c-0.9,0.1-3.1,0.3-3.9,0.3c-0.2,0-0.4,0-0.7,0
	c0,0.3,0.1,0.5,0.1,0.9c0,2.3-0.4,3.8-1.4,5c0.5,0.4,0.7,0.5,1.2,1h-3c0-0.1,0-0.2,0-0.3v-1.8h0.6c0.7,0,1.2,0,1.7,0.1v-2.3
	c-0.5,0.1-1,0.1-1.8,0.1h-4.8c0-0.3,0-0.4,0-0.7c3.4-0.2,4.4-0.4,6.6-1l-1.5-2c-0.8,0.3-1.4,0.5-2.4,0.7c-1.2,0.2-3.2,0.4-4.4,0.4
	c0,0-0.2,0-0.5,0h-0.4c0,0.3,0.1,0.9,0.1,1.1c0,3.1-0.5,4.8-1.9,6.2c0.8,0.7,1.2,1.1,2,2c0.7-0.8,0.9-1.1,1.2-1.7c0,0.8,0,1.2,0,2.3
	v4.8c0,1.3,0,2.2-0.1,2.8c0.7-0.1,1.5-0.1,2.6-0.1h1.4c-1.8,1-3.1,1.3-6.7,1.7c0.7,1.1,0.9,1.4,1.3,2.4c3.4-0.6,4.9-1,7.8-2.6
	l-1.9-1.5h7.5l-1.9,1.4c2.7,1.6,4.3,2.1,8,2.7c0.6-1.4,0.6-1.6,1.2-2.4c-3.2-0.3-4.5-0.6-6.9-1.7h1.7c1.2,0,1.9,0,2.6,0.1
	c-0.1-0.6-0.1-1.3-0.1-2.7v-4.9c0-1.8,0-2.5,0.1-3.2c-0.4,0-0.5,0-1,0.1v-2.1h1.6c0.7,0,1.2,0,1.8,0.1v-2.4
	c-0.6,0.1-1.1,0.1-1.8,0.1H124.3z M126.3,76.3v2.1h-3.2c0.4-0.7,0.6-1.2,0.8-2.1H126.3z M115.6,78.4c-0.9,0-1.3,0-2.1,0
	c0.3-0.8,0.5-1.3,0.6-2h2v1.8c0,0.1,0,0.1,0,0.2H115.6z M115.8,80.4h11.3v1h-11.3V80.4z M115.8,83.2h11.3v1h-11.3V83.2z M115.8,86
	h11.3v1h-11.3V86z M140.3,79.8h4.3c0.8,0,1.6,0,2.2,0.1c0-0.5-0.1-1.1-0.1-2.2v-4c0-0.9,0-1.5,0.1-2.3c-0.6,0.1-1.2,0.1-2.4,0.1
	h-4.2c-1.2,0-1.7,0-2.4-0.1c0.1,0.8,0.1,1.4,0.1,2.7v15.7c0,1.5,0,2.3-0.1,3h2.8c-0.1-0.6-0.1-1.5-0.1-3V79.8z M140.3,73.5h4.1v1.2
	h-4.1V73.5z M140.3,76.6h4.1v1.3h-4.1V76.6z M157.9,74.2c0-1.2,0-1.9,0.1-2.7c-0.7,0.1-1.3,0.1-2.5,0.1H151c-1.2,0-1.7,0-2.4-0.1
	c0,0.7,0.1,1.3,0.1,2.3v4c0,1,0,1.5,0,2.2c0.5,0,1.4-0.1,2.2-0.1h4.6v9.8c0,0.5-0.1,0.6-0.8,0.6c-0.8,0-1.9-0.1-3-0.2
	c0.4,0.9,0.5,1.4,0.7,2.5c1.6,0.1,1.8,0.1,2.2,0.1c1.4,0,2-0.1,2.5-0.4c0.6-0.4,0.8-1,0.8-2.3V74.2z M151,73.5h4.4v1.2H151V73.5z
	 M151,76.6h4.4v1.3H151V76.6z M152.5,83.1c0-0.7,0-1.2,0.1-1.7c-0.5,0-1.1,0.1-1.8,0.1h-5.9c-0.7,0-1.2,0-1.8-0.1
	c0,0.5,0.1,1,0.1,1.7v5.1c0,0.9,0,1.7-0.1,2.3h2.5V89h5.4c0.7,0,1.2,0,1.7,0.1c0-0.5-0.1-0.9-0.1-1.6V83.1z M145.5,83.6h4.6v3.1
	h-4.6V83.6z"/>
</svg>
