<?xml version="1.0" encoding="utf-8"?>
<!-- Generator: Adobe Illustrator 24.0.1, SVG Export Plug-In . SVG Version: 6.00 Build 0)  -->
<svg version="1.1" id="レイヤー_1" xmlns="http://www.w3.org/2000/svg" xmlns:xlink="http://www.w3.org/1999/xlink" x="0px"
	 y="0px" viewBox="0 0 750 110" style="enable-background:new 0 0 750 110;" xml:space="preserve">
<style type="text/css">
	.st0{opacity:0.4;fill:#FFFFFF;enable-background:new    ;}
	.st1{opacity:0.4;}
	.st2{fill:#FFFFFF;}
	.st3{fill:none;}
</style>
<path class="st0" d="M249.6,90.5c0.5-0.1,0.9-0.1,1.5-0.1c4-0.2,4.8-0.3,6.7-0.5c-1.8,1.8-5.3,4.6-7.4,5.9c-0.6,0.1-0.8,0.1-1.4,0.2
	c-0.5,0.1-0.8,0.1-0.9,0.1c-0.6,0.1-1.6,0.1-2.1,0.1c-0.1,0-0.2,0-0.4,0l0.3,2.9c0.5-0.1,0.6-0.2,1.1-0.2c1.6-0.2,2.9-0.4,3.9-0.5
	c0.7-0.1,1.6-0.2,2.6-0.3c1.2-0.1,1.9-0.3,3-0.5c-1.3,0.7-1.9,1.1-2.6,1.8c-0.8,0.9-1.3,2-1.3,3.1c0,1.9,1.3,3.6,3.4,4.2
	c1.2,0.4,3,0.7,4.5,0.7c0.1,0,0.2,0,0.3,0c0.7,0,1.1,0,1.2,0c0.3,0,0.6,0,0.9,0l-0.1-3c-0.7,0.2-1.4,0.2-2.3,0.2
	c-3.1,0-4.8-0.9-4.8-2.4c0-1.3,1.3-2.8,3.3-3.6c1.8-0.8,3.9-1.2,6.7-1.2c0.3,0,0.3,0,0.7,0l-0.2-2.8c-0.3,0.1-0.4,0.1-0.8,0.1
	c-0.2,0-0.8,0.1-1.7,0.2c-0.6,0-1.7,0.1-3.2,0.2c-2.9,0.2-4.6,0.4-5.8,0.6c2.2-1.5,4.9-3.6,6.6-5.2c0.8-0.7,0.9-0.8,1.4-1.2l-1.6-2
	c-0.5,0.2-1.1,0.3-2.3,0.4c-1.9,0.1-5,0.3-7.1,0.3c-1.1,0-1.6,0-2.4-0.1L249.6,90.5z M284.5,90.8c1.1,0.1,1.7,0.3,2.4,0.7
	c1.9,1.2,3,3,3,5.3c0,2.6-1.2,4.8-3.3,6c-1.1,0.6-2.6,1-4.8,1.3c0.8,1,1.1,1.5,1.5,2.8c1.7-0.3,2.6-0.5,3.8-1c3.7-1.5,5.8-4.8,5.8-9
	c0-5.4-3.7-8.9-9.5-8.9c-3.4,0-6.2,1.2-8.3,3.4c-1.7,1.9-2.6,4.3-2.6,7c0,3.9,2,6.6,4.7,6.6c2,0,3.5-1.4,4.9-4.5
	C283.2,97.9,284,94.6,284.5,90.8z M281.6,90.8c-0.3,2.7-1.1,6-2,8.1s-1.7,3.1-2.5,3.1c-1.1,0-1.9-1.6-1.9-3.5c0-2.6,1.2-5,3.3-6.5
	C279.5,91.3,280.3,91,281.6,90.8z M307.7,103c1,0.8,1.3,1.1,1.8,1.6c1.4-1.2,2-1.9,3.2-3.4c0.8,0.9,1.2,1.5,2.3,2.9l1.7-2
	c-1.2-1.4-1.6-1.9-2.7-3c0.6-1.1,1.1-2.3,1.5-3.4c0.2-0.6,0.2-0.6,0.4-0.9l-2.3-0.9c-0.2,1-0.6,2.3-1.3,3.6
	c-0.8-0.7-1.2-1.1-2.5-2.2l-1.6,1.6c1.4,1.1,2,1.6,3,2.6c-1.1,1.4-1.8,2.2-3.3,3.3v-5.7c0-1.1,0-1.5,0.1-2.1h-3
	c0.1,0.6,0.1,1.1,0.1,2.2v8.2c0,1.2,0,2-0.1,2.8h2.6v-1.1h9.1v1.1h2.7c-0.1-0.6-0.1-1.5-0.1-2.7v-8.4c0-1,0-1.6,0.1-2.2h-2.7
	c0.1,0.5,0.1,1.1,0.1,2.2v7.7h-9.1V103z M299.5,97.8c0.6-2,0.8-3.7,0.9-6.6l-1.9-0.4c0,2.7-0.2,4.1-0.9,6.2L299.5,97.8z
	 M303.5,108.2c-0.1-0.8-0.1-1.7-0.1-2.9V88.5c0-1.1,0-1.7,0.1-2.5h-2.8c0.1,0.8,0.2,1.5,0.2,2.5v16.7c0,1.1,0,2.2-0.2,3H303.5z
	 M309.9,92.6c-0.7-2-1.1-3-2.5-5.8l-2.2,1.1c1.2,2.2,1.8,3.7,2.5,5.8L309.9,92.6z M316.3,94.4c1.3-2,2-3.5,3.5-7.1l-2.6-0.9
	c-1,3.2-1.6,4.5-3.2,6.9L316.3,94.4z M306.5,93.9c-0.5-1.5-0.8-2.4-1.5-3.6l-1.5,0.7c0.6,1.4,0.8,2.2,1.2,3.7L306.5,93.9z
	 M314.3,91.7c-1.1-3.2-1.4-4-2.2-5.7l-2.3,0.8c1,2.2,1.4,3.2,2.1,5.7L314.3,91.7z M327.7,90.3c0.5-0.1,0.9-0.1,1.9-0.1
	c2.4-0.1,2.9-0.1,4.2-0.2c-0.6,2.2-0.9,3.1-1.5,5c-2,0.1-3.3,0.4-4.5,1.2c-1.9,1.2-3,3-3,5.3c0,2.6,1.6,4.6,3.8,4.6
	c1.3,0,2.4-0.7,3.3-2.3c0.7-1.2,1.3-2.7,2.4-5.9c2.3,0.4,3.7,0.8,5.4,1.7c-0.4,1.2-1.2,2.5-2.1,3.6c-1,1-1.9,1.7-3.7,2.5
	c0.9,0.7,1.2,0.9,2.2,2.2c1.4-0.7,2.6-1.6,3.6-2.7c1.2-1.3,1.9-2.4,2.6-4.2c1.2,0.7,2.6,1.6,3.3,2.2l1.1-3.2
	c-0.4-0.2-0.5-0.2-1.1-0.6c-0.7-0.4-1.8-1-2.6-1.4c0.2-1.5,0.4-3,0.4-5.1c0-0.9,0-1.1,0.1-1.6l-3-0.1c0.1,0.5,0.1,0.7,0.1,1.3
	c0,2.2,0,3.2-0.2,4.4c-1.8-0.8-3.4-1.2-5.3-1.5c0.2-0.7,1.7-5.2,1.8-5.4c0.2-0.5,0.3-0.7,0.5-1l-1.9-1.6c-0.3,0.2-0.5,0.2-1,0.3
	c-0.9,0.1-3,0.2-4.5,0.2c-1.3,0-1.9,0-2.4-0.1L327.7,90.3z M331.5,97.5c-0.5,1.6-1.1,3-1.6,4c-0.6,1.1-0.9,1.5-1.4,1.5
	c-0.6,0-1.2-0.8-1.2-1.8c0-0.8,0.3-1.7,0.9-2.3C329.1,98.1,329.9,97.8,331.5,97.5z M350.7,102.6c2.1,1.7,3.5,3.1,5.2,5.5l2.2-2.1
	c-1.8-2.3-3.2-3.6-5.4-5.3L350.7,102.6z M385.9,87.4c-0.3,0.1-0.6,0.1-1.2,0.1h-2.2c0.4-1,0.4-1,0.5-1.3l-2.5-0.5
	c-0.1,0.8-0.4,1.6-0.9,2.6c-0.8,1.7-1.6,2.8-2.7,3.7c0.9,0.7,1.2,1.1,1.6,1.6c0,0.3,0,0.7,0,1.3c0,7-0.3,9.1-1.4,11.2
	c0.8,0.6,1.1,0.8,2,1.9c0.9-1.9,1.2-3,1.4-5.9h4.9v2.9c0,0.4-0.2,0.5-1,0.5c-0.4,0-1,0-2-0.2c0.3,0.9,0.5,1.5,0.6,2.4
	c0.8,0,1.2,0,1.5,0c2.4,0,3.1-0.5,3.1-2.2V93.6c0-0.2,0-0.2,0-0.6c0.8,0.8,1.2,1.3,1.5,2l0.3-0.2v0.1c0,0.2-0.1,1-0.3,1.6
	c-0.3,1.2-0.6,1.9-1.3,3.2c0.6,0.2,1.1,0.5,2.1,1.1c0.4-0.9,0.6-1.2,0.8-1.8h1.9v2.2h-2.4c-1,0-1.5,0-2.2-0.1v2.6
	c0.7-0.1,1.2-0.1,2.2-0.1h2.4v2.4c0,1,0,1.6-0.1,2.4h2.8c-0.1-0.7-0.1-1.3-0.1-2.4v-2.4h1.9c1.1,0,1.6,0,2.3,0.1v-2.5
	c-0.7,0.1-1.3,0.1-2.3,0.1h-1.8v-2.2h1.5c0.9,0,1.6,0,2.1,0.1v-2.5c-0.5,0.1-1.1,0.1-2.1,0.1h-1.5v-0.2c0-0.6,0-1.2,0.1-1.8h-2.7
	c0.1,0.6,0.1,1.1,0.1,1.8v0.2h-1.3c0.1-0.4,0.1-0.4,0.3-1.3l-2.2-0.5c1.1-0.6,1.9-1.3,2.6-2.3s1-1.7,1.4-3.4h2.5
	c-0.1,1.1-0.2,1.9-0.4,2.4c-0.1,0.4-0.4,0.5-1,0.5c-0.4,0-1-0.1-1.8-0.2c0.4,0.9,0.5,1.2,0.6,2.4c1.4,0,1.4,0,1.8,0
	c1.5,0,2-0.2,2.4-0.8c0.4-0.6,0.7-2.1,0.9-4c0.1-1.4,0.1-2.1,0.2-2.6c-0.6,0.1-1.2,0.1-2.1,0.1h-5.9c-1.2,0-1.8,0-2.5-0.1v2.5
	c0.5-0.1,1.2-0.1,2.1-0.1h0.7c-0.2,1.1-0.5,1.6-1,2.2c-0.6,0.6-1.2,1-2.3,1.6c0-0.7,0-0.8,0.1-1.2c-0.6,0.1-1.2,0.1-2.3,0.1
	c0.4-0.6,0.8-1.3,1-1.8c0.4-0.9,0.5-1,0.7-1.3L385.9,87.4z M380.9,91.7c-0.4,0-0.4,0-0.6,0c0.5-0.7,0.9-1.3,1.2-2.1h2.4
	c-0.3,0.8-0.6,1.3-1.1,2.1H380.9z M380.6,100.1c0-0.4,0-0.5,0-1.2c0-0.2,0-0.5,0-0.9h1.4v2.2L380.6,100.1L380.6,100.1z M385.3,100.1
	h-1.4v-2.2h1.4V100.1z M385.3,95.9h-1.4v-2h1.4V95.9z M382,93.9v2h-1.4v-2H382z M423,98.7c1.1,0,1.9,0,2.7,0.1V96
	c-1,0.1-1,0.1-2,0.1v-4.8c0-0.9,0-1.4,0.1-1.9c-0.6,0.1-1.1,0.1-2.2,0.1h-3.7v-1.3c0-1.1,0-1.5,0.2-2.2h-2.9
	c0.1,0.7,0.2,1.2,0.2,2.3v1.3h-2c-1,0-1.8,0-2.5-0.1v2.7c0.6-0.1,1.6-0.1,2.5-0.1h2c0,1.3-0.1,2.7-0.2,4.1h-2.7c-1,0-1.9,0-2.7-0.1
	V99c0.7-0.1,1.6-0.1,2.7-0.1h2.3c-0.8,3.4-2.8,5.5-6.6,7.2c0.8,0.9,1.2,1.5,1.7,2.4c3.7-2,5.8-4.3,7-7.7c1.2,3,3.9,5.7,7.5,7.5
	c0.5-1.3,0.8-1.9,1.4-2.7c-3.6-1.4-5.9-3.6-7.3-6.7h4.5V98.7z M417.7,96.1c0.1-1.2,0.2-2.2,0.2-4.1h3.3v4.1H417.7z M404.3,88.1
	c1.9,1.2,2.7,1.8,4.2,3.4l1.7-2.2c-1.6-1.5-2.5-2.2-4.2-3.2L404.3,88.1z M403.4,94.1c1.7,1.1,2.7,1.8,4.3,3.3l1.5-2.2
	c-1.7-1.4-2.6-2.1-4.3-3L403.4,94.1z M407.1,98.8c-1.2,3.6-2.2,5.6-3.6,7.2l2.3,2c0.1-0.1,0.6-1,0.7-1.3c1.1-2.1,1.7-3.6,2.6-6.3
	L407.1,98.8z M433.9,87c0.1,0.6,0.1,1,0.1,1.6c0,0.3,0,0.8,0,1.6c-0.1,6-0.2,8.4-0.2,9.7c0,3.2,0.7,5.1,2.4,6.2
	c1,0.7,2.5,1.1,4.2,1.1c3,0,5.4-1,7.2-3c1.2-1.3,1.9-2.9,2.9-6.1c-1.2-0.5-1.6-0.8-2.9-1.8c-0.3,1.7-0.6,2.8-1.1,4
	c-1.1,2.6-3.2,4.1-5.8,4.1c-1.5,0-2.7-0.5-3.2-1.2s-0.6-1.6-0.6-3.9c0-1.7,0.1-6.6,0.2-8.8c0.1-1.8,0.1-2.5,0.3-3.2L433.9,87z
	 M465.7,86.4c0.1,0.7,0.1,0.9,0.1,2.1c0,3,0.2,9.6,0.3,10.4c0,0.2,0,0.2,0,0.2c-0.5-0.1-1.3-0.2-2.2-0.2c-3.5,0-5.9,1.8-5.9,4.3
	c0,0.7,0.2,1.5,0.6,2.1c0.9,1.4,2.6,2.1,5,2.1c3.6,0,5.5-1.4,5.5-4.1c0-0.4,0-0.6,0-0.8c0.3,0.2,0.5,0.3,0.8,0.4
	c1.3,0.6,2,1.1,3.2,2c0.9,0.7,1.3,1.1,1.7,1.6l1.9-2.7c-0.3-0.2-0.4-0.3-0.7-0.5c-1.8-1.3-2.2-1.6-3.1-2c-1.3-0.7-2.4-1.2-3.7-1.6
	c-0.2-2.4-0.2-3.4-0.3-5.3c1.9,0,3.6-0.2,5.6-0.4c1.1-0.1,1.1-0.1,1.6-0.1l-0.2-2.9c-1.5,0.5-4.2,0.8-7,0.8c0-1.2,0-1.2,0-1.6
	c0-1.8,0-2.9,0.2-3.7L465.7,86.4z M466.2,101.8c0,0,0,0.7,0,1.1c0,0.6-0.2,1.1-0.5,1.3c-0.5,0.4-1.3,0.6-2.2,0.6
	c-0.6,0-1.3-0.1-1.8-0.4c-0.6-0.3-0.8-0.7-0.8-1.2c0-1.1,1.2-1.8,3-1.8C464.9,101.5,465.3,101.6,466.2,101.8z M487.8,89.4
	c3.5,0.9,6.8,1.3,11.2,1.5l0.4-3c-0.3,0-0.6,0-0.7,0c-3.8,0-7.3-0.5-10-1.4L487.8,89.4z M485.7,97.4c2-0.8,6.8-1.7,9.5-1.7
	c2.5,0,3.8,0.9,3.8,2.7c0,1.7-1,3.2-2.9,4.2c-1.8,1-4.4,1.7-7.2,1.8c0.7,1.1,1,1.7,1.2,3c3.9-0.6,5.6-1.1,7.6-2.3
	c2.9-1.7,4.6-4.2,4.6-6.9c0-1.9-0.8-3.5-2.3-4.4c-1.1-0.7-2.6-1-4.5-1c-2,0-4.1,0.2-7.5,0.8c-2.2,0.4-2.2,0.4-2.8,0.4L485.7,97.4z"
	/>
<g class="st1">
	<polygon class="st2" points="60.9,34.3 87.3,34.3 87.3,23.3 60.9,23.3 60.9,12 90.9,12 90.9,1 48.7,1 48.7,57 91.3,57 91.3,46 
		60.9,46 	"/>
	<path class="st2" d="M603,0c-17.3,0-29.8,13-29.8,29v0.2C573.1,45.1,585.5,58,602.8,58s29.8-13,29.8-29v-0.2
		C632.7,12.9,620.3,0,603,0z M619.8,29.2c0,9.6-6.9,17.4-16.8,17.4s-17-8-17-17.6v-0.2c0-9.6,6.9-17.4,16.8-17.4c9.9,0,17,8,17,17.6
		V29.2z"/>
	<path class="st2" d="M12.2,23.4c-9.6-2.4-12-3.6-12-7.3V16c0-2.7,2.5-4.9,7.2-4.9c4.7,0,9.6,2.1,14.6,5.5l6.4-9.3
		C22.6,2.8,15.7,0.2,7.5,0.2C4.8,0.2,2.3,0.6,0,1.3v31.2c2,0.7,4.1,1.3,6.5,1.9c9.4,2.4,11.3,4,11.3,7.1v0.2c0,3.3-3,5.3-8.1,5.3
		C6.2,46.9,3,46.1,0,44.7v11.8c3.1,0.8,6.3,1.3,9.4,1.3c12.1,0,20.6-6.2,20.6-17.4v-0.2C30,30.4,23.6,26.4,12.2,23.4z"/>
	<polygon class="st2" points="224.1,23.5 210.8,1 196.4,1 217.9,34.9 217.9,57 230.2,57 230.2,34.7 251.7,1 237.7,1 	"/>
	<polygon class="st2" points="106.2,12.4 123.2,12.4 123.2,57 135.6,57 135.6,12.4 152.6,12.4 152.6,1 106.2,1 	"/>
	<path class="st2" d="M667.2,0.6l-24,56.4h12.6l5.1-12.6h23.7l5.1,12.6h12.9l-24-56.4H667.2z M665.3,33.6l7.4-18.2l7.4,18.2H665.3z"
		/>
	<path class="st2" d="M453.8,19.6v-0.2c0-5.3-1.7-9.7-4.8-12.8C445.3,3,439.8,1,432.7,1h-25.6v56h12.3V39.1h9.7l12,17.9h14.4
		l-13.7-20C448.9,34.4,453.8,28.7,453.8,19.6z M441.3,20.3c0,4.7-3.4,7.9-9.4,7.9h-12.5V12.1h12.2c6,0,9.7,2.7,9.7,8V20.3z"/>
	<path class="st2" d="M531.4,35.4h12.4v8c-3.1,2.2-7.1,3.4-11.6,3.4c-9.9,0-17-7.5-17-17.8v-0.2c0-9.5,7.1-17.4,16.1-17.4
		c6.5,0,10.3,2.1,14.6,5.7l7.8-9.4c-5.8-5-11.9-7.7-22-7.7c-17,0-29.4,13-29.4,29v0.2c0.1,16.5,12.1,28.8,29.5,28.8
		c10.2,0,18.2-4,23.9-8.9V24.8h-24.3V35.4z"/>
	<polygon class="st2" points="731.5,45.8 731.5,1 719.2,1 719.2,57 750,57 750,45.8 	"/>
	<path class="st2" d="M290,0c-17.3,0-29.8,13-29.8,29v0.2c0,15.9,12.4,28.8,29.6,28.8c17.3,0,29.8-13,29.8-29v-0.2
		C319.7,12.9,307.3,0,290,0z M306.8,29.2c0,9.6-6.9,17.4-16.8,17.4c-9.9,0-17-8-17-17.6v-0.2c0-9.6,6.9-17.4,16.8-17.4
		c9.9,0,17,8,17,17.6V29.2z"/>
	<path class="st2" d="M374.3,33.1c0,8.9-4.6,13.4-12.1,13.4s-12.1-4.7-12.1-13.8V1h-12.3v32c-0.1,16.5,9.1,24.9,24.2,24.9
		c15,0,24.6-8.3,24.6-25.3V1h-12.3V33.1z"/>
</g>
<line class="st3" x1="750" y1="45.8" x2="750" y2="57"/>
</svg>
