<?xml version="1.0" encoding="utf-8"?>
<!-- Generator: Adobe Illustrator 24.0.1, SVG Export Plug-In . SVG Version: 6.00 Build 0)  -->
<svg version="1.1" id="レイヤー_1" xmlns="http://www.w3.org/2000/svg" xmlns:xlink="http://www.w3.org/1999/xlink" x="0px"
	 y="0px" viewBox="0 0 229 253" style="enable-background:new 0 0 229 253;" xml:space="preserve">
<style type="text/css">
	.st0{opacity:0.4;fill:#FFFFFF;enable-background:new    ;}
	.st1{opacity:0.5;fill:#FFFFFF;enable-background:new    ;}
</style>
<path class="st0" d="M23.3,50.7c10.6,0,18-5.5,18-15.2v-0.1c0-8.5-5.6-12.1-15.5-14.7c-8.5-2.2-10.6-3.2-10.6-6.4v-0.1
	c0-2.4,2.2-4.3,6.3-4.3s8.4,1.8,12.7,4.8l5.6-8.1c-5-4-11.1-6.2-18.2-6.2c-10,0-17.1,5.9-17.1,14.8v0.1c0,9.7,6.4,12.5,16.2,15
	c8.2,2.1,9.9,3.5,9.9,6.2v0.1c0,2.9-2.7,4.6-7.1,4.6c-5.6,0-10.2-2.3-14.6-6l-6.4,7.6C8.4,48.1,15.9,50.7,23.3,50.7z M57.7,50H95
	v-9.6H68.4V30.1h23.1v-9.6H68.4v-9.9h26.2V1h-37L57.7,50L57.7,50z M123,50h10.8V10.9h14.9V1h-40.6v9.9H123V50z M19.7,127h10.8v-19.5
	L49.3,78H37L25.1,97.7L13.4,78H0.8l18.8,29.7V127H19.7z M82.6,127.8c15.1,0,26.1-11.4,26.1-25.3v-0.1c0-13.9-10.9-25.2-26-25.2
	s-26.1,11.4-26.1,25.3v0.1C56.6,116.6,67.5,127.8,82.6,127.8z M82.8,117.9c-8.7,0-14.8-7-14.8-15.4v-0.1c0-8.4,6-15.3,14.7-15.3
	s14.8,7,14.8,15.4v0.1C97.5,111,91.4,117.9,82.8,117.9z M145.7,127.8c13.2,0,21.5-7.3,21.5-22.1V78h-10.8v28.1
	c0,7.8-4,11.8-10.6,11.8s-10.6-4.1-10.6-12.1V78h-10.8v28C124.5,120.4,132.6,127.8,145.7,127.8z M185.2,127H196v-15.7h8.3h0.1
	l10.5,15.7h12.6l-12-17.5c6.2-2.3,10.5-7.3,10.5-15.2v-0.1c0-4.6-1.5-8.5-4.2-11.2c-3.2-3.2-8.1-5-14.3-5h-22.4L185.2,127L185.2,127
	z M196,101.8V87.7h10.7c5.2,0,8.5,2.4,8.5,7v0.1c0,4.1-3,6.9-8.3,6.9H196V101.8z M29.5,204.8c9,0,15.9-3.5,20.9-7.8v-21.3H29.1v9.3
	H40v7c-2.7,2-6.2,2.9-10.2,2.9c-8.7,0-14.8-6.6-14.8-15.5v-0.1c0-8.3,6.2-15.3,14.1-15.3c5.7,0,9,1.8,12.8,5l6.8-8.2
	c-5.1-4.3-10.4-6.7-19.3-6.7c-14.8,0-25.7,11.4-25.7,25.3v0.1C3.7,194.1,14.2,204.8,29.5,204.8z M91.6,204.8
	c15.1,0,26.1-11.4,26.1-25.3v-0.1c0-13.9-10.8-25.2-26-25.2c-15.1,0-26.1,11.4-26.1,25.3v0.1C65.6,193.6,76.5,204.8,91.6,204.8z
	 M91.7,194.9c-8.7,0-14.8-7-14.8-15.4v-0.1c0-8.4,6-15.3,14.7-15.3s14.8,7,14.8,15.4v0.1C106.4,188,100.4,194.9,91.7,194.9z
	 M126.9,204h11l4.5-11h20.7l4.5,11h11.3l-21-49.4H148L126.9,204z M146.2,183.5l6.5-15.9l6.5,15.9H146.2z M193.4,204h35.2v-9.8h-24.4
	V155h-10.8V204z"/>
<path class="st1" d="M8.6,240.5c0.3,0,0.6-0.1,1-0.1c2.7-0.1,3.2-0.2,4.5-0.4c-1.2,1.2-3.5,3.1-4.9,3.9C8.8,244,8.7,244,8.3,244
	c-0.3,0-0.5,0.1-0.6,0.1c-0.4,0-1.1,0.1-1.4,0.1c0,0-0.1,0-0.3,0l0.2,2c0.3-0.1,0.4-0.1,0.7-0.2c1.1-0.2,1.9-0.3,2.6-0.4
	c0.4-0.1,1-0.1,1.8-0.2c0.8-0.1,1.3-0.2,2-0.3c-0.9,0.4-1.3,0.7-1.7,1.2c-0.6,0.6-0.9,1.3-0.9,2.1c0,1.3,0.9,2.4,2.3,2.8
	c0.8,0.3,2,0.4,3,0.4c0,0,0.1,0,0.2,0c0.4,0,0.7,0,0.8,0c0.2,0,0.4,0,0.6,0l-0.1-2c-0.5,0.1-0.9,0.1-1.5,0.1c-2.1,0-3.2-0.6-3.2-1.6
	c0-0.9,0.9-1.8,2.2-2.4c1.2-0.5,2.6-0.8,4.4-0.8c0.2,0,0.2,0,0.5,0l-0.1-1.9c-0.2,0-0.3,0-0.5,0.1c-0.1,0-0.6,0-1.1,0.1
	c-0.4,0-1.1,0.1-2.1,0.2c-1.9,0.2-3.1,0.3-3.9,0.4c1.4-1,3.2-2.4,4.4-3.5c0.5-0.5,0.6-0.5,0.9-0.8l-1-1.3c-0.3,0.1-0.7,0.2-1.5,0.3
	c-1.2,0.1-3.3,0.2-4.8,0.2c-0.7,0-1.1,0-1.6-0.1L8.6,240.5z M31.8,240.7c0.7,0.1,1.1,0.2,1.6,0.5c1.3,0.8,2,2,2,3.6
	c0,1.7-0.8,3.2-2.2,4c-0.8,0.4-1.7,0.7-3.2,0.9c0.5,0.7,0.7,1,1,1.9c1.1-0.2,1.7-0.4,2.5-0.7c2.4-1,3.9-3.2,3.9-6
	c0-3.6-2.5-5.9-6.3-5.9c-2.3,0-4.2,0.8-5.5,2.2c-1.1,1.2-1.8,2.9-1.8,4.7c0,2.6,1.3,4.4,3.1,4.4c1.3,0,2.3-0.9,3.2-3
	C31,245.5,31.5,243.3,31.8,240.7z M29.9,240.8c-0.2,1.8-0.7,4-1.3,5.4c-0.6,1.4-1.1,2-1.6,2c-0.7,0-1.3-1-1.3-2.4
	c0-1.7,0.8-3.4,2.2-4.3C28.5,241.1,29.1,240.9,29.9,240.8z M47.3,248.9c0.7,0.5,0.9,0.7,1.2,1.1c0.9-0.8,1.4-1.3,2.1-2.3
	c0.6,0.6,0.8,1,1.5,2l1.1-1.3c-0.8-0.9-1.1-1.2-1.8-2c0.4-0.7,0.7-1.5,1-2.3c0.1-0.4,0.2-0.4,0.3-0.6l-1.6-0.6
	c-0.1,0.6-0.4,1.5-0.9,2.4c-0.5-0.5-0.8-0.7-1.7-1.5l-1.1,1.1c1,0.8,1.3,1.1,2,1.7c-0.7,1-1.2,1.4-2.2,2.2V245c0-0.7,0-1,0.1-1.4
	h-1.8c0.1,0.4,0.1,0.7,0.1,1.5v5.5c0,0.8,0,1.3-0.1,1.8h1.7v-0.7h6v0.7H55c-0.1-0.4-0.1-1-0.1-1.8V245c0-0.7,0-1.1,0.1-1.5h-1.8
	c0,0.4,0.1,0.7,0.1,1.5v5.2h-6C47.3,250.2,47.3,248.9,47.3,248.9z M41.8,245.4c0.4-1.3,0.5-2.5,0.6-4.4l-1.3-0.3
	c0,1.8-0.1,2.7-0.6,4.2L41.8,245.4z M44.5,252.4c-0.1-0.5-0.1-1.1-0.1-1.9v-11.2c0-0.7,0-1.1,0.1-1.7h-1.9c0.1,0.5,0.1,1,0.1,1.7
	v11.1c0,0.8,0,1.5-0.1,2L44.5,252.4L44.5,252.4z M48.8,242c-0.5-1.3-0.8-2-1.7-3.9l-1.5,0.7c0.8,1.5,1.2,2.5,1.6,3.9L48.8,242z
	 M53.1,243.2c0.9-1.3,1.3-2.3,2.3-4.7l-1.7-0.6c-0.7,2.1-1.1,3-2.2,4.6L53.1,243.2z M46.5,242.8c-0.3-1-0.6-1.6-1-2.4l-1,0.5
	c0.4,1,0.6,1.4,0.8,2.5L46.5,242.8z M51.8,241.4c-0.7-2.1-0.9-2.7-1.5-3.8l-1.5,0.5c0.7,1.5,0.9,2.1,1.4,3.8L51.8,241.4z
	 M60.7,240.4c0.3,0,0.6-0.1,1.3-0.1c1.6-0.1,2-0.1,2.8-0.1c-0.4,1.5-0.6,2.1-1,3.3c-1.3,0-2.2,0.3-3,0.8c-1.3,0.8-2,2-2,3.5
	c0,1.7,1.1,3,2.6,3c0.9,0,1.6-0.5,2.2-1.5c0.5-0.8,0.9-1.8,1.6-3.9c1.5,0.3,2.5,0.6,3.6,1.1c-0.3,0.8-0.8,1.7-1.4,2.4
	c-0.7,0.7-1.3,1.1-2.5,1.7c0.6,0.4,0.8,0.6,1.5,1.4c0.9-0.5,1.7-1.1,2.4-1.8c0.8-0.8,1.3-1.6,1.7-2.8c0.8,0.5,1.7,1.1,2.2,1.5
	l0.7-2.1c-0.2-0.1-0.3-0.1-0.7-0.4c-0.5-0.3-1.2-0.7-1.7-0.9c0.2-1,0.2-2,0.3-3.4c0-0.6,0-0.7,0.1-1.1l-2-0.1c0,0.3,0.1,0.5,0.1,0.8
	c0,1.5,0,2.1-0.2,3c-1.2-0.5-2.3-0.8-3.5-1c0.1-0.5,1.1-3.4,1.2-3.6c0.1-0.3,0.2-0.5,0.3-0.7l-1.3-1.1c-0.2,0.1-0.3,0.2-0.6,0.2
	c-0.6,0.1-2,0.1-3,0.1c-0.8,0-1.2,0-1.6-0.1L60.7,240.4z M63.2,245.2c-0.3,1-0.7,2-1,2.7c-0.4,0.7-0.6,1-0.9,1
	c-0.4,0-0.8-0.5-0.8-1.2c0-0.6,0.2-1.1,0.6-1.5C61.6,245.6,62.1,245.4,63.2,245.2z M76,248.6c1.4,1.1,2.3,2.1,3.5,3.6l1.5-1.4
	c-1.2-1.5-2.1-2.4-3.6-3.5L76,248.6z M99.4,238.5c-0.2,0-0.4,0.1-0.8,0.1h-1.4c0.3-0.7,0.3-0.7,0.3-0.9l-1.7-0.3
	c-0.1,0.6-0.3,1-0.6,1.7c-0.5,1.1-1.1,1.8-1.8,2.5c0.6,0.5,0.8,0.7,1.1,1.1c0,0.2,0,0.5,0,0.9c0,4.6-0.2,6.1-1,7.5
	c0.5,0.4,0.7,0.5,1.3,1.2c0.6-1.3,0.8-2,1-3.9h3.3v2c0,0.3-0.1,0.3-0.7,0.3c-0.3,0-0.7,0-1.3-0.1c0.2,0.6,0.3,1,0.4,1.6
	c0.5,0,0.8,0,1,0c1.6,0,2.1-0.3,2.1-1.4v-8c0-0.1,0-0.1,0-0.4c0.5,0.5,0.8,0.9,1,1.3l0.2-0.1l0,0c0,0.2-0.1,0.7-0.2,1.1
	c-0.2,0.8-0.4,1.3-0.8,2.1c0.4,0.1,0.7,0.3,1.4,0.7c0.3-0.6,0.4-0.8,0.5-1.2h1.3v1.4h-1.6c-0.7,0-1,0-1.5-0.1v1.7
	c0.5-0.1,0.8-0.1,1.4-0.1h1.6v1.6c0,0.7,0,1.1-0.1,1.6h1.9c-0.1-0.5-0.1-0.9-0.1-1.6v-1.6h1.3c0.7,0,1.1,0,1.5,0.1v-1.7
	c-0.5,0.1-0.8,0.1-1.5,0.1h-1.2v-1.4h1c0.6,0,1.1,0,1.4,0.1v-1.7c-0.3,0.1-0.7,0.1-1.4,0.1h-1v-0.1c0-0.4,0-0.8,0-1.2h-1.8
	c0.1,0.4,0.1,0.7,0.1,1.2v0.1h-1c0-0.2,0-0.2,0.2-0.9l-1.5-0.3c0.8-0.4,1.3-0.9,1.8-1.5c0.5-0.7,0.7-1.1,0.9-2.3h1.7
	c-0.1,0.7-0.1,1.3-0.2,1.6c-0.1,0.2-0.2,0.3-0.7,0.3c-0.3,0-0.7,0-1.2-0.2c0.2,0.6,0.3,0.8,0.4,1.6c0.9,0,0.9,0,1.2,0
	c1,0,1.4-0.1,1.6-0.5c0.3-0.4,0.5-1.4,0.6-2.7c0.1-0.9,0.1-1.4,0.1-1.7c-0.4,0-0.8,0.1-1.4,0.1h-3.9c-0.8,0-1.2,0-1.7-0.1v1.7
	c0.4,0,0.8-0.1,1.4-0.1h0.4c-0.1,0.7-0.3,1.1-0.7,1.5c-0.4,0.4-0.8,0.7-1.5,1.1c0-0.4,0-0.5,0-0.8c-0.4,0-0.8,0.1-1.5,0.1
	c0.2-0.4,0.5-0.9,0.7-1.2c0.3-0.6,0.3-0.7,0.5-0.9L99.4,238.5z M96.1,241.4c-0.2,0-0.2,0-0.4,0c0.3-0.5,0.6-0.9,0.8-1.4h1.6
	c-0.2,0.5-0.4,0.9-0.7,1.4H96.1z M95.9,246.9c0-0.3,0-0.4,0-0.8c0-0.1,0-0.4,0-0.6h0.9v1.4L95.9,246.9L95.9,246.9z M99.1,246.9h-0.9
	v-1.4h0.9V246.9z M99.1,244.2h-0.9v-1.4h0.9V244.2z M96.9,242.8v1.4H96v-1.4H96.9z M124.2,246c0.7,0,1.2,0,1.8,0.1v-1.9
	c-0.7,0.1-0.7,0.1-1.3,0.1v-3.2c0-0.6,0-1,0.1-1.3c-0.4,0-0.7,0.1-1.5,0.1h-2.4V239c0-0.7,0-1,0.1-1.5h-2c0.1,0.4,0.1,0.8,0.1,1.5
	v0.9h-1.3c-0.7,0-1.2,0-1.7-0.1v1.8c0.4,0,1-0.1,1.7-0.1h1.3c0,0.9,0,1.8-0.1,2.7h-1.8c-0.7,0-1.3,0-1.8-0.1v1.9
	c0.5-0.1,1.1-0.1,1.8-0.1h1.5c-0.5,2.3-1.8,3.7-4.4,4.8c0.5,0.6,0.8,1,1.1,1.6c2.5-1.3,3.9-2.8,4.7-5.1c0.8,2,2.6,3.8,5,5
	c0.3-0.9,0.5-1.3,0.9-1.8c-2.4-1-3.9-2.4-4.9-4.4L124.2,246L124.2,246z M120.6,244.3c0.1-0.8,0.1-1.5,0.1-2.7h2.2v2.7H120.6z
	 M111.7,239c1.3,0.8,1.8,1.2,2.8,2.3l1.1-1.4c-1.1-1-1.7-1.5-2.8-2.1L111.7,239z M111.1,242.9c1.2,0.7,1.8,1.2,2.9,2.2l1-1.5
	c-1.2-1-1.7-1.4-2.9-2L111.1,242.9z M113.6,246.1c-0.8,2.4-1.5,3.7-2.4,4.8l1.5,1.3c0-0.1,0.4-0.7,0.5-0.9c0.7-1.4,1.2-2.4,1.8-4.2
	L113.6,246.1z M131.5,238.2c0,0.4,0.1,0.6,0.1,1.1c0,0.2,0,0.6,0,1c-0.1,4-0.1,5.6-0.1,6.4c0,2.1,0.5,3.4,1.6,4.1
	c0.7,0.4,1.7,0.7,2.8,0.7c2,0,3.6-0.7,4.8-2c0.8-0.9,1.3-1.9,1.9-4.1c-0.8-0.4-1.1-0.5-1.9-1.2c-0.2,1.1-0.4,1.9-0.7,2.7
	c-0.8,1.8-2.1,2.7-3.9,2.7c-1,0-1.8-0.3-2.1-0.8s-0.4-1.1-0.4-2.6c0-1.1,0.1-4.4,0.2-5.9c0.1-1.2,0.1-1.7,0.2-2.2L131.5,238.2z
	 M152.6,237.8c0.1,0.4,0.1,0.6,0.1,1.4c0,2,0.2,6.4,0.2,6.9c0,0.1,0,0.1,0,0.2c-0.3-0.1-0.9-0.2-1.5-0.2c-2.3,0-4,1.2-4,2.9
	c0,0.5,0.2,1,0.4,1.4c0.6,0.9,1.7,1.4,3.4,1.4c2.4,0,3.6-0.9,3.6-2.7c0-0.2,0-0.4,0-0.5c0.2,0.1,0.3,0.2,0.5,0.3
	c0.8,0.4,1.3,0.7,2.1,1.3c0.6,0.5,0.8,0.7,1.1,1.1l1.2-1.8c-0.2-0.1-0.3-0.2-0.5-0.3c-1.2-0.8-1.5-1-2.1-1.4
	c-0.8-0.5-1.6-0.8-2.5-1.1c-0.1-1.6-0.1-2.3-0.2-3.5c1.3,0,2.4-0.1,3.8-0.3c0.7-0.1,0.7-0.1,1-0.1l-0.2-1.9c-1,0.3-2.8,0.5-4.7,0.5
	c0-0.8,0-0.8,0-1c0-1.2,0-2,0.1-2.5L152.6,237.8z M153,248.1c0,0,0,0.5,0,0.8c0,0.4-0.1,0.7-0.3,0.9c-0.3,0.3-0.8,0.4-1.5,0.4
	c-0.4,0-0.9-0.1-1.2-0.2c-0.4-0.2-0.5-0.4-0.5-0.8c0-0.7,0.8-1.2,2-1.2C152.1,247.9,152.4,247.9,153,248.1z M167.4,239.8
	c2.4,0.6,4.6,0.9,7.5,1l0.3-2c-0.2,0-0.4,0-0.4,0c-2.5,0-4.9-0.3-6.7-0.9L167.4,239.8z M166,245.2c1.3-0.5,4.5-1.1,6.3-1.1
	c1.7,0,2.5,0.6,2.5,1.8c0,1.1-0.7,2.1-2,2.8c-1.2,0.7-3,1.1-4.8,1.2c0.5,0.8,0.7,1.2,0.8,2c2.6-0.4,3.7-0.8,5-1.5
	c1.9-1.1,3-2.8,3-4.6c0-1.3-0.6-2.3-1.6-2.9c-0.7-0.4-1.7-0.7-3-0.7c-1.4,0-2.8,0.1-5,0.5c-1.4,0.3-1.4,0.3-1.9,0.3L166,245.2z"/>
</svg>
