<?xml version="1.0" encoding="utf-8"?>
<!-- Generator: Adobe Illustrator 24.0.1, SVG Export Plug-In . SVG Version: 6.00 Build 0)  -->
<svg version="1.1" id="レイヤー_1" xmlns="http://www.w3.org/2000/svg" xmlns:xlink="http://www.w3.org/1999/xlink" x="0px"
	 y="0px" viewBox="0 0 513 128" style="enable-background:new 0 0 513 128;" xml:space="preserve">
<style type="text/css">
	.st0{opacity:0.5;fill:#FFFFFF;enable-background:new    ;}
</style>
<g>
	<path class="st0" d="M174.4,50h10.8V31h23.4v-9.8h-23.4V10.8h26.5V1h-37.3V50z M227.8,50h10.8V1h-10.8V50z M269.2,50H280V10.9h14.9
		V1h-40.6v9.9h14.9V50z M310.2,50h10.6V18.9L344.6,50h9.2V1h-10.6v30.2L320.1,1h-9.9V50z M372.5,50h37.3v-9.6h-26.6V30.1h23.1v-9.6
		h-23.1v-9.9h26.2V1h-37V50z M443.8,50.7c10.6,0,18-5.5,18-15.2v-0.1c0-8.5-5.6-12.1-15.5-14.7c-8.5-2.2-10.6-3.2-10.6-6.4v-0.1
		c0-2.4,2.2-4.3,6.3-4.3c4.1,0,8.4,1.8,12.7,4.8l5.6-8.1c-5-4-11.1-6.2-18.2-6.2c-10,0-17.1,5.9-17.1,14.8v0.1
		c0,9.7,6.4,12.5,16.2,15c8.2,2.1,9.9,3.5,9.9,6.2v0.1c0,2.9-2.7,4.6-7.1,4.6c-5.6,0-10.2-2.3-14.6-6l-6.4,7.6
		C428.9,48.1,436.4,50.7,443.8,50.7z M494.9,50.7c10.6,0,18-5.5,18-15.2v-0.1c0-8.5-5.6-12.1-15.5-14.7c-8.5-2.2-10.6-3.2-10.6-6.4
		v-0.1c0-2.4,2.2-4.3,6.3-4.3s8.4,1.8,12.7,4.8l5.6-8.1c-5-4-11.1-6.2-18.2-6.2c-10,0-17.2,5.9-17.2,14.8v0.1
		c0,9.7,6.4,12.5,16.2,15c8.2,2.1,9.9,3.5,9.9,6.2v0.1c0,2.9-2.7,4.6-7.1,4.6c-5.6,0-10.2-2.3-14.6-6l-6.4,7.6
		C480,48.1,487.5,50.7,494.9,50.7z M140.4,127h11l4.5-11h20.7l4.5,11h11.3l-21-49.3h-9.9L140.4,127z M159.7,106.5l6.5-15.9l6.5,15.9
		H159.7z M212,127h10.8V87.9h14.9V78h-40.6v9.9H212V127z M280.9,127h10.8v-19.7h19.9V127h10.8V78h-10.8v19.4h-19.9V78h-10.8V127z
		 M364.9,127.8c15.1,0,26.1-11.4,26.1-25.3v-0.1c0-13.9-10.9-25.2-26-25.2S339,88.6,339,102.5v0.1
		C339,116.6,349.8,127.8,364.9,127.8z M365.1,117.9c-8.7,0-14.8-7-14.8-15.4v-0.1c0-8.4,6-15.3,14.7-15.3c8.7,0,14.8,7,14.8,15.4
		v0.1C379.8,111,373.7,117.9,365.1,117.9z M407.6,127h10.6V95.2l13.6,20.7h0.3L445.9,95v32h10.7V78H445l-12.9,20.7L419.2,78h-11.6
		V127z M475.4,127h37.3v-9.6h-26.6v-10.3h23.1v-9.6h-23.1v-9.9h26.2V78h-37V127z"/>
	<path class="st0" d="M5.5,86.5C6.6,86.1,7.6,86,8.6,86c1.7,0,2.8,0.9,2.8,2.3c0,1-0.7,1.8-1.6,1.8c-0.4,0-0.8-0.2-1-0.5
		c-0.2-0.3-0.2-0.7-0.2-1.4c0-0.3,0-0.4,0-0.7c-0.7,0.4-1,0.5-1.8,0.7c0,1,0.1,1.5,0.3,2c0.4,1.2,1.3,1.8,2.6,1.8
		c2.1,0,3.6-1.6,3.6-3.6c0-2.3-1.9-3.9-4.6-3.9c-1.2,0-2.2,0.1-3.3,0.4v-2.1c0.6-0.1,0.9-0.1,1.5-0.2c1.1-0.2,1.4-0.2,1.7-0.3
		l-0.1-1.8c-0.8,0.3-1.9,0.5-3.1,0.6v-1c0-0.9,0-1.2,0.1-1.7h-2c0.1,0.5,0.1,0.9,0.1,1.8v1.1c-0.2,0-0.3,0-0.6,0c-0.2,0-0.4,0-0.6,0
		c-0.8,0-1.5,0-1.9-0.1l0,1.8c0.1,0,0.3,0,0.3,0c0,0,0.2,0,0.4,0c0.2,0,0.6,0,0.9,0c0.4,0,0.6,0,0.9,0c0.5,0,0.5,0,0.7,0l0,2.5
		c-1.1,0.4-1.8,0.9-2.3,1.4C0.5,87.4,0,88.2,0,89c0,0.7,0.3,1.3,0.9,1.8c0.8,0.7,2,1.1,3,1.1c0.8,0,1.3-0.4,1.5-0.9
		c0.1-0.3,0.1-0.7,0.1-1.4L5.5,86.5z M3.7,89.4c0,0.5-0.1,0.7-0.4,0.7c-0.3,0-0.7-0.1-1-0.4C2,89.5,1.8,89.3,1.8,89
		c0-0.6,0.7-1.3,1.9-1.9V89.4z M14,82.7c-0.8-1.2-1.8-2.2-3.2-3.3l-1.5,1c1.2,0.9,2.4,2.2,3.2,3.5L14,82.7z M20.5,80.2
		c2.4,0.6,4.6,0.9,7.5,1l0.3-2c-0.2,0-0.4,0-0.4,0c-2.5,0-4.9-0.3-6.7-0.9L20.5,80.2z M19.1,85.6c1.3-0.5,4.5-1.1,6.3-1.1
		c1.7,0,2.5,0.6,2.5,1.8c0,1.1-0.7,2.1-2,2.8c-1.2,0.7-3,1.1-4.8,1.2c0.5,0.8,0.7,1.2,0.8,2c2.6-0.4,3.7-0.8,5-1.5
		c1.9-1.1,3-2.8,3-4.6c0-1.3-0.6-2.3-1.6-2.9c-0.7-0.4-1.7-0.7-3-0.7c-1.4,0-2.8,0.1-5,0.5c-1.4,0.3-1.4,0.3-1.9,0.3L19.1,85.6z
		 M35.7,82.4c0.1,0,0.1,0,0.1,0c0.1,0,0.3,0,0.5,0c0.8,0.1,1.6,0.1,2.4,0.1c-0.2,0.8-0.8,2.3-1.3,3.6c-0.2,0.6-0.5,1.1-0.8,1.4
		l1.9,0.7c0.3-0.4,0.6-0.6,1.2-0.9c1-0.5,2.3-0.8,3.4-0.8c1.7,0,2.7,0.5,2.7,1.5c0,1.3-1.5,2.1-3.8,2.1c-1.3,0-2.7-0.3-4.1-0.8
		c0.1,0.8,0.2,1.1,0.2,2c1.2,0.4,2.7,0.6,4.1,0.6c3.5,0,5.8-1.5,5.8-3.9c0-2-1.7-3.2-4.5-3.2c-1.6,0-3,0.4-4,1v0
		c0.3-0.6,0.9-2.1,1.3-3.2c2,0,3.4-0.2,5.7-0.4c0.4,0,0.6-0.1,0.9-0.1l-0.1-1.9c-0.6,0.2-0.9,0.2-2,0.4c-1.1,0.1-2.9,0.3-4.1,0.3
		c0.1-0.3,0.1-0.3,0.4-1.5c0.2-0.6,0.2-0.6,0.3-0.9l-2.1-0.2c0,0.7-0.1,1.4-0.4,2.6c-1.6,0-2.7-0.1-3.5-0.3L35.7,82.4z M53,82.3
		c0.5-0.1,1.2-0.2,2.7-0.3c3.1-0.2,4.1-0.3,5.4-0.5c-1,0.5-1.6,1-2.2,1.6c-1,1.1-1.5,2.4-1.5,3.8c0,1.7,0.8,3,2.3,3.9
		c1,0.5,2,0.8,3.7,1.1c0.3,0,0.3,0,0.5,0.1l0.3-2.2c-0.2,0-0.3,0-0.3,0c-0.6,0-1.6-0.2-2.4-0.4c-1.3-0.4-2.1-1.4-2.1-2.6
		c0-1.6,1.2-3.2,3.2-4.3c1-0.5,2.2-0.9,3.2-0.9c0.2,0,0.2,0,0.3,0l-0.1-2c-0.3,0.1-0.3,0.1-1.6,0.1c-4.3,0.2-7,0.4-8.2,0.4
		c-2.4,0.2-2.4,0.2-2.6,0.2c-0.1,0-0.3,0-0.6,0L53,82.3z M62.8,83.9c0.7,0.8,1.2,1.4,1.7,2.4l1.1-0.6c-0.5-1-1-1.6-1.7-2.4
		L62.8,83.9z M67.5,84.6c-0.5-0.9-0.9-1.5-1.7-2.3l-1.1,0.6c0.6,0.7,1.2,1.4,1.6,2.3L67.5,84.6z M70.6,82.3c0.5-0.1,1.2-0.2,2.7-0.3
		c3.1-0.2,4.1-0.3,5.4-0.5c-1,0.5-1.6,1-2.2,1.6c-1,1.1-1.5,2.4-1.5,3.8c0,1.7,0.8,3,2.3,3.9c1,0.5,2,0.8,3.7,1.1
		c0.3,0,0.3,0,0.5,0.1l0.3-2.2c-0.2,0-0.3,0-0.3,0c-0.6,0-1.6-0.2-2.4-0.4c-1.3-0.4-2.1-1.4-2.1-2.6c0-1.6,1.2-3.2,3.2-4.3
		c1-0.5,2.2-0.9,3.2-0.9c0.2,0,0.2,0,0.3,0l-0.1-2c-0.3,0.1-0.3,0.1-1.6,0.1c-4.3,0.2-7,0.4-8.2,0.4c-2.4,0.2-2.4,0.2-2.6,0.2
		c-0.1,0-0.3,0-0.6,0L70.6,82.3z M80.4,83.9c0.7,0.8,1.2,1.4,1.7,2.4l1.1-0.6c-0.5-1-1-1.6-1.7-2.4L80.4,83.9z M85.1,84.6
		c-0.5-0.9-0.9-1.5-1.7-2.3l-1.1,0.6c0.6,0.7,1.2,1.4,1.6,2.3L85.1,84.6z M89.1,82.2c0.3,0,0.4,0,1.1,0c1.9,0,3-0.1,4.3-0.2
		c0.1,0.3,0.2,0.4,0.3,0.7c0.1,0.3,0.2,0.4,0.3,0.6c-1.5,0.2-2.8,0.3-4.5,0.3c-1.1,0-1.2,0-1.6-0.1l0.1,1.7c0.3,0,0.4,0,0.7,0
		c3.5-0.1,4.5-0.2,6.2-0.4c0.7,1.1,1,1.6,1.2,1.8c-0.9-0.2-1.8-0.3-2.8-0.3c-1.6,0-2.9,0.3-3.7,0.8c-0.9,0.6-1.3,1.4-1.3,2.2
		c0,0.9,0.5,1.7,1.2,2.2c0.9,0.5,2.1,0.8,3.9,0.8c1.4,0,2.7-0.2,4.1-0.5c0.7-0.2,0.7-0.2,1-0.2l-0.3-2c-1,0.6-3.3,1-4.9,1
		c-0.9,0-1.8-0.1-2.3-0.4c-0.4-0.2-0.7-0.5-0.7-0.9s0.2-0.7,0.7-1c0.5-0.3,1.5-0.4,2.7-0.4c1.6,0,2.5,0.2,3.7,0.7l1.4-1
		c-1.1-1.2-1.3-1.6-2.1-2.9c0.2,0,0.2,0,0.6-0.1c0.4-0.1,0.9-0.2,1.6-0.4c0.4-0.1,0.7-0.2,1-0.2l-0.2-1.7c-0.4,0.2-0.6,0.2-1.5,0.5
		c-0.1,0-0.8,0.2-2.2,0.5c-0.3-0.5-0.4-0.7-0.6-1.3c0.5-0.1,2.3-0.4,3.3-0.7c0.4-0.1,0.4-0.1,0.5-0.1l-0.2-1.7c-1.1,0.4-3,0.8-4.3,1
		c-0.4-1.1-0.6-1.5-0.7-1.9l-2,0.3c0,0,0.2,0.5,0.6,1.5c0.1,0.3,0.1,0.3,0.2,0.4c-1.2,0.1-2.1,0.2-3.3,0.2c-0.7,0-1.1,0-1.5-0.1
		L89.1,82.2z M110.8,84.8c0.3-0.1,0.3-0.1,0.7-0.4c0.3-0.2,1.5-1.1,1.8-1.3c0.5-0.5,1.7-1.5,2.5-2.2c0.4-0.4,0.6-0.5,0.8-0.7l-1-1.4
		c-0.3,0.1-0.4,0.2-1,0.2c-1.6,0.1-3.5,0.2-4.9,0.2c-0.9,0-1.3,0-1.9-0.1l0.1,1.9c0.3,0,0.4-0.1,0.8-0.1c2.9-0.1,3.9-0.2,4.5-0.3
		l0,0c-0.1,0.1-0.3,0.3-0.3,0.3c-1.2,1.2-3.3,3-4.8,4.2c-1.1,0.8-1.7,1.2-2.3,1.5l1.1,1.7c1.9-1.7,4.3-2.7,6.6-2.7
		c1.9,0,3.2,0.8,3.2,2.1c0,1.1-0.6,1.8-1.9,2.3c-0.2-0.7-0.4-1-0.7-1.4c-0.7-0.8-1.6-1.3-2.8-1.3c-1.6,0-2.8,1-2.8,2.3
		c0,0.7,0.4,1.4,1,1.8c0.6,0.5,1.8,0.7,3.1,0.7c1.5,0,2.8-0.3,3.9-0.9c1.4-0.8,2.2-2,2.2-3.5c0-2.2-1.8-3.6-4.5-3.6
		C113,84,112.3,84.2,110.8,84.8L110.8,84.8z M113.1,90.4c-0.4,0.1-0.5,0.1-0.8,0.1c-1.2,0-1.9-0.4-1.9-1c0-0.4,0.4-0.7,0.9-0.7
		C112.2,88.8,112.8,89.3,113.1,90.4z M30.1,101.6c-0.5,0.1-0.8,0.2-1.7,0.2H21c-1.1,0-1.4,0-2-0.1v2.1c0.6-0.1,0.9-0.1,2-0.1h7.6
		c-0.8,3.1-2.4,5.4-4.8,7c-1.2,0.8-2.1,1.2-3.5,1.6c0.8,0.7,1,1,1.4,1.9c2.7-1.2,4.4-2.3,6-4.1c1.5-1.7,2.5-3.6,3.3-6.7
		c0.1-0.3,0.1-0.4,0.3-0.7L30.1,101.6z M45.5,103.1c-0.3,0.4-0.4,0.6-1,1.2c-1.3,1.3-2.8,2.3-4.5,3.2c-1.3,0.7-2.3,1-3.8,1.4
		c0.5,0.7,0.7,0.9,1,1.7c1.9-0.7,3.1-1.2,4.5-2v4.3c0,0.8,0,1.1-0.1,1.5l2.1,0c-0.1-0.4-0.1-0.8-0.1-1.5v-5.4c1-0.7,2.2-1.8,3-2.6
		c0.3-0.4,0.3-0.4,0.5-0.5L45.5,103.1z M54.2,104.7c0.7,1.4,1,2.3,1.5,3.9l1.8-0.6c-0.6-1.8-0.9-2.6-1.6-3.8L54.2,104.7z M57.7,104
		c0.7,1.3,1.2,2.5,1.5,3.8l1.8-0.6c-0.4-1.4-0.7-2.1-1.6-3.7L57.7,104z M63.2,103.9c0,0.5-0.1,1.1-0.3,1.8c-0.7,2.6-1.8,4.2-3.6,5.6
		c-0.9,0.7-1.6,1-2.7,1.5c0.7,0.6,0.9,0.9,1.3,1.6c2.4-1.2,3.7-2.2,4.9-3.9c1-1.4,1.7-3.2,2.2-5.3c0.1-0.5,0.1-0.6,0.2-0.8
		L63.2,103.9z M75.7,114.1c0-0.5-0.1-0.9-0.1-1.8v-4.2c0-0.4,0-0.6-0.1-1.1c0.1,0.1,0.2,0.1,0.5,0.3c2.7,1.2,4.3,2.1,5.7,3.1
		l1.1-1.9c-2.6-1.4-5.1-2.6-7.3-3.4v-3c0-1,0-1.2,0.1-1.7h-2.2c0.1,0.4,0.1,0.8,0.1,1.6v10.3c0,0.8,0,1.3-0.1,1.8H75.7z M95.8,114.4
		c-0.1-0.5-0.1-0.7-0.1-1.4v-3.5c0-0.1,0-0.6,0-0.8c0.2,0.1,0.2,0.1,0.4,0.2c2,0.8,3.2,1.5,4.9,2.6l1.1-1.7
		c-1.9-1.1-3.6-1.9-5.6-2.5c1.5-1.2,2.4-2,3.3-3c0.4-0.5,0.4-0.5,0.7-0.7l-0.9-1.1c-0.3,0.1-0.6,0.1-1.1,0.1h-2.7v-1.3
		c0-0.5,0-0.8,0.1-1.1h-2.1c0.1,0.3,0.1,0.6,0.1,1.2v1.3H91c-0.7,0-1.3,0-1.7-0.1v1.9c0.6-0.1,0.8-0.1,1.7-0.1c5.8,0,5.8,0,5.9,0
		c0.2,0,0.2,0,0.3,0c-1.4,1.4-3.1,2.5-5,3.4c-1.6,0.7-2.9,1.2-4.4,1.5c0.5,0.7,0.6,1,0.9,1.7c2-0.6,3.3-1.2,4.5-1.8
		c0.2-0.1,0.3-0.2,0.5-0.3c0,0.4,0,0.7,0,0.8v3.4c0,0.5,0,1-0.1,1.4H95.8z M119.4,112.3c-1.9-1.9-1.9-1.9-2.3-2.2
		c-1.1-1-2-1.6-3-2.3c1-1.3,1.8-2.7,2.5-4.4c0.2-0.4,0.3-0.6,0.5-0.9l-1.1-1.1c-0.4,0.1-0.5,0.2-1.4,0.2l-5.6,0.1
		c-0.2,0-0.3,0-0.4,0c-0.7,0-1,0-1.4-0.1l0.1,2c0.5-0.1,1-0.1,1.7-0.1c5-0.1,5-0.1,5.3-0.1l-0.2,0.4c-1,2.5-3,4.8-5.4,6.5
		c-1.2,0.8-2,1.3-3.2,1.8c0.7,0.7,0.8,0.9,1.3,1.8c2.4-1.2,4.3-2.6,6.1-4.6c1.7,1.3,3.6,3.1,4.9,4.8L119.4,112.3z"/>
</g>
</svg>
