<?xml version="1.0" encoding="utf-8"?>
<!-- Generator: Adobe Illustrator 24.0.1, SVG Export Plug-In . SVG Version: 6.00 Build 0)  -->
<svg version="1.1" id="レイヤー_1" xmlns="http://www.w3.org/2000/svg" xmlns:xlink="http://www.w3.org/1999/xlink" x="0px"
	 y="0px" viewBox="0 0 482 234" style="enable-background:new 0 0 482 234;" xml:space="preserve">
<style type="text/css">
	.st0{opacity:0.5;fill:#FFFFFF;enable-background:new    ;}
</style>
<g>
	<path class="st0" d="M92.2,57.1h12.3V35.4h26.7V24.1h-26.7V12.2h30.4V1H92.2V57.1z M153.3,57.1h12.3V1h-12.3V57.1z M200.7,57.1
		h12.3V12.4h17.1V1h-46.4v11.4h17.1V57.1z M247.6,57.1h12.2V21.4l27.1,35.6h10.5V1h-12.2v34.5L259,1h-11.4V57.1z M318.9,57.1h42.7
		v-11h-30.4V34.3h26.4v-11h-26.4V12h30V1h-42.3V57.1z M400.5,57.9c12.1,0,20.6-6.2,20.6-17.4v-0.2c0-9.8-6.4-13.9-17.8-16.8
		c-9.7-2.5-12.1-3.7-12.1-7.4V16c0-2.7,2.5-4.9,7.2-4.9c4.7,0,9.6,2.1,14.6,5.5l6.4-9.3c-5.7-4.6-12.7-7.1-20.8-7.1
		c-11.5,0-19.6,6.7-19.6,16.9v0.2c0,11.1,7.3,14.3,18.6,17.1c9.4,2.4,11.3,4,11.3,7.1v0.2c0,3.3-3,5.3-8.1,5.3
		c-6.4,0-11.7-2.6-16.7-6.8l-7.3,8.7C383.4,54.9,392,57.9,400.5,57.9z M458.9,57.9c12.1,0,20.6-6.2,20.6-17.4v-0.2
		c0-9.8-6.4-13.9-17.8-16.8c-9.7-2.5-12.1-3.7-12.1-7.4V16c0-2.7,2.5-4.9,7.2-4.9s9.6,2.1,14.6,5.5l6.4-9.3
		c-5.7-4.6-12.7-7.1-20.8-7.1c-11.5,0-19.6,6.7-19.6,16.9v0.2c0,11.1,7.3,14.3,18.6,17.1c9.4,2.4,11.3,4,11.3,7.1v0.2
		c0,3.3-3,5.3-8.1,5.3c-6.4,0-11.7-2.6-16.7-6.8l-7.3,8.7C441.9,54.9,450.5,57.9,458.9,57.9z M369.4,145.1H382l5.1-12.6h23.7
		l5.1,12.6h12.9l-24-56.5h-11.4L369.4,145.1z M391.5,121.7l7.4-18.2l7.4,18.2H391.5z M451.3,145.1h12.3v-44.7h17.1V89.1h-46.4v11.4
		h17.1V145.1z M214.1,233.2h12.3v-22.5h22.7v22.5h12.3v-56.1h-12.3v22.2h-22.7v-22.2h-12.3V233.2z M310.2,234.2
		c17.3,0,29.9-13.1,29.9-29v-0.2c0-15.9-12.4-28.8-29.7-28.8c-17.3,0-29.9,13.1-29.9,29v0.2C280.5,221.3,292.9,234.2,310.2,234.2z
		 M310.4,222.8c-9.9,0-17-8-17-17.6v-0.2c0-9.6,6.9-17.5,16.8-17.5c9.9,0,17,8,17,17.6v0.2C327.2,215,320.3,222.8,310.4,222.8z
		 M359,233.2h12.1v-36.4l15.6,23.7h0.3l15.8-23.9v36.6h12.3v-56.1h-13.3l-14.7,23.7l-14.7-23.7H359V233.2z M436.6,233.2h42.7v-11
		h-30.4v-11.8h26.4v-11h-26.4v-11.4h30v-11h-42.3V233.2z"/>
	<path class="st0" d="M8.2,190.3c1.7-0.5,3.2-0.8,4.6-0.8c2.6,0,4.3,1.3,4.3,3.4c0,1.5-1,2.7-2.4,2.7c-0.7,0-1.2-0.3-1.5-0.8
		c-0.2-0.5-0.3-1.1-0.3-2.1c0-0.4,0-0.6,0-1.1c-1,0.6-1.4,0.7-2.7,1.1c0,1.5,0.1,2.3,0.4,3.1c0.6,1.7,2,2.7,3.9,2.7
		c3.1,0,5.5-2.4,5.5-5.5c0-3.4-2.9-5.9-6.9-5.9c-1.8,0-3.3,0.2-4.9,0.7v-3.1c0.9-0.1,1.4-0.2,2.2-0.3c1.7-0.3,2.1-0.4,2.5-0.4
		l-0.1-2.7c-1.2,0.4-2.8,0.7-4.6,0.9v-1.5c0-1.3,0-1.8,0.1-2.6h-3c0.1,0.8,0.1,1.4,0.1,2.8v1.6c-0.3,0-0.4,0-1,0c-0.3,0-0.6,0-0.8,0
		c-1.3,0-2.2-0.1-2.9-0.2l0,2.7c0.2,0,0.4,0,0.5,0c0.1,0,0.3,0,0.6,0c0.3,0,1,0,1.3,0c0.6,0,0.9,0,1.3,0c0.8,0,0.8,0,1,0l0,3.7
		c-1.6,0.7-2.6,1.3-3.5,2C0.7,191.6,0,192.9,0,194c0,1,0.5,2,1.3,2.7c1.2,1,3,1.7,4.5,1.7c1.1,0,2-0.6,2.2-1.4
		c0.1-0.5,0.2-1.1,0.2-2L8.2,190.3z M5.5,194.6c0,0.8-0.1,1-0.5,1c-0.5,0-1.1-0.2-1.5-0.5c-0.6-0.3-0.8-0.7-0.8-1.1
		c0-0.9,1.1-1.9,2.9-2.9V194.6z M21.1,184.5c-1.3-1.9-2.7-3.3-4.8-4.9l-2.3,1.5c1.8,1.4,3.6,3.3,4.8,5.2L21.1,184.5z M30.8,180.8
		c3.5,0.9,6.8,1.3,11.2,1.5l0.4-3c-0.3,0-0.6,0-0.7,0c-3.8,0-7.4-0.5-10-1.4L30.8,180.8z M28.7,188.8c2-0.8,6.8-1.7,9.5-1.7
		c2.5,0,3.8,0.9,3.8,2.7c0,1.7-1,3.2-2.9,4.2c-1.8,1-4.4,1.7-7.2,1.8c0.7,1.1,1,1.7,1.2,3c3.9-0.6,5.6-1.1,7.6-2.3
		c2.9-1.7,4.6-4.2,4.6-6.9c0-1.9-0.8-3.5-2.3-4.4c-1.1-0.7-2.6-1-4.5-1c-2,0-4.1,0.2-7.5,0.8c-2.2,0.4-2.2,0.4-2.8,0.4L28.7,188.8z
		 M53.6,184.1c0.1,0,0.2,0,0.2,0c0.2,0,0.4,0,0.8,0c1.3,0.1,2.4,0.1,3.6,0.2c-0.3,1.2-1.2,3.5-2,5.3c-0.4,0.8-0.8,1.6-1.1,2.2l2.9,1
		c0.4-0.6,0.9-1,1.8-1.4c1.5-0.7,3.4-1.2,5.2-1.2c2.6,0,4,0.8,4,2.3c0,1.9-2.3,3.1-5.7,3.1c-2,0-4-0.4-6.2-1.2
		c0.2,1.2,0.2,1.7,0.2,3.1c1.9,0.6,4,0.8,6.1,0.8c5.3,0,8.7-2.3,8.7-5.9c0-3.1-2.5-4.9-6.8-4.9c-2.4,0-4.4,0.5-6.1,1.6v0
		c0.5-0.9,1.4-3.2,1.9-4.9c3-0.1,5.1-0.2,8.6-0.6c0.6-0.1,0.8-0.1,1.4-0.1l-0.1-2.9c-0.8,0.2-1.3,0.3-3.1,0.6
		c-1.6,0.2-4.3,0.4-6.1,0.4c0.1-0.5,0.1-0.5,0.6-2.3c0.2-1,0.2-1,0.4-1.4l-3.2-0.3c0,1-0.2,2-0.7,4c-2.5,0-4.1-0.1-5.2-0.4
		L53.6,184.1z M79.5,184c0.7-0.2,1.8-0.3,4-0.5c4.7-0.3,6.2-0.5,8.1-0.8c-1.6,0.8-2.4,1.4-3.3,2.4c-1.5,1.6-2.3,3.6-2.3,5.6
		c0,2.5,1.2,4.5,3.4,5.8c1.5,0.8,3,1.2,5.6,1.6c0.5,0.1,0.5,0.1,0.8,0.1l0.4-3.3c-0.2,0-0.5,0-0.5,0c-0.9,0-2.4-0.3-3.6-0.6
		c-2-0.6-3.2-2-3.2-3.9c0-2.4,1.8-4.8,4.9-6.4c1.5-0.8,3.3-1.3,4.8-1.3c0.2,0,0.2,0,0.5,0l-0.2-3.1c-0.4,0.1-0.5,0.1-2.5,0.2
		c-6.4,0.3-10.5,0.5-12.3,0.6c-3.5,0.2-3.5,0.2-4,0.2c-0.1,0-0.4,0-0.9,0L79.5,184z M94.2,186.3c1.1,1.2,1.7,2.1,2.5,3.6l1.7-0.9
		c-0.8-1.5-1.5-2.4-2.5-3.5L94.2,186.3z M101.3,187.4c-0.7-1.4-1.4-2.3-2.5-3.4l-1.6,0.8c0.9,1,1.7,2.2,2.5,3.5L101.3,187.4z
		 M106,184c0.7-0.2,1.8-0.3,4-0.5c4.7-0.3,6.2-0.5,8.1-0.8c-1.6,0.8-2.4,1.4-3.3,2.4c-1.5,1.6-2.3,3.6-2.3,5.6
		c0,2.5,1.2,4.5,3.4,5.8c1.5,0.8,3,1.2,5.6,1.6c0.5,0.1,0.5,0.1,0.8,0.1l0.4-3.3c-0.2,0-0.5,0-0.5,0c-0.9,0-2.4-0.3-3.6-0.6
		c-2-0.6-3.2-2-3.2-3.9c0-2.4,1.8-4.8,4.9-6.4c1.5-0.8,3.3-1.3,4.8-1.3c0.2,0,0.2,0,0.5,0l-0.2-3.1c-0.4,0.1-0.5,0.1-2.5,0.2
		c-6.4,0.3-10.5,0.5-12.3,0.6c-3.5,0.2-3.5,0.2-4,0.2c-0.1,0-0.4,0-0.9,0L106,184z M120.7,186.3c1.1,1.2,1.7,2.1,2.5,3.6l1.7-0.9
		c-0.8-1.5-1.5-2.4-2.5-3.5L120.7,186.3z M127.7,187.4c-0.7-1.4-1.4-2.3-2.5-3.4l-1.6,0.8c0.9,1,1.7,2.2,2.5,3.5L127.7,187.4z
		 M133.8,183.8c0.5,0,0.6,0,1.6,0c2.8,0,4.5-0.1,6.4-0.3c0.2,0.4,0.3,0.6,0.5,1.1c0.2,0.5,0.3,0.6,0.4,0.9c-2.3,0.3-4.3,0.5-6.8,0.5
		c-1.6,0-1.8,0-2.5-0.1l0.1,2.6c0.4,0,0.6,0,1-0.1c5.2-0.2,6.8-0.3,9.3-0.6c1,1.7,1.5,2.3,1.8,2.7c-1.3-0.3-2.7-0.5-4.2-0.5
		c-2.4,0-4.3,0.4-5.6,1.2c-1.3,0.8-2,2-2,3.3c0,1.3,0.7,2.6,1.8,3.3c1.3,0.8,3.1,1.2,5.9,1.2c2.1,0,4.1-0.3,6.2-0.8
		c1.1-0.3,1.1-0.3,1.6-0.4l-0.4-3c-1.5,0.8-4.9,1.6-7.4,1.6c-1.4,0-2.7-0.2-3.4-0.5c-0.6-0.3-1-0.8-1-1.4c0-0.6,0.4-1.1,1-1.5
		c0.8-0.4,2.2-0.7,4-0.7c2.4,0,3.8,0.3,5.5,1l2.1-1.5c-1.6-1.8-2-2.3-3.2-4.4c0.3-0.1,0.3-0.1,0.9-0.2c0.6-0.1,1.4-0.3,2.4-0.5
		c0.6-0.1,1.1-0.2,1.5-0.3l-0.2-2.6c-0.6,0.3-0.9,0.4-2.3,0.7c-0.1,0-1.2,0.3-3.3,0.7c-0.4-0.8-0.6-1.1-0.9-2c0.7-0.1,3.4-0.6,5-1
		c0.6-0.1,0.6-0.1,0.8-0.2l-0.2-2.5c-1.7,0.6-4.4,1.2-6.5,1.4c-0.6-1.6-0.9-2.3-1-2.9l-3,0.4c0,0,0.4,0.8,1,2.2
		c0.2,0.4,0.2,0.4,0.3,0.6c-1.8,0.2-3.1,0.3-4.9,0.3c-1.1,0-1.6,0-2.3-0.1L133.8,183.8z M166.3,187.6c0.4-0.2,0.4-0.2,1-0.6
		c0.5-0.3,2.2-1.6,2.6-2c0.8-0.7,2.6-2.3,3.8-3.4c0.7-0.6,0.8-0.8,1.2-1l-1.5-2.1c-0.4,0.2-0.6,0.2-1.5,0.3
		c-2.3,0.2-5.3,0.3-7.3,0.3c-1.3,0-2,0-2.8-0.1l0.1,2.9c0.5-0.1,0.6-0.1,1.2-0.1c4.3-0.2,5.9-0.3,6.8-0.4l0,0
		c-0.1,0.1-0.4,0.4-0.4,0.4c-1.8,1.8-4.9,4.5-7.2,6.2c-1.6,1.2-2.5,1.8-3.4,2.3l1.6,2.6c2.9-2.6,6.4-4,9.9-4c2.9,0,4.8,1.2,4.8,3.1
		c0,1.7-0.9,2.7-2.9,3.5c-0.4-1-0.6-1.6-1.1-2.2c-1-1.3-2.5-2-4.2-2c-2.4,0-4.1,1.4-4.1,3.4c0,1.1,0.5,2.1,1.4,2.8
		c1,0.7,2.6,1.1,4.7,1.1c2.2,0,4.3-0.5,5.8-1.4c2.1-1.2,3.3-3,3.3-5.3c0-3.3-2.6-5.4-6.8-5.4C169.6,186.6,168.6,186.8,166.3,187.6
		L166.3,187.6z M169.8,196.2c-0.7,0.1-0.8,0.1-1.2,0.1c-1.8,0-2.9-0.6-2.9-1.5c0-0.7,0.6-1.1,1.4-1.1
		C168.5,193.7,169.4,194.5,169.8,196.2z M45.1,213.9c-0.7,0.2-1.2,0.2-2.6,0.2h-11c-1.6,0-2.1,0-3.1-0.2v3.1c0.9-0.1,1.4-0.1,3-0.1
		h11.4c-1.2,4.7-3.5,8-7.3,10.5c-1.8,1.2-3.1,1.8-5.3,2.5c1.1,1.1,1.4,1.6,2.1,2.9c4-1.7,6.6-3.5,8.9-6.1c2.3-2.6,3.7-5.5,4.9-10.1
		c0.1-0.5,0.2-0.7,0.4-1.1L45.1,213.9z M68.3,216.1c-0.4,0.6-0.7,0.9-1.5,1.7c-2,2-4.1,3.5-6.8,4.9c-2,1-3.4,1.6-5.7,2.2
		c0.8,1,1,1.4,1.5,2.5c2.9-1,4.6-1.8,6.8-3.1v6.4c0,1.1,0,1.6-0.1,2.3l3.1,0c-0.1-0.6-0.1-1.2-0.1-2.3v-8.2c1.5-1.1,3.3-2.6,4.5-3.9
		c0.5-0.5,0.5-0.5,0.8-0.8L68.3,216.1z M81.4,218.6c1.1,2.1,1.6,3.4,2.2,5.8l2.7-0.9c-0.9-2.7-1.3-3.8-2.4-5.7L81.4,218.6z
		 M86.6,217.6c1,2,1.7,3.8,2.2,5.6l2.7-0.8c-0.6-2.1-1.1-3.1-2.3-5.5L86.6,217.6z M94.8,217.3c0,0.7-0.1,1.6-0.4,2.8
		c-1,3.8-2.6,6.3-5.5,8.3c-1.4,1-2.4,1.6-4.1,2.2c1,1,1.3,1.3,1.9,2.4c3.6-1.8,5.5-3.4,7.3-5.8c1.5-2.1,2.6-4.7,3.3-8
		c0.1-0.7,0.2-0.9,0.3-1.2L94.8,217.3z M113.7,232.7c-0.1-0.8-0.1-1.4-0.1-2.7v-6.3c0-0.7,0-1-0.1-1.6c0.2,0.1,0.3,0.1,0.8,0.4
		c4,1.8,6.5,3.2,8.5,4.6l1.7-2.8c-3.8-2.2-7.6-3.9-10.9-5.1v-4.5c0-1.5,0-1.8,0.1-2.5h-3.3c0.1,0.6,0.1,1.3,0.1,2.5V230
		c0,1.3,0,1.9-0.1,2.7H113.7z M143.8,233.2c-0.1-0.7-0.1-1.1-0.1-2.1v-5.3c0-0.2,0-0.9,0-1.2c0.2,0.1,0.3,0.1,0.6,0.3
		c3,1.3,4.9,2.3,7.3,3.8l1.6-2.5c-2.9-1.7-5.5-2.9-8.4-3.8c2.3-1.8,3.6-2.9,4.9-4.5c0.6-0.7,0.6-0.7,1.1-1l-1.4-1.6
		c-0.5,0.1-0.9,0.2-1.6,0.2h-4.1v-2c0-0.8,0-1.2,0.1-1.7h-3.2c0.1,0.5,0.1,0.8,0.1,1.7v2h-4c-1,0-1.9-0.1-2.6-0.2v2.9
		c0.9-0.1,1.2-0.1,2.5-0.1c8.6,0,8.6,0,8.8-0.1c0.3,0,0.3,0,0.5,0c-2.1,2.1-4.7,3.8-7.4,5.1c-2.4,1.1-4.3,1.7-6.7,2.2
		c0.7,1.1,1,1.5,1.4,2.6c2.9-0.9,5-1.7,6.8-2.7c0.3-0.2,0.5-0.3,0.7-0.5c0,0.6,0,1.1,0,1.2v5c0,0.8,0,1.5-0.1,2.1H143.8z
		 M179.3,229.9c-2.9-2.8-2.9-2.8-3.5-3.3c-1.6-1.5-2.9-2.5-4.4-3.5c1.5-2,2.6-4.1,3.7-6.6c0.3-0.6,0.5-0.9,0.8-1.3l-1.6-1.6
		c-0.6,0.2-0.8,0.2-2.1,0.3l-8.5,0.1c-0.3,0-0.5,0-0.6,0c-1,0-1.4,0-2.1-0.1l0.1,3.1c0.8-0.1,1.5-0.2,2.6-0.2c7.6-0.1,7.6-0.1,8-0.1
		l-0.3,0.6c-1.6,3.7-4.4,7.2-8.1,9.8c-1.8,1.3-3,1.9-4.8,2.6c1,1,1.3,1.4,1.9,2.7c3.7-1.8,6.4-3.9,9.2-6.9c2.6,2,5.4,4.7,7.4,7.1
		L179.3,229.9z"/>
</g>
</svg>
