<?xml version="1.0" encoding="utf-8"?>
<!-- Generator: Adobe Illustrator 24.0.1, SVG Export Plug-In . SVG Version: 6.00 Build 0)  -->
<svg version="1.1" id="レイヤー_1" xmlns="http://www.w3.org/2000/svg" xmlns:xlink="http://www.w3.org/1999/xlink" x="0px"
	 y="0px" viewBox="0 0 22 30" style="enable-background:new 0 0 22 30;" xml:space="preserve">
<style type="text/css">
	.st0{fill:#FFFFFF;}
</style>
<path class="st0" d="M20.4,13.1H20V9.2C20,4.1,16,0,11,0C6,0,2,4.1,2,9.2C2,9.6,2.4,10,2.8,10s0.8-0.4,0.8-0.8C3.7,5,6.9,1.7,11,1.7
	c4,0,7.3,3.4,7.3,7.5v3.9H1.6c-0.9,0-1.6,0.7-1.6,1.6v10.4C0,27.8,2.1,30,4.8,30h12.5c2.6,0,4.8-2.2,4.8-4.9V14.7
	C22,13.8,21.3,13.1,20.4,13.1z M20.4,25.1c0,1.8-1.4,3.2-3.1,3.2H4.8c-1.7,0-3.1-1.4-3.1-3.2V14.8h18.7V25.1z"/>
<path class="st0" d="M11,24.7c1.7,0,3.1-1.4,3.1-3.1c0-1.7-1.4-3.1-3.1-3.1c-1.7,0-3.1,1.4-3.1,3.1C7.9,23.2,9.3,24.7,11,24.7z
	 M11,20.1c0.8,0,1.4,0.7,1.4,1.5c0,0.8-0.6,1.5-1.4,1.5c-0.8,0-1.4-0.7-1.4-1.5C9.6,20.7,10.2,20.1,11,20.1z"/>
</svg>
