<?xml version="1.0" encoding="utf-8"?>
<!-- Generator: Adobe Illustrator 24.0.1, SVG Export Plug-In . SVG Version: 6.00 Build 0)  -->
<svg version="1.1" id="レイヤー_1" xmlns="http://www.w3.org/2000/svg" xmlns:xlink="http://www.w3.org/1999/xlink" x="0px"
	 y="0px" viewBox="0 0 80 80" style="enable-background:new 0 0 80 80;" xml:space="preserve">
<style type="text/css">
	.st0{opacity:0.5;fill:#95A0AC;enable-background:new    ;}
</style>
<path class="st0" d="M72,60.6c4.2-6.1,6.5-13.4,6.5-21.1v-0.2c0-20.9-16.3-37.8-38.9-37.8c-22.7,0-39.1,17.1-39.1,38v0.2
	c0,20.9,16.3,37.8,38.9,37.8c8.2,0,15.6-2.3,21.8-6.3l8.1,7.2L79.6,67L72,60.6z M61.6,39.7c0,3.7-0.6,7-2,10.1l-12-10.9L37.3,50.4
	l12,10.2c-2.8,1.3-6.1,2-9.7,2c-13,0-22.3-10.5-22.3-23.1v-0.2c0-12.6,9-22.9,22-22.9s22.3,10.5,22.3,23.1V39.7z"/>
</svg>
