<?xml version="1.0" encoding="utf-8"?>
<!-- Generator: Adobe Illustrator 24.0.1, SVG Export Plug-In . SVG Version: 6.00 Build 0)  -->
<svg version="1.1" id="レイヤー_1" xmlns="http://www.w3.org/2000/svg" xmlns:xlink="http://www.w3.org/1999/xlink" x="0px"
	 y="0px" viewBox="0 0 592 58" style="enable-background:new 0 0 592 58;" xml:space="preserve">
<style type="text/css">
	.st0{fill:#FFFFFF;}
</style>
<g>
	<path class="st0" d="M0.7,56.7h39.7V45.6H12.8V1.4H0.7V56.7z M65.4,56.7h42.1V45.8h-30V34.2h26.1V23.4H77.5V12.2h29.6V1.4H65.4
		V56.7z M129.4,56.7h12.4l5.1-12.4h23.4l5.1,12.4H188L164.3,1h-11.2L129.4,56.7z M151.2,33.5l7.3-17.9l7.3,17.9H151.2z M212.3,56.7
		h12V21.5l26.8,35.2h10.3V1.4h-12v34l-25.9-34h-11.2V56.7z M314.2,56.7h26.3c12.5,0,20.7-5.1,20.7-15.2v-0.2c0-7.4-4-11.1-10.3-13.6
		c4-2.2,7.3-5.7,7.3-11.9v-0.2c0-3.8-1.3-6.9-3.8-9.4c-3.2-3.2-8.1-4.9-14.5-4.9h-25.7V56.7z M326.1,23.7V12h12c5.1,0,8,2.1,8,5.7
		v0.2c0,4.1-3.4,5.8-8.8,5.8H326.1z M326.1,46V33.8h14.1c6.2,0,9,2.3,9,6V40c0,4.1-3.2,6-8.6,6H326.1z M413.9,57.6
		c17.1,0,29.5-12.9,29.5-28.6v-0.2c0-15.7-12.2-28.4-29.3-28.4c-17.1,0-29.5,12.9-29.5,28.6v0.2C384.6,44.9,396.8,57.6,413.9,57.6z
		 M414,46.4c-9.8,0-16.7-7.9-16.7-17.4v-0.2c0-9.5,6.8-17.2,16.6-17.2s16.7,7.9,16.7,17.4v0.2C430.6,38.6,423.8,46.4,414,46.4z
		 M469.9,56.7h21.6c17.4,0,29.4-12.1,29.4-27.7v-0.2c0-15.6-12-27.5-29.4-27.5h-21.6V56.7z M482.1,45.7V12.3h9.4
		c10,0,16.7,6.9,16.7,16.7v0.2c0,9.8-6.7,16.5-16.7,16.5H482.1z M557.9,56.7h12.2v-22l21.3-33.3h-13.8l-13.4,22.2L550.9,1.4h-14.2
		l21.3,33.5V56.7z"/>
</g>
</svg>
