<?xml version="1.0" encoding="utf-8"?>
<!-- Generator: Adobe Illustrator 24.0.1, SVG Export Plug-In . SVG Version: 6.00 Build 0)  -->
<svg version="1.1" id="レイヤー_1" xmlns="http://www.w3.org/2000/svg" xmlns:xlink="http://www.w3.org/1999/xlink" x="0px"
	 y="0px" viewBox="0 0 406 282" style="enable-background:new 0 0 406 282;" xml:space="preserve">
<style type="text/css">
	.st0{opacity:0.5;fill:#95A0AC;enable-background:new    ;}
	.st1{opacity:0.6;fill:#95A0AC;enable-background:new    ;}
</style>
<path class="st0" d="M5.9,50h10.8V31H40v-9.8H16.7V10.8h26.5V1H5.9V50z M59.3,50h10.8V1H59.3V50z M100.7,50h10.8V10.9h14.9V1H85.8
	v9.9h14.9V50z M141.7,50h10.6V18.9L176.1,50h9.2V1h-10.6v30.2L151.7,1h-9.9V50z M204,50h37.3v-9.6h-26.6V30.1h23.1v-9.6h-23.1v-9.9
	H241V1h-37V50z M275.4,50.7c10.6,0,18-5.5,18-15.2v-0.1c0-8.5-5.6-12.1-15.5-14.7c-8.5-2.2-10.6-3.2-10.6-6.4v-0.1
	c0-2.4,2.2-4.3,6.3-4.3s8.4,1.8,12.7,4.8l5.6-8.1c-5-4-11.1-6.2-18.2-6.2c-10,0-17.1,5.9-17.1,14.8v0.1c0,9.7,6.4,12.5,16.2,15
	c8.2,2.1,9.9,3.5,9.9,6.2v0.1c0,2.9-2.7,4.6-7.1,4.6c-5.6,0-10.2-2.3-14.6-6l-6.4,7.6C260.4,48.1,267.9,50.7,275.4,50.7z
	 M326.4,50.7c10.6,0,18-5.5,18-15.2v-0.1c0-8.5-5.6-12.1-15.5-14.7c-8.5-2.2-10.6-3.2-10.6-6.4v-0.1c0-2.4,2.2-4.3,6.3-4.3
	c4.1,0,8.4,1.8,12.7,4.8l5.6-8.1c-5-4-11.1-6.2-18.2-6.2c-10,0-17.1,5.9-17.1,14.8v0.1c0,9.7,6.4,12.5,16.2,15
	c8.2,2.1,9.9,3.5,9.9,6.2v0.1c0,2.9-2.7,4.6-7.1,4.6c-5.6,0-10.2-2.3-14.6-6l-6.4,7.6C311.5,48.1,319,50.7,326.4,50.7z M5.9,127
	h10.8v-14.7h8.2c11,0,19.8-5.9,19.8-17.2v-0.1c0-10-7.1-16.9-18.8-16.9h-20V127z M16.7,102.7v-15H25c5.4,0,8.8,2.6,8.8,7.4v0.1
	c0,4.2-3.2,7.4-8.5,7.4H16.7z M56.1,127h35.2v-9.8H66.9V78H56.1V127z M98.8,127h11l4.5-11H135l4.5,11h11.3l-21-49.3h-9.9L98.8,127z
	 M118.1,106.5l6.5-15.9l6.5,15.9H118.1z M161.8,127h10.6V95.8l23.7,31.2h9.2V78h-10.6v30.2l-23-30.2h-9.9V127z M17,204.7
	c5.3,0,9.7-1.5,12.7-4.6c2.9-2.9,4.6-7.3,4.6-13.1V155H23.3v31.6c0,5.7-2.5,8.1-6.6,8.1c-3.4,0-6.2-1.8-9-4.9L1,197.4
	C4.3,201.3,9.4,204.7,17,204.7z M72.8,204.8c13.2,0,21.5-7.3,21.5-22.1V155H83.5v28.1c0,7.8-4,11.8-10.6,11.8
	c-6.6,0-10.6-4.1-10.6-12.1V155H51.6v28C51.6,197.4,59.7,204.8,72.8,204.8z M129.7,204.7c10.6,0,18-5.5,18-15.2v-0.1
	c0-8.5-5.6-12.1-15.5-14.7c-8.5-2.2-10.6-3.2-10.6-6.4v-0.1c0-2.4,2.2-4.3,6.3-4.3s8.4,1.8,12.7,4.8l5.6-8.1c-5-4-11.1-6.2-18.2-6.2
	c-10,0-17.2,5.9-17.2,14.8v0.1c0,9.7,6.4,12.5,16.2,15c8.2,2.1,9.9,3.5,9.9,6.2v0.1c0,2.9-2.7,4.6-7.1,4.6c-5.6,0-10.2-2.3-14.6-5.9
	l-6.4,7.6C114.8,202.1,122.3,204.7,129.7,204.7z M174.5,204h10.8v-39.1h14.9V155h-40.6v9.9h14.9V204z M243.4,204h10.8v-19h23.4v-9.8
	h-23.4v-10.4h26.5V155h-37.3V204z M320.2,204.8c15.1,0,26.1-11.4,26.1-25.3v-0.1c0-13.9-10.9-25.2-26-25.2s-26.1,11.4-26.1,25.3v0.1
	C294.2,193.6,305,204.8,320.2,204.8z M320.3,194.9c-8.7,0-14.8-7-14.8-15.4v-0.1c0-8.4,6-15.3,14.7-15.3c8.7,0,14.8,7,14.8,15.4v0.1
	C335,188,329,194.9,320.3,194.9z M362.8,204h10.8v-15.7h8.3h0.1l10.5,15.7h12.6l-12-17.5c6.2-2.3,10.5-7.3,10.5-15.2v-0.1
	c0-4.6-1.5-8.5-4.2-11.2c-3.2-3.2-8.1-5-14.3-5h-22.4V204z M373.6,178.8v-14.1h10.7c5.2,0,8.5,2.4,8.5,7v0.1c0,4.1-3,6.9-8.3,6.9
	H373.6z M19.7,281h10.8v-19.5L49.3,232H37l-11.9,19.7L13.4,232H0.8l18.8,29.7V281z M82.6,281.8c15.1,0,26.1-11.4,26.1-25.3v-0.1
	c0-13.9-10.9-25.2-26-25.2s-26.1,11.4-26.1,25.3v0.1C56.6,270.6,67.5,281.8,82.6,281.8z M82.8,271.9c-8.7,0-14.8-7-14.8-15.4v-0.1
	c0-8.4,6-15.3,14.7-15.3s14.8,7,14.8,15.4v0.1C97.5,265,91.4,271.9,82.8,271.9z M145.7,281.8c13.2,0,21.5-7.3,21.5-22.1V232h-10.8
	v28.1c0,7.8-4,11.8-10.6,11.8s-10.6-4.1-10.6-12.1V232h-10.8v28C124.5,274.4,132.6,281.8,145.7,281.8z"/>
<path class="st1" d="M206.6,236.5c0,0.4-0.1,0.7-0.3,1.2c-0.3,0-0.4,0-0.6,0c-1,0-1.3,0-2.2,0.2c0-0.3,0-0.8,0.1-1.5
	c1.3,0,3.9-0.3,5.6-0.6c0.3,0,0.4,0,0.6-0.1l-0.1-1.8c-1.2,0.4-3.5,0.7-6.1,0.8c0.1-1.1,0.2-1.5,0.3-2l-2-0.1c0,0.1,0,0.2,0,0.3
	c0,0.3,0,0.7,0,0.9c0,0.6,0,0.6-0.1,1c-0.3,0-0.3,0-0.4,0c-1.3,0-2.3-0.1-3-0.2v1.8c0.2,0,0.3,0,0.4,0c0,0,0.1,0,0.3,0
	c1.6,0,2.4,0.1,2.6,0.1c0,0.8-0.1,1.4-0.1,1.9c-1,0.4-1.6,0.8-2.2,1.4c-1,1-1.6,2.3-1.6,3.6c0,1.7,1,2.8,2.5,2.8
	c1.3,0,2.8-0.8,4.2-2.3c1.2-1.2,1.9-2.4,2.8-4.3c1.1,0.4,1.8,1.2,1.8,2.2c0,1.1-0.6,1.9-1.9,2.5c-0.9,0.4-1.8,0.6-3.1,0.6
	c0.5,0.8,0.7,1.1,0.8,1.8c1.4-0.1,2.3-0.4,3.3-0.8c1.8-0.9,2.8-2.3,2.8-4c0-1.3-0.5-2.3-1.5-3c-0.5-0.4-1-0.6-1.7-0.8
	c0-0.1,0.1-0.2,0.2-0.6c0.1-0.3,0.1-0.3,0.2-0.5L206.6,236.5z M201.8,240.1c0,1.6,0.1,2.6,0.3,3.6c-0.5,0.4-0.9,0.6-1.4,0.6
	c-0.6,0-0.9-0.4-0.9-1.2c0-0.7,0.2-1.3,0.7-2C200.8,240.8,201.1,240.6,201.8,240.1z M203.6,242.5c0-0.1,0-0.1,0-0.2
	c0-0.1,0-0.1,0-0.2c-0.1-1.1-0.1-1.3-0.1-2.8c0.6-0.2,1.2-0.3,1.9-0.3c0.2,0,0.2,0,0.4,0c-0.6,1.3-1.2,2.4-2,3.2
	C203.7,242.4,203.7,242.4,203.6,242.5L203.6,242.5z M219.1,232.6c0,0.7-0.2,1.6-0.5,2.8c-0.4,0-0.6,0-0.8,0c-1,0-1.6,0-2.2-0.1v1.8
	l0.8,0c0.3,0,0.4,0,0.6,0c0.2,0,0.3,0,1,0c-0.6,1.8-0.9,2.5-1.5,3.8c-0.5,1.1-1,1.8-1.6,2.6l1.8,1c0.1-0.2,0.1-0.2,0.3-0.6
	c0.6-1.1,0.8-1.4,1.1-2.2c0.7-1.5,1.3-3,1.8-4.6c1-0.1,2-0.2,2.5-0.3c0.3-0.1,0.3-0.1,0.5-0.1l0-1.8c-0.6,0.2-1.5,0.3-2.6,0.4
	c0.2-0.7,0.3-1,0.3-1.4c0.2-0.8,0.2-0.8,0.3-1.1L219.1,232.6z M229.3,236.7c-1.4-0.9-2.6-1.4-4.5-2.1l-1,1.6
	c1.8,0.6,3.2,1.3,4.6,2.2L229.3,236.7z M229.2,244c-0.1-0.1-0.1-0.1-0.2-0.2c-0.3-0.2-0.3-0.3-0.6-0.4c-1.2-0.9-1.4-1-2.5-1.5
	c-0.1-0.9-0.1-1.6-0.1-2.2c0-0.7,0-1,0.2-1.6l-1.9-0.1c-0.1,0.5-0.1,1-0.1,1.6c0,0.5,0,1.1,0.1,1.8c-0.7-0.1-1-0.1-1.5-0.1
	c-2,0-3.5,1.1-3.5,2.8c0,1.6,1.4,2.7,3.5,2.7c1.1,0,2.1-0.3,2.7-0.9c0.4-0.4,0.7-1.1,0.7-1.7c0-0.1,0-0.2,0-0.3
	c0.9,0.5,1.9,1.3,2.4,2L229.2,244z M224.1,243.1c0,0,0,0.4,0,0.5c0,0.9-0.5,1.3-1.6,1.3c-1,0-1.6-0.4-1.6-1c0-0.7,0.7-1.1,1.7-1.1
	C223.2,242.8,223.5,242.9,224.1,243.1z M233.3,237.1c0.1,0,0.2,0,0.3,0c0.1,0,0.4,0,0.6,0c0.3,0,0.4,0,0.5,0h0.9c0,0,0.1,0,0.2,0
	c-0.5,2.8-1.8,6.6-2.9,8.6l2,0.8c1.1-2.8,1.3-3.6,1.8-5.3c0.4-1.5,0.8-3.2,1-4.1c0.5,0,1.8-0.2,2.6-0.3c0.4-0.1,0.4-0.1,0.5-0.1
	l-0.1-1.8c-0.8,0.2-1.6,0.4-2.7,0.5c0.1-0.4,0.1-0.5,0.2-0.9c0.2-1.2,0.2-1.2,0.3-1.5l-2.1-0.2c0,0.1,0,0.2,0,0.3
	c0,0.4-0.2,1.7-0.3,2.4c-0.4,0-0.5,0-0.7,0c-0.9,0-1.6,0-2.1-0.1L233.3,237.1z M245.9,237.4c-1,0-1.2,0-1.6,0
	c-1.7,0-2.5,0.1-4.8,0.5l0.1,1.8c1.6-0.4,2.6-0.5,4.2-0.5c0.8,0,1.2,0,2,0.1L245.9,237.4z M239.6,240.8c-0.9,1.2-1.2,1.9-1.2,2.8
	c0,0.8,0.4,1.6,1.1,2c0.8,0.4,1.8,0.6,3.2,0.6c0.9,0,1.6-0.1,3-0.3c0.4-0.1,0.5-0.1,0.8-0.1l-0.1-2c-0.9,0.3-2.5,0.6-3.6,0.6
	c-1.6,0-2.4-0.4-2.4-1.2c0-0.6,0.2-1,0.8-1.8L239.6,240.8z M258.6,235.6c0.7,0.1,1.1,0.2,1.6,0.5c1.3,0.8,2,2,2,3.6
	c0,1.7-0.8,3.2-2.2,4c-0.8,0.4-1.7,0.7-3.2,0.9c0.5,0.7,0.7,1,1,1.9c1.1-0.2,1.7-0.4,2.5-0.7c2.4-1,3.9-3.2,3.9-6
	c0-3.6-2.5-5.9-6.3-5.9c-2.3,0-4.2,0.8-5.5,2.2c-1.1,1.2-1.8,2.9-1.8,4.7c0,2.6,1.3,4.4,3.1,4.4c1.3,0,2.3-0.9,3.2-3
	C257.8,240.3,258.3,238.1,258.6,235.6z M256.7,235.6c-0.2,1.8-0.7,4-1.3,5.4c-0.6,1.4-1.1,2-1.6,2c-0.7,0-1.3-1-1.3-2.4
	c0-1.7,0.8-3.4,2.2-4.3C255.3,235.9,255.8,235.7,256.7,235.6z M268.5,237.1c0.1,0,0.2,0,0.3,0c0.1,0,0.4,0,0.6,0c0.3,0,0.4,0,0.5,0
	h0.9c0,0,0.1,0,0.2,0c-0.5,2.8-1.8,6.6-2.9,8.6l2,0.8c1.1-2.8,1.3-3.6,1.8-5.3c0.4-1.5,0.8-3.2,1-4.1c0.5,0,1.8-0.2,2.6-0.3
	c0.4-0.1,0.4-0.1,0.5-0.1l-0.1-1.8c-0.8,0.2-1.6,0.4-2.7,0.5c0.1-0.4,0.1-0.5,0.2-0.9c0.2-1.2,0.2-1.2,0.3-1.5l-2.1-0.2
	c0,0.1,0,0.2,0,0.3c0,0.4-0.2,1.7-0.3,2.4c-0.4,0-0.5,0-0.7,0c-0.9,0-1.6,0-2.1-0.1L268.5,237.1z M281.1,237.4c-1,0-1.2,0-1.6,0
	c-1.7,0-2.5,0.1-4.8,0.5l0.1,1.8c1.6-0.4,2.6-0.5,4.2-0.5c0.8,0,1.2,0,2,0.1L281.1,237.4z M274.8,240.8c-0.9,1.2-1.2,1.9-1.2,2.8
	c0,0.8,0.4,1.6,1.1,2c0.8,0.4,1.8,0.6,3.2,0.6c0.9,0,1.6-0.1,3-0.3c0.4-0.1,0.5-0.1,0.8-0.1l-0.1-2c-0.9,0.3-2.5,0.6-3.6,0.6
	c-1.6,0-2.4-0.4-2.4-1.2c0-0.6,0.2-1,0.8-1.8L274.8,240.8z M287.6,233.6c0.1,0.2,0.1,0.3,0.2,0.5c0.2,0.9,0.5,2.3,0.5,2.5
	c-1.7,1.2-2.6,2.9-2.6,4.9c0,2.2,1.1,3.6,2.8,3.6c0.5,0,1-0.1,1.5-0.4c0.6-0.4,1.3-1,1.9-1.8c1.2-1.5,2.3-3.8,2.9-6
	c0.7,0.2,1,0.4,1.4,0.7c0.8,0.6,1.2,1.4,1.2,2.5c0,0.7-0.2,1.4-0.5,2c-0.4,0.7-1.2,1.2-2.2,1.7c-0.9,0.4-1.5,0.5-2.6,0.6
	c0.6,0.8,0.8,1.1,1,1.9c1.2-0.3,1.8-0.4,2.6-0.8c2.4-1,3.7-2.9,3.7-5.3c0-1.7-0.7-3-2-4c-0.6-0.5-1.2-0.7-2.1-1
	c0.1-0.2,0.3-1,0.5-1.9c0-0.1,0.1-0.3,0.2-0.4l-2-0.4c0,0.5-0.1,1.1-0.5,2.5c-0.2,0-0.3,0-0.4,0c-1.1,0-2,0.2-3.1,0.6
	c-0.2-0.8-0.4-2-0.4-2.6L287.6,233.6z M288.8,238.6c0.3,1.3,0.6,2.1,1.3,3.7c-0.5,0.7-1.1,1-1.5,1c-0.6,0-1.1-0.7-1.1-1.8
	C287.5,240.5,287.9,239.6,288.8,238.6z M291.3,240.7c0-0.1,0-0.1-0.1-0.2c-0.5-1.3-0.7-1.9-1-3c0.8-0.5,1.6-0.6,2.8-0.6
	c-0.5,1.6-1,2.6-1.6,3.7C291.4,240.6,291.4,240.6,291.3,240.7L291.3,240.7z M306.4,246.2c0-0.2,0-0.3,0-0.4c0-1.1,0.5-3,1.4-4.8
	l-1.3-0.6c-0.6,1.4-0.7,1.6-0.8,2.1c0-0.4,0-0.5,0-0.9c0-1.4,0.1-2.3,0.2-3.5c0.3-2,0.6-3.8,1-4.8l-2.1-0.2c0,0.4-0.1,0.6-0.2,1.5
	c-0.5,2.4-0.7,4.2-0.7,6.3c0,1.6,0.1,2.8,0.4,4.8c0,0.4,0.1,0.5,0.1,0.8L306.4,246.2z M308.6,236.6c1.7,0.2,1.7,0.2,2.9,0.2
	c1.2,0,2.4-0.1,3.4-0.2c0.8-0.1,1-0.1,1.1-0.1l-0.1-1.9c-1.1,0.3-2.6,0.4-4.4,0.4c-1.4,0-2.2-0.1-3-0.3L308.6,236.6z M309.7,239.3
	c-1,1.2-1.5,2.3-1.5,3.3c0,0.6,0.2,1.2,0.5,1.6c0.7,0.9,2,1.4,4,1.4c1.1,0,2-0.1,3.3-0.3c0.4-0.1,0.4-0.1,0.7-0.1l-0.2-2
	c-1,0.4-2.4,0.6-3.8,0.6c-1.7,0-2.5-0.5-2.5-1.4c0-0.7,0.3-1.4,1.1-2.3L309.7,239.3z M320.7,240.8c0.3-0.1,0.4-0.1,1.2-0.1
	c0.4,0,0.7,0,1.2-0.1v4.9c0,0.8,0,1.2-0.1,1.7h1.8c-0.1-0.5-0.1-0.9-0.1-1.7v-5c0.5,0,0.9-0.1,1.3-0.1c0.1,0.3,0.1,0.4,0.2,0.8
	l1.3-0.6c-0.3-1.1-0.7-1.9-1.3-3.2l-1.2,0.6c0.3,0.5,0.4,0.7,0.5,1.1c-1,0.1-1.2,0.1-1.8,0.2c0.6-0.7,1.7-2.3,2.6-3.7
	c0.2-0.4,0.3-0.5,0.4-0.7l-1.4-0.8c-0.3,0.7-0.7,1.5-1.7,2.9c-0.3-0.4-0.4-0.5-0.7-0.8c0.8-1.2,0.8-1.2,1.6-2.6
	c0.1-0.2,0.2-0.3,0.3-0.5l-1.6-0.6c-0.1,0.6-0.8,1.8-1.3,2.6c-0.3-0.3-0.4-0.4-0.7-0.7l-0.8,1.4c0.7,0.6,1.5,1.5,2.3,2.5
	c-0.3,0.4-0.3,0.5-0.7,1c-0.4,0-0.4,0-0.4,0c-0.5,0-0.8,0-1,0L320.7,240.8z M321.2,241.3c-0.1,1.8-0.4,3.1-0.8,4.3l1.4,0.6
	c0.5-1.4,0.6-2.3,0.8-4.7L321.2,241.3z M325.1,241.6c0.2,1,0.3,1.7,0.4,3.1l1.3-0.3c-0.2-1.4-0.3-2.1-0.5-3.1L325.1,241.6z
	 M334.1,245v-10.2c0-0.8,0-1.2,0.1-1.8c-0.4,0-0.9,0.1-1.7,0.1h-3.3c-0.7,0-1.1,0-1.6,0c0,0.6,0.1,1,0.1,1.6V245h-0.5
	c-0.5,0-0.8,0-1.1-0.1v1.8c0.4-0.1,1-0.1,1.6-0.1h5.9c0.6,0,1.2,0,1.6,0.1v-1.8c-0.3,0.1-0.6,0.1-1,0.1H334.1z M329.3,234.7h3.2v2.3
	h-3.2V234.7z M329.3,238.5h3.2v2.3h-3.2V238.5z M329.3,242.4h3.2v2.6h-3.2V242.4z M351.8,244.2c-0.2-0.1-0.3-0.2-0.6-0.4
	c-1.7-1.2-3-1.8-4.4-2.3c0-0.4,0-0.4-0.1-1.9c0.6,0,0.9,0,1.1-0.1c1.2-0.1,1.9-0.2,2.2-0.2c0.4,0,0.8-0.1,1-0.1l0-1.8
	c-0.7,0.2-1,0.2-2,0.4c-1.5,0.2-1.5,0.2-2.3,0.2c0-1,0-1.2,0-1.6c1.4-0.1,2-0.1,3.4-0.3c0.9-0.1,0.9-0.1,1.3-0.1l-0.1-1.8
	c-1,0.3-2.4,0.5-4.6,0.6c0-1.3,0-1.5,0.1-2h-2c0.1,0.4,0.1,0.4,0.1,2c-0.4,0-0.9,0-1.2,0c-1.8,0-3.5-0.1-4.3-0.3l0,1.8
	c0.1,0,0.2,0,0.3,0c0,0,0.2,0,0.4,0c1.1,0.1,3.1,0.2,3.9,0.2c0.2,0,0.5,0,1,0c0,0.9,0,1.5,0,1.6c-0.4,0-1,0-1.3,0
	c-1.5,0-3-0.1-3.7-0.3l0,1.7c0.2,0,0.4,0,0.6,0c1.3,0.1,1.9,0.1,2.9,0.1c0.3,0,0.8,0,1.6,0c0,0.6,0,0.6,0,0.9c0,0.2,0,0.3,0,0.4
	c0,0.2,0,0.2,0,0.4c-0.4,0-0.7-0.1-1.1-0.1c-2.7,0-4.3,1-4.3,2.8c0,1.6,1.3,2.5,3.7,2.5c1.2,0,2-0.2,2.6-0.7
	c0.6-0.5,0.9-1.2,0.9-2.2c0,0,0-0.1,0-0.2c0.4,0.2,0.5,0.2,0.9,0.4c1.2,0.6,2.3,1.4,3,2.2L351.8,244.2z M345,242.9c0,0,0,0.3,0,0.4
	c0,0.5-0.1,0.8-0.2,1c-0.2,0.3-0.7,0.5-1.4,0.5c-1.1,0-1.8-0.4-1.8-1c0-0.7,0.8-1.1,2.1-1.1C344.2,242.8,344.5,242.8,345,242.9z
	 M360.3,238.3c0-0.2,0-0.3,0-0.3l0-0.9c0.1-0.1,0.1-0.2,0.2-0.3c0.1-0.2,0.1-0.2,0.2-0.3c0.2-0.3,0.3-0.4,0.5-0.5l-0.6-0.7
	c-0.1,0-0.2,0.1-0.2,0.1c0-1,0-1.1,0.1-1.4c0-0.3,0-0.5,0-0.6c0-0.4,0-0.4,0.1-0.6l-2,0c0,0.4,0,0.5,0,0.9c0,0.4,0,0.9,0,1.3
	c0,0.4,0,0.4,0,0.6c-0.8,0-1.6,0.1-1.9,0.1c-0.2,0-0.4,0-0.7,0l0.1,1.8c0.4-0.1,0.8-0.1,2.4-0.2c0,0.4,0,0.5,0,0.8
	c0,0.6,0,0.8,0,1.6c-0.3,0.3-0.3,0.3-1.8,1.8c-0.4,0.4-0.7,0.7-1,0.9l0.9,1.9c0.2-0.2,0.4-0.5,0.7-0.9c0.8-0.9,1-1.1,1.1-1.3l0,0
	c0,0.4,0,0.4,0,2.1c0,1.9,0,1.9-0.1,2.5h2.1c-0.1-0.6-0.1-0.6-0.1-2.6c0-1.8,0-1.8,0-1.9c0-0.4,0-0.9,0-1.6c0.6-0.7,1.7-1.7,2.9-2.6
	c0.8-0.6,1.5-0.9,2-0.9c0.4,0,0.7,0.2,0.7,0.6c0,0.4-0.1,1-0.3,2c-0.6,2.7-0.7,3.1-0.7,4c0,1,0.3,1.6,0.8,2c0.4,0.3,0.8,0.4,1.4,0.4
	c0.9,0,1.7-0.4,2.4-1.2c0.4-0.4,0.6-0.8,1.1-1.6c-0.5-0.7-0.7-1.1-1.1-1.9c-0.2,0.6-0.5,1.3-0.9,1.8c-0.3,0.5-0.8,0.8-1.1,0.8
	c-0.4,0-0.7-0.3-0.7-0.8c0-0.5,0.1-1.2,0.7-3.6c0.3-1.2,0.4-1.9,0.4-2.4c0-1.3-0.9-2.1-2.2-2.1c-1,0-2,0.4-3.4,1.5
	C361.1,237.5,360.7,237.8,360.3,238.3L360.3,238.3z M374.1,237.1c0.1,0,0.2,0,0.3,0c0.1,0,0.4,0,0.6,0c0.3,0,0.4,0,0.5,0h0.9
	c0,0,0.1,0,0.2,0c-0.5,2.8-1.8,6.6-2.9,8.6l2,0.8c1.1-2.8,1.3-3.6,1.8-5.3c0.4-1.5,0.8-3.2,1-4.1c0.5,0,1.8-0.2,2.6-0.3
	c0.4-0.1,0.4-0.1,0.5-0.1l-0.1-1.8c-0.8,0.2-1.6,0.4-2.7,0.5c0.1-0.4,0.1-0.5,0.2-0.9c0.2-1.2,0.2-1.2,0.3-1.5l-2.1-0.2
	c0,0.1,0,0.2,0,0.3c0,0.4-0.2,1.7-0.3,2.4c-0.4,0-0.5,0-0.7,0c-0.9,0-1.6,0-2.1-0.1L374.1,237.1z M386.7,237.4c-1,0-1.2,0-1.6,0
	c-1.7,0-2.5,0.1-4.8,0.5l0.1,1.8c1.6-0.4,2.6-0.5,4.2-0.5c0.8,0,1.2,0,2,0.1L386.7,237.4z M380.4,240.8c-0.9,1.2-1.2,1.9-1.2,2.8
	c0,0.8,0.4,1.6,1.1,2c0.8,0.4,1.8,0.6,3.2,0.6c0.9,0,1.6-0.1,3-0.3c0.4-0.1,0.5-0.1,0.8-0.1l-0.1-2c-0.9,0.3-2.5,0.6-3.6,0.6
	c-1.6,0-2.4-0.4-2.4-1.2c0-0.6,0.2-1,0.8-1.8L380.4,240.8z M209.7,256c-0.5,0.1-0.8,0.2-1.7,0.2h-7.3c-1.1,0-1.4,0-2-0.1v2.1
	c0.6-0.1,0.9-0.1,2-0.1h7.6c-0.8,3.1-2.4,5.4-4.8,7c-1.2,0.8-2.1,1.2-3.5,1.6c0.8,0.7,1,1,1.4,1.9c2.7-1.2,4.4-2.3,6-4.1
	c1.5-1.7,2.5-3.6,3.3-6.7c0.1-0.3,0.1-0.4,0.3-0.7L209.7,256z M225.1,257.5c-0.3,0.4-0.4,0.6-1,1.2c-1.3,1.3-2.8,2.3-4.5,3.2
	c-1.3,0.7-2.3,1-3.8,1.4c0.5,0.7,0.7,0.9,1,1.7c1.9-0.7,3.1-1.2,4.5-2v4.3c0,0.8,0,1.1-0.1,1.5l2.1,0c-0.1-0.4-0.1-0.8-0.1-1.5v-5.4
	c1-0.7,2.2-1.8,3-2.6c0.3-0.4,0.3-0.4,0.5-0.5L225.1,257.5z M233.8,259.1c0.7,1.4,1,2.3,1.5,3.9l1.8-0.6c-0.6-1.8-0.9-2.6-1.6-3.8
	L233.8,259.1z M237.3,258.5c0.7,1.3,1.2,2.5,1.5,3.8l1.8-0.6c-0.4-1.4-0.7-2.1-1.6-3.7L237.3,258.5z M242.8,258.3
	c0,0.5-0.1,1.1-0.3,1.8c-0.7,2.6-1.8,4.2-3.6,5.6c-0.9,0.7-1.6,1-2.7,1.5c0.7,0.6,0.9,0.9,1.3,1.6c2.4-1.2,3.7-2.2,4.9-3.9
	c1-1.4,1.7-3.2,2.2-5.3c0.1-0.5,0.1-0.6,0.2-0.8L242.8,258.3z M255.3,268.6c0-0.5-0.1-0.9-0.1-1.8v-4.2c0-0.4,0-0.6-0.1-1.1
	c0.1,0.1,0.2,0.1,0.5,0.3c2.7,1.2,4.3,2.1,5.7,3.1l1.1-1.9c-2.6-1.4-5.1-2.6-7.3-3.4v-3c0-1,0-1.2,0.1-1.7h-2.2
	c0.1,0.4,0.1,0.8,0.1,1.6v10.3c0,0.8,0,1.3-0.1,1.8H255.3z M275.4,268.9c-0.1-0.5-0.1-0.7-0.1-1.4v-3.5c0-0.1,0-0.6,0-0.8
	c0.2,0.1,0.2,0.1,0.4,0.2c2,0.8,3.2,1.5,4.9,2.6l1.1-1.7c-1.9-1.1-3.6-1.9-5.6-2.5c1.5-1.2,2.4-2,3.3-3c0.4-0.5,0.4-0.5,0.7-0.7
	l-0.9-1.1c-0.3,0.1-0.6,0.1-1.1,0.1h-2.7v-1.3c0-0.5,0-0.8,0.1-1.1h-2.1c0.1,0.3,0.1,0.6,0.1,1.2v1.3h-2.7c-0.7,0-1.3,0-1.7-0.1v1.9
	c0.6-0.1,0.8-0.1,1.7-0.1c5.8,0,5.8,0,5.9,0c0.2,0,0.2,0,0.3,0c-1.4,1.4-3.1,2.5-5,3.4c-1.6,0.7-2.9,1.2-4.4,1.5
	c0.5,0.7,0.6,1,0.9,1.7c2-0.6,3.3-1.2,4.5-1.8c0.2-0.1,0.3-0.2,0.5-0.3c0,0.4,0,0.7,0,0.8v3.4c0,0.5,0,1-0.1,1.4H275.4z M299,266.7
	c-1.9-1.9-1.9-1.9-2.3-2.2c-1.1-1-2-1.6-3-2.3c1-1.3,1.8-2.7,2.5-4.4c0.2-0.4,0.3-0.6,0.5-0.9l-1.1-1.1c-0.4,0.1-0.5,0.2-1.4,0.2
	l-5.6,0.1c-0.2,0-0.3,0-0.4,0c-0.7,0-1,0-1.4-0.1l0.1,2c0.5-0.1,1-0.1,1.7-0.1c5-0.1,5-0.1,5.3-0.1l-0.2,0.4c-1,2.5-3,4.8-5.4,6.5
	c-1.2,0.8-2,1.3-3.2,1.8c0.7,0.7,0.8,0.9,1.3,1.8c2.4-1.2,4.3-2.6,6.1-4.6c1.7,1.3,3.6,3.1,4.9,4.8L299,266.7z M305.5,256.2
	c-1.1,0-1.5,0-2-0.1v2.1c0.5-0.1,0.8-0.1,2-0.1h7.6c-1,4.3-3.9,7.2-8.4,8.6c0.7,0.7,1,1.1,1.4,1.9c5.1-2.1,7.9-5.4,9.2-10.6
	c0.1,0,0.2,0,0.3,0c1,0,1.9-0.8,1.9-1.9c0-1-0.8-1.8-1.9-1.8c-1,0-1.8,0.8-1.8,1.9c-0.3,0-0.5,0-0.9,0H305.5z M315.6,255.1
	c0.6,0,1.1,0.5,1.1,1c0,0.6-0.5,1.1-1.1,1.1c-0.6,0-1-0.5-1-1.1C314.6,255.6,315,255.1,315.6,255.1z M322.5,257.2
	c0.5-0.1,0.8-0.1,1.8-0.1h5.6c1,0,1.3,0,1.8,0.1v-2c-0.5,0.1-0.9,0.1-1.9,0.1h-5.6c-1,0-1.3,0-1.9-0.1V257.2z M332.7,259.1
	c-0.5,0.1-0.8,0.1-1.8,0.1h-7.6c-1.1,0-1.5,0-2.1-0.1v2c0.6-0.1,1-0.1,2-0.1h7.8c-0.7,1.8-1.4,2.8-2.6,3.7c-1.2,1-2.5,1.6-4.4,2.1
	c0.7,0.8,0.9,1.1,1.2,1.9c2-0.8,3.1-1.3,4.2-2.2c1.7-1.3,2.9-3.1,3.7-5.4c0.2-0.5,0.3-0.7,0.4-1L332.7,259.1z M338.8,257.6
	c1.5,0.8,2.8,1.9,4.1,3.2l1.4-1.7c-1.2-1.2-2.2-1.9-4.1-3.1L338.8,257.6z M339.4,268.1c0.4-0.1,0.4-0.1,1.1-0.3
	c2.5-0.5,4.5-1.3,6.1-2.4c2.2-1.5,3.7-3.3,5.1-6.3c-0.8-0.6-1.1-0.8-1.7-1.6c-0.5,1.3-0.9,2.2-1.6,3.2c-1.3,1.8-2.8,3.1-4.8,3.9
	c-1.5,0.6-3.4,1.1-4.7,1.2L339.4,268.1z"/>
</svg>
