<?xml version="1.0" encoding="utf-8"?>
<!-- Generator: Adobe Illustrator 23.1.1, SVG Export Plug-In . SVG Version: 6.00 Build 0)  -->
<svg version="1.1" id="レイヤー_1" xmlns="http://www.w3.org/2000/svg" xmlns:xlink="http://www.w3.org/1999/xlink" x="0px"
	 y="0px" viewBox="0 0 625 234" style="enable-background:new 0 0 625 234;" xml:space="preserve">
<style type="text/css">
	.st0{opacity:0.5;fill:#95A0AC;enable-background:new    ;}
	.st1{opacity:0.6;fill:#95A0AC;enable-background:new    ;}
</style>
<path class="st0" d="M6.7,57H19V35.3h26.7V24.1H19V12.2h30.3V1H6.7V57z M63.8,57h12.3V1H63.8V57z M107.1,57h12.3V12.4h17V1H90.1
	v11.4h17V57z M150,57h12.2V21.4L189.2,57h10.5V1h-12.2v34.5L161.3,1H150V57z M217.2,57h42.6V46h-30.4V34.3h26.4v-11h-26.4V12h30V1
	h-42.2V57z M294.7,57.8c12.1,0,20.6-6.2,20.6-17.4v-0.2c0-9.8-6.4-13.8-17.8-16.8c-9.7-2.5-12.1-3.7-12.1-7.4V16
	c0-2.7,2.5-4.9,7.2-4.9s9.6,2.1,14.6,5.5l6.4-9.3c-5.7-4.6-12.6-7.1-20.8-7.1c-11.4,0-19.6,6.7-19.6,16.9v0.2
	c0,11.1,7.3,14.2,18.6,17.1c9.4,2.4,11.3,4,11.3,7.1v0.2c0,3.3-3,5.3-8.1,5.3c-6.4,0-11.7-2.6-16.7-6.8l-7.3,8.7
	C277.6,54.8,286.2,57.8,294.7,57.8z M349.1,57.8c12.1,0,20.6-6.2,20.6-17.4v-0.2c0-9.8-6.4-13.8-17.8-16.8
	c-9.7-2.5-12.1-3.7-12.1-7.4V16c0-2.7,2.5-4.9,7.2-4.9c4.7,0,9.6,2.1,14.6,5.5l6.4-9.3c-5.7-4.6-12.6-7.1-20.8-7.1
	c-11.4,0-19.6,6.7-19.6,16.9v0.2c0,11.1,7.3,14.2,18.6,17.1c9.4,2.4,11.3,4,11.3,7.1v0.2c0,3.3-3,5.3-8.1,5.3
	c-6.4,0-11.7-2.6-16.7-6.8l-7.3,8.7C332,54.8,340.6,57.8,349.1,57.8z M396.3,57h12.3V40.2h9.4c12.6,0,22.6-6.7,22.6-19.7v-0.2
	c0-11.4-8.1-19.4-21.4-19.4h-22.9V57z M408.6,29.2V12.1h9.5c6.2,0,10,3,10,8.5v0.2c0,4.8-3.6,8.5-9.8,8.5H408.6z M453.8,57H494V45.8
	h-27.9V1h-12.3V57z M502.5,57H515l5.1-12.6h23.7L549,57h12.9l-24-56.4h-11.4L502.5,57z M524.6,33.6l7.4-18.2l7.4,18.2H524.6z
	 M574.5,57h12.2V21.4L613.8,57h10.5V1h-12.2v34.5L585.8,1h-11.4V57z M19.4,145.8c6.1,0,11.1-1.8,14.6-5.2c3.4-3.4,5.3-8.3,5.3-15V89
	H26.6v36.1c0,6.5-2.9,9.3-7.5,9.3c-3.9,0-7-2.1-10.2-5.6l-7.8,8.6C5,142,10.7,145.8,19.4,145.8z M83.2,145.9
	c15,0,24.6-8.3,24.6-25.3V89H95.5v32.1c0,8.9-4.6,13.4-12.1,13.4c-7.5,0-12.1-4.7-12.1-13.8V89H59v32
	C59,137.5,68.2,145.9,83.2,145.9z M148.3,145.8c12.1,0,20.6-6.2,20.6-17.4v-0.2c0-9.8-6.4-13.8-17.8-16.8
	c-9.7-2.5-12.1-3.7-12.1-7.4V104c0-2.7,2.5-4.9,7.2-4.9s9.6,2.1,14.6,5.5l6.4-9.3c-5.7-4.6-12.6-7.1-20.8-7.1
	c-11.4,0-19.6,6.7-19.6,16.9v0.2c0,11.1,7.3,14.2,18.6,17.1c9.4,2.4,11.3,4,11.3,7.1v0.2c0,3.3-3,5.3-8.1,5.3
	c-6.4,0-11.7-2.6-16.7-6.8l-7.3,8.7C131.2,142.8,139.8,145.8,148.3,145.8z M199.4,145h12.3v-44.6h17V89h-46.4v11.4h17V145z
	 M278.2,145h12.3v-21.7h26.7v-11.2h-26.7v-11.9h30.3V89h-42.6V145z M365.9,146c17.3,0,29.8-13,29.8-29v-0.2
	c0-15.9-12.4-28.8-29.7-28.8s-29.8,13-29.8,29v0.2C336.2,133.1,348.6,146,365.9,146z M366.1,134.6c-9.9,0-17-8-17-17.6v-0.2
	c0-9.6,6.9-17.4,16.8-17.4c9.9,0,17,8,17,17.6v0.2C382.9,126.8,376,134.6,366.1,134.6z M414.7,145H427v-17.9h9.5h0.2l12,17.9h14.4
	l-13.7-20c7.1-2.6,12-8.3,12-17.4v-0.2c0-5.3-1.7-9.7-4.8-12.8c-3.7-3.7-9.2-5.7-16.3-5.7h-25.6V145z M427,116.2v-16.1h12.2
	c6,0,9.7,2.7,9.7,8v0.2c0,4.7-3.4,7.9-9.4,7.9H427z M22.5,233h12.3v-22.3L56.3,177h-14l-13.6,22.5L15.4,177H1l21.5,33.9V233z
	 M94.4,234c17.3,0,29.8-13,29.8-29v-0.2c0-15.9-12.4-28.8-29.7-28.8s-29.8,13-29.8,29v0.2C64.7,221.1,77.1,234,94.4,234z
	 M94.6,222.6c-9.9,0-17-8-17-17.6v-0.2c0-9.6,6.9-17.4,16.8-17.4s17,8,17,17.6v0.2C111.4,214.8,104.5,222.6,94.6,222.6z
	 M166.5,233.9c15,0,24.6-8.3,24.6-25.3V177h-12.3v32.1c0,8.9-4.6,13.4-12.1,13.4s-12.1-4.7-12.1-13.8V177h-12.3v32
	C142.3,225.5,151.5,233.9,166.5,233.9z"/>
<path class="st1" d="M239.8,184.4c-0.1,0.6-0.2,1.1-0.5,1.8c-0.4,0-0.6,0-0.9,0c-1.5,0-2,0-3.3,0.3c0-0.5,0-1.3,0.1-2.3
	c1.9,0,5.8-0.4,8.4-0.8c0.5-0.1,0.6-0.1,0.9-0.1l-0.1-2.8c-1.8,0.6-5.3,1.1-9.1,1.3c0.1-1.7,0.2-2.3,0.4-3l-3-0.1c0,0.2,0,0.3,0,0.4
	c0,0.5,0,1.1,0,1.4c-0.1,1-0.1,1-0.1,1.4c-0.5,0-0.5,0-0.5,0c-2,0-3.4-0.1-4.5-0.4v2.7c0.3,0,0.5,0,0.6,0c0,0,0.2,0,0.5,0
	c2.3,0.1,3.6,0.1,3.9,0.1c0,1.2-0.1,2.1-0.1,2.9c-1.4,0.6-2.3,1.2-3.3,2.2c-1.5,1.5-2.4,3.4-2.4,5.4c0,2.5,1.5,4.2,3.7,4.2
	c2,0,4.1-1.2,6.3-3.5c1.7-1.8,2.9-3.5,4.2-6.4c1.7,0.6,2.7,1.8,2.7,3.3c0,1.7-0.9,2.8-2.8,3.7c-1.4,0.7-2.6,0.9-4.6,1
	c0.8,1.2,1,1.7,1.3,2.7c2.1-0.2,3.5-0.6,4.9-1.3c2.7-1.3,4.1-3.4,4.1-6c0-1.9-0.7-3.4-2.3-4.5c-0.8-0.6-1.5-0.9-2.5-1.2
	c0.1-0.2,0.1-0.2,0.3-0.9c0.2-0.5,0.2-0.5,0.3-0.7L239.8,184.4z M232.6,189.8c0,2.3,0.1,3.9,0.4,5.4c-0.8,0.6-1.4,0.9-2.1,0.9
	c-0.8,0-1.4-0.7-1.4-1.8c0-1,0.4-2,1.1-2.9C231.1,190.9,231.5,190.5,232.6,189.8z M235.3,193.5c0-0.1,0-0.1,0-0.3c0-0.2,0-0.2,0-0.3
	c-0.1-1.7-0.1-1.9-0.2-4.1c1-0.3,1.8-0.4,2.9-0.4c0.2,0,0.4,0,0.6,0c-0.9,2-1.8,3.5-3,4.8C235.4,193.4,235.4,193.4,235.3,193.5
	L235.3,193.5z M258.5,178.6c0,1-0.3,2.5-0.7,4.2c-0.5,0-0.9,0-1.2,0c-1.5,0-2.4,0-3.2-0.2v2.7l1.3,0c0.5,0,0.6,0,1,0
	c0.3,0,0.4,0,1.5,0c-0.9,2.8-1.3,3.7-2.3,5.7c-0.8,1.7-1.5,2.7-2.3,3.8l2.8,1.5c0.1-0.3,0.1-0.3,0.5-0.9c0.9-1.7,1.1-2.1,1.7-3.3
	c1.1-2.3,1.9-4.6,2.6-7c1.5-0.1,3-0.3,3.8-0.4c0.5-0.1,0.5-0.1,0.8-0.1l-0.1-2.8c-0.9,0.3-2.2,0.5-3.8,0.7c0.3-1.1,0.4-1.5,0.5-2.1
	c0.2-1.2,0.2-1.2,0.4-1.6L258.5,178.6z M273.9,184.8c-2.1-1.3-3.9-2.1-6.8-3.2l-1.4,2.3c2.7,0.9,4.8,2,6.9,3.4L273.9,184.8z
	 M273.8,195.6c-0.2-0.1-0.2-0.1-0.4-0.3c-0.4-0.3-0.5-0.4-0.8-0.6c-1.8-1.3-2.1-1.4-3.8-2.2c-0.2-1.4-0.2-2.3-0.2-3.3
	c0-1,0-1.5,0.3-2.4l-2.8-0.1c-0.1,0.8-0.2,1.5-0.2,2.4c0,0.7,0,1.7,0.1,2.8c-1-0.2-1.5-0.2-2.2-0.2c-3,0-5.2,1.7-5.2,4.1
	c0,2.4,2.1,4,5.2,4c1.7,0,3.1-0.5,4-1.3c0.6-0.6,1-1.7,1-2.5c0-0.1,0-0.3,0-0.5c1.4,0.8,2.8,1.9,3.7,3L273.8,195.6z M266.1,194.3
	c0,0,0,0.6,0,0.8c0,1.3-0.8,2-2.4,2c-1.5,0-2.4-0.6-2.4-1.6c0-1,1-1.7,2.6-1.7C264.7,193.9,265.3,194,266.1,194.3z M279.8,185.3
	c0.2,0,0.3,0,0.5,0c0.2,0,0.5,0,1,0c0.4,0,0.6,0,0.8,0h1.4c0,0,0.1,0,0.3,0c-0.8,4.3-2.6,9.9-4.3,12.9l3,1.2c1.6-4.2,2-5.4,2.7-7.9
	c0.6-2.2,1.2-4.7,1.5-6.2c0.8,0,2.7-0.3,3.9-0.5c0.6-0.1,0.6-0.1,0.8-0.1l-0.1-2.8c-1.2,0.4-2.3,0.6-4.1,0.7
	c0.1-0.6,0.1-0.7,0.2-1.4c0.3-1.8,0.3-1.8,0.5-2.3l-3.2-0.3c0,0.2,0,0.3,0,0.4c0,0.7-0.2,2.5-0.5,3.7c-0.6,0-0.8,0-1.1,0
	c-1.4,0-2.4-0.1-3.2-0.2L279.8,185.3z M298.9,185.8c-1.5,0-1.7,0-2.4,0c-2.6,0-3.7,0.1-7.2,0.8l0.2,2.6c2.4-0.5,4-0.7,6.3-0.7
	c1.2,0,1.9,0,3,0.2L298.9,185.8z M289.4,190.9c-1.3,1.8-1.8,2.9-1.8,4.2c0,1.2,0.7,2.4,1.7,3c1.2,0.6,2.7,1,4.8,1
	c1.4,0,2.5-0.1,4.5-0.4c0.6-0.1,0.7-0.1,1.2-0.2l-0.2-3c-1.4,0.5-3.7,0.9-5.4,0.9c-2.4,0-3.6-0.6-3.6-1.8c0-0.8,0.3-1.4,1.2-2.6
	L289.4,190.9z M317.9,183.1c1.1,0.1,1.7,0.3,2.4,0.7c1.9,1.2,3,3,3,5.3c0,2.6-1.2,4.8-3.3,6c-1.1,0.6-2.6,1-4.8,1.3
	c0.8,1,1.1,1.5,1.5,2.8c1.7-0.3,2.6-0.5,3.8-1c3.7-1.5,5.8-4.8,5.8-9c0-5.4-3.7-8.9-9.5-8.9c-3.4,0-6.2,1.2-8.3,3.4
	c-1.7,1.9-2.6,4.3-2.6,7c0,3.9,2,6.6,4.7,6.6c2,0,3.5-1.4,4.9-4.5C316.6,190.2,317.4,186.8,317.9,183.1z M314.9,183.1
	c-0.3,2.7-1.1,6-2,8.1c-0.9,2.1-1.7,3.1-2.5,3.1c-1.1,0-1.9-1.6-1.9-3.5c0-2.6,1.2-5,3.3-6.5C312.8,183.6,313.7,183.2,314.9,183.1z
	 M332.6,185.3c0.2,0,0.3,0,0.5,0c0.2,0,0.5,0,1,0c0.4,0,0.6,0,0.8,0h1.4c0,0,0.1,0,0.3,0c-0.8,4.3-2.6,9.9-4.3,12.9l3,1.2
	c1.6-4.2,2-5.4,2.7-7.9c0.6-2.2,1.2-4.7,1.5-6.2c0.8,0,2.7-0.3,3.9-0.5c0.6-0.1,0.6-0.1,0.8-0.1l-0.1-2.8c-1.2,0.4-2.3,0.6-4.1,0.7
	c0.1-0.6,0.1-0.7,0.2-1.4c0.3-1.8,0.3-1.8,0.5-2.3l-3.2-0.3c0,0.2,0,0.3,0,0.4c0,0.7-0.2,2.5-0.5,3.7c-0.6,0-0.8,0-1.1,0
	c-1.4,0-2.4-0.1-3.2-0.2L332.6,185.3z M351.7,185.8c-1.5,0-1.7,0-2.4,0c-2.6,0-3.7,0.1-7.2,0.8l0.2,2.6c2.4-0.5,4-0.7,6.3-0.7
	c1.2,0,1.9,0,3,0.2L351.7,185.8z M342.2,190.9c-1.3,1.8-1.8,2.9-1.8,4.2c0,1.2,0.7,2.4,1.7,3c1.2,0.6,2.7,1,4.8,1
	c1.4,0,2.5-0.1,4.5-0.4c0.6-0.1,0.7-0.1,1.2-0.2l-0.2-3c-1.4,0.5-3.7,0.9-5.4,0.9c-2.4,0-3.6-0.6-3.6-1.8c0-0.8,0.3-1.4,1.2-2.6
	L342.2,190.9z M361.4,180.2c0.1,0.4,0.2,0.5,0.2,0.8c0.3,1.3,0.7,3.4,0.8,3.8c-2.5,1.9-3.8,4.4-3.8,7.4c0,3.2,1.7,5.4,4.1,5.4
	c0.8,0,1.5-0.2,2.2-0.6c1-0.6,2-1.5,2.9-2.6c1.8-2.3,3.4-5.7,4.4-9c1,0.3,1.5,0.5,2.2,1c1.2,0.9,1.8,2.1,1.8,3.7
	c0,1.1-0.3,2.1-0.8,3c-0.6,1-1.7,1.9-3.4,2.6c-1.3,0.6-2.3,0.8-3.9,0.9c0.9,1.2,1.1,1.6,1.5,2.8c1.8-0.4,2.8-0.6,3.9-1.2
	c3.6-1.5,5.6-4.4,5.6-7.9c0-2.5-1-4.5-2.9-6c-0.9-0.7-1.8-1.1-3.2-1.4c0.1-0.3,0.4-1.5,0.7-2.8c0-0.2,0.1-0.4,0.2-0.7l-3-0.6
	c0,0.8-0.2,1.7-0.7,3.7c-0.3,0-0.5,0-0.6,0c-1.6,0-3,0.3-4.6,1c-0.3-1.2-0.6-3-0.6-3.9L361.4,180.2z M363.2,187.6
	c0.5,2,0.9,3.1,2,5.5c-0.8,1-1.6,1.6-2.3,1.6c-1,0-1.6-1.1-1.6-2.6C361.2,190.4,361.8,189,363.2,187.6z M366.9,190.8
	c0-0.1,0-0.2-0.1-0.4c-0.7-1.9-1.1-2.9-1.4-4.5c1.3-0.7,2.5-1,4.1-1c-0.8,2.4-1.4,3.9-2.4,5.5C367,190.6,367,190.6,366.9,190.8
	L366.9,190.8z M389.5,199c0-0.3,0-0.5,0-0.6c0-1.7,0.8-4.5,2.1-7.3l-1.9-0.9c-0.9,2.2-1,2.3-1.2,3.2c0-0.6,0-0.8,0-1.3
	c0-2.1,0.1-3.5,0.4-5.3c0.4-3.1,0.9-5.8,1.5-7.2l-3.2-0.3c0,0.6-0.1,0.9-0.4,2.2c-0.7,3.6-1,6.3-1,9.4c0,2.4,0.2,4.3,0.6,7.2
	c0.1,0.6,0.1,0.7,0.1,1.1L389.5,199z M392.8,184.7c2.5,0.3,2.6,0.3,4.3,0.3c1.8,0,3.6-0.1,5.1-0.3c1.2-0.1,1.5-0.2,1.7-0.2l-0.1-2.9
	c-1.6,0.4-3.9,0.6-6.5,0.6c-2.1,0-3.4-0.1-4.4-0.4L392.8,184.7z M394.5,188.6c-1.5,1.8-2.2,3.4-2.2,4.9c0,0.9,0.3,1.8,0.7,2.4
	c1.1,1.4,3,2.1,6,2.1c1.6,0,3-0.1,5-0.5c0.6-0.1,0.6-0.1,1-0.1l-0.2-3c-1.5,0.6-3.6,0.9-5.7,0.9c-2.5,0-3.8-0.7-3.8-2.1
	c0-1,0.5-2.1,1.7-3.5L394.5,188.6z M411.1,190.9c0.5-0.1,0.6-0.1,1.7-0.2c0.5,0,1.1-0.1,1.7-0.1v7.3c0,1.2,0,1.8-0.1,2.6h2.7
	c-0.1-0.8-0.1-1.3-0.1-2.6v-7.5c0.7-0.1,1.4-0.1,1.9-0.2c0.1,0.5,0.2,0.6,0.3,1.2l1.9-0.9c-0.5-1.7-1-2.9-2-4.9l-1.8,0.8
	c0.4,0.7,0.5,1,0.8,1.7c-1.4,0.2-1.8,0.2-2.7,0.2c0.9-1.1,2.6-3.5,3.9-5.6c0.3-0.5,0.5-0.7,0.6-1l-2.2-1.2c-0.4,1-1.1,2.3-2.5,4.4
	c-0.5-0.6-0.6-0.7-1.1-1.2c1.2-1.8,1.2-1.8,2.4-4c0.2-0.4,0.3-0.5,0.5-0.8l-2.4-0.9c-0.2,0.9-1.2,2.8-1.9,4
	c-0.4-0.4-0.5-0.6-1.1-1.1l-1.2,2.2c1.1,0.9,2.2,2.2,3.5,3.8c-0.5,0.6-0.5,0.7-1.1,1.4c-0.5,0-0.6,0-0.6,0c-0.8,0-1.2,0-1.6-0.1
	L411.1,190.9z M411.7,191.7c-0.1,2.7-0.5,4.6-1.3,6.4l2.1,1c0.7-2.2,0.9-3.4,1.3-7.1L411.7,191.7z M417.6,192.2
	c0.3,1.5,0.5,2.5,0.7,4.6l2-0.4c-0.2-2.1-0.4-3.1-0.8-4.6L417.6,192.2z M431.1,197.2v-15.4c0-1.2,0-1.8,0.1-2.6
	c-0.7,0.1-1.4,0.1-2.5,0.1h-5c-1,0-1.7,0-2.4-0.1c0.1,0.8,0.1,1.5,0.1,2.4v15.5h-0.7c-0.7,0-1.2,0-1.7-0.1v2.7
	c0.7-0.1,1.5-0.1,2.4-0.1h8.9c0.9,0,1.8,0,2.5,0.1V197c-0.4,0.1-0.9,0.1-1.5,0.1H431.1z M423.9,181.7h4.8v3.4h-4.8V181.7z
	 M423.9,187.5h4.8v3.5h-4.8V187.5z M423.9,193.4h4.8v3.8h-4.8V193.4z M457.6,195.9c-0.3-0.2-0.5-0.3-0.9-0.6
	c-2.6-1.8-4.5-2.8-6.6-3.4c0-0.6,0-0.6-0.1-2.9c0.9,0,1.3-0.1,1.6-0.1c1.8-0.2,2.9-0.3,3.2-0.3c0.6-0.1,1.2-0.1,1.6-0.2l-0.1-2.6
	c-1.1,0.3-1.5,0.3-3,0.5c-2.2,0.2-2.2,0.2-3.4,0.3c0-1.5,0-1.8,0-2.4c2.1-0.1,3-0.2,5.2-0.5c1.4-0.2,1.4-0.2,1.9-0.2l-0.1-2.7
	c-1.6,0.5-3.6,0.7-6.9,0.9c0-2,0-2.3,0.2-2.9h-3c0.1,0.6,0.1,0.6,0.1,3c-0.6,0-1.4,0-1.8,0c-2.8,0-5.2-0.2-6.5-0.5l0,2.7
	c0.2,0,0.3,0,0.4,0c0.1,0,0.3,0,0.5,0c1.6,0.1,4.7,0.2,5.9,0.2c0.4,0,0.7,0,1.5,0c0,1.4,0,2.2,0,2.4c-0.7,0-1.5,0-2,0
	c-2.3,0-4.6-0.2-5.6-0.4l0,2.6c0.4,0,0.6,0,0.9,0c2,0.1,2.9,0.2,4.3,0.2c0.5,0,1.2,0,2.4,0c0,1,0,1,0,1.3c0,0.2,0,0.4,0,0.5
	c0,0.3,0,0.3,0,0.6c-0.6-0.1-1-0.1-1.6-0.1c-4,0-6.4,1.5-6.4,4.2c0,2.4,2,3.7,5.5,3.7c1.8,0,3-0.3,4-1c0.9-0.7,1.3-1.7,1.3-3.2
	c0,0,0-0.1,0-0.3c0.6,0.2,0.8,0.3,1.3,0.6c1.7,0.9,3.4,2.1,4.4,3.3L457.6,195.9z M447.4,194.1c0,0,0,0.5,0,0.6
	c0,0.7-0.1,1.2-0.3,1.5c-0.3,0.5-1.1,0.8-2.1,0.8c-1.7,0-2.7-0.6-2.7-1.4c0-1,1.2-1.7,3.1-1.7C446.2,193.9,446.7,193.9,447.4,194.1z
	 M470.3,187.2c0-0.3,0-0.4,0-0.4l0-1.4c0.1-0.2,0.2-0.2,0.3-0.4c0.2-0.3,0.2-0.3,0.3-0.4c0.4-0.4,0.5-0.5,0.7-0.7l-0.9-1
	c-0.2,0-0.3,0.1-0.3,0.1c0-1.5,0.1-1.7,0.1-2.1c0-0.5,0.1-0.8,0.1-0.9c0-0.6,0-0.6,0.1-0.9l-3,0c0.1,0.6,0.1,0.7,0.1,1.3
	c0,0.6,0,1.3,0,2c0,0.6,0,0.6,0,0.9c-1.1,0.1-2.4,0.1-2.9,0.1c-0.3,0-0.6,0-1,0l0.1,2.7c0.6-0.1,1.1-0.2,3.7-0.3c0,0.6,0,0.7,0,1.2
	c0,0.9,0,1.2-0.1,2.4c-0.5,0.5-0.5,0.5-2.7,2.7c-0.6,0.6-1,1-1.6,1.4l1.4,2.9c0.2-0.4,0.6-0.8,1.1-1.4c1.2-1.4,1.5-1.7,1.7-2l0,0
	c0,0.6,0,0.6,0,3.2c0,2.8,0,2.8-0.2,3.8h3.1c-0.1-0.9-0.1-1-0.1-4c0-2.7,0-2.7,0-2.9c0-0.7,0-1.3,0-2.4c0.9-1.1,2.6-2.6,4.4-3.9
	c1.2-0.8,2.2-1.3,3-1.3c0.6,0,1,0.3,1,0.9c0,0.6-0.1,1.5-0.5,3c-0.9,4-1,4.6-1,6c0,1.5,0.4,2.4,1.2,3c0.5,0.4,1.3,0.6,2.1,0.6
	c1.3,0,2.5-0.6,3.6-1.7c0.6-0.7,1-1.1,1.7-2.4c-0.8-1.1-1.1-1.6-1.6-2.9c-0.3,0.9-0.8,1.9-1.4,2.7c-0.5,0.7-1.2,1.2-1.7,1.2
	c-0.6,0-1-0.4-1-1.2c0-0.8,0.2-1.8,1-5.4c0.4-1.8,0.6-2.9,0.6-3.7c0-1.9-1.3-3.2-3.4-3.2c-1.5,0-3,0.7-5.1,2.3
	C471.6,186,471.1,186.4,470.3,187.2L470.3,187.2z M491,185.3c0.2,0,0.3,0,0.5,0c0.2,0,0.5,0,1,0c0.4,0,0.6,0,0.8,0h1.4
	c0,0,0.1,0,0.3,0c-0.8,4.3-2.6,9.9-4.3,12.9l3,1.2c1.6-4.2,2-5.4,2.7-7.9c0.6-2.2,1.2-4.7,1.5-6.2c0.8,0,2.7-0.3,3.9-0.5
	c0.6-0.1,0.6-0.1,0.8-0.1l-0.1-2.8c-1.2,0.4-2.3,0.6-4.1,0.7c0.1-0.6,0.1-0.7,0.2-1.4c0.3-1.8,0.3-1.8,0.5-2.3l-3.2-0.3
	c0,0.2,0,0.3,0,0.4c0,0.7-0.2,2.5-0.5,3.7c-0.6,0-0.8,0-1.1,0c-1.4,0-2.4-0.1-3.2-0.2L491,185.3z M510.1,185.8c-1.5,0-1.7,0-2.4,0
	c-2.6,0-3.7,0.1-7.2,0.8l0.2,2.6c2.4-0.5,4-0.7,6.3-0.7c1.2,0,1.9,0,3,0.2L510.1,185.8z M500.6,190.9c-1.3,1.8-1.8,2.9-1.8,4.2
	c0,1.2,0.7,2.4,1.7,3c1.2,0.6,2.7,1,4.8,1c1.4,0,2.5-0.1,4.5-0.4c0.6-0.1,0.7-0.1,1.2-0.2l-0.2-3c-1.4,0.5-3.7,0.9-5.4,0.9
	c-2.4,0-3.6-0.6-3.6-1.8c0-0.8,0.3-1.4,1.2-2.6L500.6,190.9z M244.4,214.7c-0.7,0.2-1.2,0.2-2.6,0.2h-11c-1.6,0-2.1,0-3.1-0.2v3.1
	c0.9-0.1,1.4-0.1,3-0.1h11.4c-1.2,4.7-3.5,8-7.3,10.5c-1.8,1.2-3.1,1.8-5.3,2.4c1.1,1.1,1.4,1.6,2.1,2.9c4-1.7,6.6-3.5,8.9-6.1
	c2.3-2.6,3.7-5.5,4.9-10.1c0.1-0.5,0.2-0.7,0.4-1.1L244.4,214.7z M267.6,217c-0.4,0.6-0.7,0.9-1.5,1.7c-2,2-4.1,3.5-6.8,4.9
	c-2,1-3.4,1.6-5.7,2.2c0.8,1,1,1.4,1.5,2.5c2.9-1,4.6-1.8,6.8-3v6.4c0,1.1,0,1.6-0.1,2.3l3.1,0c-0.1-0.6-0.1-1.2-0.1-2.3v-8.2
	c1.5-1.1,3.3-2.6,4.5-3.9c0.5-0.5,0.5-0.5,0.8-0.8L267.6,217z M280.7,219.4c1.1,2.1,1.6,3.4,2.2,5.8l2.7-0.9
	c-0.9-2.7-1.3-3.8-2.4-5.7L280.7,219.4z M285.8,218.4c1,2,1.7,3.8,2.2,5.6l2.7-0.8c-0.6-2.1-1.1-3.1-2.3-5.5L285.8,218.4z
	 M294.1,218.2c0,0.7-0.1,1.6-0.4,2.8c-1,3.8-2.6,6.3-5.4,8.3c-1.4,1-2.4,1.6-4.1,2.2c1,1,1.3,1.3,1.9,2.4c3.6-1.8,5.5-3.4,7.3-5.8
	c1.5-2.1,2.6-4.7,3.3-8c0.1-0.7,0.2-0.9,0.3-1.2L294.1,218.2z M312.9,233.5c-0.1-0.8-0.1-1.4-0.1-2.7v-6.3c0-0.7,0-1-0.1-1.6
	c0.2,0.1,0.3,0.1,0.8,0.4c4,1.8,6.5,3.2,8.5,4.6l1.7-2.8c-3.8-2.2-7.6-3.9-10.9-5.1v-4.5c0-1.5,0-1.8,0.1-2.5h-3.3
	c0.1,0.6,0.1,1.3,0.1,2.4v15.4c0,1.3,0,1.9-0.1,2.7H312.9z M343,234c-0.1-0.7-0.1-1.1-0.1-2.1v-5.3c0-0.2,0-0.9,0-1.2
	c0.2,0.1,0.3,0.1,0.6,0.3c3,1.3,4.9,2.3,7.3,3.8l1.6-2.5c-2.9-1.7-5.5-2.9-8.4-3.8c2.3-1.8,3.6-2.9,4.9-4.5c0.6-0.7,0.6-0.7,1.1-1
	l-1.4-1.6c-0.5,0.1-0.9,0.2-1.6,0.2h-4.1v-2c0-0.8,0-1.2,0.1-1.7h-3.2c0.1,0.5,0.1,0.8,0.1,1.7v2h-4c-1,0-1.9-0.1-2.6-0.2v2.9
	c0.9-0.1,1.2-0.1,2.5-0.1c8.6,0,8.6,0,8.8-0.1c0.3,0,0.3,0,0.5,0c-2.1,2.1-4.7,3.8-7.4,5.1c-2.4,1.1-4.3,1.7-6.7,2.2
	c0.7,1.1,1,1.5,1.4,2.6c2.9-0.9,5-1.7,6.8-2.7c0.3-0.2,0.5-0.3,0.7-0.5c0,0.6,0,1.1,0,1.2v5c0,0.8,0,1.5-0.1,2.1H343z M378.5,230.8
	c-2.9-2.8-2.9-2.8-3.5-3.3c-1.6-1.5-2.9-2.5-4.4-3.5c1.5-2,2.6-4.1,3.7-6.6c0.3-0.6,0.5-0.9,0.8-1.3l-1.6-1.6
	c-0.6,0.2-0.8,0.2-2.1,0.3l-8.4,0.1c-0.3,0-0.5,0-0.6,0c-1,0-1.4,0-2.1-0.1l0.1,3.1c0.8-0.1,1.5-0.2,2.6-0.2
	c7.6-0.1,7.6-0.1,7.9-0.1l-0.3,0.6c-1.6,3.7-4.4,7.2-8.1,9.8c-1.8,1.3-3,1.9-4.8,2.6c1,1,1.3,1.4,1.9,2.7c3.7-1.8,6.4-3.9,9.1-6.9
	c2.6,2,5.4,4.7,7.4,7.1L378.5,230.8z M388.2,215c-1.6,0-2.2,0-3.1-0.2v3.1c0.8-0.1,1.2-0.1,3-0.1h11.4c-1.5,6.4-5.9,10.8-12.5,12.9
	c1.1,1.1,1.5,1.6,2.1,2.9c7.6-3.2,11.8-8.1,13.8-15.9c0.2,0,0.3,0,0.5,0c1.5,0,2.8-1.2,2.8-2.8c0-1.5-1.2-2.8-2.8-2.8
	c-1.5,0-2.7,1.2-2.8,2.8c-0.4,0-0.7,0-1.4,0H388.2z M403.4,213.4c0.9,0,1.6,0.7,1.6,1.6s-0.7,1.6-1.6,1.6c-0.9,0-1.6-0.7-1.6-1.6
	S402.5,213.4,403.4,213.4z M413.7,216.6c0.7-0.1,1.2-0.1,2.8-0.1h8.5c1.6,0,2,0,2.8,0.1v-3c-0.8,0.1-1.3,0.2-2.8,0.2h-8.4
	c-1.5,0-2,0-2.8-0.2V216.6z M428.9,219.3c-0.7,0.2-1.2,0.2-2.7,0.2h-11.4c-1.7,0-2.2,0-3.1-0.2v2.9c0.9-0.1,1.5-0.1,3.1-0.1h11.7
	c-1.1,2.7-2.1,4.1-3.9,5.6c-1.8,1.5-3.7,2.4-6.7,3.2c1.1,1.2,1.3,1.6,1.9,2.8c3-1.1,4.6-1.9,6.3-3.3c2.5-1.9,4.3-4.6,5.6-8.1
	c0.3-0.7,0.4-1.1,0.7-1.5L428.9,219.3z M438.2,217.1c2.2,1.2,4.2,2.8,6.1,4.9l2.1-2.6c-1.8-1.8-3.3-2.9-6.2-4.6L438.2,217.1z
	 M439,232.9c0.6-0.2,0.6-0.2,1.6-0.4c3.7-0.8,6.7-2,9.1-3.6c3.3-2.2,5.6-5,7.6-9.4c-1.2-0.9-1.6-1.2-2.5-2.4
	c-0.7,1.9-1.4,3.3-2.4,4.8c-1.9,2.7-4.1,4.6-7.1,5.9c-2.2,1-5,1.7-7.1,1.8L439,232.9z"/>
</svg>
