<svg width="518" height="177" viewBox="0 0 518 177" fill="none" xmlns="http://www.w3.org/2000/svg">
<path d="M0.0400004 43H30.22V34.6H9.28V0.999997H0.0400004V43ZM43.1884 43H75.1684V34.78H52.3684V25.96H72.1684V17.74H52.3684V9.22H74.8684V0.999997H43.1884V43ZM85.7838 43H95.2038L99.0438 33.58H116.804L120.644 43H130.304L112.304 0.699997H103.784L85.7838 43ZM102.344 25.42L107.924 11.8L113.504 25.42H102.344ZM142.786 43H151.906V16.3L172.246 43H180.106V0.999997H170.986V26.86L151.306 0.999997H142.786V43ZM220.177 43H240.157C249.637 43 255.877 39.16 255.877 31.48V31.36C255.877 25.72 252.877 22.9 248.017 21.04C251.017 19.36 253.537 16.72 253.537 11.98V11.86C253.537 8.98 252.577 6.64 250.657 4.72C248.257 2.32 244.477 0.999997 239.677 0.999997H220.177V43ZM229.177 17.98V9.1H238.297C242.197 9.1 244.357 10.66 244.357 13.42V13.54C244.357 16.66 241.777 17.98 237.697 17.98H229.177ZM229.177 34.9V25.66H239.857C244.597 25.66 246.697 27.4 246.697 30.22V30.34C246.697 33.46 244.237 34.9 240.157 34.9H229.177ZM289.878 43.72C302.838 43.72 312.258 33.94 312.258 22V21.88C312.258 9.94 302.958 0.279999 289.998 0.279999C277.038 0.279999 267.618 10.06 267.618 22V22.12C267.618 34.06 276.918 43.72 289.878 43.72ZM289.998 35.2C282.558 35.2 277.278 29.2 277.278 22V21.88C277.278 14.68 282.438 8.8 289.878 8.8C297.318 8.8 302.598 14.8 302.598 22V22.12C302.598 29.32 297.438 35.2 289.998 35.2ZM326.454 43H342.834C356.034 43 365.154 33.82 365.154 22V21.88C365.154 10.06 356.034 0.999997 342.834 0.999997H326.454V43ZM335.694 34.66V9.34H342.834C350.394 9.34 355.494 14.56 355.494 22V22.12C355.494 29.56 350.394 34.66 342.834 34.66H335.694ZM387.282 43H396.522V26.26L412.662 0.999997H402.162L391.962 17.86L381.942 0.999997H371.142L387.282 26.44V43ZM434.621 1.55C434.521 3.7 433.971 6.7 433.121 10.25C432.021 10.3 431.171 10.3 430.571 10.3C427.521 10.3 425.621 10.2 423.821 9.85V15.55L426.471 15.6C427.521 15.65 427.821 15.65 428.471 15.65C429.071 15.65 429.371 15.65 431.621 15.6C429.721 21.35 428.871 23.4 426.921 27.4C425.221 30.85 423.821 33.1 422.071 35.4L427.821 38.6C428.121 38 428.121 38 428.771 36.8C430.671 33.3 431.121 32.4 432.271 29.95C434.521 25.2 436.321 20.45 437.771 15.45C440.871 15.2 443.921 14.85 445.721 14.55C446.671 14.35 446.771 14.35 447.321 14.3L447.171 8.55C445.221 9.15 442.621 9.6 439.171 9.95C439.721 7.75 439.971 6.75 440.221 5.55C440.721 3.15 440.721 3.15 441.021 2.2L434.621 1.55ZM466.621 14.55C462.171 11.85 458.421 10.1 452.521 7.85L449.521 12.7C455.121 14.65 459.571 16.8 463.921 19.7L466.621 14.55ZM466.421 37.1C466.071 36.8 466.071 36.8 465.671 36.4C464.871 35.75 464.671 35.55 463.921 35.05C460.121 32.3 459.621 32.05 456.021 30.45C455.671 27.6 455.571 25.6 455.571 23.6C455.571 21.55 455.671 20.4 456.171 18.55L450.371 18.25C450.071 19.9 449.971 21.35 449.971 23.3C449.971 24.8 450.071 26.75 450.221 29.05C448.121 28.7 447.071 28.6 445.571 28.6C439.221 28.6 434.771 32.15 434.771 37.2C434.771 42.3 439.071 45.6 445.671 45.6C449.221 45.6 452.221 44.6 453.971 42.8C455.271 41.5 456.121 39.35 456.121 37.5C456.121 37.3 456.071 36.95 456.021 36.5C458.971 38.2 461.871 40.55 463.671 42.7L466.421 37.1ZM450.421 34.35C450.421 34.35 450.521 35.55 450.521 36.05C450.521 38.85 448.871 40.25 445.471 40.25C442.371 40.25 440.571 39.05 440.571 37C440.571 34.9 442.671 33.55 445.921 33.55C447.471 33.55 448.671 33.75 450.421 34.35ZM488.721 7.25C494.421 9.9 499.671 11.55 508.221 13.5L510.271 7.75C504.621 6.95 495.071 4.1 491.621 2.2L488.721 7.25ZM484.721 11.65C484.671 12.75 484.621 13.35 484.421 14.55C483.521 20.45 482.721 26 482.321 29.1C482.071 31 482.071 31.2 481.921 32.1L488.221 32.3C489.271 31.1 489.571 30.8 490.471 30.15C493.821 27.85 498.471 26.5 502.921 26.5C508.221 26.5 511.371 28.5 511.371 31.85C511.371 36.1 506.471 39.05 499.421 39.05C495.171 39.05 490.871 38.25 485.971 36.55C486.571 38.9 486.671 39.9 486.721 43C492.421 44.4 495.171 44.75 499.471 44.75C505.271 44.75 509.421 43.7 512.671 41.35C515.871 39.05 517.821 35.35 517.821 31.7C517.821 25.3 512.221 21.1 503.721 21.1C497.671 21.1 491.471 23.05 488.571 25.85L488.471 25.75C488.621 25 488.621 25 488.721 24.3C489.371 19.4 490.221 14.75 490.971 12L484.721 11.65ZM0.35 71.25C0.5 72.35 0.5 72.7 0.55 74.45C0.75 88.3 1.65 95.55 3.7 100.55C5.7 105.35 8.4 107.8 11.75 107.8C16 107.8 18.9 103.75 21.5 94C19.05 92.2 18.25 91.45 16.5 89.45C15.95 92.8 15.05 95.8 13.85 98.5C13.25 99.9 12.55 100.65 11.8 100.65C10.2 100.65 8.6 97.45 7.75 92.25C7.2 89.2 6.8 83.2 6.8 78.85C6.8 75.55 6.95 73.1 7.2 71.25H0.35ZM25.6 76C28.6 79.7 31 83.75 32.7 88.3C34.45 92.85 35.6 98.05 35.9 102.75L42.1 100.4C40.65 89.4 37.15 81.05 30.85 73.5L25.6 76ZM54.8 84.5C55.85 83.95 56.25 83.85 58.8 83.1C66.85 80.7 73.3 79.55 78.5 79.55C81.25 79.55 83.35 80 84.95 80.9C87.35 82.25 88.75 84.65 88.75 87.4C88.75 88.7 88.55 89.95 88.2 90.95C87.2 93.9 84.25 96.75 80.65 98.35C76.4 100.2 72.2 100.95 64.2 101.3C65.65 104 66.1 105.05 66.75 107.75C75.9 106.75 79.8 105.85 84.35 103.6C91.45 100.15 95.45 94.4 95.45 87.6C95.45 79.1 89 73.55 79.1 73.55C73.3 73.55 70.6 73.95 59.2 76.4C55.85 77.15 55.05 77.25 53.35 77.4L54.8 84.5ZM109.05 79.65C110.6 79.3 112.9 79 117.35 78.65C127.05 77.95 130.15 77.65 134.2 77.05C130.95 78.7 129.15 80.05 127.25 82.1C124.2 85.4 122.5 89.6 122.5 93.85C122.5 99.05 125.05 103.3 129.65 105.9C132.7 107.6 135.85 108.5 141.35 109.2C142.3 109.35 142.4 109.35 143.05 109.5L143.95 102.7C143.45 102.75 143 102.75 142.95 102.75C141.15 102.75 137.95 102.2 135.5 101.45C131.3 100.2 128.85 97.2 128.85 93.3C128.85 88.25 132.6 83.25 138.95 79.95C142.15 78.25 145.85 77.25 148.85 77.25C149.35 77.25 149.35 77.25 149.9 77.3L149.55 70.95C148.75 71.15 148.5 71.15 144.4 71.35C131.05 72 122.5 72.45 118.85 72.65C111.5 73.15 111.5 73.15 110.6 73.15C110.35 73.15 109.8 73.15 108.7 73.1L109.05 79.65ZM139.65 84.45C141.85 86.85 143.25 88.85 144.9 91.9L148.4 90.05C146.7 86.95 145.35 85.05 143.15 82.7L139.65 84.45ZM154.35 86.8C152.8 83.95 151.4 82.05 149.15 79.75L145.8 81.5C147.75 83.65 149.4 86 150.9 88.75L154.35 86.8ZM165.2 91.95C165.9 92 166.05 92 167.1 92.25C169.1 92.7 171.05 93 174.05 93.4C173.85 95.1 173.8 96.35 173.8 97.65C173.8 105.7 178.75 110.05 187.85 110.05C192.55 110.05 196.3 108.95 199.15 106.75C202.2 104.4 203.95 100.95 203.95 97.4C203.95 95.1 203.1 92.25 201.8 90.05C201.25 89.1 200.7 88.35 199.45 86.9C197.1 87.75 196.05 87.95 193.25 88.15C196.25 90.9 197.75 93.7 197.75 96.6C197.75 101.5 194.1 104.3 187.75 104.3C185 104.3 183 103.7 181.55 102.45C180.25 101.3 179.7 99.75 179.7 97.3C179.7 96.4 179.8 95.1 179.95 93.75C181.9 93.85 182.35 93.85 183.15 93.85C185.5 93.85 188.45 93.65 190.65 93.4C191.5 93.25 191.65 93.25 192.15 93.25L192.3 87.5C189.9 88.15 186.3 88.5 182.75 88.5C182.2 88.5 181.8 88.5 180.3 88.45C180.6 86.05 180.75 85.05 181.25 81.4C183.4 81.45 183.85 81.45 184.35 81.45C186.15 81.45 187.75 81.35 191.35 81.05C192.45 80.95 192.7 80.9 193.35 80.85L193.55 75C190.7 75.7 187.8 75.95 182.15 76.05C183.05 69.9 183.2 69.15 183.75 67.6L177.1 67C177.15 67.25 177.15 67.35 177.15 67.5C177.15 69 176.85 71.6 176.15 75.8C172.75 75.5 169.2 74.8 167.1 74L166.6 79.5C167.35 79.65 167.6 79.7 168.3 79.85C171.7 80.6 172.5 80.7 175.45 81.1C175.2 82.95 174.75 86.3 174.55 88.1C169.45 87.4 168.05 87.1 165.75 86.2L165.2 91.95ZM229.45 68.45C229.7 69.2 229.7 69.25 230.25 71.75C231.5 77.95 232.45 81.65 233.6 85.3C230.35 86.9 228.75 87.95 226.8 89.55C223.95 92 222.35 95.2 222.35 98.5C222.35 102.15 223.95 105.2 226.7 106.85C229.9 108.75 234.25 109.6 241.2 109.6C244.7 109.6 247.5 109.4 252.9 108.85C255.55 108.6 255.9 108.55 256.95 108.5L256.4 101.7C252.65 102.95 246.5 103.7 240.25 103.7C232.2 103.7 228.8 102.15 228.8 98.5C228.8 94.9 232.45 91.75 239.75 89.05C245.35 86.95 251.9 85.1 256.25 84.25L254.1 77.95C253.2 78.4 253.2 78.4 250.55 79.25C244.25 81.25 242.35 81.9 239.25 83.1C237.9 79.05 235.95 69.85 235.95 67.45L229.45 68.45ZM249.05 69.2C251.25 71.6 252.65 73.6 254.3 76.65L257.8 74.8C256.1 71.7 254.75 69.8 252.55 67.45L249.05 69.2ZM263.75 71.55C262.2 68.7 260.8 66.8 258.55 64.5L255.2 66.25C257.15 68.4 258.8 70.75 260.3 73.5L263.75 71.55ZM280.65 76.25C281.35 76.25 281.5 76.3 282.5 76.4C284.95 76.75 289.1 77 291.65 77C294.8 77 296.95 76.9 299.15 76.6C296.85 77.9 294.4 79.4 291.8 81.05L296.15 84.5C301.1 80.9 306.5 77.55 309.5 76.2L309.3 70.6C306 71.3 302.45 71.55 296.1 71.55C289.4 71.55 284.95 71.2 281.1 70.3L280.65 76.25ZM284.35 87.55C279.85 91.3 277.9 94.6 277.9 98.4C277.9 102.3 280 105.1 284.3 106.75C286.95 107.85 291.35 108.4 296.8 108.4C301.1 108.4 304.3 108.15 310.3 107.3C311.35 107.15 311.65 107.15 312.5 107.1L311.95 100.25C308.75 101.45 302.2 102.35 296.25 102.35C287.8 102.35 284.15 100.95 284.15 97.7C284.15 95.55 285.55 93.45 288.7 90.85L284.35 87.55ZM329.05 79.65C330.6 79.3 332.9 79 337.35 78.65C347.05 77.95 350.15 77.65 354.2 77.05C350.95 78.7 349.15 80.05 347.25 82.1C344.2 85.4 342.5 89.6 342.5 93.85C342.5 99.05 345.05 103.3 349.65 105.9C352.7 107.6 355.85 108.5 361.35 109.2C362.3 109.35 362.4 109.35 363.05 109.5L363.95 102.7C363.45 102.75 363 102.75 362.95 102.75C361.15 102.75 357.95 102.2 355.5 101.45C351.3 100.2 348.85 97.2 348.85 93.3C348.85 88.25 352.6 83.25 358.95 79.95C362.15 78.25 365.85 77.25 368.85 77.25C369.35 77.25 369.35 77.25 369.9 77.3L369.55 70.95C368.75 71.15 368.5 71.15 364.4 71.35C351.05 72 342.5 72.45 338.85 72.65C331.5 73.15 331.5 73.15 330.6 73.15C330.35 73.15 329.8 73.15 328.7 73.1L329.05 79.65ZM359.65 84.45C361.85 86.85 363.25 88.85 364.9 91.9L368.4 90.05C366.7 86.95 365.35 85.05 363.15 82.7L359.65 84.45ZM374.35 86.8C372.8 83.95 371.4 82.05 369.15 79.75L365.8 81.5C367.75 83.65 369.4 86 370.9 88.75L374.35 86.8ZM385.2 91.95C385.9 92 386.05 92 387.1 92.25C389.1 92.7 391.05 93 394.05 93.4C393.85 95.1 393.8 96.35 393.8 97.65C393.8 105.7 398.75 110.05 407.85 110.05C412.55 110.05 416.3 108.95 419.15 106.75C422.2 104.4 423.95 100.95 423.95 97.4C423.95 95.1 423.1 92.25 421.8 90.05C421.25 89.1 420.7 88.35 419.45 86.9C417.1 87.75 416.05 87.95 413.25 88.15C416.25 90.9 417.75 93.7 417.75 96.6C417.75 101.5 414.1 104.3 407.75 104.3C405 104.3 403 103.7 401.55 102.45C400.25 101.3 399.7 99.75 399.7 97.3C399.7 96.4 399.8 95.1 399.95 93.75C401.9 93.85 402.35 93.85 403.15 93.85C405.5 93.85 408.45 93.65 410.65 93.4C411.5 93.25 411.65 93.25 412.15 93.25L412.3 87.5C409.9 88.15 406.3 88.5 402.75 88.5C402.2 88.5 401.8 88.5 400.3 88.45C400.6 86.05 400.75 85.05 401.25 81.4C403.4 81.45 403.85 81.45 404.35 81.45C406.15 81.45 407.75 81.35 411.35 81.05C412.45 80.95 412.7 80.9 413.35 80.85L413.55 75C410.7 75.7 407.8 75.95 402.15 76.05C403.05 69.9 403.2 69.15 403.75 67.6L397.1 67C397.15 67.25 397.15 67.35 397.15 67.5C397.15 69 396.85 71.6 396.15 75.8C392.75 75.5 389.2 74.8 387.1 74L386.6 79.5C387.35 79.65 387.6 79.7 388.3 79.85C391.7 80.6 392.5 80.7 395.45 81.1C395.2 82.95 394.75 86.3 394.55 88.1C389.45 87.4 388.05 87.1 385.75 86.2L385.2 91.95ZM5.2 133.55C5.35 134.85 5.4 135.5 5.4 138.05V151.8C5.4 153.6 5.3 155.15 5.15 156.3H12C11.8 155.05 11.8 154.4 11.8 151.9V138.1C11.8 135.45 11.8 135 12 133.6L5.2 133.55ZM27.75 133.65C27.95 134.8 28 135.85 28 138.4V144.65C28 148.65 27.95 150.85 27.75 153C27.2 159.6 25.55 162.65 20.85 165.75C17.85 167.75 14.95 168.8 10.05 169.75C12.15 172.4 12.65 173.25 13.55 175.7C18.15 174.35 20.65 173.35 23.3 171.85C28.5 168.95 31.7 165.2 33.15 160.2C34.05 157.05 34.4 152.85 34.45 145.05V138.3C34.45 135.45 34.5 134.9 34.7 133.65H27.75ZM53.55 157.3C55.55 157.05 56.1 157.05 61.7 157.05H88.25C93.85 157.05 94.4 157.05 96.4 157.3V150.35C94.2 150.65 93.25 150.7 88.3 150.7H61.65C56.7 150.7 55.75 150.65 53.55 150.35V157.3ZM146.496 170.7C138.246 162.7 135.496 160.35 129.946 156.55C132.596 153.1 135.346 148.35 137.246 143.8C137.696 142.7 138.346 141.65 138.846 141.1L135.146 136.65C133.896 137.1 133.496 137.15 130.696 137.2L113.996 137.45C113.396 137.45 112.946 137.45 112.796 137.45C110.746 137.45 109.796 137.4 108.396 137.15L108.596 143.5C110.096 143.3 111.346 143.2 114.046 143.15L129.046 142.9L129.496 142.85C129.896 142.85 130.046 142.85 130.596 142.8C130.496 143.05 130.446 143.15 130.446 143.25L130.296 143.6L130.046 144.15C127.596 149.75 124.146 154.8 119.646 159.2C114.946 163.85 108.396 168.15 103.246 170C105.246 172 105.946 173 107.296 175.55C114.596 172 121.346 166.9 126.346 161.1C131.296 164.8 138.246 171.55 141.696 175.95L146.496 170.7ZM136.446 133.7C138.646 136.1 140.046 138.1 141.696 141.15L145.046 139.3C143.346 136.2 141.996 134.3 139.796 131.95L136.446 133.7ZM150.796 136.2C149.246 133.35 147.846 131.45 145.596 129.15L142.446 130.75C144.396 132.9 146.046 135.25 147.546 138L150.796 136.2ZM183.544 144.55C183.544 144 183.544 144 183.594 140.7L183.644 137.7C183.694 134.55 183.694 134.5 183.894 132.9H176.994C177.194 134.25 177.244 135.55 177.244 137.7V140.65C177.244 141.55 177.244 142.45 177.194 144.55H164.594C161.144 144.55 160.044 144.5 158.094 144.2V150.5C159.894 150.3 161.194 150.25 164.494 150.25H176.894C176.494 155.35 175.944 157.6 174.444 160.3C172.194 164.45 168.394 167.55 162.394 170.15C164.494 171.8 165.244 172.7 166.944 175.55C173.444 172 176.944 168.9 179.694 164.35C181.994 160.5 182.844 157.2 183.294 150.25H193.544C196.844 150.25 198.144 150.3 199.944 150.5V144.2C197.994 144.5 196.944 144.55 193.444 144.55H183.544ZM250.394 140.05L252.394 139.25C251.044 135.95 249.894 133.9 247.944 131.35L244.294 132.7C245.594 134.45 246.544 135.95 247.394 137.75C246.444 137.85 245.594 137.9 243.794 137.9H220.844C217.444 137.9 216.244 137.85 214.444 137.55V144.05C216.094 143.8 217.044 143.75 220.744 143.75H244.544C241.344 157.05 232.294 166.35 218.444 170.65C220.694 172.85 221.544 174 222.844 176.6C238.394 170.15 247.394 159.9 251.294 144.15C251.594 143.1 251.744 142.65 252.144 141.9L250.394 140.05ZM258.794 136.85C257.644 133.9 256.444 131.9 254.394 129.25L250.794 130.6C252.494 132.85 253.894 135.4 255.094 138.35L258.794 136.85ZM273.154 133.9C273.354 135.25 273.354 135.7 273.354 138.45C273.354 152.45 272.204 158.9 268.604 164.65C267.104 167.05 265.904 168.4 263.454 170.4C265.804 172 266.554 172.75 268.504 175.25C271.804 172 273.704 169.45 275.404 166C278.004 160.85 279.104 155.2 279.454 145.45C279.754 135.65 279.754 135.65 279.954 134.25L273.154 133.9ZM286.404 133.55C286.554 134.5 286.604 135.6 286.604 136.85V138.35L286.354 166.55C286.304 169.3 286.254 170.4 285.904 171.85L289.104 175.25C289.754 174.95 290.154 174.75 291.254 174.35C296.454 172.3 299.054 170.8 301.904 168.35C305.204 165.4 307.804 161.65 309.854 156.7C307.554 154.9 306.904 154.25 305.154 152C304.004 155.7 302.554 158.45 300.254 161.15C298.104 163.7 296.104 165.2 292.604 166.85L292.854 138.4C292.904 135.95 292.954 135.1 293.204 133.65L286.404 133.55ZM344.454 162.95C344.354 161.95 344.354 161.45 344.354 160.85C344.354 160.15 344.354 160.15 344.454 157.25L345.154 140.25C345.254 138.1 345.454 135.5 345.604 134.15H337.404C337.604 135.55 337.754 138.05 337.854 140.25L338.554 157.25C338.704 160.25 338.704 160.25 338.704 160.8C338.704 161.4 338.654 161.9 338.604 162.95H344.454ZM345.154 173.9V167.05H337.904V173.9H345.154Z" fill="white"/>
</svg>
