<svg width="608" height="199" viewBox="0 0 608 199" fill="none" xmlns="http://www.w3.org/2000/svg">
<path d="M0.330196 50H35.5402V40.2H11.1102V0.999997H0.330196V50ZM50.67 50H87.98V40.41H61.38V30.12H84.48V20.53H61.38V10.59H87.63V0.999997H50.67V50ZM100.365 50H111.355L115.835 39.01H136.555L141.035 50H152.305L131.305 0.649997H121.365L100.365 50ZM119.685 29.49L126.195 13.6L132.705 29.49H119.685ZM166.867 50H177.507V18.85L201.237 50H210.407V0.999997H199.767V31.17L176.807 0.999997H166.867V50ZM257.156 50H280.466C291.526 50 298.806 45.52 298.806 36.56V36.42C298.806 29.84 295.306 26.55 289.636 24.38C293.136 22.42 296.076 19.34 296.076 13.81V13.67C296.076 10.31 294.956 7.58 292.716 5.34C289.916 2.54 285.506 0.999997 279.906 0.999997H257.156V50ZM267.656 20.81V10.45H278.296C282.846 10.45 285.366 12.27 285.366 15.49V15.63C285.366 19.27 282.356 20.81 277.596 20.81H267.656ZM267.656 40.55V29.77H280.116C285.646 29.77 288.096 31.8 288.096 35.09V35.23C288.096 38.87 285.226 40.55 280.466 40.55H267.656ZM338.474 50.84C353.594 50.84 364.584 39.43 364.584 25.5V25.36C364.584 11.43 353.734 0.159999 338.614 0.159999C323.494 0.159999 312.504 11.57 312.504 25.5V25.64C312.504 39.57 323.354 50.84 338.474 50.84ZM338.614 40.9C329.934 40.9 323.774 33.9 323.774 25.5V25.36C323.774 16.96 329.794 10.1 338.474 10.1C347.154 10.1 353.314 17.1 353.314 25.5V25.64C353.314 34.04 347.294 40.9 338.614 40.9ZM381.147 50H400.257C415.657 50 426.297 39.29 426.297 25.5V25.36C426.297 11.57 415.657 0.999997 400.257 0.999997H381.147V50ZM391.927 40.27V10.73H400.257C409.077 10.73 415.027 16.82 415.027 25.5V25.64C415.027 34.32 409.077 40.27 400.257 40.27H391.927ZM452.112 50H462.892V30.47L481.722 0.999997H469.472L457.572 20.67L445.882 0.999997H433.282L452.112 30.68V50ZM507.85 0.259997C507.73 2.84 507.07 6.44 506.05 10.7C504.73 10.76 503.71 10.76 502.99 10.76C499.33 10.76 497.05 10.64 494.89 10.22V17.06L498.07 17.12C499.33 17.18 499.69 17.18 500.47 17.18C501.19 17.18 501.55 17.18 504.25 17.12C501.97 24.02 500.95 26.48 498.61 31.28C496.57 35.42 494.89 38.12 492.79 40.88L499.69 44.72C500.05 44 500.05 44 500.83 42.56C503.11 38.36 503.65 37.28 505.03 34.34C507.73 28.64 509.89 22.94 511.63 16.94C515.35 16.64 519.01 16.22 521.17 15.86C522.31 15.62 522.43 15.62 523.09 15.56L522.91 8.66C520.57 9.38 517.45 9.92 513.31 10.34C513.97 7.7 514.27 6.5 514.57 5.06C515.17 2.18 515.17 2.18 515.53 1.04L507.85 0.259997ZM546.25 15.86C540.91 12.62 536.41 10.52 529.33 7.82L525.73 13.64C532.45 15.98 537.79 18.56 543.01 22.04L546.25 15.86ZM546.01 42.92C545.59 42.56 545.59 42.56 545.11 42.08C544.15 41.3 543.91 41.06 543.01 40.46C538.45 37.16 537.85 36.86 533.53 34.94C533.11 31.52 532.99 29.12 532.99 26.72C532.99 24.26 533.11 22.88 533.71 20.66L526.75 20.3C526.39 22.28 526.27 24.02 526.27 26.36C526.27 28.16 526.39 30.5 526.57 33.26C524.05 32.84 522.79 32.72 520.99 32.72C513.37 32.72 508.03 36.98 508.03 43.04C508.03 49.16 513.19 53.12 521.11 53.12C525.37 53.12 528.97 51.92 531.07 49.76C532.63 48.2 533.65 45.62 533.65 43.4C533.65 43.16 533.59 42.74 533.53 42.2C537.07 44.24 540.55 47.06 542.71 49.64L546.01 42.92ZM526.81 39.62C526.81 39.62 526.93 41.06 526.93 41.66C526.93 45.02 524.95 46.7 520.87 46.7C517.15 46.7 514.99 45.26 514.99 42.8C514.99 40.28 517.51 38.66 521.41 38.66C523.27 38.66 524.71 38.9 526.81 39.62ZM572.77 7.1C579.61 10.28 585.91 12.26 596.17 14.6L598.63 7.7C591.85 6.74 580.39 3.32 576.25 1.04L572.77 7.1ZM567.97 12.38C567.91 13.7 567.85 14.42 567.61 15.86C566.53 22.94 565.57 29.6 565.09 33.32C564.79 35.6 564.79 35.84 564.61 36.92L572.17 37.16C573.43 35.72 573.79 35.36 574.87 34.58C578.89 31.82 584.47 30.2 589.81 30.2C596.17 30.2 599.95 32.6 599.95 36.62C599.95 41.72 594.07 45.26 585.61 45.26C580.51 45.26 575.35 44.3 569.47 42.26C570.19 45.08 570.31 46.28 570.37 50C577.21 51.68 580.51 52.1 585.67 52.1C592.63 52.1 597.61 50.84 601.51 48.02C605.35 45.26 607.69 40.82 607.69 36.44C607.69 28.76 600.97 23.72 590.77 23.72C583.51 23.72 576.07 26.06 572.59 29.42L572.47 29.3C572.65 28.4 572.65 28.4 572.77 27.56C573.55 21.68 574.57 16.1 575.47 12.8L567.97 12.38ZM50.42 77.9C50.6 79.22 50.6 79.64 50.66 81.74C50.9 98.36 51.98 107.06 54.44 113.06C56.84 118.82 60.08 121.76 64.1 121.76C69.2 121.76 72.68 116.9 75.8 105.2C72.86 103.04 71.9 102.14 69.8 99.74C69.14 103.76 68.06 107.36 66.62 110.6C65.9 112.28 65.06 113.18 64.16 113.18C62.24 113.18 60.32 109.34 59.3 103.1C58.64 99.44 58.16 92.24 58.16 87.02C58.16 83.06 58.34 80.12 58.64 77.9H50.42ZM80.72 83.6C84.32 88.04 87.2 92.9 89.24 98.36C91.34 103.82 92.72 110.06 93.08 115.7L100.52 112.88C98.78 99.68 94.58 89.66 87.02 80.6L80.72 83.6ZM115.76 93.8C117.02 93.14 117.5 93.02 120.56 92.12C130.22 89.24 137.96 87.86 144.2 87.86C147.5 87.86 150.02 88.4 151.94 89.48C154.82 91.1 156.5 93.98 156.5 97.28C156.5 98.84 156.26 100.34 155.84 101.54C154.64 105.08 151.1 108.5 146.78 110.42C141.68 112.64 136.64 113.54 127.04 113.96C128.78 117.2 129.32 118.46 130.1 121.7C141.08 120.5 145.76 119.42 151.22 116.72C159.74 112.58 164.54 105.68 164.54 97.52C164.54 87.32 156.8 80.66 144.92 80.66C137.96 80.66 134.72 81.14 121.04 84.08C117.02 84.98 116.06 85.1 114.02 85.28L115.76 93.8ZM180.86 87.98C182.72 87.56 185.48 87.2 190.82 86.78C202.46 85.94 206.18 85.58 211.04 84.86C207.14 86.84 204.98 88.46 202.7 90.92C199.04 94.88 197 99.92 197 105.02C197 111.26 200.06 116.36 205.58 119.48C209.24 121.52 213.02 122.6 219.62 123.44C220.76 123.62 220.88 123.62 221.66 123.8L222.74 115.64C222.14 115.7 221.6 115.7 221.54 115.7C219.38 115.7 215.54 115.04 212.6 114.14C207.56 112.64 204.62 109.04 204.62 104.36C204.62 98.3 209.12 92.3 216.74 88.34C220.58 86.3 225.02 85.1 228.62 85.1C229.22 85.1 229.22 85.1 229.88 85.16L229.46 77.54C228.5 77.78 228.2 77.78 223.28 78.02C207.26 78.8 197 79.34 192.62 79.58C183.8 80.18 183.8 80.18 182.72 80.18C182.42 80.18 181.76 80.18 180.44 80.12L180.86 87.98ZM217.58 93.74C220.22 96.62 221.9 99.02 223.88 102.68L228.08 100.46C226.04 96.74 224.42 94.46 221.78 91.64L217.58 93.74ZM235.22 96.56C233.36 93.14 231.68 90.86 228.98 88.1L224.96 90.2C227.3 92.78 229.28 95.6 231.08 98.9L235.22 96.56ZM248.24 102.74C249.08 102.8 249.26 102.8 250.52 103.1C252.92 103.64 255.26 104 258.86 104.48C258.62 106.52 258.56 108.02 258.56 109.58C258.56 119.24 264.5 124.46 275.42 124.46C281.06 124.46 285.56 123.14 288.98 120.5C292.64 117.68 294.74 113.54 294.74 109.28C294.74 106.52 293.72 103.1 292.16 100.46C291.5 99.32 290.84 98.42 289.34 96.68C286.52 97.7 285.26 97.94 281.9 98.18C285.5 101.48 287.3 104.84 287.3 108.32C287.3 114.2 282.92 117.56 275.3 117.56C272 117.56 269.6 116.84 267.86 115.34C266.3 113.96 265.64 112.1 265.64 109.16C265.64 108.08 265.76 106.52 265.94 104.9C268.28 105.02 268.82 105.02 269.78 105.02C272.6 105.02 276.14 104.78 278.78 104.48C279.8 104.3 279.98 104.3 280.58 104.3L280.76 97.4C277.88 98.18 273.56 98.6 269.3 98.6C268.64 98.6 268.16 98.6 266.36 98.54C266.72 95.66 266.9 94.46 267.5 90.08C270.08 90.14 270.62 90.14 271.22 90.14C273.38 90.14 275.3 90.02 279.62 89.66C280.94 89.54 281.24 89.48 282.02 89.42L282.26 82.4C278.84 83.24 275.36 83.54 268.58 83.66C269.66 76.28 269.84 75.38 270.5 73.52L262.52 72.8C262.58 73.1 262.58 73.22 262.58 73.4C262.58 75.2 262.22 78.32 261.38 83.36C257.3 83 253.04 82.16 250.52 81.2L249.92 87.8C250.82 87.98 251.12 88.04 251.96 88.22C256.04 89.12 257 89.24 260.54 89.72C260.24 91.94 259.7 95.96 259.46 98.12C253.34 97.28 251.66 96.92 248.9 95.84L248.24 102.74ZM325.34 74.54C325.64 75.44 325.64 75.5 326.3 78.5C327.8 85.94 328.94 90.38 330.32 94.76C326.42 96.68 324.5 97.94 322.16 99.86C318.74 102.8 316.82 106.64 316.82 110.6C316.82 114.98 318.74 118.64 322.04 120.62C325.88 122.9 331.1 123.92 339.44 123.92C343.64 123.92 347 123.68 353.48 123.02C356.66 122.72 357.08 122.66 358.34 122.6L357.68 114.44C353.18 115.94 345.8 116.84 338.3 116.84C328.64 116.84 324.56 114.98 324.56 110.6C324.56 106.28 328.94 102.5 337.7 99.26C344.42 96.74 352.28 94.52 357.5 93.5L354.92 85.94C353.84 86.48 353.84 86.48 350.66 87.5C343.1 89.9 340.82 90.68 337.1 92.12C335.48 87.26 333.14 76.22 333.14 73.34L325.34 74.54ZM348.86 75.44C351.5 78.32 353.18 80.72 355.16 84.38L359.36 82.16C357.32 78.44 355.7 76.16 353.06 73.34L348.86 75.44ZM366.5 78.26C364.64 74.84 362.96 72.56 360.26 69.8L356.24 71.9C358.58 74.48 360.56 77.3 362.36 80.6L366.5 78.26ZM386.78 83.9C387.62 83.9 387.8 83.96 389 84.08C391.94 84.5 396.92 84.8 399.98 84.8C403.76 84.8 406.34 84.68 408.98 84.32C406.22 85.88 403.28 87.68 400.16 89.66L405.38 93.8C411.32 89.48 417.8 85.46 421.4 83.84L421.16 77.12C417.2 77.96 412.94 78.26 405.32 78.26C397.28 78.26 391.94 77.84 387.32 76.76L386.78 83.9ZM391.22 97.46C385.82 101.96 383.48 105.92 383.48 110.48C383.48 115.16 386 118.52 391.16 120.5C394.34 121.82 399.62 122.48 406.16 122.48C411.32 122.48 415.16 122.18 422.36 121.16C423.62 120.98 423.98 120.98 425 120.92L424.34 112.7C420.5 114.14 412.64 115.22 405.5 115.22C395.36 115.22 390.98 113.54 390.98 109.64C390.98 107.06 392.66 104.54 396.44 101.42L391.22 97.46ZM444.86 87.98C446.72 87.56 449.48 87.2 454.82 86.78C466.46 85.94 470.18 85.58 475.04 84.86C471.14 86.84 468.98 88.46 466.7 90.92C463.04 94.88 461 99.92 461 105.02C461 111.26 464.06 116.36 469.58 119.48C473.24 121.52 477.02 122.6 483.62 123.44C484.76 123.62 484.88 123.62 485.66 123.8L486.74 115.64C486.14 115.7 485.6 115.7 485.54 115.7C483.38 115.7 479.54 115.04 476.6 114.14C471.56 112.64 468.62 109.04 468.62 104.36C468.62 98.3 473.12 92.3 480.74 88.34C484.58 86.3 489.02 85.1 492.62 85.1C493.22 85.1 493.22 85.1 493.88 85.16L493.46 77.54C492.5 77.78 492.2 77.78 487.28 78.02C471.26 78.8 461 79.34 456.62 79.58C447.8 80.18 447.8 80.18 446.72 80.18C446.42 80.18 445.76 80.18 444.44 80.12L444.86 87.98ZM481.58 93.74C484.22 96.62 485.9 99.02 487.88 102.68L492.08 100.46C490.04 96.74 488.42 94.46 485.78 91.64L481.58 93.74ZM499.22 96.56C497.36 93.14 495.68 90.86 492.98 88.1L488.96 90.2C491.3 92.78 493.28 95.6 495.08 98.9L499.22 96.56ZM512.24 102.74C513.08 102.8 513.26 102.8 514.52 103.1C516.92 103.64 519.26 104 522.86 104.48C522.62 106.52 522.56 108.02 522.56 109.58C522.56 119.24 528.5 124.46 539.42 124.46C545.06 124.46 549.56 123.14 552.98 120.5C556.64 117.68 558.74 113.54 558.74 109.28C558.74 106.52 557.72 103.1 556.16 100.46C555.5 99.32 554.84 98.42 553.34 96.68C550.52 97.7 549.26 97.94 545.9 98.18C549.5 101.48 551.3 104.84 551.3 108.32C551.3 114.2 546.92 117.56 539.3 117.56C536 117.56 533.6 116.84 531.86 115.34C530.3 113.96 529.64 112.1 529.64 109.16C529.64 108.08 529.76 106.52 529.94 104.9C532.28 105.02 532.82 105.02 533.78 105.02C536.6 105.02 540.14 104.78 542.78 104.48C543.8 104.3 543.98 104.3 544.58 104.3L544.76 97.4C541.88 98.18 537.56 98.6 533.3 98.6C532.64 98.6 532.16 98.6 530.36 98.54C530.72 95.66 530.9 94.46 531.5 90.08C534.08 90.14 534.62 90.14 535.22 90.14C537.38 90.14 539.3 90.02 543.62 89.66C544.94 89.54 545.24 89.48 546.02 89.42L546.26 82.4C542.84 83.24 539.36 83.54 532.58 83.66C533.66 76.28 533.84 75.38 534.5 73.52L526.52 72.8C526.58 73.1 526.58 73.22 526.58 73.4C526.58 75.2 526.22 78.32 525.38 83.36C521.3 83 517.04 82.16 514.52 81.2L513.92 87.8C514.82 87.98 515.12 88.04 515.96 88.22C520.04 89.12 521 89.24 524.54 89.72C524.24 91.94 523.7 95.96 523.46 98.12C517.34 97.28 515.66 96.92 512.9 95.84L512.24 102.74ZM94.3377 146.66C94.5177 148.22 94.5777 149 94.5777 152.06V168.56C94.5777 170.72 94.4577 172.58 94.2777 173.96H102.498C102.258 172.46 102.258 171.68 102.258 168.68V152.12C102.258 148.94 102.258 148.4 102.498 146.72L94.3377 146.66ZM121.398 146.78C121.638 148.16 121.698 149.42 121.698 152.48V159.98C121.698 164.78 121.638 167.42 121.398 170C120.738 177.92 118.758 181.58 113.118 185.3C109.518 187.7 106.038 188.96 100.158 190.1C102.678 193.28 103.278 194.3 104.358 197.24C109.878 195.62 112.878 194.42 116.058 192.62C122.298 189.14 126.138 184.64 127.878 178.64C128.958 174.86 129.378 169.82 129.438 160.46V152.36C129.438 148.94 129.498 148.28 129.738 146.78H121.398ZM152.358 175.16C154.758 174.86 155.418 174.86 162.138 174.86H193.998C200.718 174.86 201.378 174.86 203.778 175.16V166.82C201.138 167.18 199.998 167.24 194.058 167.24H162.078C156.138 167.24 154.998 167.18 152.358 166.82V175.16ZM263.893 191.24C253.993 181.64 250.693 178.82 244.033 174.26C247.213 170.12 250.513 164.42 252.793 158.96C253.333 157.64 254.113 156.38 254.713 155.72L250.273 150.38C248.773 150.92 248.293 150.98 244.933 151.04L224.893 151.34C224.173 151.34 223.633 151.34 223.453 151.34C220.993 151.34 219.853 151.28 218.173 150.98L218.413 158.6C220.213 158.36 221.713 158.24 224.953 158.18L242.953 157.88L243.493 157.82C243.973 157.82 244.153 157.82 244.813 157.76C244.693 158.06 244.633 158.18 244.633 158.3L244.453 158.72L244.153 159.38C241.213 166.1 237.073 172.16 231.673 177.44C226.033 183.02 218.173 188.18 211.993 190.4C214.393 192.8 215.233 194 216.853 197.06C225.613 192.8 233.713 186.68 239.713 179.72C245.653 184.16 253.993 192.26 258.133 197.54L263.893 191.24ZM251.833 146.84C254.473 149.72 256.153 152.12 258.133 155.78L262.153 153.56C260.113 149.84 258.493 147.56 255.853 144.74L251.833 146.84ZM269.053 149.84C267.193 146.42 265.513 144.14 262.813 141.38L259.033 143.3C261.373 145.88 263.353 148.7 265.153 152L269.053 149.84ZM308.351 159.86C308.351 159.2 308.351 159.2 308.411 155.24L308.471 151.64C308.531 147.86 308.531 147.8 308.771 145.88H300.491C300.731 147.5 300.791 149.06 300.791 151.64V155.18C300.791 156.26 300.791 157.34 300.731 159.86H285.611C281.471 159.86 280.151 159.8 277.811 159.44V167C279.971 166.76 281.531 166.7 285.491 166.7H300.371C299.891 172.82 299.231 175.52 297.431 178.76C294.731 183.74 290.171 187.46 282.971 190.58C285.491 192.56 286.391 193.64 288.431 197.06C296.231 192.8 300.431 189.08 303.731 183.62C306.491 179 307.511 175.04 308.051 166.7H320.351C324.311 166.7 325.871 166.76 328.031 167V159.44C325.691 159.8 324.431 159.86 320.231 159.86H308.351ZM388.571 154.46L390.971 153.5C389.351 149.54 387.971 147.08 385.631 144.02L381.251 145.64C382.811 147.74 383.951 149.54 384.971 151.7C383.831 151.82 382.811 151.88 380.651 151.88H353.111C349.031 151.88 347.591 151.82 345.431 151.46V159.26C347.411 158.96 348.551 158.9 352.991 158.9H381.551C377.711 174.86 366.851 186.02 350.231 191.18C352.931 193.82 353.951 195.2 355.511 198.32C374.171 190.58 384.971 178.28 389.651 159.38C390.011 158.12 390.191 157.58 390.671 156.68L388.571 154.46ZM398.651 150.62C397.271 147.08 395.831 144.68 393.371 141.5L389.051 143.12C391.091 145.82 392.771 148.88 394.211 152.42L398.651 150.62ZM415.882 147.08C416.122 148.7 416.122 149.24 416.122 152.54C416.122 169.34 414.742 177.08 410.422 183.98C408.622 186.86 407.182 188.48 404.242 190.88C407.062 192.8 407.962 193.7 410.302 196.7C414.262 192.8 416.542 189.74 418.582 185.6C421.702 179.42 423.022 172.64 423.442 160.94C423.802 149.18 423.802 149.18 424.042 147.5L415.882 147.08ZM431.782 146.66C431.962 147.8 432.022 149.12 432.022 150.62V152.42L431.722 186.26C431.662 189.56 431.602 190.88 431.182 192.62L435.022 196.7C435.802 196.34 436.282 196.1 437.602 195.62C443.842 193.16 446.962 191.36 450.382 188.42C454.342 184.88 457.462 180.38 459.922 174.44C457.162 172.28 456.382 171.5 454.282 168.8C452.902 173.24 451.162 176.54 448.402 179.78C445.822 182.84 443.422 184.64 439.222 186.62L439.522 152.48C439.582 149.54 439.642 148.52 439.942 146.78L431.782 146.66ZM501.442 181.94C501.322 180.74 501.322 180.14 501.322 179.42C501.322 178.58 501.322 178.58 501.442 175.1L502.282 154.7C502.402 152.12 502.642 149 502.822 147.38H492.982C493.222 149.06 493.402 152.06 493.522 154.7L494.362 175.1C494.542 178.7 494.542 178.7 494.542 179.36C494.542 180.08 494.482 180.68 494.422 181.94H501.442ZM502.282 195.08V186.86H493.582V195.08H502.282Z" fill="white"/>
</svg>
