<svg width="104" height="16" viewBox="0 0 104 16" fill="none" xmlns="http://www.w3.org/2000/svg">
<path d="M6.81523 15.2C9.75523 15.2 11.8152 13.64 11.8152 11.02V10.98C11.8152 8.66 10.2752 7.6 7.31523 6.88C4.63523 6.24 3.99523 5.76 3.99523 4.68V4.64C3.99523 3.72 4.83523 2.98 6.27523 2.98C7.55523 2.98 8.81524 3.48 10.0752 4.42L11.3952 2.56C9.97523 1.42 8.35523 0.799999 6.31523 0.799999C3.53523 0.799999 1.53523 2.46 1.53523 4.86V4.9C1.53523 7.48 3.21523 8.36 6.19523 9.08C8.79523 9.68 9.35523 10.22 9.35523 11.22V11.26C9.35523 12.32 8.39524 13.02 6.87523 13.02C5.13523 13.02 3.79523 12.36 2.45523 11.2L0.975234 12.96C2.65523 14.46 4.67523 15.2 6.81523 15.2ZM25.2082 15.24C27.8282 15.24 29.4282 14.28 30.8882 12.76L29.3082 11.16C28.1082 12.28 27.0082 12.98 25.2882 12.98C22.6082 12.98 20.6682 10.74 20.6682 8V7.96C20.6682 5.22 22.6082 3.02 25.2882 3.02C26.8882 3.02 28.0882 3.72 29.2082 4.76L30.7882 2.94C29.4482 1.66 27.8882 0.76 25.3082 0.76C21.0682 0.76 18.0882 4.02 18.0882 8V8.04C18.0882 12.06 21.1282 15.24 25.2082 15.24ZM37.4738 15H39.9338V10.12H42.9738H43.0138L46.4538 15H49.3538L45.5738 9.7C47.5338 9.14 48.9138 7.76 48.9138 5.46V5.42C48.9138 4.2 48.4938 3.16 47.7538 2.4C46.8538 1.52 45.4738 0.999999 43.7138 0.999999H37.4738V15ZM39.9338 7.94V3.24H43.5138C45.3338 3.24 46.4138 4.06 46.4138 5.56V5.6C46.4138 7.02 45.2938 7.94 43.5338 7.94H39.9338ZM62.607 15.24C66.907 15.24 69.947 11.94 69.947 8V7.96C69.947 4.02 66.947 0.76 62.647 0.76C58.347 0.76 55.307 4.06 55.307 8V8.04C55.307 11.98 58.307 15.24 62.607 15.24ZM62.647 12.98C59.867 12.98 57.887 10.72 57.887 8V7.96C57.887 5.24 59.827 3.02 62.607 3.02C65.387 3.02 67.367 5.28 67.367 8V8.04C67.367 10.76 65.427 12.98 62.647 12.98ZM76.9191 15H86.7391V12.76H79.3791V0.999999H76.9191V15ZM93.302 15H103.122V12.76H95.762V0.999999H93.302V15Z" fill="white"/>
</svg>
