<?xml version="1.0" encoding="utf-8"?>
<!-- Generator: Adobe Illustrator 24.0.1, SVG Export Plug-In . SVG Version: 6.00 Build 0)  -->
<svg version="1.1" id="レイヤー_1" xmlns="http://www.w3.org/2000/svg" xmlns:xlink="http://www.w3.org/1999/xlink" x="0px"
	 y="0px" viewBox="0 0 545 210" style="enable-background:new 0 0 545 210;" xml:space="preserve">
<style type="text/css">
	.st0{fill:#FFFFFF;}
</style>
<g>
	<g>
		<path class="st0" d="M10.9,155.8h35.2V146H21.7v-39.2H10.9V155.8z M68.2,155.8h37.3v-9.6H78.9v-10.3H102v-9.6H78.9v-9.9h26.3v-9.6
			h-37V155.8z M124.9,155.8h11l4.5-11h20.7l4.5,11h11.3l-21-49.3h-9.9L124.9,155.8z M144.2,135.3l6.5-15.9l6.5,15.9H144.2z
			 M198.4,155.8h10.6v-31.1l23.7,31.1h9.2v-49h-10.6V137l-23-30.2h-9.9V155.8z M288.7,155.8H312c11.1,0,18.3-4.5,18.3-13.4v-0.1
			c0-6.6-3.5-9.9-9.2-12c3.5-2,6.4-5,6.4-10.6v-0.1c0-3.4-1.1-6.1-3.4-8.3c-2.8-2.8-7.2-4.3-12.8-4.3h-22.8V155.8z M299.2,126.6
			v-10.4h10.6c4.5,0,7.1,1.8,7.1,5v0.1c0,3.6-3,5.2-7.8,5.2H299.2z M299.2,146.4v-10.8h12.5c5.5,0,8,2,8,5.3v0.1
			c0,3.6-2.9,5.3-7.6,5.3H299.2z M377,156.6c15.1,0,26.1-11.4,26.1-25.3v-0.1c0-13.9-10.9-25.2-26-25.2s-26.1,11.4-26.1,25.3v0.1
			C351.1,145.4,361.9,156.6,377,156.6z M377.2,146.7c-8.7,0-14.8-7-14.8-15.4v-0.1c0-8.4,6-15.3,14.7-15.3c8.7,0,14.8,7,14.8,15.4
			v0.1C391.9,139.9,385.8,146.7,377.2,146.7z M426.7,155.8h19.1c15.4,0,26-10.7,26-24.5v-0.1c0-13.8-10.6-24.4-26-24.4h-19.1V155.8z
			 M437.5,146.1v-29.5h8.3c8.8,0,14.8,6.1,14.8,14.8v0.1c0,8.7-5.9,14.6-14.8,14.6H437.5z M504.7,155.8h10.8v-19.5l18.8-29.5H522
			l-11.9,19.7l-11.7-19.7h-12.6l18.8,29.7V155.8z"/>
	</g>
	<g>
		<path class="st0" d="M15.6,206.9h-2.6v-14.6h2.6v-2.2h-5.1v18.9h5.1V206.9z M24.2,190c0.1,0.5,0.1,0.8,0.1,1.8v5.5
			c0,0.7,0,1.3-0.1,1.8h2.7c-0.1-0.5-0.1-0.8-0.1-1.8v-5.5c0-1.1,0-1.2,0.1-1.8L24.2,190z M33.2,190.1c0.1,0.5,0.1,0.9,0.1,1.9v2.5
			c0,1.6,0,2.5-0.1,3.3c-0.2,2.6-0.9,3.9-2.8,5.1c-1.2,0.8-2.4,1.2-4.3,1.6c0.8,1.1,1,1.4,1.4,2.4c1.8-0.5,2.8-0.9,3.9-1.5
			c2.1-1.2,3.4-2.7,3.9-4.7c0.4-1.3,0.5-2.9,0.5-6.1v-2.7c0-1.1,0-1.4,0.1-1.9H33.2z M45.5,199.5c0.8-0.1,1-0.1,3.3-0.1h10.6
			c2.2,0,2.5,0,3.3,0.1v-2.8c-0.9,0.1-1.3,0.1-3.2,0.1H48.8c-2,0-2.4,0-3.2-0.1V199.5z M69.4,193c1.9,1,3.5,2.4,5.1,4.1l1.7-2.2
			c-1.5-1.5-2.8-2.4-5.2-3.9L69.4,193z M70.1,206.2c0.5-0.2,0.5-0.2,1.3-0.3c3.1-0.7,5.6-1.6,7.6-3c2.7-1.8,4.6-4.2,6.3-7.8
			c-1-0.7-1.3-1-2.1-2c-0.6,1.6-1.2,2.7-2,4c-1.6,2.3-3.4,3.8-5.9,4.9c-1.8,0.8-4.2,1.4-5.9,1.5L70.1,206.2z M102.1,192.8v-1.1
			c0-1.3,0-1.6,0.1-2.1h-2.7c0.1,0.5,0.1,0.9,0.1,2.1v1.1h-4.4c-1.5,0-1.9,0-2.6-0.1v2.5c0.7-0.1,1-0.1,2.5-0.1h4.4v9.7
			c0,1.1,0,1.7-0.1,2.3h2.7c-0.1-0.5-0.1-1.1-0.1-2.2V195h4.6c1.6,0,1.9,0,2.5,0.1v-2.5c-0.7,0.1-1.1,0.1-2.5,0.1l1.4-0.5
			c-0.5-1.3-1-2.1-1.8-3.2l-1.5,0.5c0.7,1,1.2,1.8,1.7,3.2H102.1z M95.1,196.4c-0.3,2.5-1.8,6.1-3.4,7.7c1,0.4,1.4,0.6,2.3,1.3
			c1.5-2,2.7-4.8,3.4-7.8c0-0.2,0.1-0.3,0.1-0.3c0,0,0-0.2,0.1-0.3L95.1,196.4z M104.1,197c0.1,0.3,0.2,0.4,0.3,0.9
			c0.9,3.2,1.8,5.2,3.3,7.5c0.9-0.6,1.3-0.9,2.3-1.4c-1.3-1.5-2.9-5-3.5-7.6L104.1,197z M110.8,191.4c-0.5-1.2-0.9-2-1.8-3l-1.4,0.5
			c0.7,0.9,1.2,1.9,1.7,3.1L110.8,191.4z M129.4,190.4c-0.7,0.1-1.1,0.1-2.6,0.1h-5.9c-1.5,0-1.9,0-2.6-0.1v2.4
			c0.6-0.1,0.9-0.1,2.5-0.1h6c1.6,0,1.9,0,2.5,0.1V190.4z M130.6,197.7c1.6,0,1.9,0,2.5,0.1v-2.4c-0.7,0.1-1.1,0.1-2.6,0.1h-11.7
			c-1.5,0-1.9,0-2.6-0.1v2.4c0.7-0.1,1-0.1,2.5-0.1h4.9c-0.1,3.9-1.7,5.9-5.6,7.1c0.8,0.8,1.2,1.2,1.6,2.2c4.5-1.7,6.4-4.4,6.6-9.3
			H130.6z M134.9,191.4c-0.5-1.2-1-2-1.8-3l-1.4,0.5c0.7,0.9,1.3,2,1.7,3.1L134.9,191.4z M129.1,189.6c0.7,1,1.2,1.9,1.8,3.2
			l1.5-0.6c-0.6-1.3-1-2.1-1.8-3.2L129.1,189.6z M152.4,192.9c-0.3,0.5-0.6,0.8-1.2,1.4c-1.7,1.6-3.4,2.9-5.7,4.1
			c-1.6,0.8-2.9,1.3-4.7,1.8c0.6,0.8,0.8,1.2,1.2,2.1c2.4-0.8,3.9-1.5,5.7-2.5v5.4c0,0.9,0,1.3-0.1,1.9l2.6,0
			c-0.1-0.5-0.1-1-0.1-1.9v-6.8c1.3-0.9,2.7-2.2,3.7-3.3c0.4-0.4,0.4-0.4,0.7-0.7L152.4,192.9z M162.6,206.9v2.2h5.1v-18.9h-5.1v2.2
			h2.6v14.6H162.6z"/>
	</g>
	<g>
		<path class="st0" d="M16.4,15.6c2.1-0.7,4-1,5.8-1c3.2,0,5.3,1.7,5.3,4.3c0,1.9-1.3,3.3-3,3.3c-0.8,0-1.6-0.4-1.9-1
			c-0.3-0.6-0.4-1.4-0.4-2.6c0-0.5,0-0.8,0.1-1.3c-1.3,0.7-1.8,0.9-3.3,1.3c0,1.8,0.1,2.8,0.5,3.8c0.8,2.2,2.5,3.3,4.9,3.3
			c3.9,0,6.8-2.9,6.8-6.8c0-4.3-3.6-7.3-8.6-7.3c-2.2,0-4.1,0.2-6.1,0.8V8.5c1.1-0.1,1.7-0.2,2.7-0.4c2.1-0.4,2.6-0.4,3.2-0.5
			l-0.1-3.4c-1.5,0.5-3.5,0.9-5.8,1.1V3.5c0-1.7,0-2.3,0.2-3.3h-3.8C13,1.1,13,1.9,13,3.6v2c-0.3,0-0.5,0-1.2,0c-0.4,0-0.8,0-1,0
			C9.2,5.7,8,5.6,7.1,5.4l0,3.4c0.3,0,0.5,0,0.6,0c0.1,0,0.4,0,0.8,0c0.4,0,1.2,0,1.7,0c0.8,0,1.2,0,1.6,0c1-0.1,1-0.1,1.2-0.1
			l0,4.6c-2,0.8-3.3,1.6-4.4,2.5c-1.7,1.4-2.6,3-2.6,4.4c0,1.3,0.6,2.5,1.6,3.4c1.5,1.3,3.8,2.1,5.7,2.1c1.4,0,2.5-0.7,2.8-1.7
			c0.2-0.6,0.2-1.3,0.2-2.5L16.4,15.6z M13,21.1c0,1-0.2,1.3-0.7,1.3c-0.6,0-1.3-0.2-1.9-0.7c-0.7-0.4-1-0.9-1-1.4
			c0-1.1,1.3-2.4,3.6-3.6V21.1z M32.4,8.4c-1.6-2.3-3.3-4.1-5.9-6.2l-2.8,1.9c2.3,1.7,4.5,4.1,6,6.5L32.4,8.4z M44.5,3.8
			c4.4,1.1,8.6,1.7,14,1.9L59.1,2c-0.4,0-0.7,0-0.8,0C53.5,2,49,1.4,45.7,0.3L44.5,3.8z M41.9,13.9c2.5-1,8.5-2.1,11.9-2.1
			c3.1,0,4.7,1.1,4.7,3.4c0,2.1-1.3,4-3.7,5.3c-2.3,1.3-5.5,2.1-9,2.3c0.9,1.4,1.3,2.2,1.6,3.8c4.9-0.8,7-1.4,9.5-2.8
			c3.6-2.1,5.7-5.2,5.7-8.6c0-2.4-1.1-4.4-2.9-5.5c-1.4-0.8-3.2-1.2-5.7-1.2c-2.5,0-5.2,0.3-9.4,1c-2.7,0.5-2.7,0.5-3.5,0.5
			L41.9,13.9z M73.1,7.9c0.1,0,0.2,0,0.2,0c0.2,0,0.5,0,1,0c1.6,0.1,2.9,0.2,4.5,0.2c-0.4,1.5-1.5,4.4-2.5,6.7c-0.4,1-1,2-1.4,2.7
			l3.6,1.3c0.5-0.8,1.1-1.2,2.2-1.7c1.9-0.9,4.2-1.5,6.4-1.5c3.2,0,5,1,5,2.9c0,2.4-2.8,3.9-7.2,3.9c-2.5,0-5-0.5-7.7-1.4
			c0.3,1.5,0.3,2.1,0.3,3.8c2.3,0.7,5,1,7.7,1c6.6,0,10.9-2.9,10.9-7.3c0-3.8-3.2-6.1-8.4-6.1c-2.9,0-5.6,0.7-7.6,1.9v-0.1
			c0.6-1.1,1.7-4,2.4-6.1c3.8-0.1,6.4-0.3,10.7-0.8c0.8-0.1,1-0.1,1.7-0.1l-0.2-3.6c-1.1,0.3-1.6,0.4-3.8,0.7
			c-2,0.2-5.4,0.5-7.7,0.5c0.2-0.6,0.2-0.6,0.7-2.8c0.3-1.2,0.3-1.2,0.5-1.7l-4-0.3c-0.1,1.3-0.3,2.6-0.8,5c-3.1,0-5.1-0.2-6.5-0.5
			L73.1,7.9z M105.4,7.8c0.9-0.2,2.3-0.4,5-0.6c5.8-0.4,7.7-0.6,10.1-1c-1.9,1-3,1.8-4.2,3c-1.8,2-2.8,4.5-2.8,7.1
			c0,3.1,1.5,5.7,4.3,7.2c1.8,1,3.7,1.6,7,2c0.6,0.1,0.6,0.1,1,0.2l0.5-4.1c-0.3,0-0.6,0-0.6,0c-1.1,0-3-0.3-4.5-0.8
			c-2.5-0.8-4-2.5-4-4.9c0-3,2.2-6,6.1-8c1.9-1,4.1-1.6,5.9-1.6c0.3,0,0.3,0,0.6,0l-0.2-3.8c-0.5,0.1-0.6,0.1-3.1,0.2
			c-8,0.4-13.1,0.7-15.3,0.8c-4.4,0.3-4.4,0.3-4.9,0.3c-0.2,0-0.5,0-1.1,0L105.4,7.8z M123.8,10.7c1.3,1.4,2.2,2.6,3.2,4.5L129,14
			c-1-1.9-1.8-3-3.1-4.4L123.8,10.7z M132.6,12.1c-0.9-1.7-1.8-2.9-3.1-4.2l-2,1.1c1.2,1.3,2.2,2.7,3.1,4.4L132.6,12.1z M138.4,7.8
			c0.9-0.2,2.3-0.4,5-0.6c5.8-0.4,7.7-0.6,10.1-1c-1.9,1-3,1.8-4.2,3c-1.8,2-2.9,4.5-2.9,7.1c0,3.1,1.5,5.7,4.3,7.2
			c1.8,1,3.7,1.6,7,2c0.6,0.1,0.6,0.1,1,0.2l0.5-4.1c-0.3,0-0.6,0-0.6,0c-1.1,0-3-0.3-4.5-0.8c-2.5-0.8-4-2.5-4-4.9c0-3,2.2-6,6.1-8
			c1.9-1,4.1-1.6,5.9-1.6c0.3,0,0.3,0,0.6,0l-0.2-3.8c-0.5,0.1-0.6,0.1-3.1,0.2c-8,0.4-13.1,0.7-15.3,0.8c-4.4,0.3-4.4,0.3-4.9,0.3
			c-0.1,0-0.5,0-1.1,0L138.4,7.8z M156.8,10.7c1.3,1.4,2.2,2.6,3.2,4.5L162,14c-1-1.9-1.8-3-3.1-4.4L156.8,10.7z M165.6,12.1
			c-0.9-1.7-1.8-2.9-3.1-4.2l-2,1.1c1.2,1.3,2.2,2.7,3.1,4.4L165.6,12.1z M173.2,7.5c0.6,0,0.8-0.1,2-0.1c3.5,0,5.6-0.1,8-0.4
			c0.2,0.5,0.3,0.7,0.6,1.4c0.2,0.6,0.4,0.8,0.5,1.1c-2.8,0.4-5.3,0.6-8.5,0.6c-2,0-2.2,0-3.1-0.1l0.1,3.3c0.5-0.1,0.7-0.1,1.2-0.1
			c6.5-0.2,8.4-0.3,11.6-0.8c1.3,2.1,1.8,2.9,2.3,3.4c-1.6-0.4-3.4-0.6-5.2-0.6c-3,0-5.4,0.5-7,1.5c-1.6,1-2.5,2.5-2.5,4.2
			c0,1.7,0.9,3.2,2.3,4.1c1.7,1,3.9,1.5,7.3,1.5c2.6,0,5.1-0.3,7.7-1c1.4-0.4,1.4-0.4,1.9-0.5l-0.5-3.7c-1.9,1-6.1,2-9.2,2
			c-1.7,0-3.3-0.2-4.3-0.7c-0.8-0.3-1.3-1-1.3-1.7s0.4-1.3,1.3-1.8c1-0.5,2.8-0.8,5-0.8c2.9,0,4.7,0.3,6.9,1.2l2.6-1.9
			c-2-2.3-2.5-2.9-4-5.5c0.4-0.1,0.4-0.1,1.1-0.2c0.7-0.1,1.7-0.4,2.9-0.7c0.7-0.2,1.3-0.3,1.9-0.4l-0.3-3.3
			c-0.8,0.3-1.1,0.4-2.9,0.9c-0.2,0-1.6,0.3-4.1,0.9c-0.5-1-0.7-1.4-1.2-2.5c0.9-0.1,4.3-0.8,6.3-1.3c0.7-0.1,0.7-0.1,1-0.2L193.6,2
			c-2.1,0.7-5.6,1.5-8.1,1.8c-0.8-2-1.1-2.9-1.2-3.6l-3.8,0.5c0,0.1,0.4,1,1.2,2.7c0.2,0.5,0.2,0.5,0.3,0.8
			c-2.3,0.2-3.9,0.3-6.2,0.3c-1.3,0-2,0-2.9-0.1L173.2,7.5z M213.8,12.4c0.5-0.3,0.5-0.3,1.2-0.8c0.6-0.4,2.8-2,3.3-2.5
			c1-0.9,3.2-2.8,4.7-4.2c0.8-0.8,1.1-1,1.6-1.2l-1.9-2.6c-0.5,0.2-0.8,0.3-1.9,0.4c-2.9,0.2-6.6,0.4-9.1,0.4
			c-1.6,0-2.5-0.1-3.5-0.2l0.1,3.6c0.6-0.1,0.8-0.1,1.4-0.1c5.4-0.2,7.3-0.4,8.5-0.5l0,0c-0.2,0.2-0.5,0.5-0.5,0.5
			c-2.3,2.3-6.2,5.7-9,7.8c-2,1.5-3.2,2.3-4.2,2.8l2,3.2c3.6-3.3,8-5,12.4-5c3.6,0,5.9,1.5,5.9,3.9c0,2.1-1.1,3.4-3.6,4.4
			c-0.5-1.3-0.8-2-1.4-2.7c-1.3-1.6-3.1-2.5-5.2-2.5c-3,0-5.2,1.8-5.2,4.3c0,1.4,0.7,2.6,1.8,3.5c1.2,0.9,3.3,1.4,5.8,1.4
			c2.8,0,5.3-0.6,7.3-1.7c2.7-1.5,4.1-3.8,4.1-6.6c0-4.1-3.3-6.8-8.4-6.8C217.9,11,216.6,11.3,213.8,12.4L213.8,12.4z M218.1,23
			c-0.8,0.1-1,0.1-1.6,0.1c-2.2,0-3.6-0.7-3.6-1.9c0-0.8,0.7-1.4,1.8-1.4C216.5,19.9,217.6,21,218.1,23z M21.2,59l0.1,9
			c0,0.2,0,0.4,0,0.5c0,1.2-0.1,2-0.2,2.9h4.1c-0.1-0.8-0.1-2-0.2-3.4L24.9,54H28c1.9,0,2.5,0,3.5,0.1v-3.6c-1,0.2-1.5,0.2-3.5,0.2
			h-3l-0.1-2.4v-0.2c0-1.2,0-1.8,0.1-2.6h-4c0.1,1.1,0.1,1.1,0.1,2.8l0,2.4H10.8c-2.1,0-2.6,0-3.8-0.2v3.7c1.1-0.1,1.4-0.1,3.7-0.2
			h8.2c-1,1.6-2.5,3.4-4,4.9c-3,2.9-5.9,4.9-9.4,6.5c1.3,1.2,1.8,1.7,2.5,3.1c2.3-1.3,3.3-1.9,4.4-2.8c2.1-1.5,4.3-3.4,5.9-5.2
			c1.5-1.7,2.4-2.9,3.1-4.2c0,0.5-0.1,2-0.1,2.2V59z M40.7,50.6c2.8,1.6,5.2,3.5,7.7,6.1l2.6-3.3c-2.3-2.2-4.2-3.6-7.7-5.8
			L40.7,50.6z M41.7,70.3c0.7-0.2,0.8-0.3,2-0.5c4.7-1,8.4-2.5,11.4-4.5c4.1-2.7,7-6.3,9.5-11.8c-1.5-1.1-2-1.5-3.2-2.9
			c-0.9,2.4-1.7,4.1-3.1,6c-2.4,3.4-5.2,5.7-8.9,7.3c-2.7,1.2-6.3,2.1-8.9,2.2L41.7,70.3z M76.1,49.9c0.9-0.1,1.5-0.2,3.5-0.2h10.6
			c2,0,2.5,0,3.5,0.2v-3.7c-1,0.2-1.6,0.2-3.5,0.2H79.6c-1.9,0-2.5,0-3.5-0.2V49.9z M95.1,53.4c-0.9,0.2-1.5,0.3-3.4,0.3H77.4
			c-2.1,0-2.8,0-3.9-0.2v3.7c1.1-0.1,1.8-0.1,3.8-0.1H92c-1.3,3.3-2.6,5.2-4.8,7c-2.3,1.9-4.7,3-8.3,4c1.3,1.5,1.7,2,2.3,3.5
			c3.8-1.4,5.7-2.4,7.9-4.1c3.1-2.4,5.4-5.7,7-10.1c0.4-0.9,0.5-1.3,0.8-1.9L95.1,53.4z M125.9,45.5c-0.9,1.5-2.9,3.5-5.6,5.6
			c-4.8,3.7-9.8,6.2-15.8,7.8c1.1,1.3,1.4,1.9,2,3.4c5.5-2,7.2-2.8,10.7-4.9V68c0,1.8,0,2.4-0.2,3.2h4.2c-0.1-0.8-0.2-1.7-0.2-3.3
			V55.1c2.6-1.9,4.8-3.8,7.1-6.2c0.5-0.5,0.6-0.6,1.1-1L125.9,45.5z M139.7,50.6c2.8,1.6,5.2,3.5,7.6,6.1l2.6-3.3
			c-2.3-2.2-4.2-3.6-7.7-5.8L139.7,50.6z M140.7,70.3c0.7-0.2,0.8-0.3,2-0.5c4.6-1,8.4-2.5,11.4-4.5c4.1-2.7,7-6.3,9.5-11.8
			c-1.5-1.1-2-1.5-3.2-2.9c-0.9,2.4-1.7,4.1-3.1,6c-2.4,3.4-5.2,5.7-8.9,7.3c-2.7,1.2-6.3,2.1-8.9,2.2L140.7,70.3z M193.5,47.6
			c-0.9,0.2-1.5,0.3-3.2,0.3h-13.8c-2,0-2.7,0-3.8-0.2v3.9c1.1-0.2,1.8-0.2,3.8-0.2h14.3c-1.5,5.8-4.4,10.1-9.1,13.1
			c-2.2,1.4-3.9,2.2-6.6,3.1c1.4,1.4,1.8,2,2.6,3.6c5-2.2,8.2-4.3,11.2-7.6c2.9-3.2,4.7-6.8,6.2-12.6c0.1-0.6,0.2-0.8,0.5-1.4
			L193.5,47.6z M222.5,50.4c-0.5,0.8-0.8,1.2-1.8,2.2c-2.5,2.5-5.2,4.3-8.5,6.1c-2.5,1.3-4.3,1.9-7.1,2.7c1,1.2,1.2,1.7,1.9,3.1
			c3.6-1.3,5.8-2.2,8.5-3.8v8c0,1.4,0,2-0.1,2.8l3.9,0c-0.1-0.8-0.1-1.5-0.1-2.9V58.5c1.9-1.3,4.1-3.3,5.6-4.9c0.6-0.7,0.6-0.7,1-1
			L222.5,50.4z M238.9,53.5c1.4,2.6,1.9,4.2,2.7,7.3l3.4-1.1c-1.1-3.4-1.7-4.8-2.9-7.1L238.9,53.5z M245.3,52.2
			c1.3,2.5,2.2,4.8,2.7,7.1l3.3-1.1c-0.8-2.6-1.3-3.9-2.9-6.9L245.3,52.2z M255.6,51.9c0,0.9-0.1,2-0.5,3.5
			c-1.3,4.8-3.3,7.9-6.8,10.4c-1.8,1.3-3,1.9-5.1,2.8c1.3,1.2,1.6,1.7,2.4,3c4.4-2.2,6.9-4.2,9.1-7.2c1.9-2.6,3.3-5.9,4.1-10
			c0.2-0.9,0.2-1.1,0.4-1.5L255.6,51.9z M279.2,71.2c-0.1-1-0.1-1.8-0.1-3.3v-7.9c0-0.8,0-1.2-0.1-2c0.2,0.2,0.3,0.2,1,0.5
			c5,2.3,8.1,4,10.6,5.7l2.1-3.5c-4.8-2.7-9.5-4.9-13.6-6.3v-5.6c0-1.9,0-2.2,0.1-3.1H275c0.1,0.8,0.2,1.6,0.2,3.1v19.2
			c0,1.6,0,2.4-0.2,3.4H279.2z M316.8,71.7c-0.1-0.9-0.1-1.3-0.1-2.7v-6.6c0-0.3,0-1.1-0.1-1.5c0.3,0.2,0.4,0.2,0.8,0.3
			c3.8,1.6,6.1,2.8,9.1,4.8l2-3.1c-3.6-2.1-6.8-3.6-10.5-4.7c2.9-2.2,4.4-3.7,6.1-5.6c0.8-0.9,0.8-0.9,1.3-1.3l-1.7-2
			c-0.6,0.2-1.1,0.3-2,0.3h-5.1v-2.5c0-1,0-1.5,0.1-2.1h-4c0.1,0.6,0.1,1.1,0.2,2.2v2.5h-5c-1.3,0-2.4-0.1-3.2-0.3V53
			c1.1-0.1,1.4-0.1,3.2-0.1c10.8-0.1,10.8-0.1,11-0.1c0.4,0,0.4,0,0.6,0c-2.6,2.6-5.8,4.8-9.3,6.4c-3,1.4-5.4,2.2-8.3,2.8
			c0.9,1.3,1.2,1.8,1.8,3.3c3.7-1.1,6.2-2.2,8.5-3.4c0.4-0.2,0.6-0.3,0.9-0.6c0,0.8,0,1.3,0,1.5v6.3c0,1-0.1,1.9-0.2,2.7H316.8z
			 M361.1,67.7c-3.6-3.5-3.6-3.5-4.4-4.2c-2-1.8-3.7-3.1-5.5-4.3c1.8-2.5,3.3-5.1,4.7-8.3c0.3-0.8,0.6-1.2,1-1.6l-2-2
			c-0.8,0.3-1,0.3-2.7,0.3l-10.6,0.1c-0.4,0-0.6,0-0.7,0c-1.2,0-1.8,0-2.6-0.2l0.1,3.8c1-0.1,1.8-0.2,3.3-0.2
			c9.5-0.2,9.5-0.2,9.9-0.2l-0.3,0.8c-2,4.7-5.6,9-10.1,12.2c-2.2,1.6-3.7,2.4-6,3.3c1.2,1.3,1.6,1.8,2.4,3.3
			c4.6-2.2,8-4.9,11.4-8.7c3.3,2.5,6.7,5.8,9.2,8.9L361.1,67.7z"/>
	</g>
</g>
</svg>
