<?xml version="1.0" encoding="utf-8"?>
<!-- Generator: Adobe Illustrator 24.0.1, SVG Export Plug-In . SVG Version: 6.00 Build 0)  -->
<svg version="1.1" id="レイヤー_1" xmlns="http://www.w3.org/2000/svg" xmlns:xlink="http://www.w3.org/1999/xlink" x="0px"
	 y="0px" viewBox="0 0 287 172" style="enable-background:new 0 0 287 172;" xml:space="preserve">
<style type="text/css">
	.st0{opacity:0.5;fill:#FFFFFF;enable-background:new    ;}
</style>
<path class="st0" d="M21.3,50.8c13.2,0,21.5-7.3,21.5-22.1V1H32.1v28.1c0,7.8-4,11.8-10.6,11.8s-10.6-4.1-10.6-12.1V1H0.1v28
	C0.1,43.4,8.2,50.8,21.3,50.8z M78.2,50.7c10.6,0,18-5.5,18-15.2v-0.1c0-8.5-5.6-12.1-15.5-14.7c-8.5-2.2-10.6-3.2-10.6-6.4v-0.1
	c0-2.4,2.2-4.3,6.3-4.3c4.1,0,8.4,1.8,12.7,4.8l5.6-8.1c-5-4-11.1-6.2-18.2-6.2c-10,0-17.2,5.9-17.2,14.8v0.1
	c0,9.7,6.4,12.5,16.2,15c8.2,2.1,9.9,3.5,9.9,6.2v0.1c0,2.9-2.7,4.6-7.1,4.6c-5.6,0-10.2-2.3-14.6-6l-6.4,7.6
	C63.3,48.1,70.8,50.7,78.2,50.7z M112.6,50h37.3v-9.6h-26.6V30.1h23.1v-9.6h-23.1v-9.9h26.2V1h-37V50z M166.5,50h10.8V34.3h8.3h0.1
	L196.2,50h12.6l-12-17.5c6.2-2.3,10.5-7.3,10.5-15.2v-0.1c0-4.6-1.5-8.5-4.2-11.2c-3.2-3.2-8.1-5-14.3-5h-22.4V50z M177.3,24.8V10.7
	H188c5.2,0,8.5,2.4,8.5,7v0.1c0,4.1-3,6.9-8.3,6.9H177.3z M221.3,23.5c8.3-0.1,13-3.9,13-13.1V1h-11.3v11.2h4.3c0.3,4-2,6.4-6.9,6.9
	L221.3,23.5z M268.5,50.7c10.6,0,18-5.5,18-15.2v-0.1c0-8.5-5.6-12.1-15.5-14.7c-8.5-2.2-10.6-3.2-10.6-6.4v-0.1
	c0-2.4,2.2-4.3,6.3-4.3s8.4,1.8,12.7,4.8l5.6-8.1c-5-4-11.1-6.2-18.2-6.2c-10,0-17.2,5.9-17.2,14.8v0.1c0,9.7,6.4,12.5,16.2,15
	c8.2,2.1,9.9,3.5,9.9,6.2v0.1c0,2.9-2.7,4.6-7.1,4.6c-5.6,0-10.2-2.3-14.6-6l-6.4,7.6C253.6,48.1,261.1,50.7,268.5,50.7z
	 M52.6,127.3h9.5L81.9,78H70.3l-12.8,34.5L44.7,78H32.8L52.6,127.3z M117.1,127.8c15.1,0,26.1-11.4,26.1-25.3v-0.1
	c0-13.9-10.8-25.2-26-25.2s-26.1,11.4-26.1,25.3v0.1C91.1,116.6,102,127.8,117.1,127.8z M117.3,117.9c-8.7,0-14.8-7-14.8-15.4v-0.1
	c0-8.4,6-15.3,14.7-15.3s14.8,7,14.8,15.4v0.1C132,111,125.9,117.9,117.3,117.9z M160.3,127h10.8V78h-10.8V127z M213.3,127.8
	c9.4,0,15-3.4,20.1-8.8l-6.9-6.9c-3.9,3.5-7.3,5.7-12.9,5.7c-8.4,0-14.2-7-14.2-15.4v-0.1c0-8.4,5.9-15.3,14.2-15.3
	c4.9,0,8.8,2.1,12.5,5.5l6.9-7.9c-4.6-4.5-10.1-7.6-19.3-7.6c-15.1,0-25.6,11.4-25.6,25.3v0.1C188.1,116.7,198.8,127.8,213.3,127.8z
	 M249,127h37.3v-9.6h-26.6v-10.3h23.1v-9.6h-23.1v-9.9h26.2V78h-37V127z"/>
<path class="st0" d="M72,170.3h8V168h-5.6v-9H72V170.3z M83.5,170.3H92v-2.2h-6.1v-2.4h5.3v-2.2h-5.3v-2.3h6v-2.2h-8.4V170.3z
	 M94.8,170.3h2.5l1-2.5h4.7l1,2.5h2.6l-4.8-11.3h-2.3L94.8,170.3z M99.2,165.6l1.5-3.6l1.5,3.6H99.2z M110,170.3h2.4v-7.1l5.4,7.1
	h2.1v-11.2h-2.4v6.9l-5.2-6.9H110V170.3z M130.7,170.3h5.3c2.5,0,4.2-1,4.2-3.1v0c0-1.5-0.8-2.3-2.1-2.8c0.8-0.4,1.5-1.2,1.5-2.4v0
	c0-0.8-0.3-1.4-0.8-1.9c-0.6-0.6-1.6-1-2.9-1h-5.2V170.3z M133.1,163.6v-2.4h2.4c1,0,1.6,0.4,1.6,1.2v0c0,0.8-0.7,1.2-1.8,1.2H133.1
	z M133.1,168.1v-2.5h2.8c1.3,0,1.8,0.5,1.8,1.2v0c0,0.8-0.7,1.2-1.7,1.2H133.1z M149.3,170.5c3.5,0,6-2.6,6-5.8v0
	c0-3.2-2.5-5.8-5.9-5.8s-6,2.6-6,5.8v0C143.3,167.9,145.8,170.5,149.3,170.5z M149.3,168.2c-2,0-3.4-1.6-3.4-3.5v0
	c0-1.9,1.4-3.5,3.4-3.5s3.4,1.6,3.4,3.5v0C152.6,166.6,151.3,168.2,149.3,168.2z M159,170.3h4.4c3.5,0,6-2.4,6-5.6v0
	c0-3.2-2.4-5.6-6-5.6H159V170.3z M161.5,168.1v-6.8h1.9c2,0,3.4,1.4,3.4,3.4v0c0,2-1.4,3.3-3.4,3.3H161.5z M175.2,170.3h2.5v-4.5
	l4.3-6.7h-2.8l-2.7,4.5l-2.7-4.5h-2.9l4.3,6.8V170.3z M195,158.9c-0.5,0.1-0.8,0.2-1.8,0.2h-4.7c-0.9,0-1.2,0-1.8-0.1v2
	c0.6-0.1,0.9-0.1,1.8-0.1h5c-0.2,2.2-0.6,4.4-1,6.6H187c-1.1,0-1.5,0-2.1-0.1v2c0.6-0.1,0.9-0.1,2.1-0.1h9.7c1.1,0,1.5,0,2,0.1v-2
	c-0.6,0.1-1,0.1-2.1,0.1h-1.9c0.4-2.4,0.6-3.5,1-6.4c0.1-0.6,0.2-0.9,0.3-1.3L195,158.9z M202.5,165.3c0.6-0.1,0.8-0.1,2.6-0.1h8.5
	c1.8,0,2,0,2.6,0.1V163c-0.7,0.1-1,0.1-2.6,0.1h-8.5c-1.6,0-1.9,0-2.6-0.1V165.3z M224.7,160.5v-1.7c0-0.8,0-0.8,0.1-1.4h-2.1
	c0.1,0.4,0.1,0.6,0.1,1.4v1.6h-0.9c-1.2,0-1.5,0-2.1-0.1v2c0.5-0.1,0.8-0.1,2-0.1h1v2.4c0,0.9,0,1-0.1,1.4h2.1
	c0-0.4-0.1-0.6-0.1-1.3v-2.4h4.1c0,2.3-0.1,3-0.5,4c-0.7,1.6-2,2.6-4.3,3.2c0.7,0.7,0.9,1.1,1.2,1.7c2.3-0.8,3.9-2,4.8-3.7
	c0.6-1.3,0.8-2.3,0.8-5.2h1.1c1.3,0,1.5,0,2.1,0.1v-2c-0.6,0.1-0.9,0.1-2.1,0.1h-1c0-0.6,0-1.3,0-1.9c0-0.6,0-0.7,0-1.1h-2
	c0,0.4,0.1,0.7,0.1,1.6c0,0,0,0.2,0,0.4c0,0.1,0,0.5,0,0.9H224.7z M230.9,157c0.4,0.7,0.8,1.5,1.1,2.5l1.1-0.3
	c-0.3-0.9-0.6-1.7-1.1-2.5L230.9,157z M234.9,158.7c-0.3-1-0.7-1.7-1.1-2.4l-1,0.3c0.5,0.8,0.8,1.6,1.1,2.4L234.9,158.7z
	 M237.7,165.3c0.6-0.1,0.8-0.1,2.6-0.1h8.5c1.8,0,2,0,2.6,0.1V163c-0.7,0.1-1,0.1-2.6,0.1h-8.5c-1.6,0-1.9,0-2.6-0.1V165.3z
	 M263.4,160c0.7,0.1,1.1,0.2,1.6,0.5c1.3,0.8,2,2,2,3.6c0,1.7-0.8,3.2-2.2,4c-0.8,0.4-1.7,0.7-3.2,0.9c0.5,0.7,0.7,1,1,1.9
	c1.1-0.2,1.7-0.4,2.5-0.7c2.4-1,3.9-3.2,3.9-6c0-3.6-2.5-5.9-6.3-5.9c-2.3,0-4.2,0.8-5.5,2.2c-1.1,1.2-1.8,2.9-1.8,4.7
	c0,2.6,1.3,4.4,3.1,4.4c1.3,0,2.3-0.9,3.2-3C262.6,164.8,263.1,162.5,263.4,160z M261.5,160c-0.2,1.8-0.7,4-1.3,5.4
	c-0.6,1.4-1.1,2-1.6,2c-0.7,0-1.3-1-1.3-2.4c0-1.7,0.8-3.4,2.2-4.3C260.1,160.4,260.6,160.1,261.5,160z M278.8,158.2h-4
	c-0.9,0-1.5,0-1.9-0.1v1.7c0.5,0,1.1-0.1,1.9-0.1h4.1v1h-3.4c-0.8,0-1.3,0-1.7-0.1v1.6c0.5-0.1,1-0.1,1.7-0.1h8.9
	c0.7,0,1.2,0,1.7,0.1v-1.6c-0.4,0.1-0.8,0.1-1.7,0.1h-3.7v-1h4.5c0.8,0,1.3,0,1.9,0.1v-1.7c-0.4,0.1-1,0.1-1.9,0.1h-4.5v-0.1
	c0-0.6,0-0.9,0.1-1.3h-2c0.1,0.4,0.1,0.7,0.1,1.3V158.2z M283.8,167.5v0.8h1.9c-0.1-0.5-0.1-0.9-0.1-1.6v-2.3c0-0.7,0-1,0.1-1.4
	c-0.5,0-0.7,0.1-1.6,0.1h-8.4c-0.8,0-1.1,0-1.6-0.1c0,0.4,0.1,0.8,0.1,1.4c0,3.2-0.6,4.9-2,6.1c0.7,0.4,1.1,0.8,1.6,1.3
	c1.1-1.2,1.6-2.3,2-4.2H283.8z M275.8,166c0-0.5,0.1-0.9,0.1-1.6h3v1.6H275.8z M280.6,166v-1.6h3.2v1.6H280.6z"/>
</svg>
