<?xml version="1.0" encoding="utf-8"?>
<!-- Generator: Adobe Illustrator 24.0.1, SVG Export Plug-In . SVG Version: 6.00 Build 0)  -->
<svg version="1.1" id="レイヤー_1" xmlns="http://www.w3.org/2000/svg" xmlns:xlink="http://www.w3.org/1999/xlink" x="0px"
	 y="0px" viewBox="0 0 483 146" style="enable-background:new 0 0 483 146;" xml:space="preserve">
<style type="text/css">
	.st0{opacity:0.5;fill:#FFFFFF;enable-background:new    ;}
</style>
<path class="st0" d="M29.1,57.9c15,0,24.6-8.3,24.6-25.3V1H41.3v32.1c0,8.9-4.6,13.4-12.1,13.4s-12.1-4.7-12.1-13.8V1H4.8v32
	C4.8,49.5,14,57.9,29.1,57.9z M94.1,57.8c12.1,0,20.6-6.2,20.6-17.4v-0.2c0-9.8-6.4-13.8-17.8-16.8c-9.7-2.5-12.1-3.7-12.1-7.4V16
	c0-2.7,2.5-4.9,7.2-4.9s9.6,2.1,14.6,5.5l6.4-9.3c-5.7-4.6-12.6-7.1-20.8-7.1c-11.4,0-19.6,6.7-19.6,16.9v0.2
	c0,11.1,7.3,14.2,18.6,17.1c9.4,2.4,11.3,4,11.3,7.1v0.2c0,3.3-3,5.3-8.1,5.3c-6.4,0-11.7-2.6-16.7-6.8l-7.3,8.7
	C77.1,54.8,85.6,57.8,94.1,57.8z M133.4,57H176V46h-30.4V34.3H172v-11h-26.4V12h30V1h-42.2V57z M195,57h12.3V39.1h9.5h0.2L229,57
	h14.4l-13.7-20c7.1-2.6,12-8.3,12-17.4v-0.2c0-5.3-1.7-9.7-4.8-12.8C233.2,3,227.7,1,220.6,1H195V57z M207.3,28.2V12.1h12.2
	c6,0,9.7,2.7,9.7,8v0.2c0,4.7-3.4,7.9-9.4,7.9H207.3z M257.6,26.8c9.5-0.2,14.8-4.4,14.8-15V1h-13v12.8h5c0.4,4.6-2.3,7.4-7.8,7.9
	L257.6,26.8z M311.6,57.8c12.1,0,20.6-6.2,20.6-17.4v-0.2c0-9.8-6.4-13.8-17.8-16.8c-9.7-2.5-12.1-3.7-12.1-7.4V16
	c0-2.7,2.5-4.9,7.2-4.9c4.7,0,9.6,2.1,14.6,5.5l6.4-9.3c-5.7-4.6-12.6-7.1-20.8-7.1c-11.4,0-19.6,6.7-19.6,16.9v0.2
	c0,11.1,7.3,14.2,18.6,17.1c9.4,2.4,11.3,4,11.3,7.1v0.2c0,3.3-3,5.3-8.1,5.3c-6.4,0-11.7-2.6-16.7-6.8l-7.3,8.7
	C294.5,54.8,303.1,57.8,311.6,57.8z M23.6,145.4h10.9L57.1,89H43.8l-14.6,39.4L14.5,89H0.9L23.6,145.4z M97.3,146
	c17.3,0,29.8-13,29.8-29v-0.2c0-15.9-12.4-28.8-29.7-28.8c-17.3,0-29.8,13-29.8,29v0.2C67.6,133.1,80,146,97.3,146z M97.5,134.6
	c-9.9,0-17-8-17-17.6v-0.2c0-9.6,6.9-17.4,16.8-17.4c9.9,0,17,8,17,17.6v0.2C114.3,126.8,107.4,134.6,97.5,134.6z M146.7,145H159V89
	h-12.3V145z M207.2,146c10.8,0,17.2-3.8,23-10l-7.8-7.9c-4.4,4-8.3,6.6-14.7,6.6c-9.6,0-16.2-8-16.2-17.6v-0.2
	c0-9.6,6.8-17.4,16.2-17.4c5.6,0,10,2.4,14.3,6.3l7.8-9c-5.2-5.1-11.5-8.6-22.1-8.6c-17.2,0-29.2,13-29.2,29v0.2
	C178.5,133.2,190.7,146,207.2,146z M248,145h42.6v-11h-30.4v-11.8h26.4v-11h-26.4V100h30V89H248V145z"/>
<path class="st0" d="M318.5,109.8h12.1v-3.4h-8.4V93h-3.7V109.8z M335.8,109.8h12.8v-3.3h-9.1V103h7.9v-3.3h-7.9v-3.4h9V93h-12.7
	V109.8z M352.8,109.8h3.8l1.5-3.8h7.1l1.5,3.8h3.9l-7.2-16.9H360L352.8,109.8z M359.4,102.8l2.2-5.4l2.2,5.4H359.4z M375.6,109.8
	h3.6V99.1l8.1,10.7h3.1V93h-3.6v10.3L379,93h-3.4V109.8z M406.6,109.8h8c3.8,0,6.3-1.5,6.3-4.6v0c0-2.3-1.2-3.4-3.1-4.1
	c1.2-0.7,2.2-1.7,2.2-3.6v0c0-1.2-0.4-2.1-1.2-2.9c-1-1-2.5-1.5-4.4-1.5h-7.8V109.8z M410.2,99.8v-3.6h3.6c1.6,0,2.4,0.6,2.4,1.7v0
	c0,1.2-1,1.8-2.7,1.8H410.2z M410.2,106.6v-3.7h4.3c1.9,0,2.7,0.7,2.7,1.8v0c0,1.2-1,1.8-2.6,1.8H410.2z M434.5,110.1
	c5.2,0,9-3.9,9-8.7v0c0-4.8-3.7-8.6-8.9-8.6c-5.2,0-9,3.9-9,8.7v0C425.5,106.2,429.3,110.1,434.5,110.1z M434.5,106.7
	c-3,0-5.1-2.4-5.1-5.3v0c0-2.9,2.1-5.2,5-5.2c3,0,5.1,2.4,5.1,5.3v0C439.5,104.3,437.5,106.7,434.5,106.7z M449.1,109.8h6.6
	c5.3,0,8.9-3.7,8.9-8.4v0c0-4.7-3.6-8.4-8.9-8.4h-6.6V109.8z M452.8,106.5V96.4h2.9c3,0,5.1,2.1,5.1,5.1v0c0,3-2,5-5.1,5H452.8z
	 M473.4,109.8h3.7v-6.7l6.5-10.1h-4.2l-4.1,6.7l-4-6.7H467l6.5,10.2V109.8z M333.3,126.8c-0.7,0.2-1.2,0.2-2.7,0.2h-7
	c-1.3,0-1.8,0-2.7-0.2v3c0.8-0.1,1.3-0.1,2.7-0.1h7.5c-0.3,3.3-0.8,6.7-1.5,9.8h-8.4c-1.7,0-2.2,0-3.1-0.2v3
	c0.9-0.1,1.4-0.1,3.1-0.1h14.5c1.7,0,2.2,0,3.1,0.1v-3c-0.9,0.1-1.4,0.2-3.1,0.2h-2.8c0.6-3.6,0.9-5.3,1.5-9.6
	c0.1-0.9,0.2-1.4,0.5-2L333.3,126.8z M344.6,136.3c1-0.1,1.2-0.1,3.9-0.1h12.7c2.7,0,3,0,3.9,0.1v-3.3c-1.1,0.1-1.5,0.2-3.9,0.2
	h-12.8c-2.4,0-2.8,0-3.9-0.2V136.3z M377.9,129.2v-2.5c0-1.2,0-1.2,0.1-2h-3.1c0.1,0.6,0.1,0.9,0.1,2.1v2.4h-1.4
	c-1.8,0-2.3,0-3.1-0.2v2.9c0.8-0.1,1.2-0.1,3.1-0.1h1.5v3.5c0,1.3,0,1.6-0.1,2.1h3.1c-0.1-0.6-0.1-0.9-0.1-2v-3.6h6.2
	c0,3.4-0.2,4.6-0.8,6c-1,2.3-3,3.8-6.5,4.8c1,1,1.4,1.6,1.8,2.5c3.5-1.2,5.8-3,7.1-5.6c0.9-1.9,1.1-3.4,1.2-7.8h1.6
	c1.9,0,2.3,0,3.1,0.1V129c-0.9,0.1-1.3,0.2-3.1,0.2H387c0-1,0-1.9,0-2.8c0-0.8,0-1,0.1-1.6h-3.1c0.1,0.6,0.1,1.1,0.1,2.4
	c0,0,0,0.3,0,0.6c0,0.2,0,0.8,0,1.4H377.9z M387.1,123.9c0.7,1.1,1.2,2.2,1.6,3.8l1.7-0.5c-0.4-1.4-0.9-2.6-1.7-3.7L387.1,123.9z
	 M393.2,126.4c-0.5-1.5-1-2.6-1.6-3.6l-1.5,0.5c0.7,1.2,1.3,2.4,1.6,3.6L393.2,126.4z M397.4,136.3c1-0.1,1.2-0.1,3.9-0.1h12.7
	c2.7,0,3,0,3.9,0.1v-3.3c-1.1,0.1-1.5,0.2-3.9,0.2h-12.8c-2.4,0-2.8,0-3.9-0.2V136.3z M436,128.4c1.1,0.1,1.7,0.3,2.4,0.7
	c1.9,1.2,3,3,3,5.3c0,2.6-1.2,4.8-3.3,6c-1.1,0.6-2.6,1-4.8,1.3c0.8,1,1.1,1.5,1.5,2.8c1.7-0.3,2.6-0.5,3.8-1c3.7-1.5,5.8-4.8,5.8-9
	c0-5.4-3.7-8.9-9.5-8.9c-3.4,0-6.2,1.2-8.3,3.4c-1.7,1.9-2.6,4.3-2.6,7c0,3.9,2,6.6,4.7,6.6c2,0,3.5-1.4,4.9-4.5
	C434.7,135.5,435.5,132.2,436,128.4z M433,128.5c-0.3,2.7-1.1,6-2,8.1c-0.9,2.1-1.7,3.1-2.5,3.1c-1.1,0-1.9-1.6-1.9-3.5
	c0-2.6,1.2-5,3.3-6.5C430.9,128.9,431.8,128.6,433,128.5z M459,125.6h-6c-1.3,0-2.3,0-2.9-0.1v2.5c0.8-0.1,1.6-0.1,2.8-0.1h6.1v1.5
	h-5.1c-1.2,0-2,0-2.5-0.1v2.4c0.8-0.1,1.4-0.1,2.5-0.1h13.4c1.1,0,1.8,0,2.6,0.1v-2.4c-0.6,0.1-1.3,0.1-2.5,0.1h-5.6v-1.5h6.8
	c1.2,0,2,0,2.8,0.1v-2.5c-0.6,0.1-1.6,0.1-2.9,0.1h-6.7v-0.2c0-0.9,0-1.4,0.1-1.9h-3c0.1,0.6,0.1,1,0.1,1.9V125.6z M466.6,139.7v1.3
	h2.8c-0.1-0.7-0.1-1.3-0.1-2.5V135c0-1,0-1.6,0.1-2.2c-0.8,0.1-1.1,0.1-2.4,0.1h-12.6c-1.3,0-1.6,0-2.4-0.1c0.1,0.6,0.1,1.1,0.1,2.2
	c0,4.7-0.9,7.3-3,9.1c1,0.6,1.7,1.1,2.4,1.9c1.7-1.8,2.5-3.5,3-6.3H466.6z M454.6,137.5c0.1-0.8,0.1-1.3,0.1-2.4h4.5v2.4H454.6z
	 M461.8,137.5v-2.4h4.8v2.4H461.8z"/>
</svg>
